<?xml version="1.0" standalone="no"?>
<!DOCTYPE svg PUBLIC "-//W3C//DTD SVG 1.1//EN" "http://www.w3.org/Graphics/SVG/1.1/DTD/svg11.dtd" >
<svg xmlns="http://www.w3.org/2000/svg" xmlns:xlink="http://www.w3.org/1999/xlink" version="1.1">
<metadata>
Created by FontForge 20201107 at Thu Apr 14 20:26:05 2022
 By 
Copyright 2021 The Spline Sans Project Authors (https://github.com/SorkinType/SplineSans)
</metadata>
<defs>
<font id="SplineSans-Light" horiz-adv-x="0" >
  <font-face 
    font-family="Spline Sans Light"
    font-weight="300"
    font-stretch="normal"
    units-per-em="2000"
    panose-1="0 0 0 0 0 0 0 0 0 0"
    ascent="1600"
    descent="-400"
    x-height="1091"
    cap-height="1454"
    bbox="-118 -474 2104 1977"
    underline-thickness="50"
    underline-position="-125"
    unicode-range="U+000D-FB02"
  />
<missing-glyph horiz-adv-x="1643" 
d="M280 -241v1769h1083v-1769h-1083zM390 -129h863v1557h-863v-1557z" />
    <glyph glyph-name="fi" unicode="fi" horiz-adv-x="1264" 
d="M229 0v878q0 32 13 61t38 37l-51 71v174q0 128 47.5 212.5t129 126t182.5 41.5q55 0 88 -3t57 -6v-119q-22 10 -54 11t-79 1q-71 0 -128 -24.5t-90 -88.5t-33 -181v-1191h-120zM46 976v115h580v-115h-580zM924 0v1074h121v-1074h-121zM985 1261q-41 0 -70.5 29t-29.5 75
q0 45 29.5 74t70.5 29t70 -29t29 -74q0 -46 -29 -75t-70 -29z" />
    <glyph glyph-name="fl" unicode="fl" horiz-adv-x="1195" 
d="M229 0v878q0 32 13 61t38 37l-51 71v174q0 128 47.5 212.5t129 126t182.5 41.5q55 0 88 -3t57 -6v-119q-22 10 -54 11t-79 1q-71 0 -128 -24.5t-90 -88.5t-33 -181v-1191h-120zM46 976v115h580v-115h-580zM894 0v1555h121v-1555h-121z" />
    <glyph glyph-name=".notdef" horiz-adv-x="1643" 
d="M280 -241v1769h1083v-1769h-1083zM390 -129h863v1557h-863v-1557z" />
    <glyph glyph-name=".null" 
 />
    <glyph glyph-name="nonmarkingreturn" horiz-adv-x="666" 
 />
    <glyph glyph-name="CR" unicode="&#xd;" horiz-adv-x="1200" 
 />
    <glyph glyph-name="space" unicode=" " horiz-adv-x="330" 
 />
    <glyph glyph-name="exclam" unicode="!" horiz-adv-x="562" 
d="M236 438l-24 653l-12 389h162l-12 -389l-24 -653h-90zM281 -15q-41 0 -70.5 29t-29.5 75q0 45 29.5 74t70.5 29t70.5 -29t29.5 -74q0 -46 -29.5 -75t-70.5 -29z" />
    <glyph glyph-name="quotedbl" unicode="&#x22;" horiz-adv-x="929" 
d="M120 767l81 755h150l-130 -755h-101zM553 767l81 755h150l-130 -755h-101z" />
    <glyph glyph-name="numbersign" unicode="#" horiz-adv-x="1087" 
d="M557 20l310 1404h130l-310 -1404h-130zM10 353v120h994v-120h-994zM90 20l310 1404h130l-310 -1404h-130zM83 941v120h994v-120h-994z" />
    <glyph glyph-name="dollar" unicode="$" horiz-adv-x="1116" 
d="M511 -164v186h125v-186h-125zM521 1430v186h125v-186h-125zM589 2q-140 0 -249.5 48t-172.5 142.5t-63 233.5h124q0 -108 49 -176t130.5 -100.5t179.5 -32.5q115 0 188.5 38t109 99t35.5 130q0 91 -51.5 142t-133.5 84t-176 68q-115 44 -205.5 96t-143 128t-52.5 191
t53 195.5t148.5 123.5t221.5 43q121 0 211.5 -41t145.5 -124.5t70 -209.5h-124q-8 64 -37 123.5t-93.5 98t-181.5 38.5q-138 0 -215.5 -61t-77.5 -186q0 -81 35.5 -133t108 -90.5t183.5 -82.5q87 -34 165.5 -66t139.5 -74.5t96 -105.5t35 -159q0 -116 -54.5 -201.5
t-156 -132t-242.5 -46.5z" />
    <glyph glyph-name="percent" unicode="%" horiz-adv-x="1793" 
d="M457 0l744 1454h133l-744 -1454h-133zM453 829q80 0 141.5 61.5t61.5 203.5q0 134 -60 198t-146 64q-80 0 -141 -64.5t-61 -197.5q0 -139 61.5 -202t143.5 -63zM450 720q-148 0 -237.5 96t-89.5 279q0 115 43 198t118 127.5t169 44.5q153 0 240.5 -98.5t87.5 -271.5
q0 -122 -44 -205.5t-118.5 -126.5t-168.5 -43zM1342 98q80 0 141.5 61.5t61.5 203.5q0 134 -60 198t-146 64q-80 0 -141 -64.5t-61 -197.5q0 -139 61.5 -202t143.5 -63zM1339 -11q-148 0 -237.5 96t-89.5 279q0 115 43 198t118 127.5t169 44.5q153 0 240.5 -98.5
t87.5 -271.5q0 -122 -44 -205.5t-118.5 -126.5t-168.5 -43z" />
    <glyph glyph-name="ampersand" unicode="&#x26;" horiz-adv-x="1327" 
d="M603 -19q-101 0 -191 28t-159 79.5t-108.5 124t-39.5 161.5q0 71 23.5 132.5t70.5 110t118.5 80t166.5 42.5l96 16q104 28 162.5 89.5t82 138.5t23.5 151t-26.5 124t-77.5 75.5t-123 25.5q-71 0 -122 -25t-78.5 -76.5t-27.5 -130.5q0 -52 15 -99t52.5 -99.5t102.5 -123.5
l39 -43l411 -455l51 -57l228 -251h-170l-134 152l-49 56l-453 512l-38 38q-66 71 -107 136t-60 126t-19 119q0 103 48 179.5t129.5 119t182.5 42.5q106 0 186 -41.5t125 -116t45 -173.5q0 -90 -40.5 -168.5t-122 -139t-203.5 -98.5l-105 -22q-102 -27 -161.5 -79t-85 -120.5
t-25.5 -145.5q0 -89 51 -150t138 -92.5t194 -31.5q59 0 120.5 10t115.5 39t88 86l45 66q25 46 39 91t20.5 104t5.5 145l127 1q0 -86 -11.5 -159.5t-37.5 -140t-68 -131.5l-42 -52q-67 -86 -167.5 -132.5t-249.5 -46.5z" />
    <glyph glyph-name="quotesingle" unicode="'" horiz-adv-x="496" 
d="M120 767l81 755h150l-130 -755h-101z" />
    <glyph glyph-name="parenleft" unicode="(" horiz-adv-x="746" 
d="M416 -190q-155 179 -238 410.5t-83 487.5q0 257 83 488.5t238 409.5h119q-155 -197 -236 -426t-81 -472q0 -244 81.5 -471t235.5 -427h-119z" />
    <glyph glyph-name="parenright" unicode=")" horiz-adv-x="746" 
d="M330 -190h-119q155 200 236 427t81 471q0 243 -81 472t-236 426h119q155 -178 238 -409.5t83 -488.5q0 -256 -83 -487.5t-238 -410.5z" />
    <glyph glyph-name="asterisk" unicode="*" horiz-adv-x="1012" 
d="M429 853l40 303l-242 -187l-77 133l285 117l-284 118l76 132l247 -187l-35 304h142l-43 -304l246 187l76 -132l-280 -118l282 -118l-76 -132l-242 187l39 -303h-154z" />
    <glyph glyph-name="plus" unicode="+" horiz-adv-x="940" 
d="M408 360v200q0 32 9.5 53t31.5 28l-41 32v83v277h125v-673h-125zM150 641v116h640v-116h-640z" />
    <glyph glyph-name="comma" unicode="," horiz-adv-x="488" 
d="M116 -416q18 57 33.5 128t25 151.5t9.5 164.5v152h147v-124q0 -88 -15 -169.5t-39.5 -156.5t-51.5 -146h-109z" />
    <glyph glyph-name="hyphen" unicode="-" horiz-adv-x="804" 
d="M150 645v112h504l-3 -112h-501z" />
    <glyph glyph-name="period" unicode="." horiz-adv-x="360" 
d="M180 -15q-41 0 -70.5 29t-29.5 75q0 45 29.5 74t70.5 29t70.5 -29t29.5 -74q0 -46 -29.5 -75t-70.5 -29z" />
    <glyph glyph-name="slash" unicode="/" horiz-adv-x="646" 
d="M40 -100l442 1686h124l-442 -1686h-124z" />
    <glyph glyph-name="zero" unicode="0" horiz-adv-x="1194" 
d="M599 -30q-160 0 -269 86.5t-164.5 257t-55.5 422.5q0 240 55.5 406.5t164.5 253.5t269 87t267.5 -87t162.5 -253.5t55 -406.5q0 -252 -55 -422.5t-162.5 -257t-267.5 -86.5zM599 90q111 0 190.5 66t122 208t42.5 370q0 221 -42.5 359.5t-122 204t-190.5 65.5
q-110 0 -191 -65.5t-124.5 -204t-43.5 -359.5q0 -228 43.5 -370t124 -208t191.5 -66z" />
    <glyph glyph-name="one" unicode="1" horiz-adv-x="737" 
d="M387 0v1343l25 111h105v-1454h-130zM85 1204v129q47 0 101 1t105 14q47 13 76.5 45t44.5 61l-25 -111q-3 -32 -28 -65t-71 -51q-40 -16 -87.5 -19.5t-115.5 -3.5z" />
    <glyph glyph-name="two" unicode="2" horiz-adv-x="1060" 
d="M75 0q43 55 100.5 124t121 142.5t122.5 140.5t105 117q85 93 155 183t112.5 179.5t42.5 180.5q0 134 -70.5 214.5t-225.5 80.5q-95 0 -170 -32.5t-116 -113.5t-36 -227h-124q-10 181 49.5 289.5t166 157t237.5 48.5q128 0 221 -51.5t144 -140.5t51 -204q0 -123 -48 -231
t-125 -206.5t-164 -194.5q-70 -78 -138.5 -155t-118.5 -134.5t-67 -76.5q25 17 50.5 24.5t55.5 7.5h574v-122h-905z" />
    <glyph glyph-name="three" unicode="3" horiz-adv-x="1110" 
d="M543 -30q-106 0 -194.5 31t-152.5 90.5t-98.5 147.5t-33.5 202h129q6 -176 96.5 -263.5t259.5 -85.5q108 2 184 39t116.5 102t40.5 147q0 166 -95 240.5t-259 74.5h-148v118h155q86 0 152.5 39t104.5 103t38 140q0 123 -73 194.5t-222 72.5q-142 1 -224 -82t-72 -243
h-130q-5 150 51 249t154.5 148.5t221.5 49.5q192 0 306.5 -103t114.5 -281q0 -75 -26 -147t-87 -123.5t-165 -68.5q170 -17 251 -118.5t81 -259.5q0 -130 -63.5 -222.5t-171 -141.5t-241.5 -49z" />
    <glyph glyph-name="four" unicode="4" horiz-adv-x="1070" 
d="M713 0l-2 337h-711l666 1117h171l-4 -4l3 -997h184v-116h-184l1 -337h-124zM177 422q20 15 42 23t41 8h513q-34 0 -47.5 23.5t-13.5 54.5l-2 580l8 219l-116 -219l-356 -597z" />
    <glyph glyph-name="five" unicode="5" horiz-adv-x="1095" 
d="M550 -30q-153 0 -263 59t-165.5 156.5t-45.5 212.5h128q-2 -78 31.5 -149t111 -116t206.5 -45q106 0 183.5 43.5t120 124t42.5 190.5q0 183 -84.5 271.5t-257.5 88.5q-123 0 -205 -46.5t-138 -113.5l-113 44l93 764h750v-122h-641l-90 -611q16 35 34 63.5t44 50.5
q50 43 125 67t162 24q81 0 160.5 -22t145.5 -75.5t105.5 -145.5t39.5 -233q0 -136 -57.5 -244.5t-164.5 -172t-257 -63.5z" />
    <glyph glyph-name="six" unicode="6" horiz-adv-x="1082" 
d="M543 -30q-121 0 -226.5 62t-171 190.5t-65.5 328.5q0 159 48 297.5t122 254t154.5 204.5t144.5 147h207q-61 -49 -133 -114t-143.5 -144t-131.5 -169t-96.5 -189.5t-38.5 -205.5l-19 -8q15 85 53 145.5t92.5 99t117 57t125.5 18.5q135 0 231.5 -56.5t148.5 -161
t52 -249.5q0 -133 -41.5 -229.5t-110 -157.5t-152 -90.5t-167.5 -29.5zM554 92q87 0 162.5 39t122 124.5t45.5 222.5q-1 169 -83 256.5t-217 87.5q-106 0 -178.5 -31.5t-117.5 -76.5t-70 -86q-4 -8 -7 -28t-3 -43q0 -118 23.5 -205.5t68.5 -145t109 -86t145 -28.5z" />
    <glyph glyph-name="seven" unicode="7" horiz-adv-x="1004" 
d="M258 0l478 1209q17 44 37 74.5t48 46.5t69 16v-14h-850v122h828h94l-567 -1454h-137z" />
    <glyph glyph-name="eight" unicode="8" horiz-adv-x="1136" 
d="M568 -30q-125 0 -234 46.5t-176.5 138.5t-67.5 227q0 153 83.5 254t258.5 121q-102 16 -165.5 69t-92.5 125t-29 144q0 183 115 286t308 103q194 0 308.5 -103.5t114.5 -285.5q0 -72 -29 -144.5t-92 -125.5t-164 -70q170 -19 255 -120t85 -253q0 -135 -68 -227
t-177 -138.5t-233 -46.5zM568 92q161 0 254.5 80t93.5 208q0 143 -95.5 227.5t-252.5 84.5t-252.5 -83t-95.5 -229q0 -128 92.5 -208t255.5 -80zM568 813q86 0 152.5 39t105 102t38.5 136q0 127 -73 199.5t-223 72.5q-146 0 -221 -72.5t-75 -199.5q0 -73 34 -136t100 -102
t162 -39z" />
    <glyph glyph-name="nine" unicode="9" horiz-adv-x="1082" 
d="M326 0q59 49 131.5 115t145 146t133 172t97 194t36.5 211l20 -6q-15 -84 -52.5 -144.5t-90.5 -100t-115.5 -58.5t-128.5 -19q-128 0 -225.5 60t-152.5 168.5t-56 252.5q0 128 41 221.5t109 153.5t151 89t167 29q131 0 236.5 -62.5t167.5 -193t62 -335.5
q0 -155 -48 -291.5t-122 -251t-154.5 -203t-144.5 -147.5h-207zM520 632q100 0 167.5 31.5t110 77t66.5 85.5q5 8 7.5 33.5t2.5 47.5q0 153 -41.5 254t-119 151t-186.5 50q-88 0 -163 -40t-120.5 -122t-45.5 -210q1 -169 86 -263.5t236 -94.5z" />
    <glyph glyph-name="colon" unicode=":" horiz-adv-x="546" 
d="M273 735q-41 0 -70.5 29t-29.5 75q0 45 29.5 74t70.5 29t70.5 -29t29.5 -74q0 -46 -29.5 -75t-70.5 -29zM273 -15q-41 0 -70.5 29t-29.5 75q0 45 29.5 74t70.5 29t70.5 -29t29.5 -74q0 -46 -29.5 -75t-70.5 -29z" />
    <glyph glyph-name="semicolon" unicode=";" horiz-adv-x="444" 
d="M264 735q-41 0 -70.5 29t-29.5 75q0 45 29.5 74t70.5 29t70.5 -29t29.5 -74q0 -46 -29.5 -75t-70.5 -29zM116 -416q18 57 33.5 128t25 151.5t9.5 164.5v152h147v-124q0 -88 -15 -169.5t-39.5 -156.5t-51.5 -146h-109z" />
    <glyph glyph-name="less" unicode="&#x3c;" horiz-adv-x="860" 
d="M665 371l-600 270v116l600 270v-113l-300 -138l-176 -75v-4l176 -76l300 -137v-113z" />
    <glyph glyph-name="equal" unicode="=" horiz-adv-x="960" 
d="M180 822v112h600v-112h-600zM180 490v112h600v-112h-600z" />
    <glyph glyph-name="greater" unicode="&#x3e;" horiz-adv-x="945" 
d="M195 371v113l300 137l176 76v4l-176 75l-300 138v113l600 -270v-116z" />
    <glyph glyph-name="question" unicode="?" horiz-adv-x="1008" 
d="M440 408q-5 18 -9 55t-4 69q0 88 37 143.5t91.5 96t109 79t91.5 90.5t37 133q0 131 -62 210t-213 79q-181 0 -256 -101.5t-60 -263.5l-129 1q-13 131 26 241t141 176t278 66q152 0 240.5 -58.5t126.5 -151.5t38 -196t-38.5 -170.5t-95 -114.5t-113.5 -86t-95.5 -83.5
t-38.5 -108.5q0 -32 2.5 -68.5l2.5 -36.5h-107zM496 -15q-41 0 -70.5 29t-29.5 75q0 45 29.5 74t70.5 29t70.5 -29t29.5 -74q0 -46 -29.5 -75t-70.5 -29z" />
    <glyph glyph-name="at" unicode="@" horiz-adv-x="1745" 
d="M877 -157q-227 0 -395 97.5t-260 274t-92 411.5q0 177 58 329.5t163.5 267t250 178.5t317.5 64q211 0 367.5 -85.5t242.5 -239t86 -357.5q0 -152 -49 -284.5t-140 -214t-217 -81.5q-91 0 -132.5 64t-41.5 167q0 34 4.5 63.5t7.5 42.5h-7q-19 -78 -43 -139t-57 -103.5
t-77 -64.5t-103 -22q-64 0 -121.5 42t-94 128.5t-36.5 218.5q0 76 24 159.5t75 156t131.5 118t192.5 45.5q51 0 99 -12.5t76 -33.5h98q-6 -47 -14 -114t-16.5 -140t-16 -139t-12 -112.5t-4.5 -59.5q0 -73 18.5 -109t79.5 -36q48 0 107.5 52t103 152.5t43.5 245.5
q0 275 -149 429t-418 154q-203 0 -355 -97t-235.5 -265t-83.5 -380q0 -204 78.5 -352.5t222 -229t338.5 -80.5q92 0 160 12.5t116.5 30.5t80.5 36l5 -108q-50 -34 -137 -57t-239 -23zM798 329q59 0 108 54t85 140t56 185t20 188q-13 26 -53.5 46.5t-102.5 20.5
q-66 0 -129.5 -43.5t-104.5 -122t-41 -184.5q0 -125 26 -185.5t63.5 -79.5t72.5 -19z" />
    <glyph glyph-name="A" unicode="A" horiz-adv-x="1245" 
d="M35 0l486 1454h204l485 -1454h-133l-148 446l72 -54h-782l62 118h681l-40 -43l-224 674l-76 226h-1l-74 -226l-379 -1141h-133z" />
    <glyph glyph-name="B" unicode="B" horiz-adv-x="1253" 
d="M180 0v1454h476q158 0 258 -48t147.5 -130t47.5 -185q0 -130 -72.5 -212.5t-191.5 -105.5q82 -1 154.5 -37.5t118 -109t45.5 -181.5q0 -163 -65 -261t-176 -141t-250 -43h-492zM305 118h351q200 0 288.5 78t88.5 235q0 106 -43.5 164.5t-121.5 82t-180 23.5h-383v-583z
M305 818h365q72 0 143 24t118.5 82.5t47.5 159.5q1 114 -70 183t-239 69h-365v-518z" />
    <glyph glyph-name="C" unicode="C" horiz-adv-x="1358" 
d="M739 -21q-195 0 -342.5 92t-229.5 261t-82 399q0 224 80.5 392.5t228 263t347.5 94.5q154 0 272.5 -61t187.5 -171.5t74 -259.5h-128q-4 111 -58 195.5t-145.5 132.5t-207.5 48q-162 0 -279 -78t-179.5 -219.5t-62.5 -334.5q0 -206 66.5 -348.5t184.5 -216t271 -73.5
q109 0 201.5 49t150 130t60.5 176h125q-10 -141 -82 -247t-189 -165t-264 -59z" />
    <glyph glyph-name="D" unicode="D" horiz-adv-x="1319" 
d="M280 0l1 119h255q188 0 313 78t187.5 216.5t62.5 320.5q0 191 -62.5 325.5t-187.5 205t-314 70.5h-263v119h280q198 0 351 -76.5t239.5 -235.5t86.5 -406q0 -241 -86.5 -405t-239 -247.5t-350.5 -83.5h-273zM180 0v1454h125v-1454h-125z" />
    <glyph glyph-name="E" unicode="E" horiz-adv-x="1149" 
d="M180 0v1454h874v-118h-798l49 51v-598l-49 29h746v-116h-746l49 27v-671l-49 61h818v-119h-894z" />
    <glyph glyph-name="F" unicode="F" horiz-adv-x="1082" 
d="M180 0v1454h832v-118h-748l41 54v-596l-31 23h676v-116h-675l30 22v-723h-125z" />
    <glyph glyph-name="G" unicode="G" horiz-adv-x="1450" 
d="M787 -20q-207 0 -359.5 92t-235.5 260.5t-83 398.5t82 398.5t230.5 260t345.5 91.5q134 0 247 -47.5t188.5 -144t97.5 -242.5h-133q-7 45 -36 99.5t-80.5 104.5t-126 82t-172.5 32q-94 0 -185.5 -40t-165.5 -119.5t-118 -198t-44 -276.5q0 -215 78.5 -356t203.5 -210
t265 -69q60 0 137.5 16t149 45.5t110.5 69.5l2 384h-355v119h480l-2 -565q-106 -82 -237 -133.5t-284 -51.5z" />
    <glyph glyph-name="H" unicode="H" horiz-adv-x="1368" 
d="M1063 0v1454h125v-1454h-125zM180 0v1454h125v-1454h-125zM278 686v118h816l-3 -118h-813z" />
    <glyph glyph-name="I" unicode="I" horiz-adv-x="502" 
d="M188 0v1454h126v-1454h-126z" />
    <glyph glyph-name="J" unicode="J" horiz-adv-x="1029" 
d="M473 -30q-132 0 -227.5 52.5t-147.5 148.5t-56 224h126q5 -131 85 -218.5t231 -87.5q99 0 162.5 40.5t94 119t30.5 192.5v1013h126v-993q0 -174 -54 -282t-149.5 -158.5t-220.5 -50.5z" />
    <glyph glyph-name="K" unicode="K" horiz-adv-x="1168" 
d="M301 436l-32 115l266 330l443 573h150l-521 -666l-47 -54zM180 0v1454h125v-1454h-125zM1001 0l-490 779l88 85l559 -864h-157z" />
    <glyph glyph-name="L" unicode="L" horiz-adv-x="1054" 
d="M180 0v1454h125v-1396l-82 62h751v-120h-794z" />
    <glyph glyph-name="M" unicode="M" horiz-adv-x="1669" 
d="M180 0v1454h225l327 -884l105 -380h3l103 380l321 884h225v-1454h-125v849l10 525h-7l-186 -511l-290 -863h-100l-302 863l-187 511h-7l10 -525v-849h-125z" />
    <glyph glyph-name="N" unicode="N" horiz-adv-x="1374" 
d="M180 0v1454h195l498 -952l208 -423h7l-19 423v952h125v-1454h-195l-496 950l-208 425h-8l18 -425v-950h-125z" />
    <glyph glyph-name="O" unicode="O" horiz-adv-x="1493" 
d="M745 -30q-175 0 -319.5 88t-230.5 259t-86 419q0 240 86.5 407t231.5 253.5t319 86.5q177 0 321.5 -86.5t230.5 -253.5t86 -407q0 -248 -86.5 -419t-231.5 -259t-321 -88zM745 87q135 0 251 69t187 212t71 366q0 211 -71.5 351.5t-187.5 210.5t-249 70q-129 0 -245 -70
t-189 -210.5t-73 -351.5q0 -167 43 -289t115.5 -201.5t162.5 -118t185 -38.5z" />
    <glyph glyph-name="P" unicode="P" horiz-adv-x="1147" 
d="M382 574q-38 0 -58 16.5t-20 36.5l-69 29l70 35h317q95 0 163.5 44.5t105 120.5t36.5 171q0 142 -82.5 225.5t-237.5 83.5h-308l-86 118h121.5h146.5h110q222 0 344 -106t122 -300q0 -108 -33 -195t-94.5 -149.5t-147 -96t-191.5 -33.5h-209zM180 0v1454h125v-1454h-125z
" />
    <glyph glyph-name="Q" unicode="Q" horiz-adv-x="1493" 
d="M745 -20q-175 0 -319.5 88t-230.5 256.5t-86 411.5q0 240 85.5 407t230.5 253.5t321 86.5q177 0 321.5 -86.5t230.5 -253.5t86 -407q0 -243 -86 -411.5t-231 -256.5t-322 -88zM1134 -323l-204 369h95q20 0 39.5 -16t39.5 -49l187 -304h-157zM745 100q133 0 249 67.5
t188 208t72 358.5q0 211 -72 350.5t-187.5 209t-248.5 69.5q-126 0 -242.5 -69.5t-190.5 -209t-74 -350.5q0 -163 43 -283t115.5 -197.5t163 -115.5t184.5 -38z" />
    <glyph glyph-name="R" unicode="R" horiz-adv-x="1173" 
d="M987 0l-374 624h-332l-67 15l29 71v32h355q98 0 157 49.5t85.5 125t26.5 151.5q0 77 -28.5 137.5t-87 95.5t-149.5 35h-303v52l-86 66h109h127.5h121.5q135 0 230.5 -45.5t145.5 -127.5t50 -194q0 -102 -29 -196.5t-105 -162.5t-217 -91l46 14q20 2 35 -6t26.5 -21
t20.5 -29l363 -595h-150zM180 0v1454h125v-1454h-125z" />
    <glyph glyph-name="S" unicode="S" horiz-adv-x="1136" 
d="M583 -20q-144 0 -258 49.5t-179.5 147t-65.5 240.5h126q0 -111 51 -181.5t137 -104t191 -33.5q131 0 209.5 36.5t113.5 95.5t35 126q0 96 -55.5 154t-143.5 95.5t-185 71.5q-112 40 -205.5 93t-150 132.5t-56.5 196.5q0 183 122.5 280.5t316.5 97.5q127 0 218.5 -42.5
t146.5 -128t70 -215.5h-126q-8 66 -37.5 127.5t-96 101t-186.5 39.5q-142 0 -223.5 -63t-81.5 -191q0 -83 36 -137.5t110.5 -95.5t190.5 -84q82 -30 163.5 -64t148.5 -80.5t107 -115t40 -169.5q0 -180 -126.5 -279.5t-356.5 -99.5z" />
    <glyph glyph-name="T" unicode="T" horiz-adv-x="1104" 
d="M490 0v1237q0 41 14.5 66t33.5 33h-473v118h974v-118h-425v-1336h-124z" />
    <glyph glyph-name="U" unicode="U" horiz-adv-x="1284" 
d="M641 -20q-137 0 -253.5 64t-187 194t-70.5 328v888h125v-890q0 -135 35.5 -225t93.5 -142t126.5 -74.5t134.5 -22.5t133.5 22.5t124 74.5t91.5 142t35 225v890h125v-888q0 -198 -71 -328t-187.5 -194t-254.5 -64z" />
    <glyph glyph-name="V" unicode="V" horiz-adv-x="1235" 
d="M528 0l-498 1454h133l227 -685l224 -665h5l225 665l228 685h133l-495 -1454h-182z" />
    <glyph glyph-name="W" unicode="W" horiz-adv-x="1890" 
d="M460 0l-430 1454h130l188 -685l201 -658h11l137 658l137 685h223l136 -685l138 -658h11l200 658l188 685h130l-429 -1454h-192l-168 749l-123 622h-5l-124 -622l-168 -749h-191z" />
    <glyph glyph-name="X" unicode="X" horiz-adv-x="1217" 
d="M28 0l487 724l-495 730h145l204 -306l240 -367l239 367l204 306h145l-495 -730l488 -724h-145l-196 296l-240 370l-240 -370l-196 -296h-145z" />
    <glyph glyph-name="Y" unicode="Y" horiz-adv-x="1245" 
d="M565 528l-525 926h145l216 -416l216 -382h10l217 382l216 416h145l-525 -926h-115zM560 0v581h124v-581h-124z" />
    <glyph glyph-name="Z" unicode="Z" horiz-adv-x="1203" 
d="M55 0l713 1099l170 241l-271 -5h-527v119h1008l-703 -1083l-185 -261l283 9h573v-119h-1061z" />
    <glyph glyph-name="bracketleft" unicode="[" horiz-adv-x="609" 
d="M91 -181v1777h418v-107h-351l49 34v-1632l-49 35h351v-107h-418z" />
    <glyph glyph-name="backslash" unicode="\" horiz-adv-x="646" 
d="M606 -100h-124l-442 1686h124z" />
    <glyph glyph-name="bracketright" unicode="]" horiz-adv-x="609" 
d="M518 -181h-418v107h351l-49 -35v1632l49 -34h-351v107h418v-1777z" />
    <glyph glyph-name="asciicircum" unicode="^" horiz-adv-x="1010" 
d="M90 597l360 857h111l359 -857h-142l-111 292l-159 410h-5l-161 -411l-110 -291h-142z" />
    <glyph glyph-name="underscore" unicode="_" horiz-adv-x="828" 
d="M-2 -137v116h831v-116h-831z" />
    <glyph glyph-name="grave" unicode="`" horiz-adv-x="614" 
d="M334 1282l-184 231h154l160 -231h-130z" />
    <glyph glyph-name="a" unicode="a" horiz-adv-x="1101" 
d="M448 -12q-111 0 -183.5 41t-108.5 111.5t-36 156.5q0 77 35.5 137t103.5 101t165 62q57 12 121 19t132.5 11.5t135.5 6.5v84q0 161 -71 219t-198 58q-76 0 -143 -22t-106 -82t-33 -175h-124q-13 123 36.5 212t146.5 136.5t229 47.5q72 0 140 -18.5t122.5 -60.5t86.5 -113
t32 -177v-743h-118v227q-37 -117 -139 -178t-226 -61zM465 91q108 0 181 41.5t114 97t53 94.5v226q-87 -4 -182.5 -14t-172.5 -31q-100 -27 -154 -77t-54 -127q0 -52 18.5 -100t65 -78.5t131.5 -31.5z" />
    <glyph glyph-name="b" unicode="b" horiz-adv-x="1132" 
d="M595 -11q-97 0 -162.5 39.5t-101 91t-42.5 85.5l-32 25l45 27q6 -14 45 -51t98.5 -69t124.5 -32q154 0 246 121t92 338q0 227 -83.5 330t-214.5 103q-84 0 -147.5 -30t-104 -75.5t-56.5 -93.5l-18 52l17 17q8 51 47.5 108.5t111.5 97.5t177 40q107 0 197.5 -60.5
t145 -183t54.5 -310.5q0 -143 -39 -250t-103 -178t-141.5 -106.5t-155.5 -35.5zM182 0l-1 1556h120v-488l1 -832l18 -36l-19 -4l-7 -196h-112z" />
    <glyph glyph-name="c" unicode="c" horiz-adv-x="1087" 
d="M559 -15q-136 0 -242 65t-166.5 189.5t-60.5 300.5q0 185 62 312.5t171 193.5t248 66q125 0 215.5 -50.5t144 -135t68.5 -186.5h-129q-4 32 -22 75.5t-54 85t-93 68.5t-140 27q-163 0 -254 -115t-91 -332q0 -210 91.5 -329t257.5 -119q110 0 170 38.5t86.5 93.5t36.5 104
h129q-13 -86 -61 -167t-138 -133t-229 -52z" />
    <glyph glyph-name="d" unicode="d" horiz-adv-x="1133" 
d="M527 -12q-116 0 -214 65t-156.5 191t-58.5 308q0 192 63.5 316t166 184t218.5 60q103 0 166 -37.5t94.5 -86t36.5 -82.5l34 -35l-47 -22q-7 17 -40 52t-91.5 65t-144.5 30q-145 0 -237.5 -111.5t-92.5 -334.5q0 -221 92 -333.5t235 -112.5q76 0 131.5 28t92 75t55.5 103
l10 -34l-10 -45q-8 -41 -29.5 -84t-58.5 -79t-90.5 -58t-124.5 -22zM830 0v1556h120l2 -1556h-122z" />
    <glyph glyph-name="e" unicode="e" horiz-adv-x="1095" 
d="M571 -15q-136 0 -244 65.5t-171 192.5t-63 310q0 174 62 299.5t170.5 193t246.5 67.5q135 0 232.5 -65.5t150.5 -179.5t52 -262q0 -29 -2 -53l-3 -36h-788q6 -194 103 -305.5t263 -111.5q127 0 198 50t87 160h122q-4 -104 -59.5 -177t-147.5 -110.5t-209 -37.5zM303 625
h581q0 172 -84.5 272.5t-234.5 100.5q-166 0 -256 -115t-95 -320q7 39 31 50.5t58 11.5z" />
    <glyph glyph-name="f" unicode="f" horiz-adv-x="705" 
d="M229 0v878q0 32 13 61t38 37l-51 71v174q0 128 47.5 212.5t129 126t182.5 41.5q55 0 88 -3t57 -6v-119q-22 10 -54 11t-79 1q-71 0 -128 -24.5t-90 -88.5t-33 -181v-1191h-120zM46 976v115h580v-115h-580z" />
    <glyph glyph-name="g" unicode="g" horiz-adv-x="1115" 
d="M547 -445q-127 0 -221 43.5t-142 132t-39 222.5h119q-7 -101 27 -164t102 -92t161 -29q107 0 167 41t84 115.5t24 172.5v291q-9 -52 -44 -105.5t-97 -90t-153 -36.5q-92 0 -171.5 35.5t-139 103t-93 165.5t-33.5 222q0 171 58.5 289t157.5 179.5t220 61.5q80 0 138.5 -22
t97.5 -55t60 -67l1 123h118v-1075q0 -172 -49 -273t-139.5 -144t-213.5 -44zM557 170q71 0 125.5 28.5t91.5 75t55 99.5v455q-5 25 -39 65t-92.5 72t-140.5 32q-154 0 -243.5 -106t-89.5 -309q0 -213 90.5 -312.5t242.5 -99.5z" />
    <glyph glyph-name="h" unicode="h" horiz-adv-x="1148" 
d="M181 0v1555h120v-464l-16 -311l9 -87l-20 70q12 93 57 173t125.5 129t197.5 49q154 0 239 -85.5t85 -255.5v-773h-120v739q0 122 -45.5 189.5t-174.5 67.5q-111 0 -187.5 -56.5t-149.5 -194.5v-745h-120z" />
    <glyph glyph-name="i" unicode="i" horiz-adv-x="559" 
d="M219 0v1074h121v-1074h-121zM280 1261q-41 0 -70.5 29t-29.5 75q0 45 29.5 74t70.5 29t70 -29t29 -74q0 -46 -29 -75t-70 -29z" />
    <glyph glyph-name="j" unicode="j" horiz-adv-x="553" 
d="M155 -462q-37 0 -70.5 9t-64.5 20v128q14 -7 45.5 -18.5t70.5 -11.5q35 0 54.5 23t19.5 93v1310h120v-1145q0 -25 1 -51.5t1 -66.5q0 -88 -15 -153.5t-53 -101t-109 -35.5zM273 1279q-41 0 -70.5 29t-29.5 75q0 45 29.5 74t70.5 29t70.5 -29t29.5 -74q0 -46 -29.5 -75
t-70.5 -29z" />
    <glyph glyph-name="k" unicode="k" horiz-adv-x="950" 
d="M803 0l-520 595l116 30l135 -117l436 -508h-167zM181 0v1555h120v-811l-14 -146v-8l14 -152v-438h-120zM400 562l-117 33l256 257l229 239h170l-404 -407z" />
    <glyph glyph-name="l" unicode="l" horiz-adv-x="481" 
d="M180 0v1555h121v-1555h-121z" />
    <glyph glyph-name="m" unicode="m" horiz-adv-x="1806" 
d="M180 0v1091h100l13 -411l-18 83q13 109 63 187.5t131 121t188 42.5q137 0 213 -75t93 -233l4 -23v-783h-120v737q0 92 -21.5 149t-69 83.5t-124.5 26.5q-109 0 -184 -57t-148 -196v-743h-120zM1516 0v738q0 91 -22 148t-69.5 83.5t-124.5 26.5q-108 0 -183.5 -56.5
t-149.5 -196.5l-8 -63l-18 83q13 105 63 184t131 123t184 44q149 0 233 -90t84 -251v-773h-120z" />
    <glyph glyph-name="n" unicode="n" horiz-adv-x="1149" 
d="M180 0v1091h101l11 -410l-18 82q14 109 65.5 187.5t134 121t189.5 42.5q146 0 231 -88.5t85 -252.5v-773h-120v739q0 93 -23.5 149.5t-72.5 82t-128 25.5q-109 0 -186.5 -57.5t-148.5 -194.5v-744h-120z" />
    <glyph glyph-name="o" unicode="o" horiz-adv-x="1109" 
d="M552 -15q-134 0 -238.5 65t-164 191.5t-59.5 310.5q0 174 63.5 299.5t169.5 193t233 67.5q139 0 243 -67.5t162 -193t58 -299.5q0 -184 -64.5 -310.5t-171 -191.5t-231.5 -65zM556 101q159 0 248 118.5t89 332.5q0 212 -90 328t-251 116q-155 0 -245.5 -118t-90.5 -326
q0 -212 91 -331.5t249 -119.5z" />
    <glyph glyph-name="p" unicode="p" horiz-adv-x="1132" 
d="M590 -11q-95 0 -160 38t-99.5 87t-40.5 80l-34 35l45 27q15 -23 54 -58.5t98 -63.5t132 -28q140 0 231.5 122t91.5 348q0 216 -84.5 318.5t-218.5 102.5q-79 0 -141.5 -30.5t-104 -77.5t-58.5 -98v76q6 38 29.5 81t64.5 80.5t99.5 61t133.5 23.5q112 0 204 -60t147 -180
t55 -300q0 -153 -39 -263.5t-104 -181.5t-143.5 -105t-157.5 -34zM181 -403v1494h120v-147v-688l-11 -62l12 -194l1 -403h-122z" />
    <glyph glyph-name="q" unicode="q" horiz-adv-x="1131" 
d="M534 -12q-122 0 -221 65t-157 191.5t-58 310.5q0 194 66 317t166.5 181.5t203.5 58.5q114 0 179 -37t94.5 -86.5t36.5 -85.5l42 8l-56 -65q-5 25 -42 60.5t-96 62.5t-130 27q-153 0 -245.5 -112.5t-92.5 -336.5q0 -220 92.5 -331.5t245.5 -111.5q69 0 123 30t91 78
t54 101l16 -65l-16 -16q-7 -39 -28.5 -81.5t-58.5 -79.5t-89 -60t-120 -23zM830 -403l-2 1296l2 198h120v-1494h-120z" />
    <glyph glyph-name="r" unicode="r" horiz-adv-x="704" 
d="M180 0v1091h101l11 -418l-23 56q7 60 30 126.5t65.5 125.5t108 96t156.5 37q11 0 20.5 -1.5t19.5 -3.5v-122q-7 3 -16 3.5t-18 0.5q-71 0 -129 -23.5t-107.5 -79.5t-98.5 -152v-736h-120z" />
    <glyph glyph-name="s" unicode="s" horiz-adv-x="980" 
d="M497 -17q-100 0 -190 33t-150 105t-69 188h130q23 -124 93 -167.5t189 -43.5q72 0 133 17t98.5 58t37.5 114q0 63 -26.5 98.5t-68 54t-89.5 29t-91 22.5q-87 26 -168.5 60.5t-134 97.5t-52.5 173q0 120 93.5 204.5t259.5 84.5q98 0 176.5 -33t127 -102.5t54.5 -181.5
h-127q-1 48 -21.5 94t-70.5 76t-140 30q-55 0 -107 -12.5t-85.5 -49t-33.5 -109.5q0 -74 37 -115t97 -64.5t128 -43.5q47 -14 109.5 -30.5t121.5 -47t98 -83t39 -138.5q0 -154 -112.5 -236t-285.5 -82z" />
    <glyph glyph-name="t" unicode="t" horiz-adv-x="746" 
d="M478 -12q-126 0 -182.5 64t-56.5 185v642q0 32 13 60.5t38 36.5l-51 72v43l33 323h87v-1185q0 -76 36 -99.5t109 -23.5q66 0 100.5 2.5t89.5 10.5v-116q-55 -10 -109.5 -12.5t-106.5 -2.5zM61 976v115h605v-115h-605z" />
    <glyph glyph-name="u" unicode="u" horiz-adv-x="1120" 
d="M479 -22q-141 0 -225 90.5t-84 244.5v778h120v-738q0 -89 20.5 -146t64 -83.5t111.5 -27.5q113 0 186.5 55.5t147.5 194.5v745h120v-1091h-105l-13 323l24 6q-14 -105 -64.5 -184t-128.5 -123t-174 -44z" />
    <glyph glyph-name="v" unicode="v" horiz-adv-x="1041" 
d="M455 0l-415 1091h135l174 -495l170 -463h4l169 462l174 496h135l-414 -1091h-132z" />
    <glyph glyph-name="w" unicode="w" horiz-adv-x="1520" 
d="M369 0l-349 1091h137l144 -495l136 -487h4l111 475l132 507h152l131 -506l112 -476h4l136 487l144 495h137l-349 -1091h-150l-154 575l-85 380h-4l-85 -380l-154 -575h-150z" />
    <glyph glyph-name="x" unicode="x" horiz-adv-x="972" 
d="M44 0l390 590v-90l-390 591h141l236 -369l65 -102l60 101l241 370h141l-400 -591v90l400 -590h-141l-244 368l-63 101l-63 -102l-233 -367h-140z" />
    <glyph glyph-name="y" unicode="y" horiz-adv-x="977" 
d="M112 -431v118h81q73 0 111.5 24.5t59 66.5t37.5 95q21 65 30.5 91t30.5 36h-42l-384 1091h135l164 -495l150 -463h5l153 463l169 495h135l-393 -1091q-35 -98 -60 -177.5t-57.5 -136t-89 -87t-154.5 -30.5h-81z" />
    <glyph glyph-name="z" unicode="z" horiz-adv-x="980" 
d="M58 0l549 832q51 77 85.5 113.5t74.5 60.5l11 -13q-55 -4 -109.5 -6.5t-109.5 -2.5h-433v107h785l-558 -843q-37 -55 -70 -99.5t-71 -61.5l-3 9q50 5 99 8.5t98 3.5h519v-108h-867z" />
    <glyph glyph-name="braceleft" unicode="{" horiz-adv-x="729" 
d="M460 -188q-119 0 -171.5 52t-52.5 170v435q0 95 -37.5 132.5t-138.5 46.5v112q101 9 138.5 47t37.5 132v435q0 118 52.5 170t171.5 52h169v-107h-165q-57 0 -84 -22.5t-27 -97.5v-457q0 -67 -27.5 -117.5t-106.5 -71.5l-75 -20l75 -18q79 -19 106.5 -67t27.5 -122v-457
q0 -75 27 -97.5t84 -22.5h165v-107h-169z" />
    <glyph glyph-name="bar" unicode="|" horiz-adv-x="540" 
d="M210 -160v1714h120v-1714h-120z" />
    <glyph glyph-name="braceright" unicode="}" horiz-adv-x="729" 
d="M269 -188h-169v107h165q57 0 84 22.5t27 97.5v457q0 74 27.5 122t106.5 67l75 18l-75 20q-79 21 -106.5 71.5t-27.5 117.5v457q0 75 -27 97.5t-84 22.5h-165v107h169q119 0 171.5 -52t52.5 -170v-435q0 -94 37.5 -132t138.5 -47v-112q-101 -9 -138.5 -46.5t-37.5 -132.5
v-435q0 -118 -52.5 -170t-171.5 -52z" />
    <glyph glyph-name="asciitilde" unicode="~" horiz-adv-x="1038" 
d="M685 541q-67 0 -107 31t-68.5 71t-58 71t-74.5 31q-26 0 -55 -18t-47 -61t-12 -118h-111q-6 74 6 132t40 98t70 60.5t95 20.5q60 0 99 -20.5t66 -51.5t47.5 -61.5t43 -51t53.5 -20.5q59 0 85.5 51t16.5 142h112q6 -74 -4.5 -131t-36.5 -96t-66.5 -59t-93.5 -20z" />
    <glyph glyph-name="uni00A0" unicode="&#xa0;" horiz-adv-x="330" 
 />
    <glyph glyph-name="exclamdown" unicode="&#xa1;" horiz-adv-x="562" 
d="M200 -15l12 389l24 653h90l24 -653l12 -389h-162zM281 1273q-41 0 -70.5 29t-29.5 74q0 46 29.5 75t70.5 29t70.5 -29t29.5 -75q0 -45 -29.5 -74t-70.5 -29z" />
    <glyph glyph-name="cent" unicode="&#xa2;" horiz-adv-x="1093" 
d="M559 5q-136 0 -241 64.5t-165 184.5t-60 286q0 170 62 294t171 191t248 67q124 0 215 -50.5t146 -135t70 -186.5h-129q-4 32 -22.5 75.5t-55.5 85t-94.5 68.5t-139.5 27q-163 0 -254 -116t-91 -311t91.5 -311.5t257.5 -116.5q82 0 137 26t89 64.5t50.5 78t21.5 67.5h129
q-13 -86 -67.5 -167t-147.5 -133t-221 -52zM501 -134v176h125v-176h-125zM501 1051v176h125v-176h-125z" />
    <glyph glyph-name="sterling" unicode="&#xa3;" horiz-adv-x="1138" 
d="M70 0v118q82 34 143 99.5t95 148t34 166.5q0 65 -25 122.5t-57.5 118.5t-57.5 137.5t-25 179.5q0 95 45 184t144.5 146t264.5 57q137 0 232.5 -48.5t145.5 -142t50 -228.5q0 -12 -1 -21.5t-3 -37.5h-125q1 11 1 21v20q0 85 -28.5 157.5t-94 117t-176.5 44.5
q-125 0 -197 -41.5t-101.5 -103.5t-29.5 -124q0 -91 23.5 -161t53.5 -131t53.5 -125t23.5 -142q0 -126 -52 -211.5t-108 -134.5q-16 -14 -57.5 -35.5t-88.5 -31.5zM70 0v118h966v-118h-966zM150 602v118h720v-118h-720z" />
    <glyph glyph-name="currency" unicode="&#xa4;" horiz-adv-x="1008" 
d="M519 399q-93 0 -172.5 46.5t-127.5 125.5t-48 178q0 102 47 180.5t126 123.5t175 45t175 -45.5t126.5 -124.5t47.5 -179q0 -102 -46.5 -181t-125.5 -124t-177 -45zM206 332l-97 98l158 157l97 -97zM802 331l-158 158l97 97l158 -157zM519 511q99 0 161 69t62 169
q0 99 -62.5 168t-160.5 69q-100 0 -161 -68.5t-61 -168.5q0 -97 63 -167.5t159 -70.5zM268 907l-158 158l97 97l158 -158zM741 908l-97 97l158 157l97 -96z" />
    <glyph glyph-name="yen" unicode="&#xa5;" horiz-adv-x="1245" 
d="M565 551l-525 903h145l216 -396l216 -381h10l217 381l216 396h145l-525 -903h-115zM560 0v601h124v-601h-124zM195 533v117h859v-117h-859zM195 221v118h859v-118h-859z" />
    <glyph glyph-name="brokenbar" unicode="&#xa6;" horiz-adv-x="540" 
d="M210 838v716h120v-716h-120zM210 -160v716h120v-716h-120z" />
    <glyph glyph-name="section" unicode="&#xa7;" horiz-adv-x="970" 
d="M490 -17q-103 0 -194.5 33t-151.5 105t-69 188h130q23 -124 93.5 -167.5t194.5 -43.5q72 0 135 17t102 58t39 114q0 63 -26.5 98.5t-68 54t-89.5 29t-91 22.5q-65 19 -128.5 41t-114.5 56t-81.5 87.5t-30.5 136.5q0 102 80 161t204 59l72 -11q-55 0 -108 -22t-87.5 -67.5
t-34.5 -118.5q0 -74 37 -112.5t97 -59.5t128 -41q47 -14 109.5 -30.5t121.5 -47t98 -83t39 -138.5q0 -102 -53 -173t-144.5 -108t-207.5 -37zM559 571l-32 12q86 0 141 61.5t55 149.5q0 84 -33 121t-84.5 52t-109.5 31q-87 26 -166.5 60.5t-130 97.5t-50.5 173q0 74 36 140
t114 107.5t203 41.5q98 0 176.5 -33t127 -102.5t54.5 -181.5h-127q-1 48 -21.5 94.5t-70.5 77t-140 30.5q-98 0 -162 -36.5t-64 -136.5q0 -74 35 -115t93 -64.5t126 -43.5q47 -14 102.5 -30.5t105 -47t81 -83t31.5 -138.5q0 -69 -35.5 -122.5t-100.5 -84t-154 -30.5z" />
    <glyph glyph-name="dieresis" unicode="&#xa8;" horiz-adv-x="805" 
d="M245 1274q-41 0 -68 29t-27 75q0 45 27 74t68 29q38 0 66.5 -29t28.5 -74q0 -46 -28.5 -75t-66.5 -29zM560 1274q-41 0 -68 29t-27 75q0 45 27 74t68 29q38 0 66.5 -29t28.5 -74q0 -46 -28.5 -75t-66.5 -29z" />
    <glyph glyph-name="copyright" unicode="&#xa9;" horiz-adv-x="1370" 
d="M684 266q-173 0 -302.5 70t-201 205.5t-71.5 329.5q0 190 72 322t202 201.5t302 69.5q174 0 303.5 -69.5t201 -201.5t71.5 -322q0 -194 -72.5 -329.5t-202 -205.5t-302.5 -70zM694 524q-139 0 -222 91t-83 246q0 159 85.5 247.5t219.5 88.5q129 0 197.5 -64t73.5 -170
h-118q-3 54 -36.5 94.5t-119.5 40.5t-136.5 -61t-50.5 -171q0 -113 52 -177t144 -65q68 -1 105.5 38t39.5 82h118q-5 -93 -79 -156.5t-190 -63.5zM684 348q143 0 252 56t171 171.5t62 293.5q0 171 -62 285t-171 171t-251 57q-137 0 -247 -57t-173.5 -171t-63.5 -285
q0 -178 63.5 -293.5t173 -171.5t246.5 -56z" />
    <glyph glyph-name="ordfeminine" unicode="&#xaa;" horiz-adv-x="834" 
d="M325 630q-124 0 -190 67t-66 165t56.5 151t173.5 77q46 10 101.5 15.5t111.5 8.5t105 5v61q0 110 -53 155.5t-154 45.5q-59 0 -107 -16t-75.5 -60.5t-25.5 -129.5h-110q-10 102 28 171t115 103.5t183 34.5q83 0 153 -25t112.5 -87.5t42.5 -173.5v-559h-109v178
q-26 -86 -107 -136.5t-185 -50.5zM352 721q76 0 131.5 28t90 64.5t43.5 63.5v177q-65 -4 -136 -12t-129 -22q-77 -19 -120 -52.5t-43 -98.5q0 -58 35.5 -103t127.5 -45z" />
    <glyph glyph-name="guillemotleft" unicode="&#xab;" horiz-adv-x="999" 
d="M717 213l-228 336v8l228 336h132l-168 -234q-32 -44 -49 -69t-64 -37q47 -12 64.5 -36.5t48.5 -67.5l168 -236h-132zM383 213l-223 335v10l223 335h122l-153 -232q-30 -46 -48 -70.5t-65 -37.5q47 -13 65 -37t48 -70l153 -233h-122z" />
    <glyph glyph-name="logicalnot" unicode="&#xac;" horiz-adv-x="1072" 
d="M797 371v273h-647v112h772v-385h-125z" />
    <glyph glyph-name="uni00AD" unicode="&#xad;" horiz-adv-x="804" 
d="M150 645v112h504l-3 -112h-501z" />
    <glyph glyph-name="registered" unicode="&#xae;" horiz-adv-x="1370" 
d="M475 537v646h108l1 -646h-109zM837 537l-137 245h-128l-32 7l14 71v15h136q66 0 93.5 32t27.5 78q0 59 -33.5 82t-86.5 23h-109v27l-42 66h51h58h64q97 0 154 -46t57 -138q0 -49 -18 -92t-54.5 -72t-93.5 -37l-1 13q18 0 35 -6t26 -21l148 -247h-129zM684 266
q-173 0 -302.5 70t-201 205.5t-71.5 329.5q0 190 72 322t202 201.5t302 69.5q174 0 303.5 -69.5t201 -201.5t71.5 -322q0 -194 -72.5 -329.5t-202 -205.5t-302.5 -70zM684 348q143 0 252 56t171 171.5t62 293.5q0 171 -62 285t-171 171t-251 57q-137 0 -247 -57t-173.5 -171
t-63.5 -285q0 -178 63.5 -293.5t173 -171.5t246.5 -56z" />
    <glyph glyph-name="macron" unicode="&#xaf;" horiz-adv-x="764" 
d="M131 1282v111h504l-3 -111h-501z" />
    <glyph glyph-name="degree" unicode="&#xb0;" horiz-adv-x="819" 
d="M409 959q-71 0 -130 34.5t-94 94t-35 134.5q0 77 35 136t94 92t132 33t131 -33.5t92.5 -92.5t34.5 -135q0 -77 -34 -136.5t-93 -93t-133 -33.5zM409 1070q57 0 98 43.5t41 108.5t-41.5 108.5t-97.5 43.5q-57 0 -97.5 -43t-40.5 -109q0 -64 41.5 -108t96.5 -44z" />
    <glyph glyph-name="plusminus" unicode="&#xb1;" horiz-adv-x="940" 
d="M165 0v112h600v-112h-600zM408 281v200q0 32 9.5 53t31.5 28l-41 32v83v277h125v-673h-125zM150 562v116h640v-116h-640z" />
    <glyph glyph-name="uni00B2" unicode="&#xb2;" horiz-adv-x="751" 
d="M47 810q35 43 75 90.5t81.5 96t81 94.5t72.5 85q55 64 100.5 119t73 109t27.5 115q0 77 -45 120.5t-131 43.5q-87 0 -144.5 -48.5t-48.5 -179.5h-114q-10 119 28 192.5t112.5 107.5t172.5 34q134 0 211 -70t77 -191q0 -78 -27.5 -140.5t-72 -119t-97.5 -118.5
q-31 -36 -76.5 -89t-86 -100t-56.5 -68q20 20 46.5 24t72.5 4h303v-111h-635z" />
    <glyph glyph-name="uni00B3" unicode="&#xb3;" horiz-adv-x="776" 
d="M382 790q-90 0 -167.5 31.5t-123 100t-41.5 179.5h119q0 -101 56 -152t158 -50q93 1 152 45t59 123q0 100 -59.5 143.5t-157.5 43.5h-102v106h104q83 0 131 50.5t48 117.5q0 74 -46.5 114.5t-129.5 40.5q-88 0 -135 -48.5t-42 -140.5h-119q-3 149 76.5 222t220.5 73
q140 0 216.5 -70.5t76.5 -185.5q0 -73 -44 -140t-149 -83q114 -10 172 -72.5t58 -169.5q0 -134 -94.5 -206t-236.5 -72z" />
    <glyph glyph-name="acute" unicode="&#xb4;" horiz-adv-x="613" 
d="M150 1282l159 231h154l-183 -231h-130z" />
    <glyph glyph-name="uni00B5" unicode="&#xb5;" horiz-adv-x="1139" 
d="M563 -29q-82 0 -136.5 34t-86 85t-44.5 103t-13 87l-113 33v778h120v-672q0 -45 10.5 -97.5t41 -99t89 -76.5t154.5 -30q65 0 123 37.5t94.5 95.5t36.5 121v721h120v-1091h-105l-13 213v0q-17 -95 -86.5 -168.5t-191.5 -73.5zM171 -264l-1 577l120 106l-2 -683h-117z" />
    <glyph glyph-name="paragraph" unicode="&#xb6;" horiz-adv-x="1177" 
d="M602 0v618q-4 -17 -23.5 -30.5t-53.5 -13.5h-39q-121 0 -210 58.5t-137.5 165.5t-48.5 250q0 194 112 300t304 106h116h105v-1454h-125zM872 0v1454h125v-1454h-125z" />
    <glyph glyph-name="periodcentered" unicode="&#xb7;" horiz-adv-x="300" 
d="M150 665q-41 0 -70.5 29t-29.5 75q0 45 29.5 74t70.5 29t70.5 -29t29.5 -74q0 -46 -29.5 -75t-70.5 -29z" />
    <glyph glyph-name="cedilla" unicode="&#xb8;" horiz-adv-x="603" 
d="M278 -353q-36 0 -64.5 3t-48.5 12l1 118q48 -15 98 -15q29 0 49.5 18t20.5 51q0 47 -20 84t-86 82h40q86 -14 138.5 -74.5t52.5 -117.5q0 -74 -52 -117.5t-129 -43.5z" />
    <glyph glyph-name="uni00B9" unicode="&#xb9;" horiz-adv-x="524" 
d="M262 810v862l28 98h83v-960h-111zM56 1567v119q37 0 69.5 2t58.5 9q33 8 59.5 26t46.5 47l-23 -94q-9 -29 -24.5 -52.5t-46.5 -37.5q-26 -12 -56 -15.5t-84 -3.5z" />
    <glyph glyph-name="ordmasculine" unicode="&#xba;" horiz-adv-x="896" 
d="M446 632q-164 0 -269 111t-105 320q0 132 51 227.5t136.5 146.5t189.5 51q170 0 272.5 -113.5t102.5 -311.5q0 -140 -52 -236t-138 -145.5t-188 -49.5zM449 734q122 0 191.5 84.5t69.5 244.5q0 155 -69.5 239t-194.5 84q-119 0 -189 -85t-70 -238q0 -157 70.5 -243
t191.5 -86z" />
    <glyph glyph-name="guillemotright" unicode="&#xbb;" horiz-adv-x="999" 
d="M292 213h-132l168 236q31 43 49 67.5t64 36.5q-46 12 -63.5 37t-49.5 69l-168 234h132l228 -336v-8zM626 213h-122l153 233q30 46 48.5 70t64.5 37q-46 13 -64.5 37.5t-48.5 70.5l-153 232h122l223 -335v-10z" />
    <glyph glyph-name="onequarter" unicode="&#xbc;" horiz-adv-x="1776" 
d="M262 478v862l28 98h83v-960h-111zM56 1235v119q37 0 69.5 2t58.5 9q33 8 59.5 26t46.5 47l-23 -94q-9 -29 -24.5 -52.5t-46.5 -37.5q-26 -12 -56 -15.5t-84 -3.5zM387 0l744 1454h124l-744 -1454h-124zM1455 0v198h-475l431 762h159l-2 -3l2 -651h127v-108h-126v-198
h-116zM1145 286q13 9 28.5 14.5t30.5 5.5h297q-28 0 -37.5 21.5t-9.5 45.5v311l7 152l-71 -143l-201 -343z" />
    <glyph glyph-name="onehalf" unicode="&#xbd;" horiz-adv-x="1765" 
d="M262 478v862l28 98h83v-960h-111zM56 1235v119q37 0 69.5 2t58.5 9q33 8 59.5 26t46.5 47l-23 -94q-9 -29 -24.5 -52.5t-46.5 -37.5q-26 -12 -56 -15.5t-84 -3.5zM356 0l744 1454h124l-744 -1454h-124zM1061 0q35 43 75 90.5t81.5 96t81 94.5t72.5 85q55 64 100.5 119
t73 109t27.5 115q0 77 -45 120.5t-131 43.5q-87 0 -144.5 -48.5t-48.5 -179.5h-114q-10 119 28 192.5t112.5 107.5t172.5 34q134 0 211 -70t77 -191q0 -78 -27.5 -140.5t-72 -119t-97.5 -118.5q-31 -36 -76.5 -89t-86 -100t-56.5 -68q20 20 46.5 24t72.5 4h303v-111h-635z
" />
    <glyph glyph-name="threequarters" unicode="&#xbe;" horiz-adv-x="2028" 
d="M382 458q-90 0 -167.5 31.5t-123 100t-41.5 179.5h119q0 -101 56 -152t158 -50q93 1 152 45t59 123q0 100 -59.5 143.5t-157.5 43.5h-102v106h104q83 0 131 50.5t48 117.5q0 74 -46.5 114.5t-129.5 40.5q-88 0 -135 -48.5t-42 -140.5h-119q-3 149 76.5 222t220.5 73
q140 0 216.5 -70.5t76.5 -185.5q0 -73 -44 -140t-149 -83q114 -10 172 -72.5t58 -169.5q0 -134 -94.5 -206t-236.5 -72zM638 0l744 1454h124l-744 -1454h-124zM1707 0v198h-475l431 762h159l-2 -3l2 -651h127v-108h-126v-198h-116zM1397 286q13 9 28.5 14.5t30.5 5.5h297
q-28 0 -37.5 21.5t-9.5 45.5v311l7 152l-71 -143l-201 -343z" />
    <glyph glyph-name="questiondown" unicode="&#xbf;" horiz-adv-x="1008" 
d="M568 1059q3 -16 8 -53.5t5 -70.5q0 -88 -37 -143.5t-91.5 -96t-109 -79t-91.5 -90.5t-37 -133q0 -131 62 -210t213 -79q182 0 256.5 101.5t59.5 263.5l129 -1q13 -131 -26 -241t-140.5 -176t-278.5 -66q-151 0 -240 58.5t-127 151.5t-38 196t38.5 170.5t95 114.5
t113.5 86t95.5 83.5t38.5 108.5q0 32 -2.5 68.5l-2.5 36.5h107zM512 1482q41 0 70.5 -29t29.5 -75q0 -45 -29.5 -74t-70.5 -29t-70.5 29t-29.5 74q0 46 29.5 75t70.5 29z" />
    <glyph glyph-name="Agrave" unicode="&#xc0;" horiz-adv-x="1245" 
d="M35 0l486 1454h204l485 -1454h-133l-148 446l72 -54h-782l62 118h681l-40 -43l-224 674l-76 226h-1l-74 -226l-379 -1141h-133zM561 1618l-204 277h154l180 -277h-130z" />
    <glyph glyph-name="Aacute" unicode="&#xc1;" horiz-adv-x="1245" 
d="M35 0l486 1454h204l485 -1454h-133l-148 446l72 -54h-782l62 118h681l-40 -43l-224 674l-76 226h-1l-74 -226l-379 -1141h-133zM560 1618l180 277h154l-204 -277h-130z" />
    <glyph glyph-name="Acircumflex" unicode="&#xc2;" horiz-adv-x="1245" 
d="M35 0l486 1454h204l485 -1454h-133l-148 446l72 -54h-782l62 118h681l-40 -43l-224 674l-76 226h-1l-74 -226l-379 -1141h-133zM367 1618l180 258h152l180 -258h-128l-128 173l-128 -173h-128z" />
    <glyph glyph-name="Atilde" unicode="&#xc3;" horiz-adv-x="1245" 
d="M35 0l486 1454h204l485 -1454h-133l-148 446l72 -54h-782l62 118h681l-40 -43l-224 674l-76 226h-1l-74 -226l-379 -1141h-133zM762 1600q-66 0 -105 26t-64 59.5t-49 59.5t-60 26q-51 0 -73 -38.5t-9 -114.5h-106q-11 74 8.5 130.5t64 88.5t107.5 32q65 0 103 -26
t62.5 -60t48 -60t60.5 -26q51 0 74.5 34.5t18.5 102.5h107q18 -103 -38 -168.5t-150 -65.5z" />
    <glyph glyph-name="Adieresis" unicode="&#xc4;" horiz-adv-x="1245" 
d="M35 0l486 1454h204l485 -1454h-133l-148 446l72 -54h-782l62 118h681l-40 -43l-224 674l-76 226h-1l-74 -226l-379 -1141h-133zM445 1600q-41 0 -68 29t-27 75q0 45 27 74t68 29q38 0 66.5 -29t28.5 -74q0 -46 -28.5 -75t-66.5 -29zM800 1600q-41 0 -68 29t-27 75
q0 45 27 74t68 29q38 0 66.5 -29t28.5 -74q0 -46 -28.5 -75t-66.5 -29z" />
    <glyph glyph-name="Aring" unicode="&#xc5;" horiz-adv-x="1245" 
d="M35 0l486 1454h204l485 -1454h-133l-148 446l72 -54h-782l62 118h681l-40 -43l-224 674l-76 226h-1l-74 -226l-379 -1141h-133zM623 1436q-80 0 -136.5 58t-56.5 133q0 81 56.5 134.5t136.5 53.5t136 -53.5t56 -134.5q0 -75 -56 -133t-136 -58zM623 1527q39 0 64 30
t25 70q0 49 -25 73t-64 24t-64 -24t-25 -73q0 -40 25 -70t64 -30z" />
    <glyph glyph-name="AE" unicode="&#xc6;" horiz-adv-x="1711" 
d="M-25 0l746 1454h101l71 -27h-72l-120 -286l-583 -1141h-143zM219 392l62 118h587v-118h-649zM822 0v1454h794v-118h-718l49 51v-598l-49 29h671v-116h-671l49 27v-671l-49 61h738v-119h-814z" />
    <glyph glyph-name="Ccedilla" unicode="&#xc7;" horiz-adv-x="1358" 
d="M739 -21q-195 0 -342.5 92t-229.5 261t-82 399q0 224 80.5 392.5t228 263t347.5 94.5q154 0 272.5 -61t187.5 -171.5t74 -259.5h-128q-4 111 -58 195.5t-145.5 132.5t-207.5 48q-162 0 -279 -78t-179.5 -219.5t-62.5 -334.5q0 -206 66.5 -348.5t184.5 -216t271 -73.5
q109 0 201.5 49t150 130t60.5 176h125q-10 -141 -82 -247t-189 -165t-264 -59zM717 -350q-34 0 -65 7t-51 16l1 95q52 -25 97 -25q42 0 61.5 23.5t19.5 58.5q0 51 -40 98.5t-125 76.5h124q84 -31 122 -80t38 -108q0 -67 -46 -114.5t-136 -47.5z" />
    <glyph glyph-name="Egrave" unicode="&#xc8;" horiz-adv-x="1149" 
d="M180 0v1454h874v-118h-798l49 51v-598l-49 29h746v-116h-746l49 27v-671l-49 61h818v-119h-894zM569 1618l-204 277h154l180 -277h-130z" />
    <glyph glyph-name="Eacute" unicode="&#xc9;" horiz-adv-x="1149" 
d="M180 0v1454h874v-118h-798l49 51v-598l-49 29h746v-116h-746l49 27v-671l-49 61h818v-119h-894zM568 1618l180 277h154l-204 -277h-130z" />
    <glyph glyph-name="Ecircumflex" unicode="&#xca;" horiz-adv-x="1149" 
d="M180 0v1454h874v-118h-798l49 51v-598l-49 29h746v-116h-746l49 27v-671l-49 61h818v-119h-894zM375 1618l180 258h152l180 -258h-128l-128 173l-128 -173h-128z" />
    <glyph glyph-name="Edieresis" unicode="&#xcb;" horiz-adv-x="1149" 
d="M180 0v1454h874v-118h-798l49 51v-598l-49 29h746v-116h-746l49 27v-671l-49 61h818v-119h-894zM453 1600q-41 0 -68 29t-27 75q0 45 27 74t68 29q38 0 66.5 -29t28.5 -74q0 -46 -28.5 -75t-66.5 -29zM808 1600q-41 0 -68 29t-27 75q0 45 27 74t68 29q38 0 66.5 -29
t28.5 -74q0 -46 -28.5 -75t-66.5 -29z" />
    <glyph glyph-name="Igrave" unicode="&#xcc;" horiz-adv-x="502" 
d="M188 0v1454h126v-1454h-126zM189 1618l-204 277h154l180 -277h-130z" />
    <glyph glyph-name="Iacute" unicode="&#xcd;" horiz-adv-x="502" 
d="M188 0v1454h126v-1454h-126zM188 1618l180 277h154l-204 -277h-130z" />
    <glyph glyph-name="Icircumflex" unicode="&#xce;" horiz-adv-x="502" 
d="M188 0v1454h126v-1454h-126zM-5 1618l180 258h152l180 -258h-128l-128 173l-128 -173h-128z" />
    <glyph glyph-name="Idieresis" unicode="&#xcf;" horiz-adv-x="502" 
d="M188 0v1454h126v-1454h-126zM73 1600q-41 0 -68 29t-27 75q0 45 27 74t68 29q38 0 66.5 -29t28.5 -74q0 -46 -28.5 -75t-66.5 -29zM428 1600q-41 0 -68 29t-27 75q0 45 27 74t68 29q38 0 66.5 -29t28.5 -74q0 -46 -28.5 -75t-66.5 -29z" />
    <glyph glyph-name="Eth" unicode="&#xd0;" horiz-adv-x="1319" 
d="M280 0l1 119h255q188 0 313 78t187.5 216.5t62.5 320.5q0 191 -62.5 325.5t-187.5 205t-314 70.5h-263v119h280q198 0 351 -76.5t239.5 -235.5t86.5 -406q0 -241 -86.5 -405t-239 -247.5t-350.5 -83.5h-273zM180 0v1454h125v-1454h-125zM47 672v114h574l-3 -114h-571z
" />
    <glyph glyph-name="Ntilde" unicode="&#xd1;" horiz-adv-x="1374" 
d="M180 0v1454h195l498 -952l208 -423h7l-19 423v952h125v-1454h-195l-496 950l-208 425h-8l18 -425v-950h-125zM827 1600q-66 0 -105 26t-64 59.5t-49 59.5t-60 26q-51 0 -73 -38.5t-9 -114.5h-106q-11 74 8.5 130.5t64 88.5t107.5 32q65 0 103 -26t62.5 -60t48 -60
t60.5 -26q51 0 74.5 34.5t18.5 102.5h107q18 -103 -38 -168.5t-150 -65.5z" />
    <glyph glyph-name="Ograve" unicode="&#xd2;" horiz-adv-x="1493" 
d="M745 -30q-175 0 -319.5 88t-230.5 259t-86 419q0 240 86.5 407t231.5 253.5t319 86.5q177 0 321.5 -86.5t230.5 -253.5t86 -407q0 -248 -86.5 -419t-231.5 -259t-321 -88zM745 87q135 0 251 69t187 212t71 366q0 211 -71.5 351.5t-187.5 210.5t-249 70q-129 0 -245 -70
t-189 -210.5t-73 -351.5q0 -167 43 -289t115.5 -201.5t162.5 -118t185 -38.5zM685 1618l-204 277h154l180 -277h-130z" />
    <glyph glyph-name="Oacute" unicode="&#xd3;" horiz-adv-x="1493" 
d="M745 -30q-175 0 -319.5 88t-230.5 259t-86 419q0 240 86.5 407t231.5 253.5t319 86.5q177 0 321.5 -86.5t230.5 -253.5t86 -407q0 -248 -86.5 -419t-231.5 -259t-321 -88zM745 87q135 0 251 69t187 212t71 366q0 211 -71.5 351.5t-187.5 210.5t-249 70q-129 0 -245 -70
t-189 -210.5t-73 -351.5q0 -167 43 -289t115.5 -201.5t162.5 -118t185 -38.5zM698 1645l159 231h154l-183 -231h-130z" />
    <glyph glyph-name="Ocircumflex" unicode="&#xd4;" horiz-adv-x="1493" 
d="M745 -30q-175 0 -319.5 88t-230.5 259t-86 419q0 240 86.5 407t231.5 253.5t319 86.5q177 0 321.5 -86.5t230.5 -253.5t86 -407q0 -248 -86.5 -419t-231.5 -259t-321 -88zM745 87q135 0 251 69t187 212t71 366q0 211 -71.5 351.5t-187.5 210.5t-249 70q-129 0 -245 -70
t-189 -210.5t-73 -351.5q0 -167 43 -289t115.5 -201.5t162.5 -118t185 -38.5zM491 1624l180 252h152l180 -252h-128l-128 163l-128 -163h-128z" />
    <glyph glyph-name="Otilde" unicode="&#xd5;" horiz-adv-x="1493" 
d="M745 -30q-175 0 -319.5 88t-230.5 259t-86 419q0 240 86.5 407t231.5 253.5t319 86.5q177 0 321.5 -86.5t230.5 -253.5t86 -407q0 -248 -86.5 -419t-231.5 -259t-321 -88zM745 87q135 0 251 69t187 212t71 366q0 211 -71.5 351.5t-187.5 210.5t-249 70q-129 0 -245 -70
t-189 -210.5t-73 -351.5q0 -167 43 -289t115.5 -201.5t162.5 -118t185 -38.5zM886 1600q-66 0 -105 26t-64 59.5t-49 59.5t-60 26q-51 0 -73 -38.5t-9 -114.5h-106q-11 74 8.5 130.5t64 88.5t107.5 32q65 0 103 -26t62.5 -60t48 -60t60.5 -26q51 0 74.5 34.5t18.5 102.5h107
q18 -103 -38 -168.5t-150 -65.5z" />
    <glyph glyph-name="Odieresis" unicode="&#xd6;" horiz-adv-x="1493" 
d="M745 -30q-175 0 -319.5 88t-230.5 259t-86 419q0 240 86.5 407t231.5 253.5t319 86.5q177 0 321.5 -86.5t230.5 -253.5t86 -407q0 -248 -86.5 -419t-231.5 -259t-321 -88zM745 87q135 0 251 69t187 212t71 366q0 211 -71.5 351.5t-187.5 210.5t-249 70q-129 0 -245 -70
t-189 -210.5t-73 -351.5q0 -167 43 -289t115.5 -201.5t162.5 -118t185 -38.5zM569 1600q-41 0 -68 29t-27 75q0 45 27 74t68 29q38 0 66.5 -29t28.5 -74q0 -46 -28.5 -75t-66.5 -29zM924 1600q-41 0 -68 29t-27 75q0 45 27 74t68 29q38 0 66.5 -29t28.5 -74q0 -46 -28.5 -75
t-66.5 -29z" />
    <glyph glyph-name="multiply" unicode="&#xd7;" horiz-adv-x="836" 
d="M606 430l-454 464l80 80l454 -464zM230 430l-80 80l444 464l80 -80z" />
    <glyph glyph-name="Oslash" unicode="&#xd8;" horiz-adv-x="1493" 
d="M745 -30q-175 0 -319.5 88t-230.5 259t-86 419q0 240 86.5 407t231.5 253.5t319 86.5q177 0 321.5 -86.5t230.5 -253.5t86 -407q0 -248 -86.5 -419t-231.5 -259t-321 -88zM745 87q135 0 251 69t187 212t71 366q0 211 -71.5 351.5t-187.5 210.5t-249 70q-129 0 -245 -70
t-189 -210.5t-73 -351.5q0 -167 43 -289t115.5 -201.5t162.5 -118t185 -38.5zM265 -77l119 236l42 42l549 1107l8 44l86 172h166l-105 -209l-44 -47l-559 -1128l-6 -40l-90 -177h-166z" />
    <glyph glyph-name="Ugrave" unicode="&#xd9;" horiz-adv-x="1284" 
d="M641 -20q-137 0 -253.5 64t-187 194t-70.5 328v888h125v-890q0 -135 35.5 -225t93.5 -142t126.5 -74.5t134.5 -22.5t133.5 22.5t124 74.5t91.5 142t35 225v890h125v-888q0 -198 -71 -328t-187.5 -194t-254.5 -64zM579 1618l-204 277h154l180 -277h-130z" />
    <glyph glyph-name="Uacute" unicode="&#xda;" horiz-adv-x="1284" 
d="M641 -20q-137 0 -253.5 64t-187 194t-70.5 328v888h125v-890q0 -135 35.5 -225t93.5 -142t126.5 -74.5t134.5 -22.5t133.5 22.5t124 74.5t91.5 142t35 225v890h125v-888q0 -198 -71 -328t-187.5 -194t-254.5 -64zM578 1618l180 277h154l-204 -277h-130z" />
    <glyph glyph-name="Ucircumflex" unicode="&#xdb;" horiz-adv-x="1284" 
d="M641 -20q-137 0 -253.5 64t-187 194t-70.5 328v888h125v-890q0 -135 35.5 -225t93.5 -142t126.5 -74.5t134.5 -22.5t133.5 22.5t124 74.5t91.5 142t35 225v890h125v-888q0 -198 -71 -328t-187.5 -194t-254.5 -64zM385 1618l180 258h152l180 -258h-128l-128 173l-128 -173
h-128z" />
    <glyph glyph-name="Udieresis" unicode="&#xdc;" horiz-adv-x="1284" 
d="M641 -20q-137 0 -253.5 64t-187 194t-70.5 328v888h125v-890q0 -135 35.5 -225t93.5 -142t126.5 -74.5t134.5 -22.5t133.5 22.5t124 74.5t91.5 142t35 225v890h125v-888q0 -198 -71 -328t-187.5 -194t-254.5 -64zM463 1600q-41 0 -68 29t-27 75q0 45 27 74t68 29
q38 0 66.5 -29t28.5 -74q0 -46 -28.5 -75t-66.5 -29zM818 1600q-41 0 -68 29t-27 75q0 45 27 74t68 29q38 0 66.5 -29t28.5 -74q0 -46 -28.5 -75t-66.5 -29z" />
    <glyph glyph-name="Yacute" unicode="&#xdd;" horiz-adv-x="1245" 
d="M565 528l-525 926h145l216 -416l216 -382h10l217 382l216 416h145l-525 -926h-115zM560 0v581h124v-581h-124zM560 1618l180 277h154l-204 -277h-130z" />
    <glyph glyph-name="Thorn" unicode="&#xde;" horiz-adv-x="1147" 
d="M382 286q-38 0 -58 16.5t-20 36.5l-69 29l70 36h317q143 0 224 96.5t81 238.5t-82.5 225.5t-237.5 83.5h-308l-86 118h121.5h146.5h110q222 0 344 -106t122 -300q0 -108 -33 -195t-94.5 -149.5t-147 -96t-191.5 -33.5h-209zM180 0v1454h125v-1454h-125z" />
    <glyph glyph-name="germandbls" unicode="&#xdf;" horiz-adv-x="1084" 
d="M150 0v1135q0 166 60 264.5t155.5 142.5t203.5 44q123 0 204 -49.5t120 -131.5t35 -180q-2 -69 -34 -135t-90 -120t-140 -88q95 -14 161 -56t106.5 -102.5t59 -129t18.5 -134.5q0 -144 -53 -249.5t-155.5 -163t-253.5 -57.5q-34 2 -69 2t-70 4v115q26 -4 52 -6t52 -2
q206 0 288.5 95.5t82.5 258.5q0 129 -50 207t-139 111.5t-206 29.5h-36v116h36q134 0 222.5 83.5t93.5 221.5q2 61 -17.5 117t-71 92t-146.5 36q-77 0 -145.5 -30t-111 -102.5t-42.5 -200.5v-1138h-120z" />
    <glyph glyph-name="agrave" unicode="&#xe0;" horiz-adv-x="1101" 
d="M448 -12q-111 0 -183.5 41t-108.5 111.5t-36 156.5q0 77 35.5 137t103.5 101t165 62q57 12 121 19t132.5 11.5t135.5 6.5v84q0 161 -71 219t-198 58q-76 0 -143 -22t-106 -82t-33 -175h-124q-13 123 36.5 212t146.5 136.5t229 47.5q72 0 140 -18.5t122.5 -60.5t86.5 -113
t32 -177v-743h-118v227q-37 -117 -139 -178t-226 -61zM465 91q108 0 181 41.5t114 97t53 94.5v226q-87 -4 -182.5 -14t-172.5 -31q-100 -27 -154 -77t-54 -127q0 -52 18.5 -100t65 -78.5t131.5 -31.5zM483 1282l-184 231h154l160 -231h-130z" />
    <glyph glyph-name="aacute" unicode="&#xe1;" horiz-adv-x="1101" 
d="M448 -12q-111 0 -183.5 41t-108.5 111.5t-36 156.5q0 77 35.5 137t103.5 101t165 62q57 12 121 19t132.5 11.5t135.5 6.5v84q0 161 -71 219t-198 58q-76 0 -143 -22t-106 -82t-33 -175h-124q-13 123 36.5 212t146.5 136.5t229 47.5q72 0 140 -18.5t122.5 -60.5t86.5 -113
t32 -177v-743h-118v227q-37 -117 -139 -178t-226 -61zM465 91q108 0 181 41.5t114 97t53 94.5v226q-87 -4 -182.5 -14t-172.5 -31q-100 -27 -154 -77t-54 -127q0 -52 18.5 -100t65 -78.5t131.5 -31.5zM505 1282l159 231h154l-183 -231h-130z" />
    <glyph glyph-name="acircumflex" unicode="&#xe2;" horiz-adv-x="1101" 
d="M448 -12q-111 0 -183.5 41t-108.5 111.5t-36 156.5q0 77 35.5 137t103.5 101t165 62q57 12 121 19t132.5 11.5t135.5 6.5v84q0 161 -71 219t-198 58q-76 0 -143 -22t-106 -82t-33 -175h-124q-13 123 36.5 212t146.5 136.5t229 47.5q72 0 140 -18.5t122.5 -60.5t86.5 -113
t32 -177v-743h-118v227q-37 -117 -139 -178t-226 -61zM465 91q108 0 181 41.5t114 97t53 94.5v226q-87 -4 -182.5 -14t-172.5 -31q-100 -27 -154 -77t-54 -127q0 -52 18.5 -100t65 -78.5t131.5 -31.5zM298 1261l180 252h152l180 -252h-128l-128 163l-128 -163h-128z" />
    <glyph glyph-name="atilde" unicode="&#xe3;" horiz-adv-x="1101" 
d="M448 -12q-111 0 -183.5 41t-108.5 111.5t-36 156.5q0 77 35.5 137t103.5 101t165 62q57 12 121 19t132.5 11.5t135.5 6.5v84q0 161 -71 219t-198 58q-76 0 -143 -22t-106 -82t-33 -175h-124q-13 123 36.5 212t146.5 136.5t229 47.5q72 0 140 -18.5t122.5 -60.5t86.5 -113
t32 -177v-743h-118v227q-37 -117 -139 -178t-226 -61zM465 91q108 0 181 41.5t114 97t53 94.5v226q-87 -4 -182.5 -14t-172.5 -31q-100 -27 -154 -77t-54 -127q0 -52 18.5 -100t65 -78.5t131.5 -31.5zM686 1237q-63 0 -100.5 25t-61 58.5t-46.5 58.5t-58 25
q-49 0 -70.5 -37.5t-8.5 -105.5h-102q-10 69 8.5 123.5t61.5 86t103 31.5q63 0 99 -25.5t59.5 -58.5t46.5 -58.5t58 -25.5q49 0 71.5 29.5t17.5 97.5h103q17 -103 -36.5 -163.5t-144.5 -60.5z" />
    <glyph glyph-name="adieresis" unicode="&#xe4;" horiz-adv-x="1101" 
d="M448 -12q-111 0 -183.5 41t-108.5 111.5t-36 156.5q0 77 35.5 137t103.5 101t165 62q57 12 121 19t132.5 11.5t135.5 6.5v84q0 161 -71 219t-198 58q-76 0 -143 -22t-106 -82t-33 -175h-124q-13 123 36.5 212t146.5 136.5t229 47.5q72 0 140 -18.5t122.5 -60.5t86.5 -113
t32 -177v-743h-118v227q-37 -117 -139 -178t-226 -61zM465 91q108 0 181 41.5t114 97t53 94.5v226q-87 -4 -182.5 -14t-172.5 -31q-100 -27 -154 -77t-54 -127q0 -52 18.5 -100t65 -78.5t131.5 -31.5zM396 1261q-41 0 -68 29t-27 75q0 45 27 74t68 29q38 0 66.5 -29
t28.5 -74q0 -46 -28.5 -75t-66.5 -29zM711 1261q-41 0 -68 29t-27 75q0 45 27 74t68 29q38 0 66.5 -29t28.5 -74q0 -46 -28.5 -75t-66.5 -29z" />
    <glyph glyph-name="aring" unicode="&#xe5;" horiz-adv-x="1101" 
d="M448 -12q-111 0 -183.5 41t-108.5 111.5t-36 156.5q0 77 35.5 137t103.5 101t165 62q57 12 121 19t132.5 11.5t135.5 6.5v84q0 161 -71 219t-198 58q-76 0 -143 -22t-106 -82t-33 -175h-124q-13 123 36.5 212t146.5 136.5t229 47.5q72 0 140 -18.5t122.5 -60.5t86.5 -113
t32 -177v-743h-118v227q-37 -117 -139 -178t-226 -61zM465 91q108 0 181 41.5t114 97t53 94.5v226q-87 -4 -182.5 -14t-172.5 -31q-100 -27 -154 -77t-54 -127q0 -52 18.5 -100t65 -78.5t131.5 -31.5zM554 1261q-91 0 -148 59.5t-57 139.5q0 83 57 139.5t148 56.5
q90 0 146.5 -56.5t56.5 -139.5q0 -80 -56.5 -139.5t-146.5 -59.5zM554 1348q50 0 75.5 33.5t25.5 76.5q0 50 -25.5 79.5t-75.5 29.5q-49 0 -75.5 -29.5t-26.5 -79.5q0 -43 26.5 -76.5t75.5 -33.5z" />
    <glyph glyph-name="ae" unicode="&#xe6;" horiz-adv-x="1809" 
d="M443 -12q-108 0 -180 42t-107.5 112t-35.5 154q0 116 79 192t227 109q56 13 119.5 20t131.5 11t136 6v84q0 159 -71.5 218t-201.5 59q-76 0 -141.5 -21t-103.5 -81t-33 -177h-124q-13 126 35.5 214.5t145 135t228.5 46.5q141 0 234.5 -66.5t115.5 -188.5
q46 115 148 185.5t238 70.5q129 0 227.5 -64.5t154.5 -178.5t56 -262q0 -16 -1 -37t-4 -54h-778q8 -196 103.5 -306.5t268.5 -110.5q120 0 188 54.5t81 155.5h122q-4 -99 -56 -171t-142.5 -111.5t-212.5 -39.5q-104 0 -188.5 34t-146 99t-97.5 156q-55 -132 -166.5 -210.5
t-248.5 -78.5zM465 91q110 0 182 41t112 94t52 87v238q-84 -5 -181.5 -16t-176.5 -32q-96 -25 -149.5 -75t-53.5 -132q0 -49 18.5 -96t65.5 -78t131 -31zM938 563q6 33 26.5 47.5t62.5 14.5h571q0 165 -87 269t-232 104q-151 0 -243.5 -116.5t-97.5 -318.5z" />
    <glyph glyph-name="ccedilla" unicode="&#xe7;" horiz-adv-x="1087" 
d="M559 -15q-136 0 -242 65t-166.5 189.5t-60.5 300.5q0 185 62 312.5t171 193.5t248 66q125 0 215.5 -50.5t144 -135t68.5 -186.5h-129q-4 32 -22 75.5t-54 85t-93 68.5t-140 27q-163 0 -254 -115t-91 -332q0 -210 91.5 -329t257.5 -119q110 0 170 38.5t86.5 93.5t36.5 104
h129q-13 -86 -61 -167t-138 -133t-229 -52zM550 -353q-36 0 -64.5 3t-48.5 12l1 118q48 -15 98 -15q29 0 49.5 18t20.5 51q0 47 -20 84t-86 82h40q86 -14 138.5 -74.5t52.5 -117.5q0 -74 -52 -117.5t-129 -43.5z" />
    <glyph glyph-name="egrave" unicode="&#xe8;" horiz-adv-x="1095" 
d="M571 -15q-136 0 -244 65.5t-171 192.5t-63 310q0 174 62 299.5t170.5 193t246.5 67.5q135 0 232.5 -65.5t150.5 -179.5t52 -262q0 -29 -2 -53l-3 -36h-788q6 -194 103 -305.5t263 -111.5q127 0 198 50t87 160h122q-4 -104 -59.5 -177t-147.5 -110.5t-209 -37.5zM303 625
h581q0 172 -84.5 272.5t-234.5 100.5q-166 0 -256 -115t-95 -320q7 39 31 50.5t58 11.5zM497 1282l-184 231h154l160 -231h-130z" />
    <glyph glyph-name="eacute" unicode="&#xe9;" horiz-adv-x="1095" 
d="M571 -15q-136 0 -244 65.5t-171 192.5t-63 310q0 174 62 299.5t170.5 193t246.5 67.5q135 0 232.5 -65.5t150.5 -179.5t52 -262q0 -29 -2 -53l-3 -36h-788q6 -194 103 -305.5t263 -111.5q127 0 198 50t87 160h122q-4 -104 -59.5 -177t-147.5 -110.5t-209 -37.5zM303 625
h581q0 172 -84.5 272.5t-234.5 100.5q-166 0 -256 -115t-95 -320q7 39 31 50.5t58 11.5zM519 1282l159 231h154l-183 -231h-130z" />
    <glyph glyph-name="ecircumflex" unicode="&#xea;" horiz-adv-x="1095" 
d="M571 -15q-136 0 -244 65.5t-171 192.5t-63 310q0 174 62 299.5t170.5 193t246.5 67.5q135 0 232.5 -65.5t150.5 -179.5t52 -262q0 -29 -2 -53l-3 -36h-788q6 -194 103 -305.5t263 -111.5q127 0 198 50t87 160h122q-4 -104 -59.5 -177t-147.5 -110.5t-209 -37.5zM303 625
h581q0 172 -84.5 272.5t-234.5 100.5q-166 0 -256 -115t-95 -320q7 39 31 50.5t58 11.5zM312 1261l180 252h152l180 -252h-128l-128 163l-128 -163h-128z" />
    <glyph glyph-name="edieresis" unicode="&#xeb;" horiz-adv-x="1095" 
d="M571 -15q-136 0 -244 65.5t-171 192.5t-63 310q0 174 62 299.5t170.5 193t246.5 67.5q135 0 232.5 -65.5t150.5 -179.5t52 -262q0 -29 -2 -53l-3 -36h-788q6 -194 103 -305.5t263 -111.5q127 0 198 50t87 160h122q-4 -104 -59.5 -177t-147.5 -110.5t-209 -37.5zM303 625
h581q0 172 -84.5 272.5t-234.5 100.5q-166 0 -256 -115t-95 -320q7 39 31 50.5t58 11.5zM410 1261q-41 0 -68 29t-27 75q0 45 27 74t68 29q38 0 66.5 -29t28.5 -74q0 -46 -28.5 -75t-66.5 -29zM725 1261q-41 0 -68 29t-27 75q0 45 27 74t68 29q38 0 66.5 -29t28.5 -74
q0 -46 -28.5 -75t-66.5 -29z" />
    <glyph glyph-name="igrave" unicode="&#xec;" horiz-adv-x="522" 
d="M200 0v1091h122v-1091h-122zM191 1282l-184 231h154l160 -231h-130z" />
    <glyph glyph-name="iacute" unicode="&#xed;" horiz-adv-x="522" 
d="M200 0v1091h122v-1091h-122zM213 1282l159 231h154l-183 -231h-130z" />
    <glyph glyph-name="icircumflex" unicode="&#xee;" horiz-adv-x="522" 
d="M200 0v1091h122v-1091h-122zM6 1261l180 252h152l180 -252h-128l-128 163l-128 -163h-128z" />
    <glyph glyph-name="idieresis" unicode="&#xef;" horiz-adv-x="522" 
d="M200 0v1091h122v-1091h-122zM104 1261q-41 0 -68 29t-27 75q0 45 27 74t68 29q38 0 66.5 -29t28.5 -74q0 -46 -28.5 -75t-66.5 -29zM419 1261q-41 0 -68 29t-27 75q0 45 27 74t68 29q38 0 66.5 -29t28.5 -74q0 -46 -28.5 -75t-66.5 -29z" />
    <glyph glyph-name="eth" unicode="&#xf0;" horiz-adv-x="1085" 
d="M533 0q-124 0 -224.5 58t-159.5 165t-59 255t58 254.5t154.5 163.5t210.5 57q60 0 116 -17t104 -53.5t84.5 -93t56.5 -136.5l-14 -6q0 126 -31 240t-84.5 215.5t-120.5 191.5t-141 168.5t-145 145.5l-21 -52l214 30q108 -103 193 -217t143.5 -238t89 -258t30.5 -277
q0 -169 -39 -283.5t-104.5 -183t-146 -99t-164.5 -30.5zM514 116q123 0 200 54.5t113 149t36 213.5q0 29 -2 56t-5.5 46t-6.5 24q-14 18 -52 61t-103.5 80t-163.5 37q-135 0 -224 -90t-89 -269q0 -161 77.5 -261.5t219.5 -100.5zM423 1133v124l178 133l27 15l244 195
l-4 -124l-186 -140l-34 -18z" />
    <glyph glyph-name="ntilde" unicode="&#xf1;" horiz-adv-x="1149" 
d="M180 0v1091h101l11 -410l-18 82q14 109 65.5 187.5t134 121t189.5 42.5q146 0 231 -88.5t85 -252.5v-773h-120v739q0 93 -23.5 149.5t-72.5 82t-128 25.5q-109 0 -186.5 -57.5t-148.5 -194.5v-744h-120zM755 1237q-63 0 -100.5 25t-61 58.5t-46.5 58.5t-58 25
q-49 0 -70.5 -37.5t-8.5 -105.5h-102q-10 69 8.5 123.5t61.5 86t103 31.5q63 0 99 -25.5t59.5 -58.5t46.5 -58.5t58 -25.5q49 0 71.5 29.5t17.5 97.5h103q17 -103 -36.5 -163.5t-144.5 -60.5z" />
    <glyph glyph-name="ograve" unicode="&#xf2;" horiz-adv-x="1109" 
d="M552 -15q-134 0 -238.5 65t-164 191.5t-59.5 310.5q0 174 63.5 299.5t169.5 193t233 67.5q139 0 243 -67.5t162 -193t58 -299.5q0 -184 -64.5 -310.5t-171 -191.5t-231.5 -65zM556 101q159 0 248 118.5t89 332.5q0 212 -90 328t-251 116q-155 0 -245.5 -118t-90.5 -326
q0 -212 91 -331.5t249 -119.5zM485 1282l-184 231h154l160 -231h-130z" />
    <glyph glyph-name="oacute" unicode="&#xf3;" horiz-adv-x="1109" 
d="M552 -15q-134 0 -238.5 65t-164 191.5t-59.5 310.5q0 174 63.5 299.5t169.5 193t233 67.5q139 0 243 -67.5t162 -193t58 -299.5q0 -184 -64.5 -310.5t-171 -191.5t-231.5 -65zM556 101q159 0 248 118.5t89 332.5q0 212 -90 328t-251 116q-155 0 -245.5 -118t-90.5 -326
q0 -212 91 -331.5t249 -119.5zM507 1282l159 231h154l-183 -231h-130z" />
    <glyph glyph-name="ocircumflex" unicode="&#xf4;" horiz-adv-x="1109" 
d="M552 -15q-134 0 -238.5 65t-164 191.5t-59.5 310.5q0 174 63.5 299.5t169.5 193t233 67.5q139 0 243 -67.5t162 -193t58 -299.5q0 -184 -64.5 -310.5t-171 -191.5t-231.5 -65zM556 101q159 0 248 118.5t89 332.5q0 212 -90 328t-251 116q-155 0 -245.5 -118t-90.5 -326
q0 -212 91 -331.5t249 -119.5zM300 1261l180 252h152l180 -252h-128l-128 163l-128 -163h-128z" />
    <glyph glyph-name="otilde" unicode="&#xf5;" horiz-adv-x="1109" 
d="M552 -15q-134 0 -238.5 65t-164 191.5t-59.5 310.5q0 174 63.5 299.5t169.5 193t233 67.5q139 0 243 -67.5t162 -193t58 -299.5q0 -184 -64.5 -310.5t-171 -191.5t-231.5 -65zM556 101q159 0 248 118.5t89 332.5q0 212 -90 328t-251 116q-155 0 -245.5 -118t-90.5 -326
q0 -212 91 -331.5t249 -119.5zM688 1237q-63 0 -100.5 25t-61 58.5t-46.5 58.5t-58 25q-49 0 -70.5 -37.5t-8.5 -105.5h-102q-10 69 8.5 123.5t61.5 86t103 31.5q63 0 99 -25.5t59.5 -58.5t46.5 -58.5t58 -25.5q49 0 71.5 29.5t17.5 97.5h103q17 -103 -36.5 -163.5
t-144.5 -60.5z" />
    <glyph glyph-name="odieresis" unicode="&#xf6;" horiz-adv-x="1109" 
d="M552 -15q-134 0 -238.5 65t-164 191.5t-59.5 310.5q0 174 63.5 299.5t169.5 193t233 67.5q139 0 243 -67.5t162 -193t58 -299.5q0 -184 -64.5 -310.5t-171 -191.5t-231.5 -65zM556 101q159 0 248 118.5t89 332.5q0 212 -90 328t-251 116q-155 0 -245.5 -118t-90.5 -326
q0 -212 91 -331.5t249 -119.5zM398 1261q-41 0 -68 29t-27 75q0 45 27 74t68 29q38 0 66.5 -29t28.5 -74q0 -46 -28.5 -75t-66.5 -29zM713 1261q-41 0 -68 29t-27 75q0 45 27 74t68 29q38 0 66.5 -29t28.5 -74q0 -46 -28.5 -75t-66.5 -29z" />
    <glyph glyph-name="divide" unicode="&#xf7;" horiz-adv-x="900" 
d="M150 641v116h600v-116h-600zM450 853q-40 0 -69 28.5t-29 73.5q0 44 29 72.5t69 28.5q41 0 69.5 -28.5t28.5 -72.5q0 -45 -28.5 -73.5t-69.5 -28.5zM450 342q-40 0 -69 28.5t-29 73.5q0 44 29 72.5t69 28.5q41 0 69.5 -28.5t28.5 -72.5q0 -45 -28.5 -73.5t-69.5 -28.5z
" />
    <glyph glyph-name="oslash" unicode="&#xf8;" horiz-adv-x="1109" 
d="M552 -15q-134 0 -238.5 65t-164 191.5t-59.5 310.5q0 174 63.5 299.5t169.5 193t233 67.5q139 0 243 -67.5t162 -193t58 -299.5q0 -184 -64.5 -310.5t-171 -191.5t-231.5 -65zM556 101q159 0 248 118.5t89 332.5q0 212 -90 328t-251 116q-155 0 -245.5 -118t-90.5 -326
q0 -212 91 -331.5t249 -119.5zM125 -44l144 228l37 34l446 713l13 35l104 168h116l-123 -197l-39 -38l-456 -730l-11 -31l-115 -182h-116z" />
    <glyph glyph-name="ugrave" unicode="&#xf9;" horiz-adv-x="1120" 
d="M479 -22q-141 0 -225 90.5t-84 244.5v778h120v-738q0 -89 20.5 -146t64 -83.5t111.5 -27.5q113 0 186.5 55.5t147.5 194.5v745h120v-1091h-105l-13 323l24 6q-14 -105 -64.5 -184t-128.5 -123t-174 -44zM484 1282l-184 231h154l160 -231h-130z" />
    <glyph glyph-name="uacute" unicode="&#xfa;" horiz-adv-x="1120" 
d="M479 -22q-141 0 -225 90.5t-84 244.5v778h120v-738q0 -89 20.5 -146t64 -83.5t111.5 -27.5q113 0 186.5 55.5t147.5 194.5v745h120v-1091h-105l-13 323l24 6q-14 -105 -64.5 -184t-128.5 -123t-174 -44zM506 1282l159 231h154l-183 -231h-130z" />
    <glyph glyph-name="ucircumflex" unicode="&#xfb;" horiz-adv-x="1120" 
d="M479 -22q-141 0 -225 90.5t-84 244.5v778h120v-738q0 -89 20.5 -146t64 -83.5t111.5 -27.5q113 0 186.5 55.5t147.5 194.5v745h120v-1091h-105l-13 323l24 6q-14 -105 -64.5 -184t-128.5 -123t-174 -44zM299 1261l180 252h152l180 -252h-128l-128 163l-128 -163h-128z
" />
    <glyph glyph-name="udieresis" unicode="&#xfc;" horiz-adv-x="1120" 
d="M479 -22q-141 0 -225 90.5t-84 244.5v778h120v-738q0 -89 20.5 -146t64 -83.5t111.5 -27.5q113 0 186.5 55.5t147.5 194.5v745h120v-1091h-105l-13 323l24 6q-14 -105 -64.5 -184t-128.5 -123t-174 -44zM397 1261q-41 0 -68 29t-27 75q0 45 27 74t68 29q38 0 66.5 -29
t28.5 -74q0 -46 -28.5 -75t-66.5 -29zM712 1261q-41 0 -68 29t-27 75q0 45 27 74t68 29q38 0 66.5 -29t28.5 -74q0 -46 -28.5 -75t-66.5 -29z" />
    <glyph glyph-name="yacute" unicode="&#xfd;" horiz-adv-x="977" 
d="M112 -431v118h81q73 0 111.5 24.5t59 66.5t37.5 95q21 65 30.5 91t30.5 36h-42l-384 1091h135l164 -495l150 -463h5l153 463l169 495h135l-393 -1091q-35 -98 -60 -177.5t-57.5 -136t-89 -87t-154.5 -30.5h-81zM445 1282l159 231h154l-183 -231h-130z" />
    <glyph glyph-name="thorn" unicode="&#xfe;" horiz-adv-x="1121" 
d="M579 -11q-95 0 -160 38t-99.5 87t-40.5 80l-34 35l45 27q15 -23 54 -58.5t98 -63.5t132 -28q140 0 231.5 122t91.5 348q0 216 -84.5 318.5t-218.5 102.5q-79 0 -141.5 -30.5t-104 -77.5t-58.5 -98v76q6 38 29.5 81t64.5 80.5t99.5 61t133.5 23.5q112 0 204 -60t147 -180
t55 -300q0 -153 -39 -263.5t-104 -181.5t-143.5 -105t-157.5 -34zM170 -403v1959h122v-612l-2 -688l-11 -62l12 -194l1 -403h-122z" />
    <glyph glyph-name="ydieresis" unicode="&#xff;" horiz-adv-x="977" 
d="M112 -431v118h81q73 0 111.5 24.5t59 66.5t37.5 95q21 65 30.5 91t30.5 36h-42l-384 1091h135l164 -495l150 -463h5l153 463l169 495h135l-393 -1091q-35 -98 -60 -177.5t-57.5 -136t-89 -87t-154.5 -30.5h-81zM336 1261q-41 0 -68 29t-27 75q0 45 27 74t68 29
q38 0 66.5 -29t28.5 -74q0 -46 -28.5 -75t-66.5 -29zM651 1261q-41 0 -68 29t-27 75q0 45 27 74t68 29q38 0 66.5 -29t28.5 -74q0 -46 -28.5 -75t-66.5 -29z" />
    <glyph glyph-name="Amacron" unicode="&#x100;" horiz-adv-x="1245" 
d="M35 0l486 1454h204l485 -1454h-133l-148 446l72 -54h-782l62 118h681l-40 -43l-224 674l-76 226h-1l-74 -226l-379 -1141h-133zM351 1617v118h544l-3 -118h-541z" />
    <glyph glyph-name="amacron" unicode="&#x101;" horiz-adv-x="1101" 
d="M448 -12q-111 0 -183.5 41t-108.5 111.5t-36 156.5q0 77 35.5 137t103.5 101t165 62q57 12 121 19t132.5 11.5t135.5 6.5v84q0 161 -71 219t-198 58q-76 0 -143 -22t-106 -82t-33 -175h-124q-13 123 36.5 212t146.5 136.5t229 47.5q72 0 140 -18.5t122.5 -60.5t86.5 -113
t32 -177v-743h-118v227q-37 -117 -139 -178t-226 -61zM465 91q108 0 181 41.5t114 97t53 94.5v226q-87 -4 -182.5 -14t-172.5 -31q-100 -27 -154 -77t-54 -127q0 -52 18.5 -100t65 -78.5t131.5 -31.5zM303 1282v111h504l-3 -111h-501z" />
    <glyph glyph-name="Abreve" unicode="&#x102;" horiz-adv-x="1245" 
d="M35 0l486 1454h204l485 -1454h-133l-148 446l72 -54h-782l62 118h681l-40 -43l-224 674l-76 226h-1l-74 -226l-379 -1141h-133zM623 1600q-130 0 -193 80t-42 196h111q-11 -99 24.5 -138t99.5 -39q65 0 100.5 39t24.5 138h111q21 -116 -42 -196t-194 -80z" />
    <glyph glyph-name="abreve" unicode="&#x103;" horiz-adv-x="1101" 
d="M448 -12q-111 0 -183.5 41t-108.5 111.5t-36 156.5q0 77 35.5 137t103.5 101t165 62q57 12 121 19t132.5 11.5t135.5 6.5v84q0 161 -71 219t-198 58q-76 0 -143 -22t-106 -82t-33 -175h-124q-13 123 36.5 212t146.5 136.5t229 47.5q72 0 140 -18.5t122.5 -60.5t86.5 -113
t32 -177v-743h-118v227q-37 -117 -139 -178t-226 -61zM465 91q108 0 181 41.5t114 97t53 94.5v226q-87 -4 -182.5 -14t-172.5 -31q-100 -27 -154 -77t-54 -127q0 -52 18.5 -100t65 -78.5t131.5 -31.5zM554 1249q-130 0 -193 76.5t-42 187.5h111q-11 -94 24.5 -129.5
t99.5 -35.5q65 0 100.5 35.5t24.5 129.5h111q21 -111 -42 -187.5t-194 -76.5z" />
    <glyph glyph-name="Aogonek" unicode="&#x104;" horiz-adv-x="1245" 
d="M35 0l486 1454h204l485 -1454h-133l-148 446l72 -54h-782l62 118h681l-40 -43l-224 674l-76 226h-1l-74 -226l-379 -1141h-133zM1095 -336q-76 0 -120 41.5t-44 102.5q0 38 21 77t71 70t137 45h50q-88 -45 -126 -82t-38 -84q0 -71 73 -71q37 0 88 19l1 -98
q-19 -9 -48 -14.5t-65 -5.5z" />
    <glyph glyph-name="aogonek" unicode="&#x105;" horiz-adv-x="1101" 
d="M448 -12q-111 0 -183.5 41t-108.5 111.5t-36 156.5q0 77 35.5 137t103.5 101t165 62q57 12 121 19t132.5 11.5t135.5 6.5v84q0 161 -71 219t-198 58q-76 0 -143 -22t-106 -82t-33 -175h-124q-13 123 36.5 212t146.5 136.5t229 47.5q72 0 140 -18.5t122.5 -60.5t86.5 -113
t32 -177v-743h-118v227q-37 -117 -139 -178t-226 -61zM465 91q108 0 181 41.5t114 97t53 94.5v226q-87 -4 -182.5 -14t-172.5 -31q-100 -27 -154 -77t-54 -127q0 -52 18.5 -100t65 -78.5t131.5 -31.5zM816 -336q-76 0 -120 41.5t-44 102.5q0 38 21 77t71 70t137 45h50
q-88 -45 -126 -82t-38 -84q0 -71 73 -71q37 0 88 19l1 -98q-19 -9 -48 -14.5t-65 -5.5z" />
    <glyph glyph-name="Cacute" unicode="&#x106;" horiz-adv-x="1358" 
d="M739 -21q-195 0 -342.5 92t-229.5 261t-82 399q0 224 80.5 392.5t228 263t347.5 94.5q154 0 272.5 -61t187.5 -171.5t74 -259.5h-128q-4 111 -58 195.5t-145.5 132.5t-207.5 48q-162 0 -279 -78t-179.5 -219.5t-62.5 -334.5q0 -206 66.5 -348.5t184.5 -216t271 -73.5
q109 0 201.5 49t150 130t60.5 176h125q-10 -141 -82 -247t-189 -165t-264 -59zM646 1618l180 277h154l-204 -277h-130z" />
    <glyph glyph-name="cacute" unicode="&#x107;" horiz-adv-x="1087" 
d="M559 -15q-136 0 -242 65t-166.5 189.5t-60.5 300.5q0 185 62 312.5t171 193.5t248 66q125 0 215.5 -50.5t144 -135t68.5 -186.5h-129q-4 32 -22 75.5t-54 85t-93 68.5t-140 27q-163 0 -254 -115t-91 -332q0 -210 91.5 -329t257.5 -119q110 0 170 38.5t86.5 93.5t36.5 104
h129q-13 -86 -61 -167t-138 -133t-229 -52zM515 1282l159 231h154l-183 -231h-130z" />
    <glyph glyph-name="Cdotaccent" unicode="&#x10a;" horiz-adv-x="1358" 
d="M739 -21q-195 0 -342.5 92t-229.5 261t-82 399q0 224 80.5 392.5t228 263t347.5 94.5q154 0 272.5 -61t187.5 -171.5t74 -259.5h-128q-4 111 -58 195.5t-145.5 132.5t-207.5 48q-162 0 -279 -78t-179.5 -219.5t-62.5 -334.5q0 -206 66.5 -348.5t184.5 -216t271 -73.5
q109 0 201.5 49t150 130t60.5 176h125q-10 -141 -82 -247t-189 -165t-264 -59zM709 1598q-41 0 -68 29t-27 75q0 45 27 74t68 29q38 0 66.5 -29t28.5 -74q0 -46 -28.5 -75t-66.5 -29z" />
    <glyph glyph-name="cdotaccent" unicode="&#x10b;" horiz-adv-x="1087" 
d="M559 -15q-136 0 -242 65t-166.5 189.5t-60.5 300.5q0 185 62 312.5t171 193.5t248 66q125 0 215.5 -50.5t144 -135t68.5 -186.5h-129q-4 32 -22 75.5t-54 85t-93 68.5t-140 27q-163 0 -254 -115t-91 -332q0 -210 91.5 -329t257.5 -119q110 0 170 38.5t86.5 93.5t36.5 104
h129q-13 -86 -61 -167t-138 -133t-229 -52zM566 1261q-43 0 -71.5 29t-28.5 72q0 44 28.5 72.5t71.5 28.5q42 0 70.5 -28.5t28.5 -72.5q0 -43 -28.5 -72t-70.5 -29z" />
    <glyph glyph-name="Ccaron" unicode="&#x10c;" horiz-adv-x="1358" 
d="M739 -21q-195 0 -342.5 92t-229.5 261t-82 399q0 224 80.5 392.5t228 263t347.5 94.5q154 0 272.5 -61t187.5 -171.5t74 -259.5h-128q-4 111 -58 195.5t-145.5 132.5t-207.5 48q-162 0 -279 -78t-179.5 -219.5t-62.5 -334.5q0 -206 66.5 -348.5t184.5 -216t271 -73.5
q109 0 201.5 49t150 130t60.5 176h125q-10 -141 -82 -247t-189 -165t-264 -59zM633 1619l-190 257h128l138 -168l138 168h128l-190 -257h-152z" />
    <glyph glyph-name="ccaron" unicode="&#x10d;" horiz-adv-x="1087" 
d="M559 -15q-136 0 -242 65t-166.5 189.5t-60.5 300.5q0 185 62 312.5t171 193.5t248 66q125 0 215.5 -50.5t144 -135t68.5 -186.5h-129q-4 32 -22 75.5t-54 85t-93 68.5t-140 27q-163 0 -254 -115t-91 -332q0 -210 91.5 -329t257.5 -119q110 0 170 38.5t86.5 93.5t36.5 104
h129q-13 -86 -61 -167t-138 -133t-229 -52zM488 1261l-185 252h123l138 -163l138 163h122l-184 -252h-152z" />
    <glyph glyph-name="Dcaron" unicode="&#x10e;" horiz-adv-x="1319" 
d="M280 0l1 119h255q188 0 313 78t187.5 216.5t62.5 320.5q0 191 -62.5 325.5t-187.5 205t-314 70.5h-263v119h280q198 0 351 -76.5t239.5 -235.5t86.5 -406q0 -241 -86.5 -405t-239 -247.5t-350.5 -83.5h-273zM180 0v1454h125v-1454h-125zM579 1619l-190 257h128l138 -168
l138 168h128l-190 -257h-152z" />
    <glyph glyph-name="dcaron" unicode="&#x10f;" horiz-adv-x="1133" 
d="M527 -12q-116 0 -214 65t-156.5 191t-58.5 308q0 192 63.5 316t166 184t218.5 60q103 0 166 -37.5t94.5 -86t36.5 -82.5l34 -35l-47 -22q-7 17 -40 52t-91.5 65t-144.5 30q-145 0 -237.5 -111.5t-92.5 -334.5q0 -221 92 -333.5t235 -112.5q76 0 131.5 28t92 75t55.5 103
l10 -34l-10 -45q-8 -41 -29.5 -84t-58.5 -79t-90.5 -58t-124.5 -22zM830 0v1556h120l2 -1556h-122zM1030 1261l30 346h131l-50 -346h-111z" />
    <glyph glyph-name="Dcroat" unicode="&#x110;" horiz-adv-x="1319" 
d="M280 0l1 119h255q188 0 313 78t187.5 216.5t62.5 320.5q0 191 -62.5 325.5t-187.5 205t-314 70.5h-263v119h280q198 0 351 -76.5t239.5 -235.5t86.5 -406q0 -241 -86.5 -405t-239 -247.5t-350.5 -83.5h-273zM180 0v1454h125v-1454h-125zM47 672v114h574l-3 -114h-571z
" />
    <glyph glyph-name="dcroat" unicode="&#x111;" horiz-adv-x="1133" 
d="M517 -12q-116 0 -214 65t-156.5 191t-58.5 308q0 192 63.5 316t166 184t218.5 60q103 0 166 -37.5t94.5 -86t36.5 -82.5l34 -35l-47 -27q-7 17 -40 53.5t-91.5 67.5t-144.5 31q-145 0 -237.5 -111.5t-92.5 -334.5q0 -221 92 -333.5t235 -112.5q76 0 131.5 29t92 76.5
t55.5 103.5l10 -37l-10 -45q-8 -41 -29.5 -84t-58.5 -79t-90.5 -58t-124.5 -22zM820 0v1556h120l2 -1556h-122zM483 1278v111h585v-111h-585z" />
    <glyph glyph-name="Emacron" unicode="&#x112;" horiz-adv-x="1149" 
d="M180 0v1454h874v-118h-798l49 51v-598l-49 29h746v-116h-746l49 27v-671l-49 61h818v-119h-894zM359 1617v118h544l-3 -118h-541z" />
    <glyph glyph-name="emacron" unicode="&#x113;" horiz-adv-x="1095" 
d="M571 -15q-136 0 -244 65.5t-171 192.5t-63 310q0 174 62 299.5t170.5 193t246.5 67.5q135 0 232.5 -65.5t150.5 -179.5t52 -262q0 -29 -2 -53l-3 -36h-788q6 -194 103 -305.5t263 -111.5q127 0 198 50t87 160h122q-4 -104 -59.5 -177t-147.5 -110.5t-209 -37.5zM303 625
h581q0 172 -84.5 272.5t-234.5 100.5q-166 0 -256 -115t-95 -320q7 39 31 50.5t58 11.5zM317 1282v111h504l-3 -111h-501z" />
    <glyph glyph-name="Ebreve" unicode="&#x114;" horiz-adv-x="1149" 
d="M180 0v1454h874v-118h-798l49 51v-598l-49 29h746v-116h-746l49 27v-671l-49 61h818v-119h-894zM631 1600q-130 0 -193 80t-42 196h111q-11 -99 24.5 -138t99.5 -39q65 0 100.5 39t24.5 138h111q21 -116 -42 -196t-194 -80z" />
    <glyph glyph-name="ebreve" unicode="&#x115;" horiz-adv-x="1095" 
d="M571 -15q-136 0 -244 65.5t-171 192.5t-63 310q0 174 62 299.5t170.5 193t246.5 67.5q135 0 232.5 -65.5t150.5 -179.5t52 -262q0 -29 -2 -53l-3 -36h-788q6 -194 103 -305.5t263 -111.5q127 0 198 50t87 160h122q-4 -104 -59.5 -177t-147.5 -110.5t-209 -37.5zM303 625
h581q0 172 -84.5 272.5t-234.5 100.5q-166 0 -256 -115t-95 -320q7 39 31 50.5t58 11.5zM568 1249q-130 0 -193 76.5t-42 187.5h111q-11 -94 24.5 -129.5t99.5 -35.5q65 0 100.5 35.5t24.5 129.5h111q21 -111 -42 -187.5t-194 -76.5z" />
    <glyph glyph-name="Edotaccent" unicode="&#x116;" horiz-adv-x="1149" 
d="M180 0v1454h874v-118h-798l49 51v-598l-49 29h746v-116h-746l49 27v-671l-49 61h818v-119h-894zM631 1598q-41 0 -68 29t-27 75q0 45 27 74t68 29q38 0 66.5 -29t28.5 -74q0 -46 -28.5 -75t-66.5 -29z" />
    <glyph glyph-name="edotaccent" unicode="&#x117;" horiz-adv-x="1095" 
d="M571 -15q-136 0 -244 65.5t-171 192.5t-63 310q0 174 62 299.5t170.5 193t246.5 67.5q135 0 232.5 -65.5t150.5 -179.5t52 -262q0 -29 -2 -53l-3 -36h-788q6 -194 103 -305.5t263 -111.5q127 0 198 50t87 160h122q-4 -104 -59.5 -177t-147.5 -110.5t-209 -37.5zM303 625
h581q0 172 -84.5 272.5t-234.5 100.5q-166 0 -256 -115t-95 -320q7 39 31 50.5t58 11.5zM570 1261q-43 0 -71.5 29t-28.5 72q0 44 28.5 72.5t71.5 28.5q42 0 70.5 -28.5t28.5 -72.5q0 -43 -28.5 -72t-70.5 -29z" />
    <glyph glyph-name="Eogonek" unicode="&#x118;" horiz-adv-x="1149" 
d="M180 0v1454h874v-118h-798l49 51v-598l-49 29h746v-116h-746l49 27v-671l-49 61h818v-119h-894zM959 -336q-76 0 -120 41.5t-44 102.5q0 38 21 77t71 70t137 45h50q-88 -45 -126 -82t-38 -84q0 -71 73 -71q37 0 88 19l1 -98q-19 -9 -48 -14.5t-65 -5.5z" />
    <glyph glyph-name="eogonek" unicode="&#x119;" horiz-adv-x="1095" 
d="M702 -337q-76 0 -120 43.5t-44 104.5q0 62 40 105.5t93.5 70t93.5 38.5l37 10q-69 -44 -100.5 -79.5t-40.5 -64.5t-9 -56q0 -35 19 -54t55 -19q18 0 41 6.5t47 17.5l1 -101q-19 -9 -51.5 -15.5t-61.5 -6.5zM571 -15q-141 0 -249 65.5t-168.5 192.5t-60.5 310
q0 174 62 299.5t170.5 193t246.5 67.5q135 0 232.5 -65.5t150.5 -179.5t52 -262q0 -29 -2 -53l-3 -36l-118 108q0 172 -84.5 272.5t-234.5 100.5q-169 0 -259.5 -120t-91.5 -334q-1 -206 99 -325t267 -119q127 0 198 50t87 160h122q-4 -104 -59.5 -177t-147.5 -110.5
t-209 -37.5zM179 517l35 44q6 41 30.5 52.5t58.5 11.5h636l63 -108h-823z" />
    <glyph glyph-name="Ecaron" unicode="&#x11a;" horiz-adv-x="1149" 
d="M180 0v1454h874v-118h-798l49 51v-598l-49 29h746v-116h-746l49 27v-671l-49 61h818v-119h-894zM555 1619l-190 257h128l138 -168l138 168h128l-190 -257h-152z" />
    <glyph glyph-name="ecaron" unicode="&#x11b;" horiz-adv-x="1095" 
d="M571 -15q-136 0 -244 65.5t-171 192.5t-63 310q0 174 62 299.5t170.5 193t246.5 67.5q135 0 232.5 -65.5t150.5 -179.5t52 -262q0 -29 -2 -53l-3 -36h-788q6 -194 103 -305.5t263 -111.5q127 0 198 50t87 160h122q-4 -104 -59.5 -177t-147.5 -110.5t-209 -37.5zM303 625
h581q0 172 -84.5 272.5t-234.5 100.5q-166 0 -256 -115t-95 -320q7 39 31 50.5t58 11.5zM492 1261l-185 252h123l138 -163l138 163h122l-184 -252h-152z" />
    <glyph glyph-name="Gbreve" unicode="&#x11e;" horiz-adv-x="1450" 
d="M787 -20q-207 0 -359.5 92t-235.5 260.5t-83 398.5t82 398.5t230.5 260t345.5 91.5q134 0 247 -47.5t188.5 -144t97.5 -242.5h-133q-7 45 -36 99.5t-80.5 104.5t-126 82t-172.5 32q-94 0 -185.5 -40t-165.5 -119.5t-118 -198t-44 -276.5q0 -215 78.5 -356t203.5 -210
t265 -69q60 0 137.5 16t149 45.5t110.5 69.5l2 384h-355v119h480l-2 -565q-106 -82 -237 -133.5t-284 -51.5zM761 1600q-130 0 -193 80t-42 196h111q-11 -99 24.5 -138t99.5 -39q65 0 100.5 39t24.5 138h111q21 -116 -42 -196t-194 -80z" />
    <glyph glyph-name="gbreve" unicode="&#x11f;" horiz-adv-x="1115" 
d="M547 -445q-127 0 -221 43.5t-142 132t-39 222.5h119q-7 -101 27 -164t102 -92t161 -29q107 0 167 41t84 115.5t24 172.5v291q-9 -52 -44 -105.5t-97 -90t-153 -36.5q-92 0 -171.5 35.5t-139 103t-93 165.5t-33.5 222q0 171 58.5 289t157.5 179.5t220 61.5q80 0 138.5 -22
t97.5 -55t60 -67l1 123h118v-1075q0 -172 -49 -273t-139.5 -144t-213.5 -44zM557 170q71 0 125.5 28.5t91.5 75t55 99.5v455q-5 25 -39 65t-92.5 72t-140.5 32q-154 0 -243.5 -106t-89.5 -309q0 -213 90.5 -312.5t242.5 -99.5zM537 1249q-130 0 -193 76.5t-42 187.5h111
q-11 -94 24.5 -129.5t99.5 -35.5q65 0 100.5 35.5t24.5 129.5h111q21 -111 -42 -187.5t-194 -76.5z" />
    <glyph glyph-name="Gdotaccent" unicode="&#x120;" horiz-adv-x="1450" 
d="M787 -20q-207 0 -359.5 92t-235.5 260.5t-83 398.5t82 398.5t230.5 260t345.5 91.5q134 0 247 -47.5t188.5 -144t97.5 -242.5h-133q-7 45 -36 99.5t-80.5 104.5t-126 82t-172.5 32q-94 0 -185.5 -40t-165.5 -119.5t-118 -198t-44 -276.5q0 -215 78.5 -356t203.5 -210
t265 -69q60 0 137.5 16t149 45.5t110.5 69.5l2 384h-355v119h480l-2 -565q-106 -82 -237 -133.5t-284 -51.5zM761 1598q-41 0 -68 29t-27 75q0 45 27 74t68 29q38 0 66.5 -29t28.5 -74q0 -46 -28.5 -75t-66.5 -29z" />
    <glyph glyph-name="gdotaccent" unicode="&#x121;" horiz-adv-x="1115" 
d="M547 -445q-127 0 -221 43.5t-142 132t-39 222.5h119q-7 -101 27 -164t102 -92t161 -29q107 0 167 41t84 115.5t24 172.5v291q-9 -52 -44 -105.5t-97 -90t-153 -36.5q-92 0 -171.5 35.5t-139 103t-93 165.5t-33.5 222q0 171 58.5 289t157.5 179.5t220 61.5q80 0 138.5 -22
t97.5 -55t60 -67l1 123h118v-1075q0 -172 -49 -273t-139.5 -144t-213.5 -44zM557 170q71 0 125.5 28.5t91.5 75t55 99.5v455q-5 25 -39 65t-92.5 72t-140.5 32q-154 0 -243.5 -106t-89.5 -309q0 -213 90.5 -312.5t242.5 -99.5zM539 1261q-43 0 -71.5 29t-28.5 72
q0 44 28.5 72.5t71.5 28.5q42 0 70.5 -28.5t28.5 -72.5q0 -43 -28.5 -72t-70.5 -29z" />
    <glyph glyph-name="uni0122" unicode="&#x122;" horiz-adv-x="1450" 
d="M787 -20q-207 0 -359.5 92t-235.5 260.5t-83 398.5t82 398.5t230.5 260t345.5 91.5q134 0 247 -47.5t188.5 -144t97.5 -242.5h-133q-7 45 -36 99.5t-80.5 104.5t-126 82t-172.5 32q-94 0 -185.5 -40t-165.5 -119.5t-118 -198t-44 -276.5q0 -215 78.5 -356t203.5 -210
t265 -69q60 0 137.5 16t149 45.5t110.5 69.5l2 384h-355v119h480l-2 -565q-106 -82 -237 -133.5t-284 -51.5zM651 -457q19 52 40 137t21 163v40h131v-33q0 -45 -7.5 -91.5t-19.5 -89t-26 -75.5t-27 -51h-112z" />
    <glyph glyph-name="uni0123" unicode="&#x123;" horiz-adv-x="1115" 
d="M547 -445q-127 0 -221 43.5t-142 132t-39 222.5h119q-7 -101 27 -164t102 -92t161 -29q107 0 167 41t84 115.5t24 172.5v291q-9 -52 -44 -105.5t-97 -90t-153 -36.5q-92 0 -171.5 35.5t-139 103t-93 165.5t-33.5 222q0 171 58.5 289t157.5 179.5t220 61.5q80 0 138.5 -22
t97.5 -55t60 -67l1 123h118v-1075q0 -172 -49 -273t-139.5 -144t-213.5 -44zM557 170q71 0 125.5 28.5t91.5 75t55 99.5v455q-5 25 -39 65t-92.5 72t-140.5 32q-154 0 -243.5 -106t-89.5 -309q0 -213 90.5 -312.5t242.5 -99.5zM444 1261v33q0 40 6.5 87t18.5 89.5t29 65.5
h101q-19 -52 -25 -119.5t-6 -115.5v-40h-124z" />
    <glyph glyph-name="Hbar" unicode="&#x126;" horiz-adv-x="1388" 
d="M1073 0v1454h125v-1454h-125zM190 0v1454h125v-1454h-125zM288 600v115h816l-3 -115h-813zM50 996v115h1288l-3 -115h-1285z" />
    <glyph glyph-name="hbar" unicode="&#x127;" horiz-adv-x="1152" 
d="M191 0v1555h120v-464l-16 -311l9 -87l-20 70q12 93 57 173t125.5 129t197.5 49q154 0 239 -88.5t85 -252.5v-773h-120v739q0 122 -44 189.5t-176 67.5q-111 0 -187.5 -56.5t-149.5 -194.5v-745h-120zM61 1277v112h585v-112h-585z" />
    <glyph glyph-name="Itilde" unicode="&#x128;" horiz-adv-x="502" 
d="M188 0v1454h126v-1454h-126zM390 1600q-66 0 -105 26t-64 59.5t-49 59.5t-60 26q-51 0 -73 -38.5t-9 -114.5h-106q-11 74 8.5 130.5t64 88.5t107.5 32q65 0 103 -26t62.5 -60t48 -60t60.5 -26q51 0 74.5 34.5t18.5 102.5h107q18 -103 -38 -168.5t-150 -65.5z" />
    <glyph glyph-name="itilde" unicode="&#x129;" horiz-adv-x="522" 
d="M200 0v1091h122v-1091h-122zM394 1237q-63 0 -100.5 25t-61 58.5t-46.5 58.5t-58 25q-49 0 -70.5 -37.5t-8.5 -105.5h-102q-10 69 8.5 123.5t61.5 86t103 31.5q63 0 99 -25.5t59.5 -58.5t46.5 -58.5t58 -25.5q49 0 71.5 29.5t17.5 97.5h103q17 -103 -36.5 -163.5
t-144.5 -60.5z" />
    <glyph glyph-name="Imacron" unicode="&#x12a;" horiz-adv-x="502" 
d="M188 0v1454h126v-1454h-126zM0 1645v111h504l-3 -111h-501z" />
    <glyph glyph-name="imacron" unicode="&#x12b;" horiz-adv-x="522" 
d="M200 0v1091h122v-1091h-122zM11 1282v111h504l-3 -111h-501z" />
    <glyph glyph-name="Ibreve" unicode="&#x12c;" horiz-adv-x="502" 
d="M188 0v1454h126v-1454h-126zM251 1600q-130 0 -193 80t-42 196h111q-11 -99 24.5 -138t99.5 -39q65 0 100.5 39t24.5 138h111q21 -116 -42 -196t-194 -80z" />
    <glyph glyph-name="ibreve" unicode="&#x12d;" horiz-adv-x="522" 
d="M200 0v1091h122v-1091h-122zM262 1249q-130 0 -193 76.5t-42 187.5h111q-11 -94 24.5 -129.5t99.5 -35.5q65 0 100.5 35.5t24.5 129.5h111q21 -111 -42 -187.5t-194 -76.5z" />
    <glyph glyph-name="Iogonek" unicode="&#x12e;" horiz-adv-x="502" 
d="M188 0v1454h126v-1454h-126zM199 -336q-76 0 -120 41.5t-44 102.5q0 38 21 77t71 70t137 45h50q-88 -45 -126 -82t-38 -84q0 -71 73 -71q37 0 88 19l1 -98q-19 -9 -48 -14.5t-65 -5.5z" />
    <glyph glyph-name="iogonek" unicode="&#x12f;" horiz-adv-x="522" 
d="M200 0v1091h122v-1091h-122zM264 1261q-43 0 -71.5 29t-28.5 72q0 44 28.5 72.5t71.5 28.5q42 0 70.5 -28.5t28.5 -72.5q0 -43 -28.5 -72t-70.5 -29zM207 -336q-76 0 -120 41.5t-44 102.5q0 38 21 77t71 70t137 45h50q-88 -45 -126 -82t-38 -84q0 -71 73 -71q37 0 88 19
l1 -98q-19 -9 -48 -14.5t-65 -5.5z" />
    <glyph glyph-name="Idotaccent" unicode="&#x130;" horiz-adv-x="502" 
d="M188 0v1454h126v-1454h-126zM251 1598q-41 0 -68 29t-27 75q0 45 27 74t68 29q38 0 66.5 -29t28.5 -74q0 -46 -28.5 -75t-66.5 -29z" />
    <glyph glyph-name="dotlessi" unicode="&#x131;" horiz-adv-x="522" 
d="M200 0v1091h122v-1091h-122z" />
    <glyph glyph-name="IJ" unicode="&#x132;" horiz-adv-x="1512" 
d="M188 0v1454h126v-1454h-126zM956 -30q-132 0 -227.5 52.5t-147.5 148.5t-56 224h126q5 -131 85 -218.5t231 -87.5q99 0 162.5 40.5t94 119t30.5 192.5v1013h126v-993q0 -174 -54 -282t-149.5 -158.5t-220.5 -50.5z" />
    <glyph glyph-name="ij" unicode="&#x133;" horiz-adv-x="1044" 
d="M219 0v1074h121v-1074h-121zM280 1261q-41 0 -70.5 29t-29.5 75q0 45 29.5 74t70.5 29t70 -29t29 -74q0 -46 -29 -75t-70 -29zM646 -462q-37 0 -70.5 9t-64.5 20v128q14 -7 45.5 -18.5t70.5 -11.5q35 0 54.5 23t19.5 93v1310h120v-1145q0 -25 1 -51.5t1 -66.5
q0 -88 -15 -153.5t-53 -101t-109 -35.5zM764 1279q-41 0 -70.5 29t-29.5 75q0 45 29.5 74t70.5 29t70.5 -29t29.5 -74q0 -46 -29.5 -75t-70.5 -29z" />
    <glyph glyph-name="uni0136" unicode="&#x136;" horiz-adv-x="1168" 
d="M301 436l-32 115l266 330l443 573h150l-521 -666l-47 -54zM180 0v1454h125v-1454h-125zM1001 0l-490 779l88 85l559 -864h-157zM507 -457q19 52 40 137t21 163v40h131v-33q0 -45 -7.5 -91.5t-19.5 -89t-26 -75.5t-27 -51h-112z" />
    <glyph glyph-name="uni0137" unicode="&#x137;" horiz-adv-x="950" 
d="M803 0l-520 595l116 30l135 -117l436 -508h-167zM181 0v1555h120v-811l-14 -146v-8l14 -152v-438h-120zM400 562l-117 33l256 257l229 239h170l-404 -407zM348 -457q19 52 40 137t21 163v40h131v-33q0 -45 -7.5 -91.5t-19.5 -89t-26 -75.5t-27 -51h-112z" />
    <glyph glyph-name="Lacute" unicode="&#x139;" horiz-adv-x="1054" 
d="M180 0v1454h125v-1396l-82 62h751v-120h-794zM178 1618l180 277h154l-204 -277h-130z" />
    <glyph glyph-name="lacute" unicode="&#x13a;" horiz-adv-x="481" 
d="M180 0v1555h121v-1555h-121zM178 1700l180 277h154l-204 -277h-130z" />
    <glyph glyph-name="uni013B" unicode="&#x13b;" horiz-adv-x="1054" 
d="M180 0v1454h125v-1396l-82 62h751v-120h-794zM400 -457q19 52 40 137t21 163v40h131v-33q0 -45 -7.5 -91.5t-19.5 -89t-26 -75.5t-27 -51h-112z" />
    <glyph glyph-name="uni013C" unicode="&#x13c;" horiz-adv-x="481" 
d="M180 0v1555h121v-1555h-121zM119 -457q19 52 40 137t21 163v40h131v-33q0 -45 -7.5 -91.5t-19.5 -89t-26 -75.5t-27 -51h-112z" />
    <glyph glyph-name="Lcaron" unicode="&#x13d;" horiz-adv-x="1054" 
d="M180 0v1454h125v-1396l-82 62h751v-120h-794zM629 1261l30 346h131l-50 -346h-111z" />
    <glyph glyph-name="lcaron" unicode="&#x13e;" horiz-adv-x="481" 
d="M180 0v1555h121v-1555h-121zM387 1261l30 346h131l-50 -346h-111z" />
    <glyph glyph-name="Ldot" unicode="&#x13f;" horiz-adv-x="1226" 
d="M180 0v1454h125v-1396l-82 62h751v-120h-794zM1076 665q-41 0 -70.5 29t-29.5 75q0 45 29.5 74t70.5 29t70.5 -29t29.5 -74q0 -46 -29.5 -75t-70.5 -29z" />
    <glyph glyph-name="ldot" unicode="&#x140;" horiz-adv-x="726" 
d="M180 0v1555h121v-1555h-121zM576 665q-41 0 -70.5 29t-29.5 75q0 45 29.5 74t70.5 29t70.5 -29t29.5 -74q0 -46 -29.5 -75t-70.5 -29z" />
    <glyph glyph-name="Lslash" unicode="&#x141;" horiz-adv-x="1054" 
d="M180 0v1454h125v-1396l-82 62h751v-120h-794zM66 598v141l149 107l61 28l316 227l-4 -141l-299 -212l-62 -29z" />
    <glyph glyph-name="lslash" unicode="&#x142;" horiz-adv-x="481" 
d="M180 0v1555h121v-1555h-121zM4 618v124l476 368l-4 -124z" />
    <glyph glyph-name="Nacute" unicode="&#x143;" horiz-adv-x="1374" 
d="M180 0v1454h195l498 -952l208 -423h7l-19 423v952h125v-1454h-195l-496 950l-208 425h-8l18 -425v-950h-125zM625 1618l180 277h154l-204 -277h-130z" />
    <glyph glyph-name="nacute" unicode="&#x144;" horiz-adv-x="1149" 
d="M180 0v1091h101l11 -410l-18 82q14 109 65.5 187.5t134 121t189.5 42.5q146 0 231 -88.5t85 -252.5v-773h-120v739q0 93 -23.5 149.5t-72.5 82t-128 25.5q-109 0 -186.5 -57.5t-148.5 -194.5v-744h-120zM574 1282l159 231h154l-183 -231h-130z" />
    <glyph glyph-name="uni0145" unicode="&#x145;" horiz-adv-x="1374" 
d="M180 0v1454h195l498 -952l208 -423h7l-19 423v952h125v-1454h-195l-496 950l-208 425h-8l18 -425v-950h-125zM535 -457q19 52 40 137t21 163v40h131v-33q0 -45 -7.5 -91.5t-19.5 -89t-26 -75.5t-27 -51h-112z" />
    <glyph glyph-name="uni0146" unicode="&#x146;" horiz-adv-x="1149" 
d="M180 0v1091h101l11 -410l-18 82q14 109 65.5 187.5t134 121t189.5 42.5q146 0 231 -88.5t85 -252.5v-773h-120v739q0 93 -23.5 149.5t-72.5 82t-128 25.5q-109 0 -186.5 -57.5t-148.5 -194.5v-744h-120zM452 -457q19 52 40 137t21 163v40h131v-33q0 -45 -7.5 -91.5
t-19.5 -89t-26 -75.5t-27 -51h-112z" />
    <glyph glyph-name="Ncaron" unicode="&#x147;" horiz-adv-x="1374" 
d="M180 0v1454h195l498 -952l208 -423h7l-19 423v952h125v-1454h-195l-496 950l-208 425h-8l18 -425v-950h-125zM612 1619l-190 257h128l138 -168l138 168h128l-190 -257h-152z" />
    <glyph glyph-name="ncaron" unicode="&#x148;" horiz-adv-x="1149" 
d="M180 0v1091h101l11 -410l-18 82q14 109 65.5 187.5t134 121t189.5 42.5q146 0 231 -88.5t85 -252.5v-773h-120v739q0 93 -23.5 149.5t-72.5 82t-128 25.5q-109 0 -186.5 -57.5t-148.5 -194.5v-744h-120zM547 1261l-185 252h123l138 -163l138 163h122l-184 -252h-152z" />
    <glyph glyph-name="Eng" unicode="&#x14a;" horiz-adv-x="1394" 
d="M780 -454q-19 0 -36.5 1t-34.5 3v123q19 -4 39.5 -6t42.5 -2q93 0 154.5 36.5t94 107t37.5 172.5l-550 907l-218 386h-12l18 -425v-849h-125v1454h138l535 -883l230 -407h13l-27 338v952h125v-1454q0 -144 -54 -245.5t-149.5 -155t-220.5 -53.5z" />
    <glyph glyph-name="eng" unicode="&#x14b;" horiz-adv-x="1139" 
d="M800 -462q-37 0 -70.5 9t-64.5 20v128q14 -7 45.5 -18.5t70.5 -11.5q35 0 54.5 23t19.5 93v958q0 93 -22.5 149.5t-71.5 82t-130 25.5q-109 0 -186.5 -57.5t-148.5 -194.5v-744h-120v1091h101l7 -258q24 88 76 150.5t128 96.5t171 34q146 0 231 -91.5t85 -249.5v-827
q0 -25 1 -51.5t1 -66.5q0 -88 -15 -153.5t-53 -101t-109 -35.5z" />
    <glyph glyph-name="Omacron" unicode="&#x14c;" horiz-adv-x="1493" 
d="M745 -30q-175 0 -319.5 88t-230.5 259t-86 419q0 240 86.5 407t231.5 253.5t319 86.5q177 0 321.5 -86.5t230.5 -253.5t86 -407q0 -248 -86.5 -419t-231.5 -259t-321 -88zM745 87q135 0 251 69t187 212t71 366q0 211 -71.5 351.5t-187.5 210.5t-249 70q-129 0 -245 -70
t-189 -210.5t-73 -351.5q0 -167 43 -289t115.5 -201.5t162.5 -118t185 -38.5zM475 1617v118h544l-3 -118h-541z" />
    <glyph glyph-name="omacron" unicode="&#x14d;" horiz-adv-x="1109" 
d="M552 -15q-134 0 -238.5 65t-164 191.5t-59.5 310.5q0 174 63.5 299.5t169.5 193t233 67.5q139 0 243 -67.5t162 -193t58 -299.5q0 -184 -64.5 -310.5t-171 -191.5t-231.5 -65zM556 101q159 0 248 118.5t89 332.5q0 212 -90 328t-251 116q-155 0 -245.5 -118t-90.5 -326
q0 -212 91 -331.5t249 -119.5zM305 1282v111h504l-3 -111h-501z" />
    <glyph glyph-name="Obreve" unicode="&#x14e;" horiz-adv-x="1493" 
d="M745 -30q-175 0 -319.5 88t-230.5 259t-86 419q0 240 86.5 407t231.5 253.5t319 86.5q177 0 321.5 -86.5t230.5 -253.5t86 -407q0 -248 -86.5 -419t-231.5 -259t-321 -88zM745 87q135 0 251 69t187 212t71 366q0 211 -71.5 351.5t-187.5 210.5t-249 70q-129 0 -245 -70
t-189 -210.5t-73 -351.5q0 -167 43 -289t115.5 -201.5t162.5 -118t185 -38.5zM747 1600q-130 0 -193 80t-42 196h111q-11 -99 24.5 -138t99.5 -39q65 0 100.5 39t24.5 138h111q21 -116 -42 -196t-194 -80z" />
    <glyph glyph-name="obreve" unicode="&#x14f;" horiz-adv-x="1109" 
d="M552 -15q-134 0 -238.5 65t-164 191.5t-59.5 310.5q0 174 63.5 299.5t169.5 193t233 67.5q139 0 243 -67.5t162 -193t58 -299.5q0 -184 -64.5 -310.5t-171 -191.5t-231.5 -65zM556 101q159 0 248 118.5t89 332.5q0 212 -90 328t-251 116q-155 0 -245.5 -118t-90.5 -326
q0 -212 91 -331.5t249 -119.5zM556 1249q-130 0 -193 76.5t-42 187.5h111q-11 -94 24.5 -129.5t99.5 -35.5q65 0 100.5 35.5t24.5 129.5h111q21 -111 -42 -187.5t-194 -76.5z" />
    <glyph glyph-name="Ohungarumlaut" unicode="&#x150;" horiz-adv-x="1493" 
d="M745 -30q-175 0 -319.5 88t-230.5 259t-86 419q0 240 86.5 407t231.5 253.5t319 86.5q177 0 321.5 -86.5t230.5 -253.5t86 -407q0 -248 -86.5 -419t-231.5 -259t-321 -88zM745 87q135 0 251 69t187 212t71 366q0 211 -71.5 351.5t-187.5 210.5t-249 70q-129 0 -245 -70
t-189 -210.5t-73 -351.5q0 -167 43 -289t115.5 -201.5t162.5 -118t185 -38.5zM831 1618l160 278h132l-184 -278h-108zM551 1618l160 278h132l-184 -278h-108z" />
    <glyph glyph-name="ohungarumlaut" unicode="&#x151;" horiz-adv-x="1109" 
d="M552 -15q-134 0 -238.5 65t-164 191.5t-59.5 310.5q0 174 63.5 299.5t169.5 193t233 67.5q139 0 243 -67.5t162 -193t58 -299.5q0 -184 -64.5 -310.5t-171 -191.5t-231.5 -65zM556 101q159 0 248 118.5t89 332.5q0 212 -90 328t-251 116q-155 0 -245.5 -118t-90.5 -326
q0 -212 91 -331.5t249 -119.5zM635 1261l156 252h132l-180 -252h-108zM365 1261l136 252h132l-160 -252h-108z" />
    <glyph glyph-name="OE" unicode="&#x152;" horiz-adv-x="2179" 
d="M727 -20q-171 0 -311.5 88t-223.5 256.5t-83 409.5t83 408t223.5 254t314.5 87q105 0 189.5 -30t148 -81t104 -116t58 -136t11.5 -140l-31 1v473h874v-118h-749v-518h702v-116h-700l-2 -583h769v-119h-894v449l20 9q11 -86 -20 -170.5t-98 -154t-164.5 -111.5t-220.5 -42
zM729 99q125 0 234.5 68.5t178 208t68.5 353.5t-68 355t-177.5 210.5t-234.5 69.5q-124 0 -236.5 -69t-183.5 -209.5t-71 -355.5t71 -355t183.5 -208t235.5 -68z" />
    <glyph glyph-name="oe" unicode="&#x153;" horiz-adv-x="1881" 
d="M547 -15q-132 0 -235.5 65t-162.5 191.5t-59 310.5q0 174 62.5 299.5t167.5 193t231 67.5q148 0 250.5 -78.5t149.5 -221.5q53 143 161.5 222t250.5 79q123 0 220.5 -65.5t154 -179.5t55.5 -262q0 -29 -2 -53l-3 -36h-778q7 -194 104 -305.5t257 -111.5q125 0 194.5 50
t85.5 160h122q-7 -157 -122.5 -241t-288.5 -84q-151 0 -258 77t-156 225q-52 -148 -159.5 -225t-241.5 -77zM551 101q105 0 179 53.5t113.5 154.5t39.5 243q0 212 -88.5 328t-247.5 116q-153 0 -242 -118t-89 -326q0 -212 89.5 -331.5t245.5 -119.5zM1010 563q7 39 31 50.5
t58 11.5h571q0 115 -41.5 198.5t-112.5 129t-160 45.5q-156 0 -248.5 -115t-97.5 -320z" />
    <glyph glyph-name="Racute" unicode="&#x154;" horiz-adv-x="1173" 
d="M987 0l-374 624h-332l-67 15l29 71v32h355q98 0 157 49.5t85.5 125t26.5 151.5q0 77 -28.5 137.5t-87 95.5t-149.5 35h-303v52l-86 66h109h127.5h121.5q135 0 230.5 -45.5t145.5 -127.5t50 -194q0 -102 -29 -196.5t-105 -162.5t-217 -91l46 14q20 2 35 -6t26.5 -21
t20.5 -29l363 -595h-150zM180 0v1454h125v-1454h-125zM467 1618l180 277h154l-204 -277h-130z" />
    <glyph glyph-name="racute" unicode="&#x155;" horiz-adv-x="704" 
d="M180 0v1091h101l11 -418l-23 56q7 60 30 126.5t65.5 125.5t108 96t156.5 37q11 0 20.5 -1.5t19.5 -3.5v-122q-7 3 -16 3.5t-18 0.5q-71 0 -129 -23.5t-107.5 -79.5t-98.5 -152v-736h-120zM310 1282l159 231h154l-183 -231h-130z" />
    <glyph glyph-name="uni0156" unicode="&#x156;" horiz-adv-x="1173" 
d="M987 0l-374 624h-332l-67 15l29 71v32h355q98 0 157 49.5t85.5 125t26.5 151.5q0 77 -28.5 137.5t-87 95.5t-149.5 35h-303v52l-86 66h109h127.5h121.5q135 0 230.5 -45.5t145.5 -127.5t50 -194q0 -102 -29 -196.5t-105 -162.5t-217 -91l46 14q20 2 35 -6t26.5 -21
t20.5 -29l363 -595h-150zM180 0v1454h125v-1454h-125zM470 -457q19 52 40 137t21 163v40h131v-33q0 -45 -7.5 -91.5t-19.5 -89t-26 -75.5t-27 -51h-112z" />
    <glyph glyph-name="uni0157" unicode="&#x157;" horiz-adv-x="704" 
d="M180 0v1091h101l11 -418l-23 56q7 60 30 126.5t65.5 125.5t108 96t156.5 37q11 0 20.5 -1.5t19.5 -3.5v-122q-7 3 -16 3.5t-18 0.5q-71 0 -129 -23.5t-107.5 -79.5t-98.5 -152v-736h-120zM117 -457q19 52 40 137t21 163v40h131v-33q0 -45 -7.5 -91.5t-19.5 -89t-26 -75.5
t-27 -51h-112z" />
    <glyph glyph-name="Rcaron" unicode="&#x158;" horiz-adv-x="1173" 
d="M987 0l-374 624h-332l-67 15l29 71v32h355q98 0 157 49.5t85.5 125t26.5 151.5q0 77 -28.5 137.5t-87 95.5t-149.5 35h-303v52l-86 66h109h127.5h121.5q135 0 230.5 -45.5t145.5 -127.5t50 -194q0 -102 -29 -196.5t-105 -162.5t-217 -91l46 14q20 2 35 -6t26.5 -21
t20.5 -29l363 -595h-150zM180 0v1454h125v-1454h-125zM454 1619l-190 257h128l138 -168l138 168h128l-190 -257h-152z" />
    <glyph glyph-name="rcaron" unicode="&#x159;" horiz-adv-x="704" 
d="M180 0v1091h101l11 -418l-23 56q7 60 30 126.5t65.5 125.5t108 96t156.5 37q11 0 20.5 -1.5t19.5 -3.5v-122q-7 3 -16 3.5t-18 0.5q-71 0 -129 -23.5t-107.5 -79.5t-98.5 -152v-736h-120zM283 1261l-185 252h123l138 -163l138 163h122l-184 -252h-152z" />
    <glyph glyph-name="Sacute" unicode="&#x15a;" horiz-adv-x="1136" 
d="M583 -20q-144 0 -258 49.5t-179.5 147t-65.5 240.5h126q0 -111 51 -181.5t137 -104t191 -33.5q131 0 209.5 36.5t113.5 95.5t35 126q0 96 -55.5 154t-143.5 95.5t-185 71.5q-112 40 -205.5 93t-150 132.5t-56.5 196.5q0 183 122.5 280.5t316.5 97.5q127 0 218.5 -42.5
t146.5 -128t70 -215.5h-126q-8 66 -37.5 127.5t-96 101t-186.5 39.5q-142 0 -223.5 -63t-81.5 -191q0 -83 36 -137.5t110.5 -95.5t190.5 -84q82 -30 163.5 -64t148.5 -80.5t107 -115t40 -169.5q0 -180 -126.5 -279.5t-356.5 -99.5zM505 1618l180 277h154l-204 -277h-130z
" />
    <glyph glyph-name="sacute" unicode="&#x15b;" horiz-adv-x="980" 
d="M497 -17q-100 0 -190 33t-150 105t-69 188h130q23 -124 93 -167.5t189 -43.5q72 0 133 17t98.5 58t37.5 114q0 63 -26.5 98.5t-68 54t-89.5 29t-91 22.5q-87 26 -168.5 60.5t-134 97.5t-52.5 173q0 120 93.5 204.5t259.5 84.5q98 0 176.5 -33t127 -102.5t54.5 -181.5
h-127q-1 48 -21.5 94t-70.5 76t-140 30q-55 0 -107 -12.5t-85.5 -49t-33.5 -109.5q0 -74 37 -115t97 -64.5t128 -43.5q47 -14 109.5 -30.5t121.5 -47t98 -83t39 -138.5q0 -154 -112.5 -236t-285.5 -82zM432 1282l159 231h154l-183 -231h-130z" />
    <glyph glyph-name="Scedilla" unicode="&#x15e;" horiz-adv-x="1136" 
d="M583 -20q-144 0 -258 49.5t-179.5 147t-65.5 240.5h126q0 -111 51 -181.5t137 -104t191 -33.5q131 0 209.5 36.5t113.5 95.5t35 126q0 96 -55.5 154t-143.5 95.5t-185 71.5q-112 40 -205.5 93t-150 132.5t-56.5 196.5q0 183 122.5 280.5t316.5 97.5q127 0 218.5 -42.5
t146.5 -128t70 -215.5h-126q-8 66 -37.5 127.5t-96 101t-186.5 39.5q-142 0 -223.5 -63t-81.5 -191q0 -83 36 -137.5t110.5 -95.5t190.5 -84q82 -30 163.5 -64t148.5 -80.5t107 -115t40 -169.5q0 -180 -126.5 -279.5t-356.5 -99.5zM576 -350q-34 0 -65 7t-51 16l1 95
q52 -25 97 -25q42 0 61.5 23.5t19.5 58.5q0 51 -40 98.5t-125 76.5h124q84 -31 122 -80t38 -108q0 -67 -46 -114.5t-136 -47.5z" />
    <glyph glyph-name="scedilla" unicode="&#x15f;" horiz-adv-x="980" 
d="M497 -17q-100 0 -190 33t-150 105t-69 188h130q23 -124 93 -167.5t189 -43.5q72 0 133 17t98.5 58t37.5 114q0 63 -26.5 98.5t-68 54t-89.5 29t-91 22.5q-87 26 -168.5 60.5t-134 97.5t-52.5 173q0 120 93.5 204.5t259.5 84.5q98 0 176.5 -33t127 -102.5t54.5 -181.5
h-127q-1 48 -21.5 94t-70.5 76t-140 30q-55 0 -107 -12.5t-85.5 -49t-33.5 -109.5q0 -74 37 -115t97 -64.5t128 -43.5q47 -14 109.5 -30.5t121.5 -47t98 -83t39 -138.5q0 -154 -112.5 -236t-285.5 -82zM496 -353q-36 0 -64.5 3t-48.5 12l1 118q48 -15 98 -15q29 0 49.5 18
t20.5 51q0 47 -20 84t-86 82h40q86 -14 138.5 -74.5t52.5 -117.5q0 -74 -52 -117.5t-129 -43.5z" />
    <glyph glyph-name="Scaron" unicode="&#x160;" horiz-adv-x="1136" 
d="M583 -20q-144 0 -258 49.5t-179.5 147t-65.5 240.5h126q0 -111 51 -181.5t137 -104t191 -33.5q131 0 209.5 36.5t113.5 95.5t35 126q0 96 -55.5 154t-143.5 95.5t-185 71.5q-112 40 -205.5 93t-150 132.5t-56.5 196.5q0 183 122.5 280.5t316.5 97.5q127 0 218.5 -42.5
t146.5 -128t70 -215.5h-126q-8 66 -37.5 127.5t-96 101t-186.5 39.5q-142 0 -223.5 -63t-81.5 -191q0 -83 36 -137.5t110.5 -95.5t190.5 -84q82 -30 163.5 -64t148.5 -80.5t107 -115t40 -169.5q0 -180 -126.5 -279.5t-356.5 -99.5zM492 1619l-190 257h128l138 -168l138 168
h128l-190 -257h-152z" />
    <glyph glyph-name="scaron" unicode="&#x161;" horiz-adv-x="980" 
d="M497 -17q-100 0 -190 33t-150 105t-69 188h130q23 -124 93 -167.5t189 -43.5q72 0 133 17t98.5 58t37.5 114q0 63 -26.5 98.5t-68 54t-89.5 29t-91 22.5q-87 26 -168.5 60.5t-134 97.5t-52.5 173q0 120 93.5 204.5t259.5 84.5q98 0 176.5 -33t127 -102.5t54.5 -181.5
h-127q-1 48 -21.5 94t-70.5 76t-140 30q-55 0 -107 -12.5t-85.5 -49t-33.5 -109.5q0 -74 37 -115t97 -64.5t128 -43.5q47 -14 109.5 -30.5t121.5 -47t98 -83t39 -138.5q0 -154 -112.5 -236t-285.5 -82zM405 1261l-185 252h123l138 -163l138 163h122l-184 -252h-152z" />
    <glyph glyph-name="uni0162" unicode="&#x162;" horiz-adv-x="1104" 
d="M490 0v1237q0 41 14.5 66t33.5 33h-473v118h974v-118h-425v-1336h-124zM592 -350q-34 0 -65 7t-51 16l1 95q52 -25 97 -25q42 0 61.5 23.5t19.5 58.5q0 51 -40 98.5t-125 76.5h124q84 -31 122 -80t38 -108q0 -67 -46 -114.5t-136 -47.5z" />
    <glyph glyph-name="uni0163" unicode="&#x163;" horiz-adv-x="746" 
d="M478 -12q-126 0 -182.5 64t-56.5 185v642q0 32 13 60.5t38 36.5l-51 72v43l33 323h87v-1185q0 -76 36 -99.5t109 -23.5q66 0 100.5 2.5t89.5 10.5v-116q-55 -10 -109.5 -12.5t-106.5 -2.5zM61 976v115h605v-115h-605zM474 -353q-36 0 -64.5 3t-48.5 12l1 118
q48 -15 98 -15q29 0 49.5 18t20.5 51q0 47 -20 84t-86 82h40q86 -14 138.5 -74.5t52.5 -117.5q0 -74 -52 -117.5t-129 -43.5z" />
    <glyph glyph-name="Tcaron" unicode="&#x164;" horiz-adv-x="1104" 
d="M490 0v1237q0 41 14.5 66t33.5 33h-473v118h974v-118h-425v-1336h-124zM476 1619l-190 257h128l138 -168l138 168h128l-190 -257h-152z" />
    <glyph glyph-name="tcaron" unicode="&#x165;" horiz-adv-x="746" 
d="M478 -12q-126 0 -182.5 64t-56.5 185v642q0 32 13 60.5t38 36.5l-51 72v43l33 323h87v-1185q0 -76 36 -99.5t109 -23.5q66 0 100.5 2.5t89.5 10.5v-116q-55 -10 -109.5 -12.5t-106.5 -2.5zM61 976v115h605v-115h-605zM518 1261l30 346h131l-50 -346h-111z" />
    <glyph glyph-name="Tbar" unicode="&#x166;" horiz-adv-x="1104" 
d="M490 0v1237q0 41 14.5 66t33.5 33h-473v118h974v-118h-425v-1336h-124zM181 675v114h746l-4 -114h-742z" />
    <glyph glyph-name="tbar" unicode="&#x167;" horiz-adv-x="776" 
d="M478 -12q-126 0 -182.5 64t-56.5 185v642q0 32 13 60.5t38 36.5l-51 72v43l33 323h87v-1185q0 -76 36 -99.5t109 -23.5q66 0 100.5 2.5t89.5 10.5v-116q-55 -10 -109.5 -12.5t-106.5 -2.5zM61 583v115h605v-115h-605zM61 976v115h605v-115h-605z" />
    <glyph glyph-name="Utilde" unicode="&#x168;" horiz-adv-x="1284" 
d="M641 -20q-137 0 -253.5 64t-187 194t-70.5 328v888h125v-890q0 -135 35.5 -225t93.5 -142t126.5 -74.5t134.5 -22.5t133.5 22.5t124 74.5t91.5 142t35 225v890h125v-888q0 -198 -71 -328t-187.5 -194t-254.5 -64zM780 1600q-66 0 -105 26t-64 59.5t-49 59.5t-60 26
q-51 0 -73 -38.5t-9 -114.5h-106q-11 74 8.5 130.5t64 88.5t107.5 32q65 0 103 -26t62.5 -60t48 -60t60.5 -26q51 0 74.5 34.5t18.5 102.5h107q18 -103 -38 -168.5t-150 -65.5z" />
    <glyph glyph-name="utilde" unicode="&#x169;" horiz-adv-x="1120" 
d="M479 -22q-141 0 -225 90.5t-84 244.5v778h120v-738q0 -89 20.5 -146t64 -83.5t111.5 -27.5q113 0 186.5 55.5t147.5 194.5v745h120v-1091h-105l-13 323l24 6q-14 -105 -64.5 -184t-128.5 -123t-174 -44zM687 1237q-63 0 -100.5 25t-61 58.5t-46.5 58.5t-58 25
q-49 0 -70.5 -37.5t-8.5 -105.5h-102q-10 69 8.5 123.5t61.5 86t103 31.5q63 0 99 -25.5t59.5 -58.5t46.5 -58.5t58 -25.5q49 0 71.5 29.5t17.5 97.5h103q17 -103 -36.5 -163.5t-144.5 -60.5z" />
    <glyph glyph-name="Umacron" unicode="&#x16a;" horiz-adv-x="1284" 
d="M641 -20q-137 0 -253.5 64t-187 194t-70.5 328v888h125v-890q0 -135 35.5 -225t93.5 -142t126.5 -74.5t134.5 -22.5t133.5 22.5t124 74.5t91.5 142t35 225v890h125v-888q0 -198 -71 -328t-187.5 -194t-254.5 -64zM369 1617v118h544l-3 -118h-541z" />
    <glyph glyph-name="umacron" unicode="&#x16b;" horiz-adv-x="1120" 
d="M479 -22q-141 0 -225 90.5t-84 244.5v778h120v-738q0 -89 20.5 -146t64 -83.5t111.5 -27.5q113 0 186.5 55.5t147.5 194.5v745h120v-1091h-105l-13 323l24 6q-14 -105 -64.5 -184t-128.5 -123t-174 -44zM304 1282v111h504l-3 -111h-501z" />
    <glyph glyph-name="Ubreve" unicode="&#x16c;" horiz-adv-x="1284" 
d="M641 -20q-137 0 -253.5 64t-187 194t-70.5 328v888h125v-890q0 -135 35.5 -225t93.5 -142t126.5 -74.5t134.5 -22.5t133.5 22.5t124 74.5t91.5 142t35 225v890h125v-888q0 -198 -71 -328t-187.5 -194t-254.5 -64zM641 1600q-130 0 -193 80t-42 196h111q-11 -99 24.5 -138
t99.5 -39q65 0 100.5 39t24.5 138h111q21 -116 -42 -196t-194 -80z" />
    <glyph glyph-name="ubreve" unicode="&#x16d;" horiz-adv-x="1120" 
d="M479 -22q-141 0 -225 90.5t-84 244.5v778h120v-738q0 -89 20.5 -146t64 -83.5t111.5 -27.5q113 0 186.5 55.5t147.5 194.5v745h120v-1091h-105l-13 323l24 6q-14 -105 -64.5 -184t-128.5 -123t-174 -44zM555 1249q-130 0 -193 76.5t-42 187.5h111q-11 -94 24.5 -129.5
t99.5 -35.5q65 0 100.5 35.5t24.5 129.5h111q21 -111 -42 -187.5t-194 -76.5z" />
    <glyph glyph-name="Uring" unicode="&#x16e;" horiz-adv-x="1284" 
d="M641 -20q-137 0 -253.5 64t-187 194t-70.5 328v888h125v-890q0 -135 35.5 -225t93.5 -142t126.5 -74.5t134.5 -22.5t133.5 22.5t124 74.5t91.5 142t35 225v890h125v-888q0 -198 -71 -328t-187.5 -194t-254.5 -64zM641 1598q-79 0 -133 55t-54 125q0 77 54 127t133 50
q78 0 131.5 -50t53.5 -127q0 -70 -53.5 -125t-131.5 -55zM641 1681q40 0 64 30t24 67q0 46 -24 71t-64 25t-64.5 -25t-24.5 -71q0 -37 24.5 -67t64.5 -30z" />
    <glyph glyph-name="uring" unicode="&#x16f;" horiz-adv-x="1120" 
d="M479 -22q-141 0 -225 90.5t-84 244.5v778h120v-738q0 -89 20.5 -146t64 -83.5t111.5 -27.5q113 0 186.5 55.5t147.5 194.5v745h120v-1091h-105l-13 323l24 6q-14 -105 -64.5 -184t-128.5 -123t-174 -44zM555 1261q-91 0 -148 59.5t-57 139.5q0 83 57 139.5t148 56.5
q90 0 146.5 -56.5t56.5 -139.5q0 -80 -56.5 -139.5t-146.5 -59.5zM555 1348q50 0 75.5 33.5t25.5 76.5q0 50 -25.5 79.5t-75.5 29.5q-49 0 -75.5 -29.5t-26.5 -79.5q0 -43 26.5 -76.5t75.5 -33.5z" />
    <glyph glyph-name="Uhungarumlaut" unicode="&#x170;" horiz-adv-x="1284" 
d="M641 -20q-137 0 -253.5 64t-187 194t-70.5 328v888h125v-890q0 -135 35.5 -225t93.5 -142t126.5 -74.5t134.5 -22.5t133.5 22.5t124 74.5t91.5 142t35 225v890h125v-888q0 -198 -71 -328t-187.5 -194t-254.5 -64zM725 1618l160 278h132l-184 -278h-108zM445 1618l160 278
h132l-184 -278h-108z" />
    <glyph glyph-name="uhungarumlaut" unicode="&#x171;" horiz-adv-x="1120" 
d="M479 -22q-141 0 -225 90.5t-84 244.5v778h120v-738q0 -89 20.5 -146t64 -83.5t111.5 -27.5q113 0 186.5 55.5t147.5 194.5v745h120v-1091h-105l-13 323l24 6q-14 -105 -64.5 -184t-128.5 -123t-174 -44zM634 1261l156 252h132l-180 -252h-108zM364 1261l136 252h132
l-160 -252h-108z" />
    <glyph glyph-name="Uogonek" unicode="&#x172;" horiz-adv-x="1284" 
d="M641 -20q-137 0 -253.5 64t-187 194t-70.5 328v888h125v-890q0 -135 35.5 -225t93.5 -142t126.5 -74.5t134.5 -22.5t133.5 22.5t124 74.5t91.5 142t35 225v890h125v-888q0 -198 -71 -328t-187.5 -194t-254.5 -64zM693 -326q-76 0 -120 41.5t-44 102.5q0 38 21 74t71 64
t137 42l50 12q-88 -45 -126 -82t-38 -84q0 -71 73 -71q37 0 88 19l1 -98q-19 -9 -48 -14.5t-65 -5.5z" />
    <glyph glyph-name="uogonek" unicode="&#x173;" horiz-adv-x="1120" 
d="M479 -22q-141 0 -225 90.5t-84 244.5v778h120v-738q0 -89 20.5 -146t64 -83.5t111.5 -27.5q113 0 186.5 55.5t147.5 194.5v745h120v-1091h-105l-13 323l24 6q-14 -105 -64.5 -184t-128.5 -123t-174 -44zM825 -336q-76 0 -120 41.5t-44 102.5q0 38 21 77t71 70t137 45h50
q-88 -45 -126 -82t-38 -84q0 -71 73 -71q37 0 88 19l1 -98q-19 -9 -48 -14.5t-65 -5.5z" />
    <glyph glyph-name="Wcircumflex" unicode="&#x174;" horiz-adv-x="1890" 
d="M460 0l-430 1454h130l188 -685l201 -658h11l137 658l137 685h223l136 -685l138 -658h11l200 658l188 685h130l-429 -1454h-192l-168 749l-123 622h-5l-124 -622l-168 -749h-191zM689 1618l180 258h152l180 -258h-128l-128 173l-128 -173h-128z" />
    <glyph glyph-name="wcircumflex" unicode="&#x175;" horiz-adv-x="1520" 
d="M369 0l-349 1091h137l144 -495l136 -487h4l111 475l132 507h152l131 -506l112 -476h4l136 487l144 495h137l-349 -1091h-150l-154 575l-85 380h-4l-85 -380l-154 -575h-150zM504 1261l180 252h152l180 -252h-128l-128 163l-128 -163h-128z" />
    <glyph glyph-name="Ycircumflex" unicode="&#x176;" horiz-adv-x="1245" 
d="M565 528l-525 926h145l216 -416l216 -382h10l217 382l216 416h145l-525 -926h-115zM560 0v581h124v-581h-124zM367 1618l180 258h152l180 -258h-128l-128 173l-128 -173h-128z" />
    <glyph glyph-name="ycircumflex" unicode="&#x177;" horiz-adv-x="977" 
d="M112 -431v118h81q73 0 111.5 24.5t59 66.5t37.5 95q21 65 30.5 91t30.5 36h-42l-384 1091h135l164 -495l150 -463h5l153 463l169 495h135l-393 -1091q-35 -98 -60 -177.5t-57.5 -136t-89 -87t-154.5 -30.5h-81zM238 1261l180 252h152l180 -252h-128l-128 163l-128 -163
h-128z" />
    <glyph glyph-name="Ydieresis" unicode="&#x178;" horiz-adv-x="1245" 
d="M565 528l-525 926h145l216 -416l216 -382h10l217 382l216 416h145l-525 -926h-115zM560 0v581h124v-581h-124zM445 1600q-41 0 -68 29t-27 75q0 45 27 74t68 29q38 0 66.5 -29t28.5 -74q0 -46 -28.5 -75t-66.5 -29zM800 1600q-41 0 -68 29t-27 75q0 45 27 74t68 29
q38 0 66.5 -29t28.5 -74q0 -46 -28.5 -75t-66.5 -29z" />
    <glyph glyph-name="Zacute" unicode="&#x179;" horiz-adv-x="1203" 
d="M55 0l713 1099l170 241l-271 -5h-527v119h1008l-703 -1083l-185 -261l283 9h573v-119h-1061zM569 1618l180 277h154l-204 -277h-130z" />
    <glyph glyph-name="zacute" unicode="&#x17a;" horiz-adv-x="980" 
d="M58 0l549 832q51 77 85.5 113.5t74.5 60.5l11 -13q-55 -4 -109.5 -6.5t-109.5 -2.5h-433v107h785l-558 -843q-37 -55 -70 -99.5t-71 -61.5l-3 9q50 5 99 8.5t98 3.5h519v-108h-867zM451 1282l159 231h154l-183 -231h-130z" />
    <glyph glyph-name="Zdotaccent" unicode="&#x17b;" horiz-adv-x="1203" 
d="M55 0l713 1099l170 241l-271 -5h-527v119h1008l-703 -1083l-185 -261l283 9h573v-119h-1061zM632 1598q-41 0 -68 29t-27 75q0 45 27 74t68 29q38 0 66.5 -29t28.5 -74q0 -46 -28.5 -75t-66.5 -29z" />
    <glyph glyph-name="zdotaccent" unicode="&#x17c;" horiz-adv-x="980" 
d="M58 0l549 832q51 77 85.5 113.5t74.5 60.5l11 -13q-55 -4 -109.5 -6.5t-109.5 -2.5h-433v107h785l-558 -843q-37 -55 -70 -99.5t-71 -61.5l-3 9q50 5 99 8.5t98 3.5h519v-108h-867zM502 1261q-43 0 -71.5 29t-28.5 72q0 44 28.5 72.5t71.5 28.5q42 0 70.5 -28.5
t28.5 -72.5q0 -43 -28.5 -72t-70.5 -29z" />
    <glyph glyph-name="Zcaron" unicode="&#x17d;" horiz-adv-x="1203" 
d="M55 0l713 1099l170 241l-271 -5h-527v119h1008l-703 -1083l-185 -261l283 9h573v-119h-1061zM556 1619l-190 257h128l138 -168l138 168h128l-190 -257h-152z" />
    <glyph glyph-name="zcaron" unicode="&#x17e;" horiz-adv-x="980" 
d="M58 0l549 832q51 77 85.5 113.5t74.5 60.5l11 -13q-55 -4 -109.5 -6.5t-109.5 -2.5h-433v107h785l-558 -843q-37 -55 -70 -99.5t-71 -61.5l-3 9q50 5 99 8.5t98 3.5h519v-108h-867zM424 1261l-185 252h123l138 -163l138 163h122l-184 -252h-152z" />
    <glyph glyph-name="uni018F" unicode="&#x18f;" horiz-adv-x="1397" 
d="M684 -20q-87 0 -170 20t-155.5 64.5t-128 118.5t-86.5 182t-31 254l-2 111l125 -38v-67q0 -157 40 -260t105.5 -161.5t145 -83t158.5 -24.5q130 0 241.5 69t180 210t68.5 356q0 211 -68.5 351.5t-181 211.5t-243.5 71q-137 0 -230 -50.5t-144 -124t-61 -143.5h-133
q22 146 99.5 242.5t197 144t268.5 47.5q196 0 336 -91.5t215 -260t75 -398.5t-73 -398.5t-211.5 -260.5t-336.5 -92zM136 614l-25 116h1138v-116h-1113z" />
    <glyph glyph-name="Gcaron" unicode="&#x1e6;" horiz-adv-x="1450" 
d="M787 -20q-207 0 -359.5 92t-235.5 260.5t-83 398.5t82 398.5t230.5 260t345.5 91.5q134 0 247 -47.5t188.5 -144t97.5 -242.5h-133q-7 45 -36 99.5t-80.5 104.5t-126 82t-172.5 32q-94 0 -185.5 -40t-165.5 -119.5t-118 -198t-44 -276.5q0 -215 78.5 -356t203.5 -210
t265 -69q60 0 137.5 16t149 45.5t110.5 69.5l2 384h-355v119h480l-2 -565q-106 -82 -237 -133.5t-284 -51.5zM685 1619l-190 257h128l138 -168l138 168h128l-190 -257h-152z" />
    <glyph glyph-name="gcaron" unicode="&#x1e7;" horiz-adv-x="1115" 
d="M547 -445q-127 0 -221 43.5t-142 132t-39 222.5h119q-7 -101 27 -164t102 -92t161 -29q107 0 167 41t84 115.5t24 172.5v291q-9 -52 -44 -105.5t-97 -90t-153 -36.5q-92 0 -171.5 35.5t-139 103t-93 165.5t-33.5 222q0 171 58.5 289t157.5 179.5t220 61.5q80 0 138.5 -22
t97.5 -55t60 -67l1 123h118v-1075q0 -172 -49 -273t-139.5 -144t-213.5 -44zM557 170q71 0 125.5 28.5t91.5 75t55 99.5v455q-5 25 -39 65t-92.5 72t-140.5 32q-154 0 -243.5 -106t-89.5 -309q0 -213 90.5 -312.5t242.5 -99.5zM461 1261l-185 252h123l138 -163l138 163h122
l-184 -252h-152z" />
    <glyph glyph-name="uni01F4" unicode="&#x1f4;" horiz-adv-x="1450" 
d="M787 -20q-207 0 -359.5 92t-235.5 260.5t-83 398.5t82 398.5t230.5 260t345.5 91.5q134 0 247 -47.5t188.5 -144t97.5 -242.5h-133q-7 45 -36 99.5t-80.5 104.5t-126 82t-172.5 32q-94 0 -185.5 -40t-165.5 -119.5t-118 -198t-44 -276.5q0 -215 78.5 -356t203.5 -210
t265 -69q60 0 137.5 16t149 45.5t110.5 69.5l2 384h-355v119h480l-2 -565q-106 -82 -237 -133.5t-284 -51.5zM698 1618l180 277h154l-204 -277h-130z" />
    <glyph glyph-name="uni01F5" unicode="&#x1f5;" horiz-adv-x="1115" 
d="M547 -445q-127 0 -221 43.5t-142 132t-39 222.5h119q-7 -101 27 -164t102 -92t161 -29q107 0 167 41t84 115.5t24 172.5v291q-9 -52 -44 -105.5t-97 -90t-153 -36.5q-92 0 -171.5 35.5t-139 103t-93 165.5t-33.5 222q0 171 58.5 289t157.5 179.5t220 61.5q80 0 138.5 -22
t97.5 -55t60 -67l1 123h118v-1075q0 -172 -49 -273t-139.5 -144t-213.5 -44zM557 170q71 0 125.5 28.5t91.5 75t55 99.5v455q-5 25 -39 65t-92.5 72t-140.5 32q-154 0 -243.5 -106t-89.5 -309q0 -213 90.5 -312.5t242.5 -99.5zM488 1282l159 231h154l-183 -231h-130z" />
    <glyph glyph-name="Aringacute" unicode="&#x1fa;" horiz-adv-x="1245" 
d="M35 0l486 1454h204l485 -1454h-133l-148 446l72 -54h-782l62 118h681l-40 -43l-224 674l-76 226h-1l-74 -226l-379 -1141h-133zM623 1436q-76 0 -129 55t-53 125q0 77 53 127t129 50q75 0 128 -50t53 -127q0 -70 -53 -125t-128 -55zM623 1519q37 0 60.5 30t23.5 67
q0 46 -23.5 71t-60.5 25t-60.5 -25t-23.5 -71q0 -37 23.5 -67t60.5 -30zM619 1728l130 203h152l-164 -203h-118z" />
    <glyph glyph-name="aringacute" unicode="&#x1fb;" horiz-adv-x="1101" 
d="M448 -12q-111 0 -183.5 41t-108.5 111.5t-36 156.5q0 77 35.5 137t103.5 101t165 62q57 12 121 19t132.5 11.5t135.5 6.5v84q0 161 -71 219t-198 58q-76 0 -143 -22t-106 -82t-33 -175h-124q-13 123 36.5 212t146.5 136.5t229 47.5q72 0 140 -18.5t122.5 -60.5t86.5 -113
t32 -177v-743h-118v227q-37 -117 -139 -178t-226 -61zM465 91q108 0 181 41.5t114 97t53 94.5v226q-87 -4 -182.5 -14t-172.5 -31q-100 -27 -154 -77t-54 -127q0 -52 18.5 -100t65 -78.5t131.5 -31.5zM554 1073q-76 0 -129 55t-53 125q0 77 53 127t129 50q75 0 128 -50
t53 -127q0 -70 -53 -125t-128 -55zM554 1156q37 0 60.5 30t23.5 67q0 46 -23.5 71t-60.5 25t-60.5 -25t-23.5 -71q0 -37 23.5 -67t60.5 -30zM550 1365l130 203h152l-164 -203h-118z" />
    <glyph glyph-name="AEacute" unicode="&#x1fc;" horiz-adv-x="1711" 
d="M-25 0l746 1454h101l71 -27h-72l-120 -286l-583 -1141h-143zM219 392l62 118h587v-118h-649zM822 0v1454h794v-118h-718l49 51v-598l-49 29h671v-116h-671l49 27v-671l-49 61h738v-119h-814zM1020 1618l180 277h154l-204 -277h-130z" />
    <glyph glyph-name="aeacute" unicode="&#x1fd;" horiz-adv-x="1809" 
d="M443 -12q-108 0 -180 42t-107.5 112t-35.5 154q0 116 79 192t227 109q56 13 119.5 20t131.5 11t136 6v84q0 159 -71.5 218t-201.5 59q-76 0 -141.5 -21t-103.5 -81t-33 -177h-124q-13 126 35.5 214.5t145 135t228.5 46.5q141 0 234.5 -66.5t115.5 -188.5
q46 115 148 185.5t238 70.5q129 0 227.5 -64.5t154.5 -178.5t56 -262q0 -16 -1 -37t-4 -54h-778q8 -196 103.5 -306.5t268.5 -110.5q120 0 188 54.5t81 155.5h122q-4 -99 -56 -171t-142.5 -111.5t-212.5 -39.5q-104 0 -188.5 34t-146 99t-97.5 156q-55 -132 -166.5 -210.5
t-248.5 -78.5zM465 91q110 0 182 41t112 94t52 87v238q-84 -5 -181.5 -16t-176.5 -32q-96 -25 -149.5 -75t-53.5 -132q0 -49 18.5 -96t65.5 -78t131 -31zM938 563q6 33 26.5 47.5t62.5 14.5h571q0 165 -87 269t-232 104q-151 0 -243.5 -116.5t-97.5 -318.5zM877 1282
l159 231h154l-183 -231h-130z" />
    <glyph glyph-name="Oslashacute" unicode="&#x1fe;" horiz-adv-x="1493" 
d="M745 -30q-175 0 -319.5 88t-230.5 259t-86 419q0 240 86.5 407t231.5 253.5t319 86.5q177 0 321.5 -86.5t230.5 -253.5t86 -407q0 -248 -86.5 -419t-231.5 -259t-321 -88zM745 87q135 0 251 69t187 212t71 366q0 211 -71.5 351.5t-187.5 210.5t-249 70q-129 0 -245 -70
t-189 -210.5t-73 -351.5q0 -167 43 -289t115.5 -201.5t162.5 -118t185 -38.5zM265 -77l119 236l42 42l549 1107l8 44l86 172h166l-105 -209l-44 -47l-559 -1128l-6 -40l-90 -177h-166zM684 1618l180 277h154l-204 -277h-130z" />
    <glyph glyph-name="oslashacute" unicode="&#x1ff;" horiz-adv-x="1109" 
d="M552 -15q-134 0 -238.5 65t-164 191.5t-59.5 310.5q0 174 63.5 299.5t169.5 193t233 67.5q139 0 243 -67.5t162 -193t58 -299.5q0 -184 -64.5 -310.5t-171 -191.5t-231.5 -65zM556 101q159 0 248 118.5t89 332.5q0 212 -90 328t-251 116q-155 0 -245.5 -118t-90.5 -326
q0 -212 91 -331.5t249 -119.5zM125 -44l144 228l37 34l446 713l13 35l104 168h116l-123 -197l-39 -38l-456 -730l-11 -31l-115 -182h-116zM507 1282l159 231h154l-183 -231h-130z" />
    <glyph glyph-name="uni0218" unicode="&#x218;" horiz-adv-x="1136" 
d="M583 -20q-144 0 -258 49.5t-179.5 147t-65.5 240.5h126q0 -111 51 -181.5t137 -104t191 -33.5q131 0 209.5 36.5t113.5 95.5t35 126q0 96 -55.5 154t-143.5 95.5t-185 71.5q-112 40 -205.5 93t-150 132.5t-56.5 196.5q0 183 122.5 280.5t316.5 97.5q127 0 218.5 -42.5
t146.5 -128t70 -215.5h-126q-8 66 -37.5 127.5t-96 101t-186.5 39.5q-142 0 -223.5 -63t-81.5 -191q0 -83 36 -137.5t110.5 -95.5t190.5 -84q82 -30 163.5 -64t148.5 -80.5t107 -115t40 -169.5q0 -180 -126.5 -279.5t-356.5 -99.5zM476 -457q19 52 40 137t21 163v40h131v-33
q0 -45 -7.5 -91.5t-19.5 -89t-26 -75.5t-27 -51h-112z" />
    <glyph glyph-name="uni0219" unicode="&#x219;" horiz-adv-x="980" 
d="M497 -17q-100 0 -190 33t-150 105t-69 188h130q23 -124 93 -167.5t189 -43.5q72 0 133 17t98.5 58t37.5 114q0 63 -26.5 98.5t-68 54t-89.5 29t-91 22.5q-87 26 -168.5 60.5t-134 97.5t-52.5 173q0 120 93.5 204.5t259.5 84.5q98 0 176.5 -33t127 -102.5t54.5 -181.5
h-127q-1 48 -21.5 94t-70.5 76t-140 30q-55 0 -107 -12.5t-85.5 -49t-33.5 -109.5q0 -74 37 -115t97 -64.5t128 -43.5q47 -14 109.5 -30.5t121.5 -47t98 -83t39 -138.5q0 -154 -112.5 -236t-285.5 -82zM368 -457q19 52 40 137t21 163v40h131v-33q0 -45 -7.5 -91.5t-19.5 -89
t-26 -75.5t-27 -51h-112z" />
    <glyph glyph-name="uni021A" unicode="&#x21a;" horiz-adv-x="1104" 
d="M490 0v1237q0 41 14.5 66t33.5 33h-473v118h974v-118h-425v-1336h-124zM440 -457q19 52 40 137t21 163v40h131v-33q0 -45 -7.5 -91.5t-19.5 -89t-26 -75.5t-27 -51h-112z" />
    <glyph glyph-name="uni021B" unicode="&#x21b;" horiz-adv-x="746" 
d="M478 -12q-126 0 -182.5 64t-56.5 185v642q0 32 13 60.5t38 36.5l-51 72v43l33 323h87v-1185q0 -76 36 -99.5t109 -23.5q66 0 100.5 2.5t89.5 10.5v-116q-55 -10 -109.5 -12.5t-106.5 -2.5zM61 976v115h605v-115h-605zM346 -457q19 52 40 137t21 163v40h131v-33
q0 -45 -7.5 -91.5t-19.5 -89t-26 -75.5t-27 -51h-112z" />
    <glyph glyph-name="uni0232" unicode="&#x232;" horiz-adv-x="1245" 
d="M565 528l-525 926h145l216 -416l216 -382h10l217 382l216 416h145l-525 -926h-115zM560 0v581h124v-581h-124zM351 1617v118h544l-3 -118h-541z" />
    <glyph glyph-name="uni0233" unicode="&#x233;" horiz-adv-x="977" 
d="M112 -431v118h81q73 0 111.5 24.5t59 66.5t37.5 95q21 65 30.5 91t30.5 36h-42l-384 1091h135l164 -495l150 -463h5l153 463l169 495h135l-393 -1091q-35 -98 -60 -177.5t-57.5 -136t-89 -87t-154.5 -30.5h-81zM243 1282v111h504l-3 -111h-501z" />
    <glyph glyph-name="uni0237" unicode="&#x237;" horiz-adv-x="553" 
d="M155 -462q-37 0 -70.5 9t-64.5 20v128q14 -7 45.5 -18.5t70.5 -11.5q35 0 54.5 23t19.5 93v1310h120v-1145q0 -25 1 -51.5t1 -66.5q0 -88 -15 -153.5t-53 -101t-109 -35.5z" />
    <glyph glyph-name="uni0259" unicode="&#x259;" horiz-adv-x="1095" 
d="M524 1106q136 0 244 -65.5t171 -192t63 -310.5q0 -174 -62 -299.5t-170 -193t-247 -67.5q-134 0 -232 65.5t-150.5 180t-52.5 261.5q0 29 2 53l3 36h788q-6 194 -103 305.5t-263 111.5q-127 0 -197.5 -50t-87.5 -160h-122q5 105 60 177.5t147.5 110t208.5 37.5zM792 466
h-581q0 -172 84.5 -272.5t234.5 -100.5q166 0 256.5 115t94.5 320q-7 -39 -30.5 -50.5t-58.5 -11.5z" />
    <glyph glyph-name="circumflex" unicode="&#x2c6;" horiz-adv-x="812" 
d="M150 1261l180 252h152l180 -252h-128l-128 163l-128 -163h-128z" />
    <glyph glyph-name="caron" unicode="&#x2c7;" horiz-adv-x="752" 
d="M300 1261l-185 252h123l138 -163l138 163h122l-184 -252h-152z" />
    <glyph glyph-name="breve" unicode="&#x2d8;" horiz-adv-x="752" 
d="M376 1249q-130 0 -193 76.5t-42 187.5h111q-11 -94 24.5 -129.5t99.5 -35.5q65 0 100.5 35.5t24.5 129.5h111q21 -111 -42 -187.5t-194 -76.5z" />
    <glyph glyph-name="dotaccent" unicode="&#x2d9;" horiz-adv-x="453" 
d="M227 1261q-43 0 -71.5 29t-28.5 72q0 44 28.5 72.5t71.5 28.5q42 0 70.5 -28.5t28.5 -72.5q0 -43 -28.5 -72t-70.5 -29z" />
    <glyph glyph-name="ring" unicode="&#x2da;" horiz-adv-x="603" 
d="M302 1261q-91 0 -148 59.5t-57 139.5q0 83 57 139.5t148 56.5q90 0 146.5 -56.5t56.5 -139.5q0 -80 -56.5 -139.5t-146.5 -59.5zM302 1348q50 0 75.5 33.5t25.5 76.5q0 50 -25.5 79.5t-75.5 29.5q-49 0 -75.5 -29.5t-26.5 -79.5q0 -43 26.5 -76.5t75.5 -33.5z" />
    <glyph glyph-name="ogonek" unicode="&#x2db;" horiz-adv-x="530" 
d="M309 -336q-76 0 -120 41.5t-44 102.5q0 38 21 77t71 70t137 45h50q-88 -45 -126 -82t-38 -84q0 -71 73 -71q37 0 88 19l1 -98q-19 -9 -48 -14.5t-65 -5.5z" />
    <glyph glyph-name="tilde" unicode="&#x2dc;" horiz-adv-x="936" 
d="M601 1237q-63 0 -100.5 25t-61 58.5t-46.5 58.5t-58 25q-49 0 -70.5 -37.5t-8.5 -105.5h-102q-10 69 8.5 123.5t61.5 86t103 31.5q63 0 99 -25.5t59.5 -58.5t46.5 -58.5t58 -25.5q49 0 71.5 29.5t17.5 97.5h103q17 -103 -36.5 -163.5t-144.5 -60.5z" />
    <glyph glyph-name="hungarumlaut" unicode="&#x2dd;" horiz-adv-x="832" 
d="M415 1261l156 252h132l-180 -252h-108zM145 1261l136 252h132l-160 -252h-108z" />
    <glyph glyph-name="gravecomb" unicode="&#x300;" 
d="M334 1282l-184 231h154l160 -231h-130z" />
    <glyph glyph-name="acutecomb" unicode="&#x301;" 
d="M150 1282l159 231h154l-183 -231h-130z" />
    <glyph glyph-name="uni0302" unicode="&#x302;" 
d="M150 1261l180 252h152l180 -252h-128l-128 163l-128 -163h-128z" />
    <glyph glyph-name="tildecomb" unicode="&#x303;" 
d="M601 1237q-63 0 -100.5 25t-61 58.5t-46.5 58.5t-58 25q-49 0 -70.5 -37.5t-8.5 -105.5h-102q-10 69 8.5 123.5t61.5 86t103 31.5q63 0 99 -25.5t59.5 -58.5t46.5 -58.5t58 -25.5q49 0 71.5 29.5t17.5 97.5h103q17 -103 -36.5 -163.5t-144.5 -60.5z" />
    <glyph glyph-name="uni0304" unicode="&#x304;" 
d="M131 1282v111h504l-3 -111h-501z" />
    <glyph glyph-name="uni0306" unicode="&#x306;" 
d="M376 1249q-130 0 -193 76.5t-42 187.5h111q-11 -94 24.5 -129.5t99.5 -35.5q65 0 100.5 35.5t24.5 129.5h111q21 -111 -42 -187.5t-194 -76.5z" />
    <glyph glyph-name="uni0307" unicode="&#x307;" 
d="M227 1261q-43 0 -71.5 29t-28.5 72q0 44 28.5 72.5t71.5 28.5q42 0 70.5 -28.5t28.5 -72.5q0 -43 -28.5 -72t-70.5 -29z" />
    <glyph glyph-name="uni0308" unicode="&#x308;" 
d="M245 1261q-41 0 -68 29t-27 75q0 45 27 74t68 29q38 0 66.5 -29t28.5 -74q0 -46 -28.5 -75t-66.5 -29zM560 1261q-41 0 -68 29t-27 75q0 45 27 74t68 29q38 0 66.5 -29t28.5 -74q0 -46 -28.5 -75t-66.5 -29z" />
    <glyph glyph-name="uni030A" unicode="&#x30a;" 
d="M302 1261q-91 0 -148 59.5t-57 139.5q0 83 57 139.5t148 56.5q90 0 146.5 -56.5t56.5 -139.5q0 -80 -56.5 -139.5t-146.5 -59.5zM302 1348q50 0 75.5 33.5t25.5 76.5q0 50 -25.5 79.5t-75.5 29.5q-49 0 -75.5 -29.5t-26.5 -79.5q0 -43 26.5 -76.5t75.5 -33.5z" />
    <glyph glyph-name="uni030B" unicode="&#x30b;" 
d="M415 1261l156 252h132l-180 -252h-108zM145 1261l136 252h132l-160 -252h-108z" />
    <glyph glyph-name="uni030C" unicode="&#x30c;" 
d="M300 1261l-185 252h123l138 -163l138 163h122l-184 -252h-152z" />
    <glyph glyph-name="uni0312" unicode="&#x312;" 
d="M150 1261v33q0 40 6.5 87t18.5 89.5t29 65.5h101q-19 -52 -25 -119.5t-6 -115.5v-40h-124z" />
    <glyph glyph-name="dotbelowcomb" unicode="&#x323;" 
d="M245 -345q-41 0 -68 29t-27 75q0 45 27 74t68 29q38 0 66.5 -29t28.5 -74q0 -46 -28.5 -75t-66.5 -29z" />
    <glyph glyph-name="uni0326" unicode="&#x326;" 
d="M79 -457q19 52 40 137t21 163v40h131v-33q0 -45 -7.5 -91.5t-19.5 -89t-26 -75.5t-27 -51h-112z" />
    <glyph glyph-name="uni0327" unicode="&#x327;" 
d="M278 -353q-36 0 -64.5 3t-48.5 12l1 118q48 -15 98 -15q29 0 49.5 18t20.5 51q0 47 -20 84t-86 82h40q86 -14 138.5 -74.5t52.5 -117.5q0 -74 -52 -117.5t-129 -43.5z" />
    <glyph glyph-name="uni0328" unicode="&#x328;" 
d="M309 -336q-76 0 -120 41.5t-44 102.5q0 38 21 77t71 70t137 45h50q-88 -45 -126 -82t-38 -84q0 -71 73 -71q37 0 88 19l1 -98q-19 -9 -48 -14.5t-65 -5.5z" />
    <glyph glyph-name="uni032D" unicode="&#x32d;" 
d="M150 -363l170 277h152l170 -277h-128l-118 188l-118 -188h-128z" />
    <glyph glyph-name="uni0331" unicode="&#x331;" 
d="M150 -230v122h504l-3 -122h-501z" />
    <glyph glyph-name="Wgrave" unicode="&#x1e80;" horiz-adv-x="1890" 
d="M460 0l-430 1454h130l188 -685l201 -658h11l137 658l137 685h223l136 -685l138 -658h11l200 658l188 685h130l-429 -1454h-192l-168 749l-123 622h-5l-124 -622l-168 -749h-191zM883 1618l-204 277h154l180 -277h-130z" />
    <glyph glyph-name="wgrave" unicode="&#x1e81;" horiz-adv-x="1520" 
d="M369 0l-349 1091h137l144 -495l136 -487h4l111 475l132 507h152l131 -506l112 -476h4l136 487l144 495h137l-349 -1091h-150l-154 575l-85 380h-4l-85 -380l-154 -575h-150zM689 1282l-184 231h154l160 -231h-130z" />
    <glyph glyph-name="Wacute" unicode="&#x1e82;" horiz-adv-x="1890" 
d="M460 0l-430 1454h130l188 -685l201 -658h11l137 658l137 685h223l136 -685l138 -658h11l200 658l188 685h130l-429 -1454h-192l-168 749l-123 622h-5l-124 -622l-168 -749h-191zM882 1618l180 277h154l-204 -277h-130z" />
    <glyph glyph-name="wacute" unicode="&#x1e83;" horiz-adv-x="1520" 
d="M369 0l-349 1091h137l144 -495l136 -487h4l111 475l132 507h152l131 -506l112 -476h4l136 487l144 495h137l-349 -1091h-150l-154 575l-85 380h-4l-85 -380l-154 -575h-150zM711 1282l159 231h154l-183 -231h-130z" />
    <glyph glyph-name="Wdieresis" unicode="&#x1e84;" horiz-adv-x="1890" 
d="M460 0l-430 1454h130l188 -685l201 -658h11l137 658l137 685h223l136 -685l138 -658h11l200 658l188 685h130l-429 -1454h-192l-168 749l-123 622h-5l-124 -622l-168 -749h-191zM767 1600q-41 0 -68 29t-27 75q0 45 27 74t68 29q38 0 66.5 -29t28.5 -74q0 -46 -28.5 -75
t-66.5 -29zM1122 1600q-41 0 -68 29t-27 75q0 45 27 74t68 29q38 0 66.5 -29t28.5 -74q0 -46 -28.5 -75t-66.5 -29z" />
    <glyph glyph-name="wdieresis" unicode="&#x1e85;" horiz-adv-x="1520" 
d="M369 0l-349 1091h137l144 -495l136 -487h4l111 475l132 507h152l131 -506l112 -476h4l136 487l144 495h137l-349 -1091h-150l-154 575l-85 380h-4l-85 -380l-154 -575h-150zM602 1261q-41 0 -68 29t-27 75q0 45 27 74t68 29q38 0 66.5 -29t28.5 -74q0 -46 -28.5 -75
t-66.5 -29zM917 1261q-41 0 -68 29t-27 75q0 45 27 74t68 29q38 0 66.5 -29t28.5 -74q0 -46 -28.5 -75t-66.5 -29z" />
    <glyph glyph-name="uni1E9E" unicode="&#x1e9e;" horiz-adv-x="1194" 
d="M440 0v117q44 -4 90 -7t108 -3q120 0 199 30.5t118 99.5t39 183q0 88 -32 153.5t-104.5 102.5t-195.5 37h-150l330 558l54 82l-82 -17h-509v-1336h-125v1454h911l-342 -578q-10 -16 -24.5 -32t-43.5 -27q133 0 219 -35t135 -93.5t69 -128.5t20 -140q0 -148 -60.5 -243.5
t-172.5 -141t-268 -45.5q-60 0 -102 3t-81 7z" />
    <glyph glyph-name="uni1ECA" unicode="&#x1eca;" horiz-adv-x="502" 
d="M188 0v1454h126v-1454h-126zM251 -345q-41 0 -68 29t-27 75q0 45 27 74t68 29q38 0 66.5 -29t28.5 -74q0 -46 -28.5 -75t-66.5 -29z" />
    <glyph glyph-name="uni1ECB" unicode="&#x1ecb;" horiz-adv-x="559" 
d="M219 0v1074h121v-1074h-121zM280 1261q-41 0 -70.5 29t-29.5 75q0 45 29.5 74t70.5 29t70 -29t29 -74q0 -46 -29 -75t-70 -29zM280 -345q-41 0 -68 29t-27 75q0 45 27 74t68 29q38 0 66.5 -29t28.5 -74q0 -46 -28.5 -75t-66.5 -29z" />
    <glyph glyph-name="uni1ECC" unicode="&#x1ecc;" horiz-adv-x="1493" 
d="M745 -30q-175 0 -319.5 88t-230.5 259t-86 419q0 240 86.5 407t231.5 253.5t319 86.5q177 0 321.5 -86.5t230.5 -253.5t86 -407q0 -248 -86.5 -419t-231.5 -259t-321 -88zM745 87q135 0 251 69t187 212t71 366q0 211 -71.5 351.5t-187.5 210.5t-249 70q-129 0 -245 -70
t-189 -210.5t-73 -351.5q0 -167 43 -289t115.5 -201.5t162.5 -118t185 -38.5zM747 -345q-41 0 -68 29t-27 75q0 45 27 74t68 29q38 0 66.5 -29t28.5 -74q0 -46 -28.5 -75t-66.5 -29z" />
    <glyph glyph-name="uni1ECD" unicode="&#x1ecd;" horiz-adv-x="1109" 
d="M552 -15q-134 0 -238.5 65t-164 191.5t-59.5 310.5q0 174 63.5 299.5t169.5 193t233 67.5q139 0 243 -67.5t162 -193t58 -299.5q0 -184 -64.5 -310.5t-171 -191.5t-231.5 -65zM556 101q159 0 248 118.5t89 332.5q0 212 -90 328t-251 116q-155 0 -245.5 -118t-90.5 -326
q0 -212 91 -331.5t249 -119.5zM555 -345q-41 0 -68 29t-27 75q0 45 27 74t68 29q38 0 66.5 -29t28.5 -74q0 -46 -28.5 -75t-66.5 -29z" />
    <glyph glyph-name="uni1EE4" unicode="&#x1ee4;" horiz-adv-x="1284" 
d="M641 -20q-137 0 -253.5 64t-187 194t-70.5 328v888h125v-890q0 -135 35.5 -225t93.5 -142t126.5 -74.5t134.5 -22.5t133.5 22.5t124 74.5t91.5 142t35 225v890h125v-888q0 -198 -71 -328t-187.5 -194t-254.5 -64zM642 -345q-41 0 -68 29t-27 75q0 45 27 74t68 29
q38 0 66.5 -29t28.5 -74q0 -46 -28.5 -75t-66.5 -29z" />
    <glyph glyph-name="uni1EE5" unicode="&#x1ee5;" horiz-adv-x="1120" 
d="M479 -22q-141 0 -225 90.5t-84 244.5v778h120v-738q0 -89 20.5 -146t64 -83.5t111.5 -27.5q113 0 186.5 55.5t147.5 194.5v745h120v-1091h-105l-13 323l24 6q-14 -105 -64.5 -184t-128.5 -123t-174 -44zM542 -345q-41 0 -68 29t-27 75q0 45 27 74t68 29q38 0 66.5 -29
t28.5 -74q0 -46 -28.5 -75t-66.5 -29z" />
    <glyph glyph-name="Ygrave" unicode="&#x1ef2;" horiz-adv-x="1245" 
d="M565 528l-525 926h145l216 -416l216 -382h10l217 382l216 416h145l-525 -926h-115zM560 0v581h124v-581h-124zM561 1618l-204 277h154l180 -277h-130z" />
    <glyph glyph-name="ygrave" unicode="&#x1ef3;" horiz-adv-x="977" 
d="M112 -431v118h81q73 0 111.5 24.5t59 66.5t37.5 95q21 65 30.5 91t30.5 36h-42l-384 1091h135l164 -495l150 -463h5l153 463l169 495h135l-393 -1091q-35 -98 -60 -177.5t-57.5 -136t-89 -87t-154.5 -30.5h-81zM423 1282l-184 231h154l160 -231h-130z" />
    <glyph glyph-name="uni1EF8" unicode="&#x1ef8;" horiz-adv-x="1245" 
d="M565 528l-525 926h145l216 -416l216 -382h10l217 382l216 416h145l-525 -926h-115zM560 0v581h124v-581h-124zM762 1600q-66 0 -105 26t-64 59.5t-49 59.5t-60 26q-51 0 -73 -38.5t-9 -114.5h-106q-11 74 8.5 130.5t64 88.5t107.5 32q65 0 103 -26t62.5 -60t48 -60
t60.5 -26q51 0 74.5 34.5t18.5 102.5h107q18 -103 -38 -168.5t-150 -65.5z" />
    <glyph glyph-name="uni1EF9" unicode="&#x1ef9;" horiz-adv-x="977" 
d="M112 -431v118h81q73 0 111.5 24.5t59 66.5t37.5 95q21 65 30.5 91t30.5 36h-42l-384 1091h135l164 -495l150 -463h5l153 463l169 495h135l-393 -1091q-35 -98 -60 -177.5t-57.5 -136t-89 -87t-154.5 -30.5h-81zM626 1237q-63 0 -100.5 25t-61 58.5t-46.5 58.5t-58 25
q-49 0 -70.5 -37.5t-8.5 -105.5h-102q-10 69 8.5 123.5t61.5 86t103 31.5q63 0 99 -25.5t59.5 -58.5t46.5 -58.5t58 -25.5q49 0 71.5 29.5t17.5 97.5h103q17 -103 -36.5 -163.5t-144.5 -60.5z" />
    <glyph glyph-name="uni2000" unicode="&#x2000;" horiz-adv-x="1000" 
 />
    <glyph glyph-name="uni2001" unicode="&#x2001;" horiz-adv-x="2000" 
 />
    <glyph glyph-name="uni2002" unicode="&#x2002;" horiz-adv-x="1000" 
 />
    <glyph glyph-name="uni2003" unicode="&#x2003;" horiz-adv-x="2000" 
 />
    <glyph glyph-name="uni2004" unicode="&#x2004;" horiz-adv-x="666" 
 />
    <glyph glyph-name="uni2005" unicode="&#x2005;" horiz-adv-x="500" 
 />
    <glyph glyph-name="uni2006" unicode="&#x2006;" horiz-adv-x="333" 
 />
    <glyph glyph-name="uni2007" unicode="&#x2007;" horiz-adv-x="1156" 
 />
    <glyph glyph-name="uni2008" unicode="&#x2008;" horiz-adv-x="360" 
 />
    <glyph glyph-name="uni2009" unicode="&#x2009;" horiz-adv-x="280" 
 />
    <glyph glyph-name="uni200A" unicode="&#x200a;" horiz-adv-x="140" 
 />
    <glyph glyph-name="uni200B" unicode="&#x200b;" 
 />
    <glyph glyph-name="endash" unicode="&#x2013;" horiz-adv-x="1154" 
d="M150 648v106h854l-3 -106h-851z" />
    <glyph glyph-name="emdash" unicode="&#x2014;" horiz-adv-x="1836" 
d="M150 651v100h1536l-3 -100h-1533z" />
    <glyph glyph-name="quoteleft" unicode="&#x2018;" horiz-adv-x="586" 
d="M177 899v311q0 65 10 126t33.5 110.5t64 78.5t102.5 29h33v-112h-26q-56 -2 -77.5 -63.5t-24.5 -167.5v-106h63v-206h-178z" />
    <glyph glyph-name="quoteright" unicode="&#x2019;" horiz-adv-x="586" 
d="M166 900v112h26q56 2 77.5 63.5t24.5 167.5v107h-63v204h178v-310q0 -64 -10 -125.5t-33.5 -111t-64 -78.5t-102.5 -29h-33z" />
    <glyph glyph-name="quotesinglbase" unicode="&#x201a;" horiz-adv-x="586" 
d="M166 -474v112h26q56 2 77.5 63.5t24.5 167.5v107h-63v204h178v-310q0 -64 -10 -125.5t-33.5 -111t-64 -78.5t-102.5 -29h-33z" />
    <glyph glyph-name="quotedblleft" unicode="&#x201c;" horiz-adv-x="1038" 
d="M177 875v311q0 65 10 126t33.5 110.5t64 78.5t102.5 29h33v-112h-26q-56 -2 -77.5 -63.5t-24.5 -167.5v-106h63v-206h-178zM629 875v311q0 65 10 126t33.5 110.5t64 78.5t102.5 29h33v-112h-26q-56 -2 -77.5 -63.5t-24.5 -167.5v-106h63v-206h-178z" />
    <glyph glyph-name="quotedblright" unicode="&#x201d;" horiz-adv-x="1028" 
d="M166 876v112h26q56 2 77.5 63.5t24.5 167.5v107h-63v204h178v-310q0 -64 -10 -125.5t-33.5 -111t-64 -78.5t-102.5 -29h-33zM608 876v112h26q56 2 77.5 63.5t24.5 167.5v107h-63v204h178v-310q0 -64 -10 -125.5t-33.5 -111t-64 -78.5t-102.5 -29h-33z" />
    <glyph glyph-name="quotedblbase" unicode="&#x201e;" horiz-adv-x="1028" 
d="M166 -474v112h26q56 2 77.5 63.5t24.5 167.5v107h-63v204h178v-310q0 -64 -10 -125.5t-33.5 -111t-64 -78.5t-102.5 -29h-33zM608 -474v112h26q56 2 77.5 63.5t24.5 167.5v107h-63v204h178v-310q0 -64 -10 -125.5t-33.5 -111t-64 -78.5t-102.5 -29h-33z" />
    <glyph glyph-name="dagger" unicode="&#x2020;" horiz-adv-x="918" 
d="M395 153v1454h126v-1454h-126zM130 1244h658v-116h-658v116z" />
    <glyph glyph-name="daggerdbl" unicode="&#x2021;" horiz-adv-x="918" 
d="M399 0v1454h118v-1454h-118zM130 1111h658v-114h-658v114zM130 702h658v-114h-658v114z" />
    <glyph glyph-name="bullet" unicode="&#x2022;" horiz-adv-x="640" 
d="M320 482q-71 0 -120.5 49.5t-49.5 127.5q0 77 49.5 126.5t120.5 49.5t120.5 -49.5t49.5 -126.5q0 -78 -49.5 -127.5t-120.5 -49.5z" />
    <glyph glyph-name="ellipsis" unicode="&#x2026;" horiz-adv-x="1222" 
d="M180 -15q-41 0 -70.5 29t-29.5 75q0 45 29.5 74t70.5 29t70.5 -29t29.5 -74q0 -46 -29.5 -75t-70.5 -29zM615 -15q-41 0 -70.5 29t-29.5 75q0 45 29.5 74t70.5 29t70.5 -29t29.5 -74q0 -46 -29.5 -75t-70.5 -29zM1042 -15q-41 0 -70.5 29t-29.5 75q0 45 29.5 74t70.5 29
t70.5 -29t29.5 -74q0 -46 -29.5 -75t-70.5 -29z" />
    <glyph glyph-name="uni202F" unicode="&#x202f;" horiz-adv-x="66" 
 />
    <glyph glyph-name="guilsinglleft" unicode="&#x2039;" horiz-adv-x="685" 
d="M383 253l-233 296v8l233 296h142l-173 -204q-33 -39 -49.5 -62t-63.5 -34q47 -11 64 -34t49 -61l173 -205h-142z" />
    <glyph glyph-name="guilsinglright" unicode="&#x203a;" horiz-adv-x="685" 
d="M160 253l173 205q32 38 49.5 61t63.5 34q-46 11 -63 34t-50 62l-173 204h142l233 -296v-8l-233 -296h-142z" />
    <glyph glyph-name="fraction" unicode="&#x2044;" horiz-adv-x="490" 
d="M-118 0l744 1454h124l-744 -1454h-124z" />
    <glyph glyph-name="uni205F" unicode="&#x205f;" horiz-adv-x="444" 
 />
    <glyph glyph-name="uni2070" unicode="&#x2070;" horiz-adv-x="821" 
d="M412 790q-160 0 -250.5 122t-90.5 384q0 249 90.5 371t250.5 122q159 0 248.5 -122.5t89.5 -370.5q0 -261 -89.5 -383.5t-248.5 -122.5zM412 902q98 0 157 89t59 303q0 207 -59 295t-157 88q-97 0 -158 -88t-61 -295q0 -215 60.5 -303.5t158.5 -88.5z" />
    <glyph glyph-name="uni2074" unicode="&#x2074;" horiz-adv-x="762" 
d="M441 810v198h-475l431 762h159l-2 -3l2 -651h127v-108h-126v-198h-116zM131 1096q13 9 28.5 14.5t30.5 5.5h297q-28 0 -37.5 21.5t-9.5 45.5v311l7 152l-71 -143l-201 -343z" />
    <glyph glyph-name="uni2075" unicode="&#x2075;" horiz-adv-x="770" 
d="M384 790q-111 0 -186 42t-110.5 110t-28.5 145h119q-2 -68 45 -126.5t164 -58.5q87 0 146.5 48t59.5 158q0 109 -52 159t-153 50q-70 0 -124 -21.5t-92 -56.5l-96 36l64 495h524v-113h-421l-63 -354q11 26 24.5 43.5t31.5 30.5q29 21 72.5 34t97.5 13q76 0 147 -27.5
t117 -96t46 -190.5q0 -136 -89.5 -228t-242.5 -92z" />
    <glyph glyph-name="uni2076" unicode="&#x2076;" horiz-adv-x="765" 
d="M392 790q-85 0 -159.5 43t-120.5 130t-46 217q0 109 31 202t78 168t98 130.5t90 89.5h180q-47 -38 -106.5 -91.5t-115 -121t-93 -148.5t-41.5 -174l-6 10q10 46 32.5 82.5t55.5 62t74 39t87 13.5q89 0 153 -39.5t98.5 -110.5t34.5 -168q0 -105 -45.5 -180t-119 -114.5
t-159.5 -39.5zM395 900q55 0 100 25.5t72.5 75.5t27.5 122q0 98 -49 154t-140 56q-72 0 -125 -27.5t-88 -75.5q-3 -5 -4.5 -25.5t-1.5 -37.5q0 -112 52.5 -189.5t155.5 -77.5z" />
    <glyph glyph-name="uni2077" unicode="&#x2077;" horiz-adv-x="719" 
d="M185 810l307 764q13 32 31 52.5t42.5 30.5t55.5 10l8 -10h-582v113h573h65l-369 -960h-131z" />
    <glyph glyph-name="uni2078" unicode="&#x2078;" horiz-adv-x="821" 
d="M410 790q-93 0 -169 31.5t-121 93t-45 151.5q0 108 58.5 170t175.5 74q-103 13 -150 79t-47 136q0 123 77 193.5t221 70.5q146 0 222 -71t76 -193q0 -68 -45.5 -135.5t-149.5 -81.5q119 -10 176 -74.5t57 -167.5q0 -90 -45 -151.5t-121.5 -93t-169.5 -31.5zM410 899
q95 0 155.5 44.5t60.5 124.5q0 93 -60.5 139t-155.5 46t-155.5 -45.5t-60.5 -139.5q0 -80 60 -124.5t156 -44.5zM410 1360q83 0 131.5 50.5t48.5 115.5q0 75 -47 116t-133 41q-85 0 -132.5 -41t-47.5 -116q0 -65 44.5 -115.5t135.5 -50.5z" />
    <glyph glyph-name="uni2079" unicode="&#x2079;" horiz-adv-x="766" 
d="M223 810q47 38 106.5 92.5t115.5 124t93.5 151t40.5 173.5l11 -1q-12 -49 -33.5 -87t-52 -65t-71 -41t-89.5 -14q-83 0 -150 41t-106 113.5t-39 166.5q0 107 46.5 179.5t121 109t157.5 36.5q89 0 163 -41.5t118.5 -128t44.5 -222.5q0 -109 -31 -201.5t-78.5 -167
t-98 -129.5t-89.5 -89h-180zM367 1251q76 0 126 30.5t79 78.5q3 5 4.5 22t1.5 39q0 116 -53 187.5t-154 71.5q-84 0 -142.5 -55.5t-58.5 -158.5q0 -95 50.5 -155t146.5 -60z" />
    <glyph glyph-name="uni2080" unicode="&#x2080;" horiz-adv-x="821" 
d="M412 -188q-160 0 -250.5 122t-90.5 384q0 249 90.5 371t250.5 122q159 0 248.5 -122.5t89.5 -370.5q0 -261 -89.5 -383.5t-248.5 -122.5zM412 -76q98 0 157 89t59 303q0 207 -59 295t-157 88q-97 0 -158 -88t-61 -295q0 -215 60.5 -303.5t158.5 -88.5z" />
    <glyph glyph-name="uni2081" unicode="&#x2081;" horiz-adv-x="524" 
d="M262 -200v862l28 98h83v-960h-111zM56 557v119q37 0 69.5 2t58.5 9q33 8 59.5 26t46.5 47l-23 -94q-9 -29 -24.5 -52.5t-46.5 -37.5q-26 -12 -56 -15.5t-84 -3.5z" />
    <glyph glyph-name="uni2082" unicode="&#x2082;" horiz-adv-x="751" 
d="M47 -200q35 43 75 90.5t81.5 96t81 94.5t72.5 85q55 64 100.5 119t73 109t27.5 115q0 77 -45 120.5t-131 43.5q-87 0 -144.5 -48.5t-48.5 -179.5h-114q-10 119 28 192.5t112.5 107.5t172.5 34q134 0 211 -70t77 -191q0 -78 -27.5 -140.5t-72 -119t-97.5 -118.5
q-31 -36 -76.5 -89t-86 -100t-56.5 -68q20 20 46.5 24t72.5 4h303v-111h-635z" />
    <glyph glyph-name="uni2083" unicode="&#x2083;" horiz-adv-x="776" 
d="M382 -220q-90 0 -167.5 31.5t-123 100t-41.5 179.5h119q0 -101 56 -152t158 -50q93 1 152 45t59 123q0 100 -59.5 143.5t-157.5 43.5h-102v106h104q83 0 131 50.5t48 117.5q0 74 -46.5 114.5t-129.5 40.5q-88 0 -135 -48.5t-42 -140.5h-119q-3 149 76.5 222t220.5 73
q140 0 216.5 -70.5t76.5 -185.5q0 -73 -44 -140t-149 -83q114 -10 172 -72.5t58 -169.5q0 -134 -94.5 -206t-236.5 -72z" />
    <glyph glyph-name="uni2084" unicode="&#x2084;" horiz-adv-x="762" 
d="M441 -200v198h-475l431 762h159l-2 -3l2 -651h127v-108h-126v-198h-116zM131 86q13 9 28.5 14.5t30.5 5.5h297q-28 0 -37.5 21.5t-9.5 45.5v311l7 152l-71 -143l-201 -343z" />
    <glyph glyph-name="uni2085" unicode="&#x2085;" horiz-adv-x="770" 
d="M384 -220q-111 0 -186 42t-110.5 110t-28.5 145h119q-2 -68 45 -126.5t164 -58.5q87 0 146.5 48t59.5 158q0 109 -52 159t-153 50q-70 0 -124 -21.5t-92 -56.5l-96 36l64 495h524v-113h-421l-63 -354q11 26 24.5 43.5t31.5 30.5q29 21 72.5 34t97.5 13q76 0 147 -27.5
t117 -96t46 -190.5q0 -136 -89.5 -228t-242.5 -92z" />
    <glyph glyph-name="uni2086" unicode="&#x2086;" horiz-adv-x="765" 
d="M392 -220q-85 0 -159.5 43t-120.5 130t-46 217q0 109 31 202t78 168t98 130.5t90 89.5h180q-47 -38 -106.5 -91.5t-115 -121t-93 -148.5t-41.5 -174l-6 10q10 46 32.5 82.5t55.5 62t74 39t87 13.5q89 0 153 -39.5t98.5 -110.5t34.5 -168q0 -105 -45.5 -180t-119 -114.5
t-159.5 -39.5zM395 -110q55 0 100 25.5t72.5 75.5t27.5 122q0 98 -49 154t-140 56q-72 0 -125 -27.5t-88 -75.5q-3 -5 -4.5 -25.5t-1.5 -37.5q0 -112 52.5 -189.5t155.5 -77.5z" />
    <glyph glyph-name="uni2087" unicode="&#x2087;" horiz-adv-x="719" 
d="M185 -200l307 764q13 32 31 52.5t42.5 30.5t55.5 10l8 -10h-582v113h573h65l-369 -960h-131z" />
    <glyph glyph-name="uni2088" unicode="&#x2088;" horiz-adv-x="821" 
d="M410 -220q-93 0 -169 31.5t-121 93t-45 151.5q0 108 58.5 170t175.5 74q-103 13 -150 79t-47 136q0 123 77 193.5t221 70.5q146 0 222 -71t76 -193q0 -68 -45.5 -135.5t-149.5 -81.5q119 -10 176 -74.5t57 -167.5q0 -90 -45 -151.5t-121.5 -93t-169.5 -31.5zM410 -111
q95 0 155.5 44.5t60.5 124.5q0 93 -60.5 139t-155.5 46t-155.5 -45.5t-60.5 -139.5q0 -80 60 -124.5t156 -44.5zM410 350q83 0 131.5 50.5t48.5 115.5q0 75 -47 116t-133 41q-85 0 -132.5 -41t-47.5 -116q0 -65 44.5 -115.5t135.5 -50.5z" />
    <glyph glyph-name="uni2089" unicode="&#x2089;" horiz-adv-x="766" 
d="M223 -200q47 38 106.5 92.5t115.5 124t93.5 151t40.5 173.5l11 -1q-12 -49 -33.5 -87t-52 -65t-71 -41t-89.5 -14q-83 0 -150 41t-106 113.5t-39 166.5q0 107 46.5 179.5t121 109t157.5 36.5q89 0 163 -41.5t118.5 -128t44.5 -222.5q0 -109 -31 -201.5t-78.5 -167
t-98 -129.5t-89.5 -89h-180zM367 241q76 0 126 30.5t79 78.5q3 5 4.5 22t1.5 39q0 116 -53 187.5t-154 71.5q-84 0 -142.5 -55.5t-58.5 -158.5q0 -95 50.5 -155t146.5 -60z" />
    <glyph glyph-name="Euro" unicode="&#x20ac;" horiz-adv-x="1506" 
d="M863 -21q-196 0 -341 93.5t-224.5 264.5t-79.5 401q0 229 77.5 395.5t220.5 257t338 90.5q179 0 308 -60.5t200 -171t76 -260.5h-128q-4 111 -60 195.5t-155.5 132.5t-235.5 48q-162 0 -276.5 -74t-174.5 -213.5t-60 -337.5q0 -206 65.5 -350.5t184 -219.5t276.5 -75
q124 0 224 49t160 130t63 176h125q-10 -141 -84.5 -247t-201.5 -165t-297 -59zM40 504v117h869v-117h-869zM90 818v117h869v-117h-869z" />
    <glyph glyph-name="trademark" unicode="&#x2122;" horiz-adv-x="1440" 
d="M704 911v543h148l102 -296l43 -104l45 104l99 296h149v-543h-94v297l5 164h-3l-51 -163l-126 -298h-44l-131 298l-51 163h-3l5 -164v-297h-93zM313 911v523h95v-523h-95zM150 1367v87h420v-87h-420z" />
    <glyph glyph-name="oneeighth" unicode="&#x215b;" horiz-adv-x="1825" 
d="M262 478v862l28 98h83v-960h-111zM56 1235v119q37 0 69.5 2t58.5 9q33 8 59.5 26t46.5 47l-23 -94q-9 -29 -24.5 -52.5t-46.5 -37.5q-26 -12 -56 -15.5t-84 -3.5zM366 0l744 1454h124l-744 -1454h-124zM1414 -20q-93 0 -169 31.5t-121 93t-45 151.5q0 108 58.5 170
t175.5 74q-103 13 -150 79t-47 136q0 123 77 193.5t221 70.5q146 0 222 -71t76 -193q0 -68 -45.5 -135.5t-149.5 -81.5q119 -10 176 -74.5t57 -167.5q0 -90 -45 -151.5t-121.5 -93t-169.5 -31.5zM1414 89q95 0 155.5 44.5t60.5 124.5q0 93 -60.5 139t-155.5 46t-155.5 -45.5
t-60.5 -139.5q0 -80 60 -124.5t156 -44.5zM1414 550q83 0 131.5 50.5t48.5 115.5q0 75 -47 116t-133 41q-85 0 -132.5 -41t-47.5 -116q0 -65 44.5 -115.5t135.5 -50.5z" />
    <glyph glyph-name="threeeighths" unicode="&#x215c;" horiz-adv-x="2057" 
d="M382 458q-90 0 -167.5 31.5t-123 100t-41.5 179.5h119q0 -101 56 -152t158 -50q93 1 152 45t59 123q0 100 -59.5 143.5t-157.5 43.5h-102v106h104q83 0 131 50.5t48 117.5q0 74 -46.5 114.5t-129.5 40.5q-88 0 -135 -48.5t-42 -140.5h-119q-3 149 76.5 222t220.5 73
q140 0 216.5 -70.5t76.5 -185.5q0 -73 -44 -140t-149 -83q114 -10 172 -72.5t58 -169.5q0 -134 -94.5 -206t-236.5 -72zM598 0l744 1454h124l-744 -1454h-124zM1646 -20q-93 0 -169 31.5t-121 93t-45 151.5q0 108 58.5 170t175.5 74q-103 13 -150 79t-47 136q0 123 77 193.5
t221 70.5q146 0 222 -71t76 -193q0 -68 -45.5 -135.5t-149.5 -81.5q119 -10 176 -74.5t57 -167.5q0 -90 -45 -151.5t-121.5 -93t-169.5 -31.5zM1646 89q95 0 155.5 44.5t60.5 124.5q0 93 -60.5 139t-155.5 46t-155.5 -45.5t-60.5 -139.5q0 -80 60 -124.5t156 -44.5z
M1646 550q83 0 131.5 50.5t48.5 115.5q0 75 -47 116t-133 41q-85 0 -132.5 -41t-47.5 -116q0 -65 44.5 -115.5t135.5 -50.5z" />
    <glyph glyph-name="fiveeighths" unicode="&#x215d;" horiz-adv-x="2051" 
d="M384 458q-111 0 -186 42t-110.5 110t-28.5 145h119q-2 -68 45 -126.5t164 -58.5q87 0 146.5 48t59.5 158q0 109 -52 159t-153 50q-70 0 -124 -21.5t-92 -56.5l-96 36l64 495h524v-113h-421l-63 -354q11 26 24.5 43.5t31.5 30.5q29 21 72.5 34t97.5 13q76 0 147 -27.5
t117 -96t46 -190.5q0 -136 -89.5 -228t-242.5 -92zM602 0l744 1454h124l-744 -1454h-124zM1640 -20q-93 0 -169 31.5t-121 93t-45 151.5q0 108 58.5 170t175.5 74q-103 13 -150 79t-47 136q0 123 77 193.5t221 70.5q146 0 222 -71t76 -193q0 -68 -45.5 -135.5t-149.5 -81.5
q119 -10 176 -74.5t57 -167.5q0 -90 -45 -151.5t-121.5 -93t-169.5 -31.5zM1640 89q95 0 155.5 44.5t60.5 124.5q0 93 -60.5 139t-155.5 46t-155.5 -45.5t-60.5 -139.5q0 -80 60 -124.5t156 -44.5zM1640 550q83 0 131.5 50.5t48.5 115.5q0 75 -47 116t-133 41
q-85 0 -132.5 -41t-47.5 -116q0 -65 44.5 -115.5t135.5 -50.5z" />
    <glyph glyph-name="seveneighths" unicode="&#x215e;" horiz-adv-x="2030" 
d="M185 478l307 764q13 32 31 52.5t42.5 30.5t55.5 10l8 -10h-582v113h573h65l-369 -960h-131zM511 0l744 1454h124l-744 -1454h-124zM1619 -20q-93 0 -169 31.5t-121 93t-45 151.5q0 108 58.5 170t175.5 74q-103 13 -150 79t-47 136q0 123 77 193.5t221 70.5q146 0 222 -71
t76 -193q0 -68 -45.5 -135.5t-149.5 -81.5q119 -10 176 -74.5t57 -167.5q0 -90 -45 -151.5t-121.5 -93t-169.5 -31.5zM1619 89q95 0 155.5 44.5t60.5 124.5q0 93 -60.5 139t-155.5 46t-155.5 -45.5t-60.5 -139.5q0 -80 60 -124.5t156 -44.5zM1619 550q83 0 131.5 50.5
t48.5 115.5q0 75 -47 116t-133 41q-85 0 -132.5 -41t-47.5 -116q0 -65 44.5 -115.5t135.5 -50.5z" />
    <glyph glyph-name="minus" unicode="&#x2212;" horiz-adv-x="900" 
d="M150 644v112h600v-112h-600z" />
    <glyph glyph-name="uni2215" unicode="&#x2215;" horiz-adv-x="490" 
d="M-118 0l744 1454h124l-744 -1454h-124z" />
    <glyph glyph-name="uni004A0301" horiz-adv-x="1029" 
d="M473 -30q-132 0 -227.5 52.5t-147.5 148.5t-56 224h126q5 -131 85 -218.5t231 -87.5q99 0 162.5 40.5t94 119t30.5 192.5v1013h126v-993q0 -174 -54 -282t-149.5 -158.5t-220.5 -50.5zM768 1618l180 277h154l-204 -277h-130z" />
    <glyph glyph-name="G.ss02" horiz-adv-x="1421" 
d="M787 -20q-207 0 -359.5 92t-235.5 262t-83 402q0 226 81.5 393t229.5 259.5t347 92.5q134 0 247 -47.5t188.5 -144t97.5 -242.5h-133q-10 71 -60.5 144t-140.5 122.5t-220 49.5q-146 0 -260.5 -81.5t-180 -224t-65.5 -326.5q0 -162 45.5 -281.5t123 -198t175 -117
t202.5 -38.5q59 0 136 18.5t148 60t110 110.5l1 343h-381v122h511v-750h-94l-15 159q-86 -97 -192.5 -138t-222.5 -41z" />
    <glyph glyph-name="uni01F4.ss02" horiz-adv-x="1421" 
d="M787 -20q-207 0 -359.5 92t-235.5 262t-83 402q0 226 81.5 393t229.5 259.5t347 92.5q134 0 247 -47.5t188.5 -144t97.5 -242.5h-133q-10 71 -60.5 144t-140.5 122.5t-220 49.5q-146 0 -260.5 -81.5t-180 -224t-65.5 -326.5q0 -162 45.5 -281.5t123 -198t175 -117
t202.5 -38.5q59 0 136 18.5t148 60t110 110.5l1 343h-381v122h511v-750h-94l-15 159q-86 -97 -192.5 -138t-222.5 -41zM698 1618l180 277h154l-204 -277h-130z" />
    <glyph glyph-name="Gbreve.ss02" horiz-adv-x="1416" 
d="M718 1600q-130 0 -193 80t-42 196h111q-11 -99 24.5 -138t99.5 -39q65 0 100.5 39t24.5 138h111q21 -116 -42 -196t-194 -80zM787 -20q-207 0 -359.5 92t-235.5 262t-83 402q0 226 81.5 393t229.5 259.5t347 92.5q134 0 247 -47.5t188.5 -144t97.5 -242.5h-133
q-10 71 -60.5 144t-140.5 122.5t-220 49.5q-146 0 -260.5 -81.5t-180 -224t-65.5 -326.5q0 -162 45.5 -281.5t123 -198t175 -117t202.5 -38.5q59 0 136 18.5t148 60t110 110.5l1 343h-381v122h511v-750h-94l-15 159q-86 -97 -192.5 -138t-222.5 -41z" />
    <glyph glyph-name="Gcaron.ss02" horiz-adv-x="1416" 
d="M642 1619l-190 257h128l138 -168l138 168h128l-190 -257h-152zM787 -20q-207 0 -359.5 92t-235.5 262t-83 402q0 226 81.5 393t229.5 259.5t347 92.5q134 0 247 -47.5t188.5 -144t97.5 -242.5h-133q-10 71 -60.5 144t-140.5 122.5t-220 49.5q-146 0 -260.5 -81.5
t-180 -224t-65.5 -326.5q0 -162 45.5 -281.5t123 -198t175 -117t202.5 -38.5q59 0 136 18.5t148 60t110 110.5l1 343h-381v122h511v-750h-94l-15 159q-86 -97 -192.5 -138t-222.5 -41z" />
    <glyph glyph-name="uni0122.ss02" horiz-adv-x="1421" 
d="M787 -20q-207 0 -359.5 92t-235.5 262t-83 402q0 226 81.5 393t229.5 259.5t347 92.5q134 0 247 -47.5t188.5 -144t97.5 -242.5h-133q-10 71 -60.5 144t-140.5 122.5t-220 49.5q-146 0 -260.5 -81.5t-180 -224t-65.5 -326.5q0 -162 45.5 -281.5t123 -198t175 -117
t202.5 -38.5q59 0 136 18.5t148 60t110 110.5l1 343h-381v122h511v-750h-94l-15 159q-86 -97 -192.5 -138t-222.5 -41zM667 -457q19 52 40 137t21 163v40h131v-33q0 -45 -7.5 -91.5t-19.5 -89t-26 -75.5t-27 -51h-112z" />
    <glyph glyph-name="Gdotaccent.ss02" horiz-adv-x="1421" 
d="M787 -20q-207 0 -359.5 92t-235.5 262t-83 402q0 226 81.5 393t229.5 259.5t347 92.5q134 0 247 -47.5t188.5 -144t97.5 -242.5h-133q-10 71 -60.5 144t-140.5 122.5t-220 49.5q-146 0 -260.5 -81.5t-180 -224t-65.5 -326.5q0 -162 45.5 -281.5t123 -198t175 -117
t202.5 -38.5q59 0 136 18.5t148 60t110 110.5l1 343h-381v122h511v-750h-94l-15 159q-86 -97 -192.5 -138t-222.5 -41zM761 1598q-41 0 -68 29t-27 75q0 45 27 74t68 29q38 0 66.5 -29t28.5 -74q0 -46 -28.5 -75t-66.5 -29z" />
    <glyph glyph-name="i.loclTRK" horiz-adv-x="522" 
d="M200 0v1091h122v-1091h-122zM264 1261q-43 0 -71.5 29t-28.5 72q0 44 28.5 72.5t71.5 28.5q42 0 70.5 -28.5t28.5 -72.5q0 -43 -28.5 -72t-70.5 -29z" />
    <glyph glyph-name="uni006A0301" horiz-adv-x="553" 
d="M155 -462q-37 0 -70.5 9t-64.5 20v128q14 -7 45.5 -18.5t70.5 -11.5q35 0 54.5 23t19.5 93v1310h120v-1145q0 -25 1 -51.5t1 -66.5q0 -88 -15 -153.5t-53 -101t-109 -35.5zM218 1282l159 231h154l-183 -231h-130z" />
    <glyph glyph-name="g.ss02.alt" horiz-adv-x="999" 
d="M685 1071l-11 10q13 64 44.5 113.5t76 78t94.5 28.5q41 0 59.5 -2t34.5 -7v-125q-33 4 -62 6.5t-52 2.5q-51 0 -79 -13t-50 -36.5t-55 -55.5zM536 -451q-135 0 -250.5 38t-185.5 111.5t-70 180.5q0 57 20.5 111t76.5 92t163 46l26 -6q-42 -16 -79 -41t-59.5 -70
t-22.5 -123q0 -57 37 -109.5t121.5 -85.5t225.5 -33q188 0 275 67.5t86 178.5q-1 65 -46 99t-185 51l-247 31q-132 17 -195 50t-82.5 72.5t-19.5 73.5q0 38 16 66t45 46.5t68 26.5t85 6q-41 -14 -67.5 -43t-26.5 -75q0 -49 51.5 -74.5t164.5 -39.5l255 -31
q124 -15 191 -53.5t93 -91t26 -109.5q0 -97 -41.5 -165.5t-112 -112t-157.5 -64t-179 -20.5zM519 384q-182 0 -287.5 98t-105.5 262q0 112 49 194.5t138 127.5t208 44q121 -1 208.5 -45.5t135 -125t47.5 -190.5q0 -169 -105.5 -267t-287.5 -98zM522 496q129 0 202 65t73 188
q0 118 -74 183.5t-207 65.5q-138 0 -206.5 -64t-68.5 -189q0 -118 74.5 -183.5t206.5 -65.5z" />
    <glyph glyph-name="g.ss02" horiz-adv-x="999" 
d="M536 -451q-135 0 -250.5 38t-185.5 111.5t-70 180.5q0 57 20.5 111t76.5 92t163 46l26 -6q-42 -16 -79 -41t-59.5 -70t-22.5 -123q0 -57 37 -109.5t121.5 -85.5t225.5 -33q188 0 275 67.5t86 178.5q-1 65 -46 99t-185 51l-247 31q-132 17 -195 50t-82.5 72.5t-19.5 73.5
q0 38 16 66t45 46.5t68 26.5t85 6q-41 -14 -67.5 -43t-26.5 -75q0 -49 51.5 -74.5t164.5 -39.5l255 -31q124 -15 191 -53.5t93 -91t26 -109.5q0 -97 -41.5 -165.5t-112 -112t-157.5 -64t-179 -20.5zM519 384q-182 0 -287.5 98t-105.5 262q0 112 49 194.5t138 127.5t208 44
q121 -1 208.5 -45.5t135 -125t47.5 -190.5q0 -169 -105.5 -267t-287.5 -98zM522 496q129 0 202 65t73 188q0 118 -74 183.5t-207 65.5q-138 0 -206.5 -64t-68.5 -189q0 -118 74.5 -183.5t206.5 -65.5zM629 1071l-12 10q9 64 43.5 113.5t86.5 78t110 28.5q49 0 69 -2t32 -7
v-125q-28 4 -61.5 6.5t-59.5 2.5q-60 0 -93.5 -13t-57.5 -36.5t-57 -55.5z" />
    <glyph glyph-name="uni01F5.ss02" horiz-adv-x="999" 
d="M685 1071l-11 10q13 64 44.5 113.5t76 78t94.5 28.5q41 0 59.5 -2t34.5 -7v-125q-33 4 -62 6.5t-52 2.5q-51 0 -79 -13t-50 -36.5t-55 -55.5zM536 -451q-135 0 -250.5 38t-185.5 111.5t-70 180.5q0 57 20.5 111t76.5 92t163 46l26 -6q-42 -16 -79 -41t-59.5 -70
t-22.5 -123q0 -57 37 -109.5t121.5 -85.5t225.5 -33q188 0 275 67.5t86 178.5q-1 65 -46 99t-185 51l-247 31q-132 17 -195 50t-82.5 72.5t-19.5 73.5q0 38 16 66t45 46.5t68 26.5t85 6q-41 -14 -67.5 -43t-26.5 -75q0 -49 51.5 -74.5t164.5 -39.5l255 -31
q124 -15 191 -53.5t93 -91t26 -109.5q0 -97 -41.5 -165.5t-112 -112t-157.5 -64t-179 -20.5zM519 384q-182 0 -287.5 98t-105.5 262q0 112 49 194.5t138 127.5t208 44q121 -1 208.5 -45.5t135 -125t47.5 -190.5q0 -169 -105.5 -267t-287.5 -98zM522 496q129 0 202 65t73 188
q0 118 -74 183.5t-207 65.5q-138 0 -206.5 -64t-68.5 -189q0 -118 74.5 -183.5t206.5 -65.5zM454 1282l159 231h154l-183 -231h-130z" />
    <glyph glyph-name="gbreve.ss02" horiz-adv-x="1115" 
d="M537 1249q-130 0 -193 76.5t-42 187.5h111q-11 -94 24.5 -129.5t99.5 -35.5q65 0 100.5 35.5t24.5 129.5h111q21 -111 -42 -187.5t-194 -76.5zM685 1071l-11 10q13 64 44.5 113.5t76 78t94.5 28.5q41 0 59.5 -2t34.5 -7v-125q-33 4 -62 6.5t-52 2.5q-51 0 -79 -13
t-50 -36.5t-55 -55.5zM536 -451q-135 0 -250.5 38t-185.5 111.5t-70 180.5q0 57 20.5 111t76.5 92t163 46l26 -6q-42 -16 -79 -41t-59.5 -70t-22.5 -123q0 -57 37 -109.5t121.5 -85.5t225.5 -33q188 0 275 67.5t86 178.5q-1 65 -46 99t-185 51l-247 31q-132 17 -195 50
t-82.5 72.5t-19.5 73.5q0 38 16 66t45 46.5t68 26.5t85 6q-41 -14 -67.5 -43t-26.5 -75q0 -49 51.5 -74.5t164.5 -39.5l255 -31q124 -15 191 -53.5t93 -91t26 -109.5q0 -97 -41.5 -165.5t-112 -112t-157.5 -64t-179 -20.5zM519 384q-182 0 -287.5 98t-105.5 262
q0 112 49 194.5t138 127.5t208 44q121 -1 208.5 -45.5t135 -125t47.5 -190.5q0 -169 -105.5 -267t-287.5 -98zM522 496q129 0 202 65t73 188q0 118 -74 183.5t-207 65.5q-138 0 -206.5 -64t-68.5 -189q0 -118 74.5 -183.5t206.5 -65.5z" />
    <glyph glyph-name="gcaron.ss02" horiz-adv-x="999" 
d="M685 1071l-11 10q13 64 44.5 113.5t76 78t94.5 28.5q41 0 59.5 -2t34.5 -7v-125q-33 4 -62 6.5t-52 2.5q-51 0 -79 -13t-50 -36.5t-55 -55.5zM536 -451q-135 0 -250.5 38t-185.5 111.5t-70 180.5q0 57 20.5 111t76.5 92t163 46l26 -6q-42 -16 -79 -41t-59.5 -70
t-22.5 -123q0 -57 37 -109.5t121.5 -85.5t225.5 -33q188 0 275 67.5t86 178.5q-1 65 -46 99t-185 51l-247 31q-132 17 -195 50t-82.5 72.5t-19.5 73.5q0 38 16 66t45 46.5t68 26.5t85 6q-41 -14 -67.5 -43t-26.5 -75q0 -49 51.5 -74.5t164.5 -39.5l255 -31
q124 -15 191 -53.5t93 -91t26 -109.5q0 -97 -41.5 -165.5t-112 -112t-157.5 -64t-179 -20.5zM519 384q-182 0 -287.5 98t-105.5 262q0 112 49 194.5t138 127.5t208 44q121 -1 208.5 -45.5t135 -125t47.5 -190.5q0 -169 -105.5 -267t-287.5 -98zM522 496q129 0 202 65t73 188
q0 118 -74 183.5t-207 65.5q-138 0 -206.5 -64t-68.5 -189q0 -118 74.5 -183.5t206.5 -65.5zM427 1261l-185 252h123l138 -163l138 163h122l-184 -252h-152z" />
    <glyph glyph-name="uni0123.ss02" horiz-adv-x="999" 
d="M685 1071l-11 10q13 64 44.5 113.5t76 78t94.5 28.5q41 0 59.5 -2t34.5 -7v-125q-33 4 -62 6.5t-52 2.5q-51 0 -79 -13t-50 -36.5t-55 -55.5zM536 -451q-135 0 -250.5 38t-185.5 111.5t-70 180.5q0 57 20.5 111t76.5 92t163 46l26 -6q-42 -16 -79 -41t-59.5 -70
t-22.5 -123q0 -57 37 -109.5t121.5 -85.5t225.5 -33q188 0 275 67.5t86 178.5q-1 65 -46 99t-185 51l-247 31q-132 17 -195 50t-82.5 72.5t-19.5 73.5q0 38 16 66t45 46.5t68 26.5t85 6q-41 -14 -67.5 -43t-26.5 -75q0 -49 51.5 -74.5t164.5 -39.5l255 -31
q124 -15 191 -53.5t93 -91t26 -109.5q0 -97 -41.5 -165.5t-112 -112t-157.5 -64t-179 -20.5zM519 384q-182 0 -287.5 98t-105.5 262q0 112 49 194.5t138 127.5t208 44q121 -1 208.5 -45.5t135 -125t47.5 -190.5q0 -169 -105.5 -267t-287.5 -98zM522 496q129 0 202 65t73 188
q0 118 -74 183.5t-207 65.5q-138 0 -206.5 -64t-68.5 -189q0 -118 74.5 -183.5t206.5 -65.5zM410 1261v33q0 40 6.5 87t18.5 89.5t29 65.5h101q-19 -52 -25 -119.5t-6 -115.5v-40h-124z" />
    <glyph glyph-name="gdotaccent.ss02" horiz-adv-x="999" 
d="M685 1071l-11 10q13 64 44.5 113.5t76 78t94.5 28.5q41 0 59.5 -2t34.5 -7v-125q-33 4 -62 6.5t-52 2.5q-51 0 -79 -13t-50 -36.5t-55 -55.5zM536 -451q-135 0 -250.5 38t-185.5 111.5t-70 180.5q0 57 20.5 111t76.5 92t163 46l26 -6q-42 -16 -79 -41t-59.5 -70
t-22.5 -123q0 -57 37 -109.5t121.5 -85.5t225.5 -33q188 0 275 67.5t86 178.5q-1 65 -46 99t-185 51l-247 31q-132 17 -195 50t-82.5 72.5t-19.5 73.5q0 38 16 66t45 46.5t68 26.5t85 6q-41 -14 -67.5 -43t-26.5 -75q0 -49 51.5 -74.5t164.5 -39.5l255 -31
q124 -15 191 -53.5t93 -91t26 -109.5q0 -97 -41.5 -165.5t-112 -112t-157.5 -64t-179 -20.5zM519 384q-182 0 -287.5 98t-105.5 262q0 112 49 194.5t138 127.5t208 44q121 -1 208.5 -45.5t135 -125t47.5 -190.5q0 -169 -105.5 -267t-287.5 -98zM522 496q129 0 202 65t73 188
q0 118 -74 183.5t-207 65.5q-138 0 -206.5 -64t-68.5 -189q0 -118 74.5 -183.5t206.5 -65.5zM505 1261q-43 0 -71.5 29t-28.5 72q0 44 28.5 72.5t71.5 28.5q42 0 70.5 -28.5t28.5 -72.5q0 -43 -28.5 -72t-70.5 -29z" />
    <glyph glyph-name="zero.lf" horiz-adv-x="1194" 
d="M599 -30q-160 0 -269 86.5t-164.5 257t-55.5 422.5q0 240 55.5 406.5t164.5 253.5t269 87t267.5 -87t162.5 -253.5t55 -406.5q0 -252 -55 -422.5t-162.5 -257t-267.5 -86.5zM599 90q111 0 190.5 66t122 208t42.5 370q0 221 -42.5 359.5t-122 204t-190.5 65.5
q-110 0 -191 -65.5t-124.5 -204t-43.5 -359.5q0 -228 43.5 -370t124 -208t191.5 -66z" />
    <glyph glyph-name="one.lf" horiz-adv-x="737" 
d="M387 0v1343l25 111h105v-1454h-130zM85 1204v129q47 0 101 1t105 14q47 13 76.5 45t44.5 61l-25 -111q-3 -32 -28 -65t-71 -51q-40 -16 -87.5 -19.5t-115.5 -3.5z" />
    <glyph glyph-name="two.lf" horiz-adv-x="1060" 
d="M75 0q43 55 100.5 124t121 142.5t122.5 140.5t105 117q85 93 155 183t112.5 179.5t42.5 180.5q0 134 -70.5 214.5t-225.5 80.5q-95 0 -170 -32.5t-116 -113.5t-36 -227h-124q-10 181 49.5 289.5t166 157t237.5 48.5q128 0 221 -51.5t144 -140.5t51 -204q0 -123 -48 -231
t-125 -206.5t-164 -194.5q-70 -78 -138.5 -155t-118.5 -134.5t-67 -76.5q25 17 50.5 24.5t55.5 7.5h574v-122h-905z" />
    <glyph glyph-name="three.lf" horiz-adv-x="1110" 
d="M543 -30q-106 0 -194.5 31t-152.5 90.5t-98.5 147.5t-33.5 202h129q6 -176 96.5 -263.5t259.5 -85.5q108 2 184 39t116.5 102t40.5 147q0 166 -95 240.5t-259 74.5h-148v118h155q86 0 152.5 39t104.5 103t38 140q0 123 -73 194.5t-222 72.5q-142 1 -224 -82t-72 -243
h-130q-5 150 51 249t154.5 148.5t221.5 49.5q192 0 306.5 -103t114.5 -281q0 -75 -26 -147t-87 -123.5t-165 -68.5q170 -17 251 -118.5t81 -259.5q0 -130 -63.5 -222.5t-171 -141.5t-241.5 -49z" />
    <glyph glyph-name="four.lf" horiz-adv-x="1070" 
d="M713 0l-2 337h-711l666 1117h171l-4 -4l3 -997h184v-116h-184l1 -337h-124zM177 422q20 15 42 23t41 8h513q-34 0 -47.5 23.5t-13.5 54.5l-2 580l8 219l-116 -219l-356 -597z" />
    <glyph glyph-name="five.lf" horiz-adv-x="1095" 
d="M550 -30q-153 0 -263 59t-165.5 156.5t-45.5 212.5h128q-2 -78 31.5 -149t111 -116t206.5 -45q106 0 183.5 43.5t120 124t42.5 190.5q0 183 -84.5 271.5t-257.5 88.5q-123 0 -205 -46.5t-138 -113.5l-113 44l93 764h750v-122h-641l-90 -611q16 35 34 63.5t44 50.5
q50 43 125 67t162 24q81 0 160.5 -22t145.5 -75.5t105.5 -145.5t39.5 -233q0 -136 -57.5 -244.5t-164.5 -172t-257 -63.5z" />
    <glyph glyph-name="six.lf" horiz-adv-x="1082" 
d="M543 -30q-121 0 -226.5 62t-171 190.5t-65.5 328.5q0 159 48 297.5t122 254t154.5 204.5t144.5 147h207q-61 -49 -133 -114t-143.5 -144t-131.5 -169t-96.5 -189.5t-38.5 -205.5l-19 -8q15 85 53 145.5t92.5 99t117 57t125.5 18.5q135 0 231.5 -56.5t148.5 -161
t52 -249.5q0 -133 -41.5 -229.5t-110 -157.5t-152 -90.5t-167.5 -29.5zM554 92q87 0 162.5 39t122 124.5t45.5 222.5q-1 169 -83 256.5t-217 87.5q-106 0 -178.5 -31.5t-117.5 -76.5t-70 -86q-4 -8 -7 -28t-3 -43q0 -118 23.5 -205.5t68.5 -145t109 -86t145 -28.5z" />
    <glyph glyph-name="seven.lf" horiz-adv-x="1004" 
d="M258 0l478 1209q17 44 37 74.5t48 46.5t69 16v-14h-850v122h828h94l-567 -1454h-137z" />
    <glyph glyph-name="eight.lf" horiz-adv-x="1136" 
d="M568 -30q-125 0 -234 46.5t-176.5 138.5t-67.5 227q0 153 83.5 254t258.5 121q-102 16 -165.5 69t-92.5 125t-29 144q0 183 115 286t308 103q194 0 308.5 -103.5t114.5 -285.5q0 -72 -29 -144.5t-92 -125.5t-164 -70q170 -19 255 -120t85 -253q0 -135 -68 -227
t-177 -138.5t-233 -46.5zM568 92q161 0 254.5 80t93.5 208q0 143 -95.5 227.5t-252.5 84.5t-252.5 -83t-95.5 -229q0 -128 92.5 -208t255.5 -80zM568 813q86 0 152.5 39t105 102t38.5 136q0 127 -73 199.5t-223 72.5q-146 0 -221 -72.5t-75 -199.5q0 -73 34 -136t100 -102
t162 -39z" />
    <glyph glyph-name="nine.lf" horiz-adv-x="1082" 
d="M326 0q59 49 131.5 115t145 146t133 172t97 194t36.5 211l20 -6q-15 -84 -52.5 -144.5t-90.5 -100t-115.5 -58.5t-128.5 -19q-128 0 -225.5 60t-152.5 168.5t-56 252.5q0 128 41 221.5t109 153.5t151 89t167 29q131 0 236.5 -62.5t167.5 -193t62 -335.5
q0 -155 -48 -291.5t-122 -251t-154.5 -203t-144.5 -147.5h-207zM520 632q100 0 167.5 31.5t110 77t66.5 85.5q5 8 7.5 33.5t2.5 47.5q0 153 -41.5 254t-119 151t-186.5 50q-88 0 -163 -40t-120.5 -122t-45.5 -210q1 -169 86 -263.5t236 -94.5z" />
    <glyph glyph-name="one.ss01" horiz-adv-x="592" 
d="M281 0v1387q-10 -15 -28 -29t-44 -14l-231 -2v112h432v-1454h-129z" />
    <glyph glyph-name="two.ss01" horiz-adv-x="1060" 
d="M104 0l-3 127q-2 108 53.5 206t154 183.5t222.5 152.5q157 85 242 176.5t85 233.5q0 149 -73.5 216.5t-210.5 67.5q-112 0 -186 -48t-108.5 -134.5t-28.5 -201.5h-127q-9 164 47.5 276.5t162 170.5t241.5 58q201 0 304 -110.5t103 -296.5q0 -123 -49.5 -215.5
t-133.5 -162.5t-188 -127q-94 -51 -184 -116.5t-148 -147.5t-58 -185l1 -54q13 41 37.5 48t58.5 7h648v-124h-862z" />
    <glyph glyph-name="four.ss01" horiz-adv-x="1000" 
d="M-19 275l514 1179h138l-438 -1010l-31 -55h836l-1 -114h-1018zM688 0l1 320l65 69q-32 0 -46 16.5t-16.5 45t-2.5 64.5l-1 364h132v-879h-132z" />
    <glyph glyph-name="seven.ss01" horiz-adv-x="994" 
d="M368 0q-10 315 48.5 565.5t156.5 431.5t206 284q20 17 38 30.5t57 20.5h-834v122h858l56 -171q-151 -104 -254 -296.5t-153 -446t-43 -540.5h-136z" />
    <glyph glyph-name="zero.ss03" horiz-adv-x="1194" 
d="M599 -30q-160 0 -269 86.5t-164.5 257t-55.5 422.5q0 240 55.5 406.5t164.5 253.5t269 87t267.5 -87t162.5 -253.5t55 -406.5q0 -252 -55 -422.5t-162.5 -257t-267.5 -86.5zM599 90q111 0 190.5 66t122 208t42.5 370q0 221 -42.5 359.5t-122 204t-190.5 65.5
q-110 0 -191 -65.5t-124.5 -204t-43.5 -359.5q0 -228 43.5 -370t124 -208t191.5 -66zM587 628q-41 0 -70.5 29t-29.5 75q0 45 29.5 74t70.5 29t70.5 -29t29.5 -74q0 -46 -29.5 -75t-70.5 -29z" />
    <glyph glyph-name="zero.tf" horiz-adv-x="1156" 
d="M580 -20q-158 0 -266 86t-163 254.5t-55 415.5q0 240 55 406.5t163 253.5t266 87t264.5 -87t161 -253.5t54.5 -406.5q0 -247 -54.5 -415.5t-161 -254.5t-264.5 -86zM580 100q109 0 187.5 65.5t120.5 205.5t42 363q0 221 -42 359.5t-120.5 204t-187.5 65.5t-188.5 -65.5
t-122.5 -204t-43 -359.5q0 -223 43 -363t122.5 -205.5t188.5 -65.5z" />
    <glyph glyph-name="one.tf" horiz-adv-x="1156" 
d="M546 42l-1 1321l29 91h101v-1412h-129zM145 1229v123q104 0 164.5 2t111.5 14q45 11 77.5 30t75.5 56l-14 -84q-6 -15 -22 -38t-40 -44t-55 -32q-26 -9 -59 -15t-88.5 -9t-150.5 -3zM120 0v117h884v-117h-884z" />
    <glyph glyph-name="two.tf" horiz-adv-x="1156" 
d="M101 0q44 55 105 124t127.5 142.5t129.5 140.5t111 117q89 93 163.5 183t119.5 179.5t45 180.5q0 134 -75 214.5t-240 80.5q-106 0 -188 -36t-124 -127t-28 -255l49 45h-300l126 -52q-23 200 37 320t176 173.5t259 53.5q134 0 232 -51.5t151.5 -140.5t53.5 -204
q0 -123 -51 -231t-133 -206.5t-175 -194.5q-54 -55 -113.5 -118.5t-112 -120t-85 -92t-31.5 -35.5q26 17 52 24.5t55 7.5h615v-122h-951z" />
    <glyph glyph-name="three.tf" horiz-adv-x="1156" 
d="M566 -30q-109 0 -199.5 31t-156 90.5t-101 147.5t-35.5 202h131q6 -176 99.5 -263.5t267.5 -85.5q111 2 189.5 39t120.5 102t42 147q0 166 -98 240.5t-267 74.5h-152v118h159q88 0 156.5 39t108 103t39.5 140q0 123 -75 194.5t-229 72.5q-148 1 -232 -82t-74 -243h-131
q-5 150 52.5 249t159 148.5t226.5 49.5q196 0 314 -103t118 -281q0 -75 -27 -147t-89.5 -123.5t-169.5 -68.5q175 -17 258 -119t83 -259q0 -130 -65 -222.5t-175.5 -141.5t-247.5 -49z" />
    <glyph glyph-name="four.tf" horiz-adv-x="1156" 
d="M767 0l-2 337h-747l703 1117h172l-4 -4l3 -994h193v-119h-193l1 -337h-126zM198 425q21 15 44.5 23t42.5 8h544q-34 0 -48.5 23.5t-14.5 54.5l-2 577l8 219l-122 -219l-379 -597z" />
    <glyph glyph-name="five.tf" horiz-adv-x="1156" 
d="M579 -30q-163 0 -277 59t-169.5 156.5t-45.5 212.5h130q-3 -78 32 -148t116.5 -114t216.5 -44q111 0 192.5 42.5t126 122t44.5 189.5q0 183 -89 271t-270 88q-128 0 -213.5 -46t-144.5 -113l-115 44l97 764h777v-122h-667l-93 -611q19 41 34.5 66.5t42.5 47.5
q52 43 128 67t160 24q88 0 174 -22t156 -75.5t112 -145.5t42 -233q0 -136 -59.5 -244.5t-170.5 -172t-267 -63.5z" />
    <glyph glyph-name="six.tf" horiz-adv-x="1156" 
d="M582 -30q-126 0 -236.5 62t-179.5 190.5t-69 328.5q0 159 50.5 298t129 254t163 204t152.5 147h212q-64 -49 -140 -114t-151.5 -144t-138.5 -169t-101.5 -189.5t-40.5 -205.5l-20 -8q15 85 56 145.5t98.5 99t123.5 57t131 18.5q142 0 243.5 -56.5t156.5 -161t55 -249.5
q0 -133 -43.5 -229.5t-116 -157.5t-160 -90.5t-174.5 -29.5zM594 92q92 0 172 39t129.5 124.5t48.5 222.5q-1 169 -88 256.5t-230 87.5q-113 0 -190 -31.5t-125 -76.5t-74 -86q-4 -8 -7 -29t-3 -42q0 -118 25.5 -205.5t73 -145t115.5 -86t153 -28.5z" />
    <glyph glyph-name="seven.tf" horiz-adv-x="1156" 
d="M322 0l524 1209q29 68 63.5 102.5t97.5 34.5l-1 -14h-924v122h898h102l-620 -1454h-140z" />
    <glyph glyph-name="eight.tf" horiz-adv-x="1156" 
d="M577 -30q-126 0 -236 46.5t-178.5 138.5t-68.5 227q0 152 84.5 253.5t261.5 121.5q-106 17 -169.5 70.5t-92 125.5t-28.5 142q0 183 116.5 286t310.5 103q197 0 312.5 -103.5t115.5 -285.5q0 -72 -29.5 -144.5t-93 -125.5t-165.5 -70q173 -19 258.5 -120.5t85.5 -252.5
q0 -135 -68.5 -227t-179 -138.5t-236.5 -46.5zM577 92q164 0 258.5 80t94.5 208q0 143 -97 227.5t-256 84.5q-158 0 -255 -83t-97 -229q0 -128 93.5 -208t258.5 -80zM577 813q87 0 155 39t107 102t39 136q0 127 -74.5 199.5t-226.5 72.5q-148 0 -224 -72.5t-76 -199.5
q0 -73 34.5 -136t101.5 -102t164 -39z" />
    <glyph glyph-name="nine.tf" horiz-adv-x="1156" 
d="M352 0q63 49 139 115t152.5 146t140 172t102 194t38.5 211l21 -6q-16 -84 -56 -144.5t-96.5 -100t-122.5 -58.5t-134 -19q-134 0 -237 60t-160.5 168.5t-58.5 252.5q0 128 43 221.5t115 153.5t159 89t174 29q137 0 247.5 -62.5t175.5 -193t65 -335.5q0 -155 -50.5 -291.5
t-129 -251t-163 -203t-152.5 -147.5h-212zM554 632q107 0 178.5 31.5t116 77t70.5 85.5q5 8 7.5 34t2.5 47q0 152 -44 253t-126.5 151.5t-197.5 50.5q-93 0 -172.5 -40t-128 -122t-48.5 -210q1 -169 91.5 -263.5t250.5 -94.5z" />
    <glyph glyph-name="zero.tf.zero" horiz-adv-x="1156" 
d="M580 -20q-158 0 -266 86t-163 254.5t-55 415.5q0 240 55 406.5t163 253.5t266 87t264.5 -87t161 -253.5t54.5 -406.5q0 -247 -54.5 -415.5t-161 -254.5t-264.5 -86zM580 100q109 0 187.5 65.5t120.5 205.5t42 363q0 221 -42 359.5t-120.5 204t-187.5 65.5t-188.5 -65.5
t-122.5 -204t-43 -359.5q0 -223 43 -363t122.5 -205.5t188.5 -65.5zM587 628q-41 0 -70.5 29t-29.5 75q0 45 29.5 74t70.5 29t70.5 -29t29.5 -74q0 -46 -29.5 -75t-70.5 -29z" />
    <glyph glyph-name="zero.dnom" horiz-adv-x="821" 
d="M412 -20q-160 0 -250.5 122t-90.5 384q0 249 90.5 371t250.5 122q159 0 248.5 -122.5t89.5 -370.5q0 -261 -89.5 -383.5t-248.5 -122.5zM412 92q98 0 157 89t59 303q0 207 -59 295t-157 88q-97 0 -158 -88t-61 -295q0 -215 60.5 -303.5t158.5 -88.5z" />
    <glyph glyph-name="one.dnom" horiz-adv-x="524" 
d="M262 0v862l28 98h83v-960h-111zM56 757v119q37 0 69.5 2t58.5 9q33 8 59.5 26t46.5 47l-23 -94q-9 -29 -24.5 -52.5t-46.5 -37.5q-26 -12 -56 -15.5t-84 -3.5z" />
    <glyph glyph-name="two.dnom" horiz-adv-x="751" 
d="M47 0q35 43 75 90.5t81.5 96t81 94.5t72.5 85q55 64 100.5 119t73 109t27.5 115q0 77 -45 120.5t-131 43.5q-87 0 -144.5 -48.5t-48.5 -179.5h-114q-10 119 28 192.5t112.5 107.5t172.5 34q134 0 211 -70t77 -191q0 -78 -27.5 -140.5t-72 -119t-97.5 -118.5
q-31 -36 -76.5 -89t-86 -100t-56.5 -68q20 20 46.5 24t72.5 4h303v-111h-635z" />
    <glyph glyph-name="three.dnom" horiz-adv-x="776" 
d="M382 -20q-90 0 -167.5 31.5t-123 100t-41.5 179.5h119q0 -101 56 -152t158 -50q93 1 152 45t59 123q0 100 -59.5 143.5t-157.5 43.5h-102v106h104q83 0 131 50.5t48 117.5q0 74 -46.5 114.5t-129.5 40.5q-88 0 -135 -48.5t-42 -140.5h-119q-3 149 76.5 222t220.5 73
q140 0 216.5 -70.5t76.5 -185.5q0 -73 -44 -140t-149 -83q114 -10 172 -72.5t58 -169.5q0 -134 -94.5 -206t-236.5 -72z" />
    <glyph glyph-name="four.dnom" horiz-adv-x="762" 
d="M441 0v198h-475l431 762h159l-2 -3l2 -651h127v-108h-126v-198h-116zM131 286q13 9 28.5 14.5t30.5 5.5h297q-28 0 -37.5 21.5t-9.5 45.5v311l7 152l-71 -143l-201 -343z" />
    <glyph glyph-name="five.dnom" horiz-adv-x="770" 
d="M384 -20q-111 0 -186 42t-110.5 110t-28.5 145h119q-2 -68 45 -126.5t164 -58.5q87 0 146.5 48t59.5 158q0 109 -52 159t-153 50q-70 0 -124 -21.5t-92 -56.5l-96 36l64 495h524v-113h-421l-63 -354q11 26 24.5 43.5t31.5 30.5q29 21 72.5 34t97.5 13q76 0 147 -27.5
t117 -96t46 -190.5q0 -136 -89.5 -228t-242.5 -92z" />
    <glyph glyph-name="six.dnom" horiz-adv-x="765" 
d="M392 -20q-85 0 -159.5 43t-120.5 130t-46 217q0 109 31 202t78 168t98 130.5t90 89.5h180q-47 -38 -106.5 -91.5t-115 -121t-93 -148.5t-41.5 -174l-6 10q10 46 32.5 82.5t55.5 62t74 39t87 13.5q89 0 153 -39.5t98.5 -110.5t34.5 -168q0 -105 -45.5 -180t-119 -114.5
t-159.5 -39.5zM395 90q55 0 100 25.5t72.5 75.5t27.5 122q0 98 -49 154t-140 56q-72 0 -125 -27.5t-88 -75.5q-3 -5 -4.5 -25.5t-1.5 -37.5q0 -112 52.5 -189.5t155.5 -77.5z" />
    <glyph glyph-name="seven.dnom" horiz-adv-x="719" 
d="M185 0l307 764q13 32 31 52.5t42.5 30.5t55.5 10l8 -10h-582v113h573h65l-369 -960h-131z" />
    <glyph glyph-name="eight.dnom" horiz-adv-x="821" 
d="M410 -20q-93 0 -169 31.5t-121 93t-45 151.5q0 108 58.5 170t175.5 74q-103 13 -150 79t-47 136q0 123 77 193.5t221 70.5q146 0 222 -71t76 -193q0 -68 -45.5 -135.5t-149.5 -81.5q119 -10 176 -74.5t57 -167.5q0 -90 -45 -151.5t-121.5 -93t-169.5 -31.5zM410 89
q95 0 155.5 44.5t60.5 124.5q0 93 -60.5 139t-155.5 46t-155.5 -45.5t-60.5 -139.5q0 -80 60 -124.5t156 -44.5zM410 550q83 0 131.5 50.5t48.5 115.5q0 75 -47 116t-133 41q-85 0 -132.5 -41t-47.5 -116q0 -65 44.5 -115.5t135.5 -50.5z" />
    <glyph glyph-name="nine.dnom" horiz-adv-x="766" 
d="M223 0q47 38 106.5 92.5t115.5 124t93.5 151t40.5 173.5l11 -1q-12 -49 -33.5 -87t-52 -65t-71 -41t-89.5 -14q-83 0 -150 41t-106 113.5t-39 166.5q0 107 46.5 179.5t121 109t157.5 36.5q89 0 163 -41.5t118.5 -128t44.5 -222.5q0 -109 -31 -201.5t-78.5 -167
t-98 -129.5t-89.5 -89h-180zM367 441q76 0 126 30.5t79 78.5q3 5 4.5 22t1.5 39q0 116 -53 187.5t-154 71.5q-84 0 -142.5 -55.5t-58.5 -158.5q0 -95 50.5 -155t146.5 -60z" />
    <glyph glyph-name="zero.numr" horiz-adv-x="821" 
d="M412 460q-160 0 -250.5 122t-90.5 384q0 249 90.5 371t250.5 122q159 0 248.5 -122.5t89.5 -370.5q0 -261 -89.5 -383.5t-248.5 -122.5zM412 572q98 0 157 89t59 303q0 207 -59 295t-157 88q-97 0 -158 -88t-61 -295q0 -215 60.5 -303.5t158.5 -88.5z" />
    <glyph glyph-name="one.numr" horiz-adv-x="524" 
d="M262 478v862l28 98h83v-960h-111zM56 1235v119q37 0 69.5 2t58.5 9q33 8 59.5 26t46.5 47l-23 -94q-9 -29 -24.5 -52.5t-46.5 -37.5q-26 -12 -56 -15.5t-84 -3.5z" />
    <glyph glyph-name="two.numr" horiz-adv-x="751" 
d="M47 478q35 43 75 90.5t81.5 96t81 94.5t72.5 85q55 64 100.5 119t73 109t27.5 115q0 77 -45 120.5t-131 43.5q-87 0 -144.5 -48.5t-48.5 -179.5h-114q-10 119 28 192.5t112.5 107.5t172.5 34q134 0 211 -70t77 -191q0 -78 -27.5 -140.5t-72 -119t-97.5 -118.5
q-31 -36 -76.5 -89t-86 -100t-56.5 -68q20 20 46.5 24t72.5 4h303v-111h-635z" />
    <glyph glyph-name="three.numr" horiz-adv-x="776" 
d="M382 458q-90 0 -167.5 31.5t-123 100t-41.5 179.5h119q0 -101 56 -152t158 -50q93 1 152 45t59 123q0 100 -59.5 143.5t-157.5 43.5h-102v106h104q83 0 131 50.5t48 117.5q0 74 -46.5 114.5t-129.5 40.5q-88 0 -135 -48.5t-42 -140.5h-119q-3 149 76.5 222t220.5 73
q140 0 216.5 -70.5t76.5 -185.5q0 -73 -44 -140t-149 -83q114 -10 172 -72.5t58 -169.5q0 -134 -94.5 -206t-236.5 -72z" />
    <glyph glyph-name="four.numr" horiz-adv-x="762" 
d="M441 478v198h-475l431 762h159l-2 -3l2 -651h127v-108h-126v-198h-116zM131 764q13 9 28.5 14.5t30.5 5.5h297q-28 0 -37.5 21.5t-9.5 45.5v311l7 152l-71 -143l-201 -343z" />
    <glyph glyph-name="five.numr" horiz-adv-x="770" 
d="M384 458q-111 0 -186 42t-110.5 110t-28.5 145h119q-2 -68 45 -126.5t164 -58.5q87 0 146.5 48t59.5 158q0 109 -52 159t-153 50q-70 0 -124 -21.5t-92 -56.5l-96 36l64 495h524v-113h-421l-63 -354q11 26 24.5 43.5t31.5 30.5q29 21 72.5 34t97.5 13q76 0 147 -27.5
t117 -96t46 -190.5q0 -136 -89.5 -228t-242.5 -92z" />
    <glyph glyph-name="six.numr" horiz-adv-x="765" 
d="M392 458q-85 0 -159.5 43t-120.5 130t-46 217q0 109 31 202t78 168t98 130.5t90 89.5h180q-47 -38 -106.5 -91.5t-115 -121t-93 -148.5t-41.5 -174l-6 10q10 46 32.5 82.5t55.5 62t74 39t87 13.5q89 0 153 -39.5t98.5 -110.5t34.5 -168q0 -105 -45.5 -180t-119 -114.5
t-159.5 -39.5zM395 568q55 0 100 25.5t72.5 75.5t27.5 122q0 98 -49 154t-140 56q-72 0 -125 -27.5t-88 -75.5q-3 -5 -4.5 -25.5t-1.5 -37.5q0 -112 52.5 -189.5t155.5 -77.5z" />
    <glyph glyph-name="seven.numr" horiz-adv-x="719" 
d="M185 478l307 764q13 32 31 52.5t42.5 30.5t55.5 10l8 -10h-582v113h573h65l-369 -960h-131z" />
    <glyph glyph-name="eight.numr" horiz-adv-x="821" 
d="M410 458q-93 0 -169 31.5t-121 93t-45 151.5q0 108 58.5 170t175.5 74q-103 13 -150 79t-47 136q0 123 77 193.5t221 70.5q146 0 222 -71t76 -193q0 -68 -45.5 -135.5t-149.5 -81.5q119 -10 176 -74.5t57 -167.5q0 -90 -45 -151.5t-121.5 -93t-169.5 -31.5zM410 567
q95 0 155.5 44.5t60.5 124.5q0 93 -60.5 139t-155.5 46t-155.5 -45.5t-60.5 -139.5q0 -80 60 -124.5t156 -44.5zM410 1028q83 0 131.5 50.5t48.5 115.5q0 75 -47 116t-133 41q-85 0 -132.5 -41t-47.5 -116q0 -65 44.5 -115.5t135.5 -50.5z" />
    <glyph glyph-name="nine.numr" horiz-adv-x="766" 
d="M223 478q47 38 106.5 92.5t115.5 124t93.5 151t40.5 173.5l11 -1q-12 -49 -33.5 -87t-52 -65t-71 -41t-89.5 -14q-83 0 -150 41t-106 113.5t-39 166.5q0 107 46.5 179.5t121 109t157.5 36.5q89 0 163 -41.5t118.5 -128t44.5 -222.5q0 -109 -31 -201.5t-78.5 -167
t-98 -129.5t-89.5 -89h-180zM367 919q76 0 126 30.5t79 78.5q3 5 4.5 22t1.5 39q0 116 -53 187.5t-154 71.5q-84 0 -142.5 -55.5t-58.5 -158.5q0 -95 50.5 -155t146.5 -60z" />
    <glyph glyph-name="uni030C.alt" 
d="M150 1261l30 346h131l-50 -346h-111z" />
    <glyph glyph-name="uni0308.case" 
d="M245 1237q-41 0 -68 29t-27 75q0 45 27 74t68 29q38 0 66.5 -29t28.5 -74q0 -46 -28.5 -75t-66.5 -29zM600 1237q-41 0 -68 29t-27 75q0 45 27 74t68 29q38 0 66.5 -29t28.5 -74q0 -46 -28.5 -75t-66.5 -29z" />
    <glyph glyph-name="uni0307.case" 
d="M225 1235q-41 0 -68 29t-27 75q0 45 27 74t68 29q38 0 66.5 -29t28.5 -74q0 -46 -28.5 -75t-66.5 -29z" />
    <glyph glyph-name="gravecomb.case" 
d="M354 1255l-204 277h154l180 -277h-130z" />
    <glyph glyph-name="acutecomb.case" 
d="M150 1255l180 277h154l-204 -277h-130z" />
    <glyph glyph-name="uni030B.case" 
d="M410 1255l160 278h132l-184 -278h-108zM130 1255l160 278h132l-184 -278h-108z" />
    <glyph glyph-name="uni0302.case" 
d="M150 1255l180 258h152l180 -258h-128l-128 173l-128 -173h-128z" />
    <glyph glyph-name="uni030C.case" 
d="M300 1256l-190 257h128l138 -168l138 168h128l-190 -257h-152z" />
    <glyph glyph-name="uni0306.case" 
d="M376 1237q-130 0 -193 80t-42 196h111q-11 -99 24.5 -138t99.5 -39q65 0 100.5 39t24.5 138h111q21 -116 -42 -196t-194 -80z" />
    <glyph glyph-name="uni030A.case" 
d="M302 1235q-79 0 -133 55t-54 125q0 77 54 127t133 50q78 0 131.5 -50t53.5 -127q0 -70 -53.5 -125t-131.5 -55zM302 1318q40 0 64 30t24 67q0 46 -24 71t-64 25t-64.5 -25t-24.5 -71q0 -37 24.5 -67t64.5 -30z" />
    <glyph glyph-name="tildecomb.case" 
d="M620 1237q-66 0 -105 26t-64 59.5t-49 59.5t-60 26q-51 0 -73 -38.5t-9 -114.5h-106q-11 74 8.5 130.5t64 88.5t107.5 32q65 0 103 -26t62.5 -60t48 -60t60.5 -26q51 0 74.5 34.5t18.5 102.5h107q18 -103 -38 -168.5t-150 -65.5z" />
    <glyph glyph-name="uni0304.case" 
d="M110 1254v118h544l-3 -118h-541z" />
    <glyph glyph-name="uni0327.case" 
d="M280 -350q-34 0 -65 7t-51 16l1 95q52 -25 97 -25q42 0 61.5 23.5t19.5 58.5q0 51 -40 98.5t-125 76.5h124q84 -31 122 -80t38 -108q0 -67 -46 -114.5t-136 -47.5z" />
    <glyph glyph-name="uni0328.case" 
d="M309 -336q-76 0 -120 41.5t-44 102.5q0 38 21 77t71 70t137 45h50q-88 -45 -126 -82t-38 -84q0 -71 73 -71q37 0 88 19l1 -98q-19 -9 -48 -14.5t-65 -5.5z" />
    <glyph glyph-name="ringcomba_part." horiz-adv-x="603" 
d="M302 1073q-80 0 -136.5 58t-56.5 133q0 81 56.5 134.5t136.5 53.5t136 -53.5t56 -134.5q0 -75 -56 -133t-136 -58zM302 1164q39 0 64 30t25 70q0 49 -25 73t-64 24t-64 -24t-25 -73q0 -40 25 -70t64 -30z" />
    <glyph glyph-name="Bar_part." horiz-adv-x="1200" 
d="M110 604v114h574l-3 -114h-571z" />
    <glyph glyph-name="ringacutecomb" horiz-adv-x="610" 
d="M182 1073q-76 0 -129 55t-53 125q0 77 53 127t129 50q75 0 128 -50t53 -127q0 -70 -53 -125t-128 -55zM182 1156q37 0 60.5 30t23.5 67q0 46 -23.5 71t-60.5 25t-60.5 -25t-23.5 -71q0 -37 23.5 -67t60.5 -30zM178 1365l130 203h152l-164 -203h-118z" />
    <glyph glyph-name="Barmid_part." horiz-adv-x="1046" 
d="M150 607v114h746l-4 -114h-742z" />
    <glyph glyph-name="slashl_part." horiz-adv-x="776" 
d="M150 599v124l476 368l-4 -124z" />
    <glyph glyph-name="oSlash_part." horiz-adv-x="944" 
d="M42 138l144 228l37 34l446 713l13 35l104 168h116l-123 -197l-39 -38l-456 -730l-11 -31l-115 -182h-116z" />
    <glyph glyph-name="OSlash_part." horiz-adv-x="950" 
d="M-10 -77l119 236l42 42l549 1107l8 44l86 172h166l-105 -209l-44 -47l-559 -1128l-6 -40l-90 -177h-166z" />
    <glyph glyph-name="slashL_part." horiz-adv-x="1200" 
d="M210 598v141l149 107l61 28l316 227l-4 -141l-299 -212l-62 -29z" />
    </font>
</defs>
</svg>
