<svg width="157" height="44" viewBox="0 0 157 44" fill="none" xmlns="http://www.w3.org/2000/svg">
<path d="M5.95233 -1.14441e-05C3.75273 1.34271 1.78684 3.03453 0.147028 5.00641L2.65952 7.8127C4.50211 5.47206 6.83858 3.58334 9.49583 2.28645L5.95233 -1.14441e-05ZM30.508 0.163033L26.7553 2.31138C29.5431 3.67625 31.9732 5.69438 33.8461 8.20017L36.0702 5.02751C34.4804 3.11774 32.6019 1.47595 30.508 0.163033ZM18.1359 1.6055C15.4465 1.60282 12.789 2.19857 10.3497 3.35103L11.4617 5.2903C13.5582 4.32315 15.8341 3.82473 18.1359 3.82866C20.5127 3.82866 22.767 4.35424 24.797 5.28647L25.909 3.34528C23.4728 2.198 20.8203 1.60433 18.1359 1.6055ZM17.0031 5.31716L15.9665 18.027H15.9721L15.9684 18.1037C15.974 18.3166 15.9929 18.518 16.0306 18.7137C16.0494 18.9285 16.1116 19.1491 16.2134 19.3697C16.4283 19.924 16.7751 20.3384 17.186 20.534C17.2802 20.6107 17.3839 20.6779 17.4838 20.7469C17.5048 20.7593 17.5255 20.7721 17.546 20.7853V20.793L30.1367 27.6907L30.7926 26.7776L19.3743 17.9541C19.3611 17.9541 19.3554 17.9445 19.3479 17.9387L18.1341 5.31716H17.0031ZM19.6853 5.4169C20.0434 5.86575 20.3657 6.4201 20.6315 7.05694C26.5781 8.21551 31.0735 13.4349 31.0735 19.7092C31.0735 21.3914 30.7417 22.9931 30.1612 24.4663C30.5463 24.9088 30.8755 25.3985 31.1413 25.9241C32.0778 23.991 32.5641 21.8644 32.5625 19.7092C32.5625 12.2897 26.9268 6.18609 19.6853 5.41882V5.4169ZM15.3803 5.59913C8.73247 6.87855 3.71314 12.7117 3.71314 19.7092C3.71314 24.6657 6.2294 29.0372 10.0594 31.621C10.2257 31.1385 10.4112 30.663 10.6154 30.1958C7.3358 27.8576 5.1984 24.0308 5.1984 19.7092C5.1984 13.8511 9.12263 8.90605 14.4944 7.33699C14.7357 6.66371 15.0391 6.07867 15.3803 5.59913ZM32.6266 8.81206L31.1168 10.525C33.0205 13.187 34.0442 16.3957 34.0402 19.6881C34.0402 25.2815 31.1338 30.2016 26.7421 33.0232C26.9381 33.7675 27.0965 34.5424 27.2152 35.3423C32.6247 32.2118 36.2662 26.371 36.2662 19.69C36.2762 15.7538 34.9961 11.9266 32.6285 8.81398L32.6266 8.81206ZM3.63775 8.82549C1.27546 11.9373 -0.00412472 15.7596 9.98888e-06 19.6919C9.98888e-06 26.419 3.68299 32.2886 9.15656 35.4017C9.27531 34.5999 9.42798 33.825 9.624 33.0884C5.17578 30.2726 2.22978 25.3294 2.22978 19.6919C2.22978 16.2833 3.30979 13.1279 5.14939 10.5384L3.63775 8.82549ZM21.1931 8.90797C21.2761 9.29736 21.3439 9.70593 21.3948 10.1356C22.7324 10.583 23.9627 11.3114 25.006 12.2737C26.0492 13.2359 26.8822 14.4105 27.4508 15.7213L28.5384 15.4374C27.877 13.8559 26.8728 12.447 25.6008 11.3163C24.3288 10.1856 22.822 9.36226 21.1931 8.90797ZM14.0006 9.26667C12.6088 9.81334 11.3384 10.6376 10.2641 11.6911C9.18983 12.7445 8.33328 14.0058 7.74482 15.401L8.83802 15.6849C9.83575 13.4026 11.6208 11.5717 13.8555 10.5384C13.8875 10.103 13.9309 9.67524 14.0006 9.26667ZM8.2066 17.089L7.038 18.2974L7.63173 19.4752L10.8868 20.6606L12.6624 19.4752L12.0743 17.7047L8.2066 17.089ZM28.2142 17.089L24.354 17.7047L23.7603 19.4752L25.5358 20.6606L28.7966 19.4752L29.3903 18.2974L28.2142 17.089ZM7.0135 21.3032C7.22979 22.7611 7.72754 24.1611 8.47805 25.4223C9.22856 26.6836 10.217 27.7811 11.3863 28.6517C11.5748 28.3256 11.7708 28.0091 11.9801 27.706C9.93657 26.1537 8.56055 23.8587 8.13875 21.2994L7.0135 21.3032ZM28.135 21.3032C28.0785 21.6485 28.0012 21.9841 27.9126 22.3179C28.2406 22.5826 28.5497 22.8396 28.8418 23.1043C29.0247 22.5251 29.1698 21.9208 29.2565 21.3013L28.135 21.3032ZM25.2776 26.8448C24.9885 27.1319 24.6826 27.4009 24.3616 27.6504C24.5689 27.9535 24.7725 28.2681 24.9609 28.5961C25.4604 28.2124 25.9279 27.7904 26.3557 27.3301C25.9917 27.1791 25.6322 27.0173 25.2776 26.8448ZM28.1086 27.917C27.4162 28.7523 26.6249 29.4971 25.7526 30.1344C25.9524 30.5871 26.1427 31.0648 26.3067 31.5558C27.6528 30.631 28.8361 29.4819 29.8069 28.1568C29.2337 28.1511 28.6617 28.0705 28.1086 27.917ZM22.4767 29.1255L18.1359 30.8768L13.7876 29.1312L12.6812 31.8838L17.2953 33.6984C17.0427 34.5808 16.2247 35.2291 15.2597 35.2291C15.1956 35.2291 15.1277 35.2214 15.0636 35.2157L14.1212 36.5315C14.4756 36.6524 14.8563 36.7157 15.2521 36.7157C16.4226 36.7157 17.4574 36.1613 18.1171 35.3001C18.5905 35.9166 19.2442 36.364 19.9838 36.5778C20.7233 36.7916 21.5105 36.7606 22.2317 36.4893L21.3081 35.2042C20.795 35.2888 20.2692 35.1782 19.8311 34.8934C19.393 34.6085 19.0734 34.1695 18.9332 33.66L23.5888 31.8838L22.4767 29.1255ZM24.6556 38.2847C22.6011 39.0079 20.4034 39.3973 18.1039 39.3973C15.8986 39.3973 13.7876 39.0405 11.8085 38.373C12.2439 40.061 12.9206 41.5456 13.7876 42.7119C15.188 42.9689 16.6318 43.1089 18.1114 43.1089C19.6853 43.1089 21.2214 42.9517 22.7048 42.6563C23.5586 41.4862 24.2259 39.9919 24.6556 38.2847Z" fill="#101828"/>
<path d="M47.6033 32.8449V14.8828H42.0566V11.4341H57.001V14.8828H51.5406V32.8449H47.6033Z" fill="#101828"/>
<path d="M62.1758 33.1898C60.6431 33.1898 59.2444 32.8353 57.9799 32.1264C56.7345 31.4175 55.7382 30.4499 54.991 29.2237C54.2629 27.9975 53.8989 26.5989 53.8989 25.0278C53.8989 23.4567 54.2629 22.0581 54.991 20.8319C55.7382 19.6056 56.7345 18.6381 57.9799 17.9292C59.2253 17.2203 60.6239 16.8658 62.1758 16.8658C63.7086 16.8658 65.0977 17.2203 66.343 17.9292C67.5884 18.6381 68.5751 19.6056 69.3032 20.8319C70.0504 22.0389 70.424 23.4376 70.424 25.0278C70.424 26.5989 70.0504 27.9975 69.3032 29.2237C68.556 30.4499 67.5597 31.4175 66.3143 32.1264C65.0689 32.8353 63.6894 33.1898 62.1758 33.1898ZM62.1758 29.741C63.0189 29.741 63.7565 29.5399 64.3888 29.1375C65.0402 28.7352 65.5479 28.1795 65.9119 27.4706C66.2951 26.7426 66.4867 25.9283 66.4867 25.0278C66.4867 24.1081 66.2951 23.3034 65.9119 22.6137C65.5479 21.9048 65.0402 21.3492 64.3888 20.9468C63.7565 20.5253 63.0189 20.3146 62.1758 20.3146C61.3137 20.3146 60.5569 20.5253 59.9054 20.9468C59.254 21.3492 58.7367 21.9048 58.3535 22.6137C57.9895 23.3034 57.8075 24.1081 57.8075 25.0278C57.8075 25.9283 57.9895 26.7426 58.3535 27.4706C58.7367 28.1795 59.254 28.7352 59.9054 29.1375C60.5569 29.5399 61.3137 29.741 62.1758 29.741Z" fill="#101828"/>
<path d="M79.7742 33.1898C78.2414 33.1898 76.8428 32.8353 75.5782 32.1264C74.3329 31.4175 73.3366 30.4499 72.5893 29.2237C71.8613 27.9975 71.4972 26.5989 71.4972 25.0278C71.4972 23.4567 71.8613 22.0581 72.5893 20.8319C73.3366 19.6056 74.3329 18.6381 75.5782 17.9292C76.8236 17.2203 78.2222 16.8658 79.7742 16.8658C81.3069 16.8658 82.696 17.2203 83.9414 17.9292C85.1867 18.6381 86.1735 19.6056 86.9015 20.8319C87.6487 22.0389 88.0224 23.4376 88.0224 25.0278C88.0224 26.5989 87.6487 27.9975 86.9015 29.2237C86.1543 30.4499 85.158 31.4175 83.9126 32.1264C82.6673 32.8353 81.2878 33.1898 79.7742 33.1898ZM79.7742 29.741C80.6172 29.741 81.3548 29.5399 81.9871 29.1375C82.6385 28.7352 83.1463 28.1795 83.5103 27.4706C83.8935 26.7426 84.0851 25.9283 84.0851 25.0278C84.0851 24.1081 83.8935 23.3034 83.5103 22.6137C83.1463 21.9048 82.6385 21.3492 81.9871 20.9468C81.3548 20.5253 80.6172 20.3146 79.7742 20.3146C78.912 20.3146 78.1552 20.5253 77.5038 20.9468C76.8523 21.3492 76.335 21.9048 75.9518 22.6137C75.5878 23.3034 75.4058 24.1081 75.4058 25.0278C75.4058 25.9283 75.5878 26.7426 75.9518 27.4706C76.335 28.1795 76.8523 28.7352 77.5038 29.1375C78.1552 29.5399 78.912 29.741 79.7742 29.741Z" fill="#101828"/>
<path d="M89.7278 32.8449V11.0892H93.4927V32.8449H89.7278Z" fill="#101828"/>
<path d="M103.631 33.0173C101.868 33.0173 100.498 32.5383 99.5211 31.5804C98.5632 30.6032 98.0842 29.2333 98.0842 27.4706V20.5732H95.3827V17.2107H95.6701C96.4365 17.2107 97.0304 17.0095 97.4519 16.6072C97.8734 16.2048 98.0842 15.6205 98.0842 14.8541V13.647H101.849V17.2107H105.441V20.5732H101.849V27.2695C101.849 27.7868 101.935 28.2274 102.108 28.5915C102.299 28.9555 102.587 29.2333 102.97 29.4249C103.372 29.6165 103.88 29.7123 104.493 29.7123C104.627 29.7123 104.78 29.7027 104.953 29.6836C105.144 29.6644 105.326 29.6452 105.499 29.6261V32.8449C105.231 32.8832 104.924 32.9215 104.579 32.9598C104.234 32.9982 103.918 33.0173 103.631 33.0173Z" fill="#FF6900"/>
<path d="M107.226 32.8449V17.2107H110.991V32.8449H107.226ZM107.226 15.4576V11.4341H110.991V15.4576H107.226Z" fill="#FF6900"/>
<path d="M120.904 39.1675C119.736 39.1675 118.653 38.9759 117.657 38.5927C116.66 38.2096 115.798 37.6731 115.07 36.9834C114.361 36.3128 113.844 35.5176 113.518 34.598L117.024 33.276C117.254 34.004 117.705 34.5884 118.375 35.0291C119.065 35.4889 119.908 35.7188 120.904 35.7188C121.671 35.7188 122.341 35.5751 122.916 35.2877C123.51 35.0003 123.97 34.5788 124.296 34.0232C124.621 33.4867 124.784 32.8353 124.784 32.0689V28.5053L125.503 29.3674C124.966 30.3062 124.248 31.0152 123.347 31.4941C122.447 31.9731 121.422 32.2126 120.272 32.2126C118.816 32.2126 117.513 31.8773 116.363 31.2067C115.214 30.5362 114.313 29.6165 113.662 28.4478C113.011 27.279 112.685 25.9666 112.685 24.5105C112.685 23.0352 113.011 21.7228 113.662 20.5732C114.313 19.4236 115.204 18.5231 116.335 17.8717C117.465 17.2011 118.749 16.8658 120.186 16.8658C121.355 16.8658 122.38 17.1149 123.261 17.6131C124.161 18.092 124.909 18.7914 125.503 19.711L124.985 20.6594V17.2107H128.549V32.0689C128.549 33.4293 128.214 34.6459 127.543 35.7188C126.892 36.7918 125.991 37.6348 124.842 38.2479C123.711 38.861 122.399 39.1675 120.904 39.1675ZM120.732 28.7352C121.537 28.7352 122.236 28.5627 122.83 28.2179C123.443 27.8538 123.922 27.3557 124.267 26.7234C124.612 26.0912 124.784 25.3631 124.784 24.5392C124.784 23.7345 124.602 23.016 124.238 22.3838C123.893 21.7324 123.414 21.2246 122.801 20.8606C122.207 20.4966 121.517 20.3146 120.732 20.3146C119.946 20.3146 119.237 20.4966 118.605 20.8606C117.973 21.2246 117.475 21.7324 117.111 22.3838C116.766 23.016 116.593 23.7345 116.593 24.5392C116.593 25.3439 116.766 26.0624 117.111 26.6947C117.475 27.3269 117.963 27.8251 118.576 28.1891C119.209 28.5532 119.927 28.7352 120.732 28.7352Z" fill="#FF6900"/>
<path d="M138.33 33.1898C136.721 33.1898 135.313 32.8257 134.106 32.0977C132.898 31.3696 131.96 30.3829 131.289 29.1375C130.618 27.8921 130.283 26.5127 130.283 24.9991C130.283 23.428 130.618 22.0389 131.289 20.8319C131.979 19.6056 132.908 18.6381 134.077 17.9292C135.265 17.2203 136.587 16.8658 138.043 16.8658C139.269 16.8658 140.342 17.067 141.262 17.4694C142.2 17.8717 142.996 18.4273 143.647 19.1362C144.298 19.8451 144.797 20.6594 145.141 21.5791C145.486 22.4796 145.659 23.4567 145.659 24.5105C145.659 24.7787 145.64 25.0565 145.601 25.3439C145.582 25.6313 145.534 25.8804 145.458 26.0912H133.387V23.2172H143.331L141.549 24.568C141.721 23.6866 141.674 22.9011 141.405 22.2113C141.156 21.5216 140.735 20.9756 140.141 20.5732C139.566 20.1709 138.867 19.9697 138.043 19.9697C137.257 19.9697 136.558 20.1709 135.945 20.5732C135.332 20.9564 134.862 21.5312 134.537 22.2976C134.23 23.0448 134.115 23.9549 134.192 25.0278C134.115 25.9858 134.24 26.8384 134.565 27.5856C134.91 28.3137 135.408 28.8789 136.06 29.2812C136.73 29.6836 137.497 29.8847 138.359 29.8847C139.221 29.8847 139.949 29.7027 140.543 29.3387C141.156 28.9747 141.635 28.4861 141.98 27.873L145.026 29.3674C144.72 30.1147 144.241 30.7757 143.589 31.3504C142.938 31.9252 142.162 32.3755 141.262 32.7012C140.38 33.0269 139.403 33.1898 138.33 33.1898Z" fill="#FF6900"/>
<path d="M147.363 32.8449V17.2107H150.898V20.6882L150.611 20.1709C150.975 19.0021 151.54 18.1878 152.306 17.728C153.092 17.2682 154.031 17.0383 155.123 17.0383H156.042V20.372H154.692C153.619 20.372 152.757 20.7073 152.105 21.3779C151.454 22.0293 151.128 22.949 151.128 24.1369V32.8449H147.363Z" fill="#FF6900"/>
</svg>
