<svg width="49" height="49" viewBox="0 0 49 49" fill="none" xmlns="http://www.w3.org/2000/svg">
<path d="M11.9523 3C9.75273 4.34272 7.78684 6.03455 6.14703 8.00642L8.65952 10.8127C10.5021 8.47208 12.8386 6.58335 15.4958 5.28646L11.9523 3ZM36.508 3.16304L32.7553 5.3114C35.5431 6.67626 37.9732 8.69439 39.8461 11.2002L42.0702 8.02752C40.4804 6.11775 38.6019 4.47596 36.508 3.16304ZM24.1359 4.60551C21.4465 4.60283 18.789 5.19859 16.3497 6.35104L17.4617 8.29031C19.5582 7.32316 21.8341 6.82474 24.1359 6.82867C26.5127 6.82867 28.767 7.35425 30.797 8.28648L31.909 6.34529C29.4728 5.19802 26.8203 4.60434 24.1359 4.60551ZM23.0031 8.31717L21.9665 21.027H21.9721L21.9684 21.1037C21.974 21.3166 21.9929 21.518 22.0306 21.7137C22.0494 21.9285 22.1116 22.1491 22.2134 22.3697C22.4283 22.924 22.7751 23.3384 23.186 23.534C23.2802 23.6107 23.3839 23.6779 23.4838 23.7469C23.5048 23.7593 23.5255 23.7721 23.546 23.7853V23.793L36.1367 30.6907L36.7926 29.7777L25.3743 20.9541C25.3611 20.9541 25.3554 20.9445 25.3479 20.9387L24.1341 8.31717H23.0031ZM25.6853 8.41691C26.0434 8.86576 26.3657 9.42012 26.6315 10.0569C32.5781 11.2155 37.0735 16.4349 37.0735 22.7092C37.0735 24.3914 36.7417 25.9931 36.1612 27.4663C36.5463 27.9088 36.8755 28.3985 37.1413 28.9241C38.0778 26.991 38.5641 24.8644 38.5625 22.7092C38.5625 15.2897 32.9268 9.1861 25.6853 8.41883V8.41691ZM21.3803 8.59914C14.7325 9.87856 9.71314 15.7117 9.71314 22.7092C9.71314 27.6658 12.2294 32.0373 16.0594 34.621C16.2257 34.1385 16.4112 33.663 16.6154 33.1958C13.3358 30.8576 11.1984 27.0308 11.1984 22.7092C11.1984 16.8511 15.1226 11.9061 20.4944 10.337C20.7357 9.66372 21.0391 9.07868 21.3803 8.59914ZM38.6266 11.8121L37.1168 13.525C39.0206 16.1871 40.0442 19.3957 40.0402 22.6881C40.0402 28.2815 37.1338 33.2016 32.7421 36.0232C32.9381 36.7675 33.0965 37.5424 33.2152 38.3423C38.6247 35.2118 42.2662 29.371 42.2662 22.69C42.2762 18.7538 40.9961 14.9266 38.6285 11.814L38.6266 11.8121ZM9.63775 11.8255C7.27546 14.9373 5.99588 18.7596 6.00001 22.6919C6.00001 29.419 9.68299 35.2886 15.1566 38.4018C15.2753 37.6 15.428 36.825 15.624 36.0884C11.1758 33.2726 8.22978 28.3294 8.22978 22.6919C8.22978 19.2833 9.30979 16.128 11.1494 13.5384L9.63775 11.8255ZM27.1931 11.908C27.2761 12.2974 27.3439 12.7059 27.3948 13.1356C28.7324 13.583 29.9627 14.3114 31.006 15.2737C32.0492 16.2359 32.8822 17.4105 33.4508 18.7213L34.5384 18.4374C33.877 16.8559 32.8728 15.447 31.6008 14.3163C30.3288 13.1856 28.822 12.3623 27.1931 11.908ZM20.0006 12.2667C18.6088 12.8133 17.3384 13.6376 16.2641 14.6911C15.1898 15.7445 14.3333 17.0059 13.7448 18.401L14.838 18.6849C15.8358 16.4026 17.6208 14.5717 19.8555 13.5384C19.8875 13.103 19.9309 12.6753 20.0006 12.2667ZM14.2066 20.089L13.038 21.2974L13.6317 22.4752L16.8868 23.6606L18.6624 22.4752L18.0743 20.7047L14.2066 20.089ZM34.2142 20.089L30.354 20.7047L29.7603 22.4752L31.5358 23.6606L34.7966 22.4752L35.3903 21.2974L34.2142 20.089ZM13.0135 24.3032C13.2298 25.7612 13.7275 27.1611 14.4781 28.4223C15.2286 29.6836 16.217 30.7811 17.3863 31.6517C17.5748 31.3256 17.7708 31.0091 17.9801 30.7061C15.9366 29.1537 14.5606 26.8587 14.1387 24.2994L13.0135 24.3032ZM34.135 24.3032C34.0785 24.6485 34.0012 24.9842 33.9126 25.3179C34.2406 25.5826 34.5497 25.8397 34.8418 26.1044C35.0247 25.5251 35.1698 24.9209 35.2565 24.3013L34.135 24.3032ZM31.2776 29.8448C30.9885 30.1319 30.6826 30.4009 30.3616 30.6504C30.5689 30.9535 30.7725 31.2681 30.9609 31.5961C31.4604 31.2124 31.9279 30.7905 32.3557 30.3301C31.9917 30.1791 31.6322 30.0173 31.2776 29.8448ZM34.1086 30.9171C33.4162 31.7523 32.6249 32.4971 31.7526 33.1345C31.9524 33.5871 32.1427 34.0648 32.3067 34.5558C33.6528 33.631 34.8361 32.4819 35.8069 31.1568C35.2337 31.1511 34.6617 31.0705 34.1086 30.9171ZM28.4767 32.1255L24.1359 33.8768L19.7876 32.1313L18.6812 34.8838L23.2953 36.6984C23.0427 37.5808 22.2247 38.2291 21.2597 38.2291C21.1956 38.2291 21.1277 38.2214 21.0636 38.2157L20.1212 39.5316C20.4756 39.6524 20.8563 39.7157 21.2521 39.7157C22.4226 39.7157 23.4574 39.1613 24.1171 38.3001C24.5905 38.9166 25.2442 39.364 25.9838 39.5778C26.7233 39.7916 27.5105 39.7606 28.2317 39.4894L27.3081 38.2042C26.795 38.2888 26.2692 38.1782 25.8311 37.8934C25.393 37.6085 25.0734 37.1695 24.9332 36.6601L29.5888 34.8838L28.4767 32.1255ZM30.6556 41.2848C28.6011 42.0079 26.4034 42.3973 24.1039 42.3973C21.8986 42.3973 19.7876 42.0405 17.8085 41.373C18.2439 43.061 18.9206 44.5457 19.7876 45.7119C21.188 45.9689 22.6318 46.109 24.1114 46.109C25.6853 46.109 27.2214 45.9517 28.7048 45.6563C29.5586 44.4862 30.2259 42.9919 30.6556 41.2848Z" fill="#101828"/>
</svg>
