<svg width="40" height="40" viewBox="0 0 40 40" fill="none" xmlns="http://www.w3.org/2000/svg">
<g clip-path="url(#clip0_1_5489)">
<path d="M6.66575 18.3332C7.09055 18.3337 7.49914 18.4963 7.80803 18.7879C8.11692 19.0796 8.30281 19.4781 8.3277 19.9022C8.3526 20.3263 8.21462 20.7438 7.94197 21.0696C7.66932 21.3953 7.28258 21.6047 6.86075 21.6549L6.66575 21.6665H4.99908C4.57428 21.6661 4.1657 21.5034 3.8568 21.2118C3.54791 20.9202 3.36202 20.5216 3.33713 20.0975C3.31223 19.6735 3.45021 19.2559 3.72286 18.9301C3.99551 18.6044 4.38226 18.395 4.80408 18.3449L4.99908 18.3332H6.66575Z" fill="#FF6900"/>
<path d="M20.0009 3.33319C20.4092 3.33324 20.8032 3.48312 21.1082 3.75438C21.4133 4.02565 21.6082 4.39944 21.6559 4.80486L21.6676 4.99986V6.66652C21.6671 7.09132 21.5045 7.49991 21.2129 7.8088C20.9212 8.1177 20.5227 8.30358 20.0986 8.32848C19.6745 8.35337 19.257 8.2154 18.9312 7.94275C18.6055 7.6701 18.3961 7.28335 18.3459 6.86152L18.3343 6.66652V4.99986C18.3343 4.55783 18.5099 4.13391 18.8224 3.82135C19.135 3.50879 19.5589 3.33319 20.0009 3.33319Z" fill="#FF6900"/>
<path d="M35 18.3333C35.4248 18.3338 35.8334 18.4964 36.1423 18.7881C36.4512 19.0797 36.6371 19.4782 36.662 19.9023C36.6869 20.3264 36.5489 20.7439 36.2762 21.0697C36.0036 21.3955 35.6168 21.6048 35.195 21.655L35 21.6666H33.3334C32.9086 21.6662 32.5 21.5035 32.1911 21.2119C31.8822 20.9203 31.6963 20.5217 31.6714 20.0977C31.6465 19.6736 31.7845 19.256 32.0571 18.9303C32.3298 18.6045 32.7165 18.3952 33.1384 18.345L33.3334 18.3333H35Z" fill="#FF6900"/>
<path d="M8.155 8.15497C8.44199 7.86801 8.82383 7.69563 9.22887 7.67016C9.63391 7.64469 10.0343 7.76789 10.355 8.01664L10.5117 8.15497L11.6783 9.32164C11.9773 9.62157 12.1508 10.024 12.1637 10.4473C12.1766 10.8705 12.028 11.2828 11.7479 11.6004C11.4679 11.918 11.0774 12.1171 10.6559 12.1573C10.2343 12.1975 9.81332 12.0757 9.47834 11.8166L9.32167 11.6783L8.155 10.5116C7.84255 10.1991 7.66703 9.77525 7.66703 9.33331C7.66703 8.89137 7.84255 8.46752 8.155 8.15497Z" fill="#FF6900"/>
<path d="M29.4883 8.15498C29.7883 7.85607 30.1907 7.68252 30.614 7.6696C31.0372 7.65668 31.4495 7.80534 31.7671 8.0854C32.0847 8.36545 32.2839 8.7559 32.324 9.17744C32.3642 9.59898 32.2424 10.02 31.9833 10.355L31.845 10.5116L30.6783 11.6783C30.3784 11.9772 29.976 12.1508 29.5527 12.1637C29.1295 12.1766 28.7172 12.028 28.3995 11.7479C28.0819 11.4678 27.8828 11.0774 27.8427 10.6559C27.8025 10.2343 27.9243 9.8133 28.1833 9.47831L28.3217 9.32165L29.4883 8.15498Z" fill="#FF6900"/>
<path d="M23.3333 30C23.7754 30 24.1993 30.1756 24.5118 30.4882C24.8244 30.8007 25 31.2246 25 31.6667C25 32.9927 24.4732 34.2645 23.5355 35.2022C22.5979 36.1399 21.3261 36.6667 20 36.6667C18.6739 36.6667 17.4021 36.1399 16.4645 35.2022C15.5268 34.2645 15 32.9927 15 31.6667C15.0001 31.2584 15.1499 30.8644 15.4212 30.5594C15.6925 30.2543 16.0662 30.0594 16.4717 30.0117L16.6667 30H23.3333Z" fill="#FF6900"/>
<path d="M20 10C22.0988 10 24.1444 10.6604 25.8471 11.8876C27.5498 13.1148 28.8231 14.8466 29.4868 16.8377C30.1505 18.8288 30.1709 20.9783 29.5451 22.9817C28.9193 24.985 27.6791 26.7407 26 28C25.7703 28.1725 25.4999 28.2828 25.215 28.32L25 28.3333H15C14.6394 28.3333 14.2885 28.2164 14 28C12.3209 26.7407 11.0807 24.985 10.4549 22.9817C9.82906 20.9783 9.84946 18.8288 10.5132 16.8377C11.1769 14.8466 12.4502 13.1148 14.1529 11.8876C15.8556 10.6604 17.9012 10 20 10Z" fill="#FF6900"/>
</g>
<defs>
<clipPath id="clip0_1_5489">
<rect width="40" height="40" fill="white"/>
</clipPath>
</defs>
</svg>
