<svg width="28" height="28" viewBox="0 0 28 28" fill="none" xmlns="http://www.w3.org/2000/svg">
<path d="M10.5002 13.9997L12.8335 16.333L18.0835 11.083M8.55622 4.45482C9.49403 4.37998 10.3843 4.01121 11.1004 3.401C12.7713 1.97701 15.229 1.97701 16.8999 3.401C17.616 4.01121 18.5063 4.37998 19.4441 4.45482C21.6326 4.62946 23.3704 6.36728 23.545 8.55574C23.6199 9.49354 23.9886 10.3838 24.5988 11.0999C26.0228 12.7709 26.0228 15.2285 24.5988 16.8995C23.9886 17.6155 23.6199 18.5058 23.545 19.4436C23.3704 21.6321 21.6326 23.3699 19.4441 23.5445C18.5063 23.6194 17.616 23.9881 16.8999 24.5983C15.229 26.0223 12.7713 26.0223 11.1004 24.5983C10.3843 23.9881 9.49403 23.6194 8.55622 23.5445C6.36776 23.3699 4.62995 21.6321 4.45531 19.4436C4.38047 18.5058 4.0117 17.6155 3.40149 16.8995C1.9775 15.2285 1.9775 12.7709 3.40149 11.0999C4.0117 10.3838 4.38047 9.49354 4.45531 8.55574C4.62995 6.36728 6.36776 4.62946 8.55622 4.45482Z" stroke="#4A5565" stroke-width="2" stroke-linecap="round" stroke-linejoin="round"/>
</svg>
