<svg width="18" height="18" viewBox="0 0 18 18" fill="none" xmlns="http://www.w3.org/2000/svg">
<path d="M15.75 10.5V12.15C15.75 13.4101 15.75 14.0402 15.5048 14.5215C15.289 14.9448 14.9448 15.289 14.5215 15.5048C14.0402 15.75 13.4101 15.75 12.15 15.75H10.5M7.5 2.25H5.85C4.58988 2.25 3.95982 2.25 3.47852 2.49524C3.05516 2.71095 2.71095 3.05516 2.49524 3.47852C2.25 3.95982 2.25 4.58988 2.25 5.85V7.5M11.25 6.75L15.75 2.25M15.75 2.25H11.25M15.75 2.25V6.75M6.75 11.25L2.25 15.75M2.25 15.75H6.75M2.25 15.75L2.25 11.25" stroke="#D1D5DC" stroke-width="1.5" stroke-linecap="round" stroke-linejoin="round"/>
</svg>
