<svg width="28" height="28" viewBox="0 0 28 28" fill="none" xmlns="http://www.w3.org/2000/svg">
<path d="M2 13.6667H25.3333M2 13.6667C2 20.11 7.22334 25.3333 13.6667 25.3333M2 13.6667C2 7.22334 7.22334 2 13.6667 2M25.3333 13.6667C25.3333 20.11 20.11 25.3333 13.6667 25.3333M25.3333 13.6667C25.3333 7.22334 20.11 2 13.6667 2M13.6667 2C16.5848 5.19474 18.2432 9.34071 18.3333 13.6667C18.2432 17.9926 16.5848 22.1386 13.6667 25.3333M13.6667 2C10.7485 5.19474 9.09012 9.34071 9 13.6667C9.09012 17.9926 10.7485 22.1386 13.6667 25.3333" stroke="#4A5565" stroke-width="2" stroke-linecap="round" stroke-linejoin="round"/>
</svg>
