<svg width="22" height="22" viewBox="0 0 22 22" fill="none" xmlns="http://www.w3.org/2000/svg">
<g clip-path="url(#clip0_1_7381)">
<path d="M11.0092 1.84338C11.7222 1.84343 12.4107 2.10314 12.9461 2.57397L13.0873 2.70688L13.7271 3.34672C13.9027 3.52117 14.132 3.6313 14.378 3.6593L14.5017 3.66663H15.4184C16.1675 3.66659 16.8882 3.95316 17.4328 4.46756C17.9774 4.98197 18.3045 5.68523 18.3471 6.43313L18.3517 6.59997V7.51663C18.3517 7.76413 18.4361 8.00522 18.5882 8.19772L18.6707 8.28938L19.3096 8.92922C19.8392 9.45579 20.148 10.1645 20.173 10.9109C20.1981 11.6573 19.9375 12.3852 19.4444 12.9461L19.3115 13.0872L18.6716 13.7271C18.4972 13.9026 18.3871 14.132 18.3591 14.3779L18.3517 14.5016V15.4183C18.3518 16.1674 18.0652 16.8882 17.5508 17.4327C17.0364 17.9773 16.3331 18.3044 15.5852 18.3471L15.4184 18.3516H14.5017C14.2546 18.3517 14.0146 18.435 13.8206 18.5881L13.729 18.6706L13.0891 19.3096C12.5626 19.8391 11.8538 20.1479 11.1074 20.173C10.361 20.198 9.63319 19.9374 9.0723 19.4443L8.93113 19.3114L8.2913 18.6716C8.11571 18.4971 7.8864 18.387 7.64047 18.359L7.51672 18.3516H6.60005C5.85094 18.3517 5.13019 18.0651 4.58561 17.5507C4.04104 17.0363 3.71391 16.333 3.6713 15.5851L3.66672 15.4183V14.5016C3.66664 14.2545 3.58333 14.0146 3.43022 13.8206L3.34772 13.7289L2.7088 13.0891C2.17923 12.5625 1.87044 11.8537 1.8454 11.1073C1.82036 10.3609 2.08096 9.6331 2.57405 9.07222L2.70697 8.93105L3.3468 8.29122C3.52125 8.11562 3.63138 7.88632 3.65939 7.64038L3.66672 7.51663V6.59997L3.6713 6.43313C3.71223 5.71396 4.01636 5.03499 4.52572 4.52563C5.03507 4.01627 5.71404 3.71215 6.43322 3.67122L6.60005 3.66663H7.51672C7.76387 3.66655 8.00379 3.58324 8.1978 3.43013L8.28947 3.34763L8.9293 2.70872C9.20186 2.43453 9.52593 2.21693 9.88288 2.06842C10.2398 1.91992 10.6226 1.84344 11.0092 1.84338ZM14.3981 8.51855C14.2262 8.3467 13.9931 8.25016 13.7501 8.25016C13.507 8.25016 13.2739 8.3467 13.102 8.51855L10.0834 11.5362L8.89813 10.3519L8.81197 10.2758C8.62773 10.1333 8.39616 10.0663 8.16432 10.0884C7.93247 10.1105 7.71773 10.22 7.5637 10.3947C7.40967 10.5694 7.3279 10.7962 7.33501 11.0289C7.34212 11.2617 7.43757 11.4831 7.60197 11.6481L9.4353 13.4814L9.52147 13.5575C9.69784 13.6943 9.91807 13.762 10.1408 13.748C10.3636 13.734 10.5736 13.6392 10.7315 13.4814L14.3981 9.81472L14.4742 9.72855C14.611 9.55218 14.6788 9.33195 14.6648 9.10918C14.6508 8.8864 14.556 8.67639 14.3981 8.51855Z" fill="#34A853"/>
</g>
<defs>
<clipPath id="clip0_1_7381">
<rect width="22" height="22" fill="white"/>
</clipPath>
</defs>
</svg>
