<svg width="18" height="18" viewBox="0 0 18 18" fill="none" xmlns="http://www.w3.org/2000/svg">
<path d="M13.3281 7.57266C13.7395 6.42656 14.9242 3.11133 14.9242 2.04961C14.9242 1.11445 14.3723 0.330469 13.3879 0.330469C11.8199 0.330469 10.4137 4.96055 9.97422 6.06445C9.63321 5.0625 8.03711 0 6.63086 0C5.5375 0 5.02422 0.805078 5.02422 1.81758C5.02422 3.05859 6.22657 6.27539 6.6625 7.51289C6.44102 7.43203 6.20196 7.36172 5.95938 7.36172C5.13672 7.36172 4.26133 8.38477 4.26133 9.21094C4.26133 9.52383 4.4336 9.96328 4.54258 10.2551C3.24532 10.6066 2.7461 11.4715 2.7461 12.7758C2.74258 15.3141 5.14727 18 8.5293 18C12.6777 18 15.2582 14.8852 15.2582 10.8668C15.2582 9.35156 15.0156 7.98398 13.3281 7.57266ZM12.0836 3.79688C12.2242 3.36445 12.8254 1.53633 13.3879 1.53633C13.6902 1.53633 13.7711 1.84922 13.7711 2.09883C13.7711 2.77031 12.4141 6.4793 12.1152 7.30195L10.9199 7.09102L12.0836 3.79688ZM6.12813 1.69805C6.12813 1.27969 6.6379 0.0914062 7.75586 3.35391L8.97227 6.88008C8.42383 6.83437 7.99844 6.77461 7.72774 6.9293C7.34454 5.9168 6.12813 2.72109 6.12813 1.69805ZM6.04727 8.57812C7.07735 8.57812 8.40625 11.9039 8.40625 12.3539C8.40625 12.5332 8.23399 12.7547 8.0336 12.7547C7.29883 12.7547 5.33008 10.0512 5.33008 9.31992C5.3336 9.04922 5.77657 8.57812 6.04727 8.57812ZM12.5266 15.1277C11.5035 16.2527 10.1957 16.8363 8.66993 16.8363C6.58165 16.8363 4.93282 15.6902 4.13829 13.732C3.53711 12.2063 4.27188 11.3309 4.8625 11.3309C5.26329 11.3309 6.77149 13.4508 6.77149 13.9008C6.77149 14.073 6.50079 14.1926 6.36016 14.1926C5.79414 14.1926 5.57266 13.6477 4.56368 12.3855C3.51954 13.4297 5.28438 15.4406 6.61329 15.4406C7.53086 15.4406 8.12852 14.5898 7.94922 13.9641C8.0793 13.9641 8.24102 13.9746 8.36055 13.943C8.39922 14.8957 8.68047 16.0312 9.82657 16.1121C9.82657 16.0805 9.89688 15.8625 9.89688 15.852C9.89688 15.2402 9.52422 14.7059 9.52422 14.0836C9.52422 13.0887 10.2871 12.1254 11.0606 11.5629C11.3418 11.352 11.6828 11.2219 12.0133 11.1023C12.3543 10.9723 12.7164 10.8211 12.9766 10.5609C12.9379 10.1672 12.7762 9.81914 12.3824 9.81914C11.4086 9.81914 8.14258 9.95977 8.14258 8.42344C8.14258 8.18789 8.1461 7.96289 8.7543 7.96289C9.88985 7.96289 12.7727 8.24414 13.6164 8.98594C14.2527 9.55195 14.4707 12.9656 12.5266 15.1277ZM9.06016 10.698C9.40118 10.807 9.75274 10.8387 10.1043 10.909C9.84415 11.0988 9.61211 11.3309 9.39063 11.5805C9.29219 11.2816 9.17266 10.9898 9.06016 10.698Z" fill="#99A1AF"/>
</svg>
