<svg width="17" height="16" viewBox="0 0 17 16" fill="none" xmlns="http://www.w3.org/2000/svg">
<path d="M6.5 14V9.06667C6.5 8.6933 6.5 8.50662 6.57266 8.36401C6.63658 8.23857 6.73857 8.13658 6.86401 8.07267C7.00661 8 7.1933 8 7.56667 8H9.43333C9.8067 8 9.99339 8 10.136 8.07267C10.2614 8.13658 10.3634 8.23857 10.4273 8.36401C10.5 8.50662 10.5 8.6933 10.5 9.06667V14M7.84513 1.84268L3.32359 5.35943C3.02135 5.59451 2.87022 5.71205 2.76135 5.85925C2.66491 5.98964 2.59307 6.13654 2.54935 6.29272C2.5 6.46903 2.5 6.66048 2.5 7.04338V11.8667C2.5 12.6134 2.5 12.9868 2.64532 13.272C2.77316 13.5229 2.97713 13.7268 3.22801 13.8547C3.51323 14 3.8866 14 4.63333 14H12.3667C13.1134 14 13.4868 14 13.772 13.8547C14.0229 13.7268 14.2268 13.5229 14.3547 13.272C14.5 12.9868 14.5 12.6134 14.5 11.8667V7.04338C14.5 6.66048 14.5 6.46903 14.4506 6.29272C14.4069 6.13654 14.3351 5.98964 14.2386 5.85925C14.1298 5.71205 13.9787 5.59451 13.6764 5.35943L9.15487 1.84268C8.92065 1.66051 8.80354 1.56943 8.67423 1.53442C8.56013 1.50352 8.43987 1.50352 8.32577 1.53442C8.19646 1.56943 8.07935 1.66051 7.84513 1.84268Z" stroke="#6A7282" stroke-width="1.25" stroke-linecap="round" stroke-linejoin="round"/>
</svg>
