<svg width="28" height="28" viewBox="0 0 28 28" fill="none" xmlns="http://www.w3.org/2000/svg">
<path d="M24.5 24.5H5.36667C4.71327 24.5 4.38657 24.5 4.13701 24.3728C3.91749 24.261 3.73901 24.0825 3.62716 23.863C3.5 23.6134 3.5 23.2867 3.5 22.6333V3.5M24.5 8.16667L18.16 14.5067C17.929 14.7377 17.8135 14.8532 17.6803 14.8965C17.5631 14.9346 17.4369 14.9346 17.3197 14.8965C17.1865 14.8532 17.071 14.7377 16.84 14.5067L14.66 12.3266C14.429 12.0956 14.3135 11.9801 14.1803 11.9368C14.0631 11.8988 13.9369 11.8988 13.8197 11.9368C13.6865 11.9801 13.571 12.0956 13.34 12.3266L8.16667 17.5M24.5 8.16667H19.8333M24.5 8.16667V12.8333" stroke="#4A5565" stroke-width="2" stroke-linecap="round" stroke-linejoin="round"/>
</svg>
