<svg width="20" height="20" viewBox="0 0 20 20" fill="none" xmlns="http://www.w3.org/2000/svg">
<g clip-path="url(#clip0_1_10465)">
<path d="M9.16699 14.5833V9.16667H9.58366L12.917 14.1667H13.3337V8.75" stroke="#4A5565" stroke-linecap="round" stroke-linejoin="round"/>
<path d="M15.8972 16.7258L6.28884 17.4649C6.14916 17.4756 6.00905 17.4509 5.88146 17.393C5.75386 17.3352 5.64291 17.2461 5.55884 17.1341L3.49967 14.3891C3.39149 14.2448 3.33301 14.0694 3.33301 13.8891V4.93826C3.33301 4.72836 3.41223 4.52619 3.55483 4.37216C3.69742 4.21813 3.8929 4.12359 4.10217 4.10742L13.593 3.37742C13.9644 3.34898 14.3347 3.4458 14.6447 3.65242L15.9238 4.50492C16.1522 4.65708 16.3394 4.86326 16.469 5.10516C16.5985 5.34706 16.6663 5.6172 16.6663 5.89159V15.8949C16.6663 16.1048 16.5871 16.307 16.4445 16.461C16.3019 16.6151 16.1065 16.7096 15.8972 16.7258Z" stroke="#4A5565" stroke-linecap="round" stroke-linejoin="round"/>
<path d="M3.75 4.58331L5.83333 6.66665" stroke="#4A5565" stroke-linecap="round" stroke-linejoin="round"/>
<path d="M16.6663 5.83325L5.83301 6.66659V17.0833" stroke="#4A5565" stroke-linecap="round" stroke-linejoin="round"/>
</g>
<defs>
<clipPath id="clip0_1_10465">
<rect width="20" height="20" fill="white"/>
</clipPath>
</defs>
</svg>
