<svg width="18" height="19" viewBox="0 0 18 19" fill="none" xmlns="http://www.w3.org/2000/svg">
<path d="M15.75 14.0545L14.9999 14.875C14.6021 15.3101 14.0626 15.5545 13.5001 15.5545C12.9376 15.5545 12.3981 15.3101 12.0003 14.875C11.6019 14.4408 11.0625 14.197 10.5001 14.197C9.93778 14.197 9.39835 14.4408 8.99998 14.875M2.25 15.5545H3.50591C3.87279 15.5545 4.05624 15.5545 4.22887 15.513C4.38192 15.4763 4.52824 15.4157 4.66245 15.3334C4.81382 15.2407 4.94354 15.1109 5.20296 14.8515L14.625 5.42946C15.2463 4.80814 15.2463 3.80078 14.625 3.17946C14.0037 2.55814 12.9963 2.55814 12.375 3.17946L2.95295 12.6015C2.69352 12.8609 2.5638 12.9907 2.47104 13.142C2.3888 13.2762 2.32819 13.4226 2.29145 13.5756C2.25 13.7482 2.25 13.9317 2.25 14.2986V15.5545Z" stroke="#FF6900" stroke-width="1.5" stroke-linecap="round" stroke-linejoin="round"/>
</svg>
