<svg width="579" height="13" viewBox="0 0 579 13" fill="none" xmlns="http://www.w3.org/2000/svg">
<path d="M13.863 1.56398C25.9689 0.771532 34.4575 1.4535 45.4694 1.49664C70.2177 1.5865 102.819 1.16629 128.139 1.06939C147.332 0.994456 166.749 0.968793 185.774 0.94988C186.753 0.948819 187.338 1.02368 187.782 1.0233C191.984 1.01938 198.914 0.930348 203.059 0.929822C211.77 0.927439 226.881 0.883479 234.852 0.94302C238.236 0.967841 241.705 0.975548 243.02 1.15621C244.256 1.1638 244.93 0.998056 245.253 0.988658C245.257 0.988816 245.26 0.988974 245.264 0.989132C246.303 0.959905 248.928 1.07228 249.507 1.06443C249.593 1.0632 249.06 0.944394 250.465 0.978849C250.59 0.981809 250.475 1.06312 251.657 1.06296C251.966 1.06284 255.92 0.934252 257.049 0.925683C260.797 0.897118 269.814 0.988994 274.306 0.986294C274.994 0.986082 275.39 0.938477 276.116 0.93745C276.491 0.936865 277.053 0.988295 277.169 0.98799C277.674 0.986026 279.882 0.751588 279.089 1.21373C281.394 1.18416 280.714 1.03153 280.767 0.932307C283.267 0.917814 284.47 1.13556 285.122 0.904993C297.511 0.933956 309.759 0.971428 322.126 1.01917C322.129 0.981577 322.133 0.943986 322.137 0.906396C325.763 1.06249 327.001 0.8109 329.062 1.03291C330.334 0.987353 331.594 0.94188 332.892 0.896606C365.765 1.11496 398.618 1.08 431.103 1.36007C432.466 1.37192 432.808 1.4548 435.04 1.47545C437.461 1.49782 441.042 1.43841 444.374 1.47297C447.294 1.50288 451.544 1.62339 454.704 1.67086C455.418 1.68141 455.933 1.63661 456.013 1.6378C456.484 1.64514 456.507 1.72562 456.962 1.73313C457.498 1.74183 458.187 1.69038 458.85 1.70184C461.323 1.74399 463.974 1.75642 464.281 1.76167C465.762 1.78777 466.083 1.87044 466.205 1.87283C467.842 1.90333 467.228 1.82471 467.635 1.83405C469.74 1.88311 471.22 2.07937 474.05 1.94891C473.972 2.01343 473.894 2.07794 473.816 2.14246C475.975 2.20948 474.551 2.01532 474.992 1.98992C475.081 1.979 480.049 2.07213 480.394 2.08092C481.693 2.11166 481.724 2.19942 481.836 2.20227C482.112 2.20911 485.351 2.16015 486.978 2.2628C488.907 2.38426 486.633 2.52469 487.111 2.56576C487.194 2.57264 489.209 2.58744 489.475 2.64748C489.772 2.71209 488.035 2.68214 488.06 2.70766C488.083 2.72504 490.956 2.89598 490.403 2.96967C489.968 3.04509 486.045 2.87434 485.194 2.90038C485.055 2.90466 485.316 3.01134 485.193 3.01316C484.758 3.01815 475.342 2.8811 474.984 2.86097C475.451 2.8208 475.909 2.78058 476.413 2.74106C475.737 2.72669 475.153 2.71372 474.526 2.70024C475.398 2.67498 476.304 2.6504 477.243 2.62649C475.78 2.22039 471.942 2.55736 471.741 2.74686C471.67 2.83463 474.093 3.09614 471.832 3.19833C472.176 3.22578 472.519 3.25325 472.862 3.28074C473.569 3.253 474.273 3.22535 474.975 3.19778C474.509 3.16761 474.041 3.13749 473.572 3.1074C473.745 3.0831 473.918 3.0588 474.091 3.03451C475.384 3.0097 476.764 2.9865 478.151 2.96391C478.86 2.99399 478.712 3.07063 479.198 3.09302C485.219 3.37536 481.305 3.07184 485.203 3.16764C485.756 3.2187 486.307 3.26982 486.856 3.32099C486.664 3.1429 488.374 3.2801 490.407 3.23881C490.163 3.29136 489.919 3.34392 489.674 3.39649C492.486 3.41183 498.911 3.81418 497.189 3.47046C497.892 3.51 498.592 3.54964 499.288 3.5894C499.878 3.54933 500.465 3.50934 501.049 3.46943C501.856 3.49074 502.657 3.51219 503.453 3.53379C503.456 3.56152 503.46 3.58926 503.463 3.61699C502.827 3.6046 502.189 3.59231 501.548 3.5801C502.028 3.67368 502.506 3.7673 502.982 3.86098C503.452 3.85622 503.92 3.8515 504.387 3.84683C502.428 3.72811 505.018 3.64924 505.637 3.55069C507.281 3.54301 508.281 3.70873 508.859 3.72746C509.143 3.73621 512.368 3.55151 511.1 3.80405C512.755 3.8062 514.386 3.80904 515.992 3.81257C516.62 3.84873 517.243 3.885 517.862 3.92137C516.515 4.01945 520.405 4.27044 517.535 4.25541C515.38 4.24471 514.834 4.11061 513.793 4.08768C512.85 4.06694 512.347 4.13788 511.307 4.1187C504.413 3.99177 499.159 3.8767 492.446 3.72377C491.213 3.69521 490.08 3.71648 489.241 3.69693C488.292 3.67475 489.484 3.59133 488.272 3.59648C486.997 3.60214 486.716 3.68184 486.377 3.67808C486.167 3.67565 485.499 3.58931 484.879 3.57956C482.343 3.53927 478.533 3.55619 478.159 3.55048C477.638 3.54104 470.61 3.37499 470.251 3.35871C470.069 3.34956 470.451 3.0751 468.871 3.35219C468.379 3.35127 467.885 3.35038 467.39 3.34953C467.471 3.29474 467.552 3.23996 467.633 3.18517C464.694 3.35915 465.71 3.25357 462.852 3.23479C455.804 3.18751 446.274 3.03795 438.575 2.98607C436.955 2.97542 436.336 3.03653 434.405 3.02394C432.617 3.01179 427.878 2.77205 428.906 3.05712C424.857 2.78396 424.187 3.19161 422.14 2.91812C421.891 2.9536 421.642 2.9891 421.393 3.0246C419.159 2.84672 418.461 2.98262 416.107 2.98479C415.086 2.98582 416.266 2.82346 414.201 2.99884C413.806 2.98185 413.411 2.96489 413.015 2.94794C413.108 2.90725 413.2 2.86656 413.292 2.82587C410.992 2.84349 410.839 2.82107 411.102 2.97757C409.989 2.94173 408.871 2.90601 407.751 2.87042C407.611 2.92028 407.472 2.97014 407.332 3.01999C407.818 3.11389 433.379 3.16237 436.768 3.15529C440.879 3.30706 449.406 3.24974 452.669 3.31388C453.995 3.33947 454.579 3.46074 456.491 3.49634C458.365 3.53148 460.973 3.45822 462.004 3.46713C465.625 3.49369 481.677 3.73864 470.73 3.73136C471.046 3.79158 471.362 3.85183 471.677 3.91209C476.057 3.78116 474.355 3.87503 478.157 3.94942C479.753 3.98072 483.472 3.91248 483.257 4.16368C480.391 4.16662 477.16 4.03816 474.715 4.00765C474.476 4.00457 471.577 4.0806 470.065 4.02913C468.7 3.98235 469.652 3.75206 466.66 3.98569C464.439 3.69137 463.131 3.91672 462.537 3.93506C461.507 3.96697 461.395 3.83438 460.361 3.80672C459.234 3.77639 458.452 3.8544 458.297 3.85316C456.782 3.8364 449.026 3.76332 448.636 3.70713C448.953 3.68719 449.27 3.66725 449.586 3.64733C447.542 3.5883 447.966 3.72707 447.427 3.7375C447.025 3.73285 446.622 3.72822 446.219 3.72361C446.379 3.69741 446.539 3.67122 446.699 3.64503C444.263 3.62617 446.134 3.74156 442.657 3.70451C440.45 3.68105 438.122 3.55305 437.949 3.55932C437.888 3.561 438.56 3.63891 437.689 3.64039C436.248 3.64267 433.735 3.61828 433.453 3.51838C432.739 3.52584 432.799 3.62175 432.704 3.62308C432.302 3.62825 425.104 3.59988 423.786 3.59567C420.14 3.58207 416.19 3.53218 412.361 3.52146C411.965 3.5203 412.218 3.46087 411.821 3.46008C411.187 3.45869 407.905 3.53251 407.41 3.53613C406.185 3.54454 402.937 3.48577 402.423 3.51049C402.35 3.51398 403.421 3.60337 402.168 3.6212C400.775 3.64096 401.525 3.53436 401.45 3.53278C398.601 3.47726 396.828 3.54429 394.946 3.5485C394.333 3.5498 393.199 3.45972 392.33 3.47968C392.23 3.48194 392.428 3.56039 392.33 3.56366C391.017 3.59701 389.784 3.44686 389.214 3.43455C387.816 3.40446 388.577 3.51443 388.504 3.5148C387.573 3.5133 386.317 3.46859 384.894 3.46653C378.514 3.45738 373.365 3.44102 366.673 3.40783C365.83 3.40371 364.828 3.32518 364.698 3.3246C364.299 3.32367 364.413 3.4119 363.256 3.40565C360.817 3.39217 358.546 3.38851 356.112 3.37881C355.622 3.37685 355.413 3.29479 355.039 3.29183C353.773 3.28253 349.602 3.48298 349.525 3.2177C347.076 3.44526 345.444 3.23849 343.464 3.23551C338.79 3.22802 331.322 3.25938 326.712 3.22082C325.731 3.21252 325.27 3.14378 324.724 3.13917C323.747 3.13054 318.129 3.15978 317.832 3.14882C317.253 3.12746 317.602 2.82863 314.625 3.0854C312.878 3.10176 313.084 2.97927 312.723 2.97221C309.901 2.91948 307.165 3.19093 307.68 2.94033C304.431 3.00532 302.319 3.14256 300.989 2.90682C301.006 3.02141 299.474 3.08902 297.623 3.0443C299.517 2.85303 299.286 2.72959 303.857 2.76841C303.929 2.76903 303.791 2.85177 303.863 2.8524C304.516 2.85853 305.876 2.81788 306.986 2.82345C308.096 2.82903 307.479 2.88507 307.923 2.88442C308.331 2.8837 308.313 2.80439 308.91 2.80388C310.842 2.80278 312.549 2.78296 313.645 2.78291C314.336 2.78294 315.108 2.85361 315.644 2.85432C317.715 2.8564 322.09 2.80855 324.707 2.82079C325.252 2.82352 325.024 2.90127 326.216 2.90988C326.355 2.91088 326.863 2.83027 327.906 2.81533C328.949 2.80038 329.756 2.84244 330.425 2.83534C330.986 2.82942 330.743 2.7565 331.902 2.75435C332.885 2.75197 343.824 2.83014 344.402 2.84397C345.252 2.8629 345.656 2.96571 346.174 2.95474C346.265 2.95233 346.419 2.85454 346.735 2.84839C351.874 2.74578 363.582 2.91887 369.499 2.94296C381.951 2.99228 393.361 2.99236 406.105 3.05199C406.331 3.03637 406.556 3.02075 406.781 3.00514C405.505 2.99612 404.225 2.98727 402.941 2.97857C402.933 2.9323 402.925 2.88603 402.917 2.83975C401.18 2.8216 401.408 2.93241 401.457 2.99866C400.813 2.9667 400.169 2.93478 399.523 2.90291C398.928 3.06028 394.746 2.92861 392.572 2.91706C391.16 2.90924 389.472 2.96166 388.723 2.95297C387.14 2.93483 387.18 2.8357 387.056 2.83346C386.845 2.8301 384.628 2.90646 383.021 2.89528C380.644 2.87897 380.389 2.72502 377.115 2.83975C372.983 2.74194 368.457 2.76311 363.978 2.75942C364.83 2.62148 360.821 2.74016 359.002 2.73182C347.995 2.67951 334.378 2.5855 323.316 2.5118C321.886 2.50237 320.804 2.41759 320.005 2.41913C319.572 2.41988 319.383 2.51757 318.781 2.50373C318.675 2.50108 318.602 2.40934 317.481 2.39395C314.702 2.35508 307.694 2.50017 305.975 2.323C296.511 2.3415 286.883 2.36555 277.414 2.39464C277.175 2.35725 276.936 2.31987 276.697 2.28249C274.891 2.47397 267.736 2.36437 264.239 2.37598C258.091 2.39599 250.274 2.46361 244.891 2.47737C243.721 2.48033 242.763 2.42738 241.657 2.43007C241.181 2.43131 240.588 2.50253 240.093 2.50363C234.529 2.51707 226.993 2.45799 221.393 2.47138C208.664 2.50144 196.709 2.52216 183.778 2.56594C140.359 2.7145 97.1002 3.03011 54.0908 3.27006C53.5061 3.27334 53.5348 3.19225 53.0824 3.19467C50.4028 3.20827 44.5071 3.3147 41.5759 3.33143C39.2686 3.34449 35.4465 3.24775 34.6075 3.37832C43.084 3.50657 51.9444 3.43259 60.7779 3.42892C61.3944 3.4287 61.4719 3.50512 61.5478 3.50604C62.9552 3.52383 62.0637 3.42354 64.11 3.40585C64.7848 3.39985 71.1568 3.60596 70.401 3.36628C71.9361 3.45425 82.7648 3.4387 84.7752 3.39517C85.4013 3.3817 84.9576 3.31185 85.0818 3.30747C85.6217 3.28838 85.8663 3.38681 86.3497 3.38663C87.636 3.38544 90.9283 3.28593 91.5575 3.28302C92.9978 3.27579 97.3464 3.33319 99.276 3.30373C101.042 3.27678 100.687 3.17439 102.183 3.15686C103.358 3.14336 102.077 3.23782 104.704 3.2505C106.004 3.25658 110.583 3.17026 111.704 3.16465C112.821 3.159 114.066 3.21516 115.613 3.20269C117.832 3.18485 122.74 3.12635 124.941 3.09603C125.074 3.09427 125.4 3.01161 125.729 3.01175C126.412 3.01195 126.207 3.1131 126.723 3.12086C127.23 3.12839 136.212 3.07527 137.756 3.0699C138.813 3.06583 139.544 3.00298 140.129 3.00097C140.589 2.99955 140.638 3.08279 141.107 3.08171C141.253 3.08109 142.488 3.00328 143.726 2.99974C144.91 2.99636 149.258 3.0473 149.773 3.04592C150.103 3.04485 149.741 2.98702 150.718 2.98446C151.609 2.98231 152.195 3.05697 152.704 3.05606C153.884 3.05385 155.204 2.98297 156.46 2.97777C160.07 2.96292 159.888 3.05915 160.104 3.0614C160.706 3.06773 160.947 2.97944 161.144 2.97689C161.979 2.96641 164.027 2.94265 164.773 2.93653C165.701 2.9289 166.095 3.0105 167.083 3.00721C167.828 3.00447 169.284 2.91827 170.948 2.90849C174.693 2.88603 179.162 2.8558 182.863 2.84716C183.967 2.8445 184.137 2.91977 184.474 2.92068C186.248 2.92552 187.243 2.83776 187.75 2.83732C191.391 2.83371 197.765 2.94853 201.117 2.951C202.477 2.95178 208.44 2.87506 211.812 2.87827C212.197 2.87851 211.836 2.93878 212.265 2.92848C213.292 2.90378 213.196 2.78301 213.717 2.78547C213.968 2.78703 214.543 2.85394 215.27 2.85909C219.051 2.88583 221.653 2.82749 223.38 2.82768C239.979 2.8295 256.866 2.84084 272.388 2.84579C274.116 2.84626 276.257 2.7736 278.86 2.8431C278.94 2.88069 279.021 2.91827 279.101 2.95586C279.192 2.9189 279.283 2.88194 279.374 2.84499C282.325 2.82467 283.423 2.77711 286.45 2.82452C286.711 2.8285 287.507 3.00026 288 2.78718C290.997 2.9423 289.353 2.78621 291.576 2.77252C293.799 2.7589 295.956 2.8075 298.105 2.8195C299.283 2.8965 294.338 3.06992 294.014 3.06934C293.494 3.06844 292.954 2.96223 292.452 2.95641C290.969 2.939 289.531 3.02275 289.198 2.92807C287.277 3.02765 289.669 2.97822 289.429 3.06826C288.147 3.03066 286.864 2.99316 285.58 2.95576C284.927 3.26185 277.888 2.86268 278.375 3.0961C277.815 3.04948 277.254 3.00288 276.693 2.95629C274.232 3.24959 272.784 3.04391 269.496 2.95837C269.733 2.99569 269.97 3.03301 270.208 3.07033C270.141 3.08595 267.238 3.14731 268.276 2.98731C265.3 3.19907 265.425 2.84952 262.754 3.10404C261.168 3.13763 262.121 2.99009 259.29 2.99494C257.613 2.99775 255.531 3.07642 253.655 3.08372C253.223 3.08515 253.035 3.00038 252.651 3.00079C252.266 3.00123 252.079 3.08475 251.613 3.08736C250.651 3.09292 249.404 3.03589 248.803 3.04225C248.264 3.04771 247.494 3.12211 246.195 3.13532C241.658 3.18213 243.028 3.0755 242.311 3.04094C241.541 3.00427 240.988 3.1433 239.453 3.12956C239.299 3.1281 239.697 3.04134 239.197 3.04548C238.793 3.04874 238.59 3.14268 237.253 3.16224C236.72 3.16986 228.454 3.20407 227.196 3.20843C225.266 3.21454 220.97 3.14391 218.976 3.1488C218.207 3.15046 217.386 3.22744 216.57 3.22874C213.872 3.23296 209.512 3.2368 206.078 3.24184C202.981 3.24613 197.556 3.09487 195.867 3.24956C191.535 3.28126 190.484 3.15656 190.152 3.15576C189.263 3.15362 188.851 3.23968 187.731 3.24703C173.251 3.33964 154.217 3.35454 140.538 3.42107C108.77 3.57465 76.7835 3.79771 44.9287 3.98028C44.8442 4.01846 44.7596 4.05663 44.6751 4.0948C48.4135 4.0935 52.8685 4.12915 56.658 4.11951C61.6101 4.10689 68.8762 3.90497 72.5731 4.13965C71.0837 4.1712 68.6727 4.08752 68.7174 4.2194C71.3599 4.21253 74.0208 4.20582 76.6992 4.19929C76.619 4.13874 76.5387 4.07818 76.4585 4.01763C79.307 3.98288 81.9961 3.98043 84.7653 3.95576C85.2426 3.95158 84.9042 3.89812 85.3201 3.89545C85.7855 3.89258 85.4703 3.95078 85.5575 3.95073C86.7345 3.94455 87.091 3.88548 87.2348 3.88548C87.6042 3.88564 87.3168 3.94157 88.383 3.95075C90.3618 3.96797 91.7862 3.8158 91.3204 4.05874C91.9618 4.05516 92.6041 4.05159 93.2473 4.04804C93.4134 3.98169 93.5796 3.91534 93.7459 3.84899C97.6937 4.0914 99.5994 3.61788 101.716 3.97427C102.424 3.91435 103.134 3.85445 103.844 3.79456C104.245 3.85788 104.646 3.9212 105.048 3.98453C105.126 3.92797 105.204 3.87141 105.282 3.81485C109.117 3.83621 113.231 3.74794 116.95 3.73611C119.54 3.7279 120.173 3.74702 122.465 3.7318C127.489 3.69836 122.497 3.83339 126.679 3.93404C126.461 3.86622 126.242 3.79839 126.024 3.73057C126.717 3.70209 127.41 3.67363 128.105 3.64518C128.588 3.69909 129.072 3.75301 129.557 3.80693C131.703 3.50581 133.1 3.73464 133.394 3.73332C133.631 3.73175 134.442 3.55271 137.001 3.68991C135.938 3.45487 138.953 3.67992 139.195 3.6803C139.424 3.68025 142.366 3.61404 143.564 3.61125C144.518 3.60891 146.482 3.65227 147.867 3.64405C149.087 3.63678 148.963 3.55592 149.052 3.55471C150.555 3.54181 149.613 3.60888 150.701 3.60757C151.789 3.60625 152.634 3.53353 152.869 3.53879C152.987 3.54162 152.592 3.619 153.133 3.62416C154.588 3.63831 157.223 3.56162 158.895 3.55721C159.488 3.55555 160.236 3.61701 160.897 3.61649C161.91 3.61546 162.384 3.52828 162.973 3.52862C163.178 3.52898 164.487 3.65604 166.117 3.62984C166.423 3.62466 167.349 3.34209 168.539 3.73341C168.631 3.67742 168.723 3.62143 168.815 3.56544C174.218 3.40848 175.733 3.8558 178.144 3.44644C182.087 3.47831 179.381 3.64352 179.814 3.66605C180.094 3.68026 181.38 3.63312 181.522 3.63512C181.772 3.63911 181.729 3.68942 182.004 3.68826C187.04 3.66298 184.804 3.57539 186.4 3.51038C190.199 3.35589 193.167 3.66421 186.555 3.589C186.555 3.61699 186.556 3.64499 186.556 3.67298C188.182 3.64115 192.316 3.64163 190.937 3.78769C189.845 3.90248 180.055 3.86004 185.6 3.99966C186.859 4.03127 187.511 3.92418 189.696 4.11462C191.142 4.121 191.344 3.86518 193.286 3.96198C192.966 3.87387 192.647 3.78577 192.328 3.69767C194.973 3.57389 198.244 3.72046 200.282 3.66513C200.975 3.64624 203.47 3.21524 202.889 3.64113C204.053 3.61151 209.547 3.67595 210.57 3.63559C210.816 3.62585 211.135 3.399 214.692 3.46975C214.938 3.49751 215.184 3.52528 215.431 3.55304C212.189 3.64262 217.914 3.71345 216.36 3.93133C215.833 3.83611 213.258 3.78318 212.841 3.73571C212.132 3.65395 214.243 3.5415 211.552 3.57711C209.857 3.9394 214.706 3.76318 213.966 4.10517C217.489 3.93835 217.838 4.08928 218.636 4.09384C222.043 4.11221 224.189 4.07184 227.407 4.10547C228.191 4.03402 222.366 3.94441 221.645 3.97619C224.299 3.72307 219.73 3.72112 217.804 3.8725C217.642 3.79798 217.48 3.72347 217.318 3.64896C219.827 3.68405 222.275 3.69982 224.761 3.63351C224.923 3.66119 225.085 3.68887 225.247 3.71655C224.689 3.75979 224.132 3.80304 223.574 3.84631C225.642 3.91125 224.401 3.69533 227.157 3.88134C227.242 3.79687 227.328 3.7124 227.413 3.62793C230.055 3.65096 232.699 3.67431 235.343 3.69799C236.719 3.52657 241.806 3.58196 240.875 3.80225C242.928 3.81475 240.393 3.70189 242.317 3.64589C243.154 3.62159 244.79 3.61289 245.195 3.67127C245.021 3.87991 242.572 3.90909 241.831 4.05331C242.282 4.09831 253.668 3.93567 252.652 4.18093C253.561 4.20928 253.143 4.08412 254.782 4.05032C259.367 3.95593 266.496 4.19914 270.199 3.88623C265.851 3.71503 264.561 3.89954 261.227 3.90936C259.107 3.915 246.145 3.95876 249.04 3.73531C248.563 3.76387 248.087 3.79244 247.611 3.82102C247.13 3.75602 246.648 3.69104 246.166 3.62607C247.523 3.61489 248.88 3.6038 250.236 3.5928C250.56 3.65786 250.884 3.72292 251.208 3.78799C251.357 3.74111 251.507 3.69423 251.656 3.64736C252.227 3.63745 252.798 3.62756 253.369 3.61769C253.208 3.67401 253.048 3.73033 252.888 3.78665C253.768 3.79532 254.648 3.80403 255.527 3.81278C255.291 3.73798 255.054 3.66318 254.817 3.58838C258.96 3.56553 257.557 3.6139 259.853 3.75226C261.569 3.76524 258.669 3.62327 262.301 3.58385C266.533 3.53841 263.759 3.76929 269.236 3.71726C269.314 3.67979 269.393 3.64232 269.472 3.60484C270.676 3.64169 271.879 3.67862 273.082 3.71562C272.923 3.66913 272.764 3.62264 272.605 3.57615C275.088 3.5932 278.505 3.50373 279.326 3.68628C276.814 3.59872 276.838 3.91765 277.491 3.97611C278.815 4.09433 298.824 3.98641 302.663 3.98372C307.578 3.97748 311.341 4.08366 315.873 3.93272C312.786 3.79918 302.035 3.89434 300.003 3.80455C299.802 3.79569 299.859 3.50341 298.561 3.83146C294.383 3.7731 289.357 3.86435 284.121 3.85454C284.28 3.7704 284.439 3.68627 284.598 3.60213C287.817 3.78128 290.806 3.3892 290.385 3.71596C291.027 3.71615 291.668 3.71636 292.308 3.71659C292.308 3.66028 292.308 3.60396 292.308 3.54765C293.275 3.548 294.24 3.54841 295.205 3.54887C295.205 3.60519 295.205 3.6615 295.205 3.71781C296.004 3.7182 296.803 3.71862 297.601 3.71908C297.684 3.66297 297.767 3.60687 297.851 3.55077C300.245 3.66841 308.365 3.36371 304.795 3.69593C305.914 3.6969 307.032 3.69795 308.149 3.69907C308.145 3.65789 308.141 3.61671 308.138 3.57553C308.614 3.57048 309.107 3.56545 309.591 3.56044C309.431 3.59754 309.271 3.63464 309.111 3.67174C311.339 3.60729 313.445 3.80606 314.903 3.67901C313.942 3.64961 312.979 3.62026 312.016 3.59098C313.864 3.64655 317.259 3.54032 317.561 3.54052C318.486 3.54127 318.974 3.62522 319.974 3.63096C320.878 3.63595 320.753 3.5718 320.922 3.57431C325.787 3.64726 323.931 3.99063 326.199 3.58463C326.44 3.64105 326.681 3.69748 326.922 3.75391C327.243 3.70778 327.564 3.66167 327.885 3.61556C329.32 3.62264 330.732 3.62982 332.183 3.63723C331.697 3.56624 331.219 3.49528 330.744 3.42434C332.893 3.39743 333.924 3.54006 334.131 3.54371C334.726 3.55317 334.998 3.4657 335.182 3.46594C344.013 3.49408 338.651 3.55907 343.049 3.90092C344.615 3.77519 343.032 3.64087 342.81 3.50821C344.891 3.57562 345.54 3.5408 347.73 3.5543C348.299 3.55791 348.911 3.63095 349.269 3.63296C349.58 3.63471 350.552 3.56185 351.296 3.5638C352.54 3.567 354.172 3.61722 355.917 3.62182C357.357 3.62531 361.748 3.58685 364.788 3.59788C366.086 3.6028 365.784 3.66501 366.119 3.66642C366.258 3.66696 367.268 3.59498 368.098 3.59798C374.801 3.6228 381.869 3.70299 388.675 3.73737C393.478 3.76176 398.249 3.72806 403.168 3.76514C404.201 3.77306 403.654 3.82531 404.104 3.83014C404.259 3.83163 404.447 3.73556 406.038 3.78495C406.613 3.80278 405.952 3.86645 406.516 3.87352C406.791 3.87694 406.91 3.79244 408.511 3.78368C411.42 3.7677 412.965 3.8924 413.223 3.89081C413.709 3.88771 413.568 3.81618 414.21 3.81824C417.332 3.82819 419.988 3.83626 422.873 3.85308C424.235 3.85997 433.351 3.92277 433.825 3.94064C434.932 3.97873 433.901 4.11669 435.319 4.12448C435.716 4.09081 436.112 4.05716 436.509 4.02352C435.88 3.98943 435.25 3.95538 434.619 3.92138C436.373 3.98449 438.263 3.93509 439.633 3.95067C439.881 3.95355 442.14 4.04204 443.283 4.04614C442.796 4.06899 442.308 4.09187 441.819 4.11478C441.992 4.14006 442.164 4.16534 442.337 4.19063C444.632 4.17733 447.039 4.20273 449.351 4.23226C450.184 4.24282 449.902 4.29716 450.744 4.30814C455.648 4.37373 454.321 4.1204 459.092 4.62325C457.397 4.56215 451.754 4.55609 450.875 4.53222C450.29 4.5154 448.003 4.11319 448.839 4.51007C444.096 4.45921 448.23 4.2875 443.772 4.28928C443.861 4.33753 443.95 4.38578 444.039 4.43403C442.478 4.44832 441.318 4.46102 440.362 4.36828C439.975 4.5941 434.849 4.41155 431.985 4.40243C427.86 4.38828 423.131 4.40593 418.929 4.38416C417.509 4.37679 416.737 4.28112 416.557 4.28007C416.301 4.27883 415.579 4.35242 415.066 4.34929C413.16 4.33737 407.28 4.164 405.797 4.37371C417.235 4.44778 428.967 4.53927 440.348 4.64842C438.901 4.52554 450.685 4.63317 451.227 4.64636C451.77 4.65705 451.312 4.72766 451.473 4.73399C452.675 4.77941 453.696 4.68119 454.075 4.68541C454.363 4.68865 454.946 4.74654 455.969 4.75703C456.156 4.759 456.209 4.70524 456.41 4.70738C457.708 4.72221 459.133 4.73961 460.517 4.75588C460.602 4.75742 460.952 4.84104 461.303 4.84541C461.655 4.84965 462.003 4.77454 462.092 4.77537C463.201 4.78939 465.089 4.8645 466.129 4.87836C466.49 4.88294 466.241 4.8216 466.645 4.82733C467.886 4.84469 467.477 4.95321 469.004 4.94387C469.514 4.94072 469.483 4.85321 470.457 4.87768C471.146 4.89507 471.07 5.04921 471.179 5.05631C471.331 5.06508 473.697 4.97483 474.461 5.08717C472.786 5.33186 476.271 5.12652 476.144 5.01179C477.128 5.05429 478.106 5.09696 479.08 5.13978C479.412 5.11603 479.744 5.0923 480.075 5.06859C483.98 5.25619 486.323 5.21572 490.029 5.31717C490.222 5.32213 493.275 5.43805 493.182 5.47695C491.285 5.51325 489.461 5.48598 488.25 5.338C486.26 5.55003 486.239 5.35448 482.982 5.33629C481.887 5.33045 481.806 5.3956 481.68 5.39452C477.299 5.36012 470.689 5.29797 467.84 5.06784C467.044 5.10987 469.9 5.16797 468.79 5.19205C468.267 5.2026 453.323 5.08599 458.101 4.91976C457.587 4.91997 457.139 4.92097 456.658 4.92165C456.183 5.12691 453.811 5.05204 454.081 4.84516C453.856 4.88562 453.63 4.92608 453.403 4.96654C452.957 4.99796 452.429 5.01162 451.685 5.0151C448.872 5.02398 431.637 4.78708 430.809 4.81361C430.788 4.86323 430.767 4.91286 430.746 4.96248C438.119 5.08245 445.745 5.03188 453.831 5.26426C453.596 5.21494 453.361 5.16562 453.125 5.11631C456.33 5.21707 459.651 5.32101 462.997 5.42759C459.407 5.46762 453.966 5.47634 450.344 5.36834C449.698 5.34903 450.172 5.28894 450.024 5.27947C449.636 5.25486 449.22 5.36338 447.819 5.35977C446.422 5.356 442.87 5.24035 442.539 5.23951C441.91 5.23795 440.202 5.35072 439.119 5.33888C437.709 5.32334 438.656 5.25222 438.375 5.24789C437.245 5.22943 436.228 5.25975 435.337 5.24575C434.017 5.22487 431.251 5.05984 430.313 5.25856C431.268 5.2762 432.221 5.29394 433.17 5.31178C428.016 5.34046 423.927 5.04291 418.702 5.20715C417.518 5.44846 421.813 5.44709 418.194 5.52658C418.826 5.52773 419.51 5.52932 420.166 5.53077C420.322 5.47955 420.477 5.42833 420.632 5.37712C421.77 5.42331 422.904 5.46964 424.034 5.51611C423.712 5.46682 423.389 5.41754 423.066 5.36828C427.084 5.3647 431.073 5.35125 432.443 5.61446C432.525 5.55446 432.606 5.49447 432.688 5.43448C436.307 5.5397 441.852 5.33576 440.825 5.66376C441.002 5.64757 441.18 5.63138 441.358 5.6152C443.62 5.7063 442.654 5.55723 443.503 5.54981C443.75 5.54757 448.104 5.66409 446.174 5.74467C450.408 5.86504 449.099 5.53608 450.261 5.53445C452.957 5.71927 457.715 5.53906 455.711 5.76341C456.105 5.77716 456.499 5.79094 456.892 5.80473C458.164 5.6249 459.562 5.8613 461.006 5.95224C461.501 5.96258 461.995 5.97296 462.487 5.98337C462.817 5.92198 463.147 5.8606 463.477 5.79925C468.076 6.16819 466.623 5.29861 468.698 6.04098C468.374 6.07955 468.049 6.11813 467.724 6.15673C466.955 6.16711 466.183 6.17757 465.408 6.18813C468.533 6.24648 471.611 6.30629 474.641 6.36761C478.567 6.62358 480.973 6.44126 485.326 6.66845C485.736 6.65589 486.144 6.64336 486.551 6.63087C486.133 6.78625 484.556 6.737 487.494 6.85705C487.743 6.97563 485.76 6.95839 484.848 6.85622C484.628 6.83131 486.499 6.77306 484.397 6.73683C482.96 6.71236 485.58 6.89009 481.255 6.77296C481.416 6.80338 481.576 6.83381 481.736 6.86424C481.266 6.85628 480.795 6.84837 480.323 6.84049C479.903 6.76944 479.483 6.69842 479.062 6.62743C477.992 6.70533 477.305 6.82616 474.91 6.76448C475.551 6.73295 474.686 6.59057 473.511 6.57651C473.51 6.62337 473.509 6.67024 473.509 6.71711C470.655 6.70814 471.644 6.58407 469.249 6.65959C469.009 6.61915 468.769 6.57873 468.529 6.53831C467.227 6.67439 462.334 6.71786 463.227 6.49883C461.851 6.70549 458.935 6.56975 457.841 6.37822C457.757 6.42379 457.671 6.46934 457.592 6.51499C457.041 6.51804 456.488 6.52113 455.934 6.52427C455.625 6.4926 455.315 6.46094 455.006 6.4293C454.612 6.45302 454.217 6.47676 453.822 6.50053C453.584 6.45117 453.346 6.40182 453.107 6.35247C452.47 6.40144 451.832 6.45047 451.191 6.49955C450.801 6.45805 450.409 6.41658 450.017 6.37513C449.979 6.47198 446.073 6.45279 444.967 6.37794C444.638 6.40295 444.31 6.42798 443.981 6.45302C443.82 6.40503 443.66 6.35705 443.5 6.30907C443.254 6.34374 443.009 6.37843 442.763 6.41312C442.198 6.37044 441.631 6.32781 441.064 6.28522C438.746 6.49034 438.653 6.29016 438.153 6.28684C437.214 6.28051 433.982 6.39357 433.436 6.38154C432.894 6.36934 432.633 6.28542 432.194 6.2739C424.938 6.08327 427.909 6.32833 426.448 6.35063C425.656 6.363 425.094 6.2823 424.391 6.28508C423.199 6.28913 417.06 6.34305 416.779 6.3315C416.282 6.31362 417.455 5.96314 415.839 6.04385C415.786 6.23616 412.319 6.01681 413.939 6.29724C412.511 6.26346 411.077 6.22989 409.637 6.19652C409.799 6.42618 408.026 6.26709 406.08 6.26713C403.338 6.26661 397.036 6.37919 397.295 6.14648C396.646 6.19656 395.997 6.24668 395.347 6.29684C390.9 6.19764 386.493 6.25186 381.994 6.23301C368.717 6.17751 354.278 6.07595 341.146 5.99706C340.511 5.99319 340.602 5.91683 340.144 5.91401C337.755 5.89944 331.417 5.93959 328.115 5.91671C327.044 5.90933 326.522 5.8337 326.182 5.82965C325.028 5.81547 325.3 5.9144 324.768 5.91065C323.93 5.90457 319.481 5.80606 317.943 5.79441C317.182 5.78858 316.282 5.86555 315.39 5.84022C315.313 5.83816 315.455 5.75774 315.39 5.75624C313.763 5.74427 314.741 5.81521 314.191 5.81085C310.255 5.77966 306.081 5.77382 301.855 5.75405C300.804 5.74903 299.194 5.69113 298.291 5.68524C297.946 5.68315 298.564 5.74466 297.373 5.7389C296.964 5.73694 296.825 5.65733 296.364 5.65193C294.376 5.62922 293.711 5.88452 292 5.67833C288.695 5.69054 282.946 5.75556 279.954 5.75743C279.244 5.75774 278.898 5.71082 278.221 5.71177C277.741 5.71241 276.896 5.78534 276.146 5.78641C275.396 5.78744 274.212 5.71847 272.769 5.72153C271.25 5.72462 269.359 5.76669 269.016 5.76662C268.602 5.76683 268.408 5.67941 267.994 5.68073C266.742 5.68418 263.387 5.77233 261.771 5.78291C260.042 5.79408 259.004 5.75255 258.413 5.75391C257.865 5.75555 257.227 5.82999 256.977 5.83087C256.588 5.83236 256.496 5.74613 256.002 5.74732C255.194 5.7495 254.362 5.8046 253.15 5.8073C231.333 5.85707 209.905 5.85573 188.705 5.8568C186.33 5.85697 184.987 5.92158 181.496 5.90516C180.081 5.89847 180.676 5.80747 179.576 5.8279C179.085 5.83712 179.21 5.90676 178.589 5.9122C175.848 5.93586 172.663 5.88175 171.48 5.88703C171.01 5.889 170.474 5.97044 169.513 5.97501C162.301 6.00952 153.73 6.02015 146.047 6.06609C141.947 6.09043 135.669 6.15828 130.981 6.18512C118.044 6.25891 104.068 6.31175 92.0911 6.38645C74.4113 6.49629 56.1724 6.68381 38.5362 6.72022C46.6599 6.85555 58.3868 6.7618 67.5165 6.72632C94.428 6.61883 123.081 6.3594 150.668 6.25217C160.232 6.21463 172.368 6.16578 182.854 6.17718C183.331 6.17763 184.32 6.11331 185.352 6.11659C185.571 6.11739 188.292 6.22064 189.21 6.21904C188.34 6.02324 191.935 6.18931 193.03 6.18141C194.421 6.17114 197.323 6.06369 200.587 6.11102C203.549 6.15386 202.732 6.2324 202.896 6.23674C203.944 6.26494 204.31 6.14101 205.113 6.12653C208.404 6.06746 225.275 6.10145 229.986 6.09872C231.203 6.09766 231.238 6.1758 231.512 6.17559C232.238 6.17484 233.272 6.09584 234.436 6.09443C236.535 6.09206 238.952 6.16214 240.107 6.16073C242.869 6.15739 248.111 6.06341 251.698 6.05788C252.707 6.05627 252.646 6.1377 253.102 6.13694C255.115 6.13327 260.342 6.03267 262.843 6.03016C266.907 6.02582 271.084 6.07629 275.204 6.04837C275.465 6.08459 275.726 6.12082 275.987 6.15705C276.399 6.11886 276.811 6.08068 277.223 6.04251C284.164 6.07008 291.304 5.98963 298.229 5.99916C299.028 6.00012 302.973 6.07239 303.629 6.0733C304.176 6.07375 304.714 5.9843 305.523 5.99826C306.657 6.01768 305.591 6.18788 307.441 6.14068C307.939 6.12793 307.457 6.05415 308.456 6.03232C308.792 6.02484 315.267 6.00273 315.611 6.00848C316.189 6.01779 316.705 6.17551 316.854 6.1791C317.63 6.1979 317.597 6.07736 318.117 6.06711C319.652 6.03639 321.653 6.12061 321.901 6.11924C324.924 6.10167 330.47 6.01579 333.676 6.07977C334.116 6.08865 334.063 6.17827 334.14 6.18135C334.639 6.20103 334.949 6.09955 335.423 6.09824C337.975 6.0923 341.955 6.17084 344.499 6.19521C344.793 6.1979 345.411 6.15043 345.934 6.15663C348.887 6.19247 347.927 6.26873 348.096 6.27256C348.493 6.28207 349.192 6.1971 350.247 6.19486C352.933 6.1883 358.247 6.21805 361.19 6.2355C363.397 6.24878 363.361 6.34836 363.507 6.35084C363.815 6.35557 364.674 6.2792 366.12 6.27574C368.9 6.26878 368.581 6.3459 369.72 6.3471C369.816 6.34749 369.651 6.27021 370.913 6.26751C373.334 6.26208 378.842 6.36176 381.508 6.37082C382.526 6.37429 382.764 6.3016 383.803 6.3053C385.453 6.31077 389.149 6.40985 389.438 6.41127C389.519 6.41171 389.702 6.32771 390.181 6.33028C390.708 6.33311 391.225 6.37963 391.617 6.38149C393.852 6.39235 397.667 6.26626 396.605 6.56336C397.312 6.49259 398.028 6.42193 398.765 6.35145C403.543 6.39487 408.133 6.39463 412.757 6.41192C413.796 6.41586 414.662 6.47949 415.535 6.48304C416.395 6.4863 420.284 6.42046 420.97 6.42415C422.165 6.42974 428.822 6.47391 429.631 6.48809C431.234 6.51469 432.778 6.65362 433.425 6.63486C433.944 6.61975 433.466 6.54485 434.454 6.53369C436.174 6.51441 439.022 6.63177 439.608 6.63602C439.838 6.63767 439.41 6.57838 441.564 6.59524C442.723 6.60426 443.341 6.67106 443.76 6.67494C443.889 6.67595 443.7 6.57551 445.972 6.61177C447.538 6.63707 448.2 6.71995 448.364 6.72193C448.609 6.72501 449.202 6.65024 450.183 6.66353C452.5 6.69511 456.555 6.83332 458.799 6.86696C459.231 6.87348 459.089 6.77385 460.81 6.80342C462.038 6.82469 461.822 6.89994 462.281 6.90863C463.007 6.92229 464.09 6.84028 465.679 6.86347C467.674 6.88828 482.393 7.19471 483.223 7.23764C483.74 7.26282 484.337 7.27325 484.591 7.31951C484.372 7.35661 484.153 7.39371 483.933 7.43081C481.663 7.2534 482.576 7.43019 481.971 7.43133C481.097 7.4327 477.753 7.3625 476.931 7.387C476.64 7.39587 477.305 7.49182 475.741 7.51405C474.158 7.53922 473.448 7.37551 472.809 7.57716C470.545 7.31246 468.334 7.53143 470.983 7.63293C472.28 7.68287 487.311 7.98807 490.106 8.05362C492.353 8.1012 497.188 8.12377 500.141 8.19648C501.916 8.23903 506.152 8.335 505.963 8.44346C507.476 8.48861 505.877 8.34436 506.195 8.33539C506.783 8.31421 511.764 8.4973 512.709 8.5164C517.43 8.60712 522.652 8.61046 527.393 8.8838C527.183 8.90792 526.973 8.93206 526.762 8.95621C525.723 8.98131 521.05 8.78114 520.613 8.91495C527.461 9.0876 533.737 9.26527 540.835 9.51381C540.874 9.38764 548.629 9.68382 549.346 9.77639C549.189 9.82906 549.033 9.88176 548.875 9.93445C544.152 9.51664 544.737 9.8409 541.555 9.56622C540.258 9.5179 540.644 9.62969 539.998 9.62573C533.472 9.59135 539.793 9.41484 534.965 9.34595C536.348 9.53162 532.581 9.46422 530.804 9.43117C530.434 9.42257 525.051 9.23593 524.363 9.22161C520.778 9.13798 514.966 9.07646 511.282 8.91895C508.36 8.8459 506.976 8.91849 504.498 8.89191C502.622 8.87225 503.159 8.81197 502.27 8.79366C500.398 8.75532 499.767 8.96001 498.554 8.6355C497.262 8.64907 495.958 8.663 494.641 8.67728C494.642 8.63041 494.643 8.58354 494.644 8.53668C493.831 8.52228 492.938 8.50671 492.193 8.4939C491.963 8.53667 491.734 8.57946 491.504 8.62225C489.027 8.51631 490.061 8.42105 489.599 8.28053C489.061 8.26244 488.521 8.24441 487.979 8.22643C487.557 8.32144 487.135 8.41648 486.711 8.51156C484.278 8.46405 481.808 8.41765 479.302 8.37232C479.141 8.32322 478.979 8.27413 478.818 8.22503C478.812 8.27166 478.806 8.31829 478.8 8.36492C474.416 8.31024 470.598 8.2679 466.37 8.2234C465.272 8.2838 471.905 8.42717 472.382 8.43904C475 8.49809 482.758 8.53809 482.708 8.70493C484.482 8.60723 489.678 8.72219 491.248 8.89869C488.838 8.84875 486.389 8.79995 483.904 8.75225C483.983 8.80932 484.063 8.86639 484.142 8.92347C481.043 8.65025 480.584 8.65572 477.326 8.82102C477.324 8.74611 477.322 8.67121 477.32 8.59631C474.985 8.82261 471.281 8.33055 471.13 8.65011C469.967 8.6084 468.798 8.56691 467.621 8.52563C465.052 8.53277 469.105 8.82754 458.957 8.60814C458.258 8.59318 458.382 8.51272 457.354 8.50644C457.062 8.50483 455.404 8.6044 452.175 8.55667C451.671 8.54919 451.634 8.47775 451.109 8.46307C449.9 8.4285 447.466 8.54356 448.572 8.3262C443.726 8.20921 445.728 8.41807 444.217 8.47739C443.206 8.51686 443.411 8.38345 442.533 8.40552C441.452 8.43319 442.221 8.57654 437.897 8.47295C438.363 8.46803 438.85 8.46333 439.345 8.45874C439.098 8.41929 438.85 8.37984 438.603 8.3404C436.201 8.40698 436.428 8.27915 435.29 8.47729C433.537 8.36843 432.014 8.34748 429.586 8.34368C424.853 8.33704 427.293 8.58153 421.841 8.2356C420.954 8.27116 420.065 8.30681 419.174 8.34254C417.714 8.24223 418.892 8.13923 416.774 8.10099C418.426 8.33378 413.969 8.22061 413.204 8.41213C413.125 8.3647 413.046 8.31726 412.967 8.26983C412.492 8.26648 412.016 8.26316 411.54 8.25985C411.538 8.29744 411.537 8.33502 411.535 8.37261C410.901 8.34006 410.266 8.30754 409.63 8.27507C409.151 8.30909 408.671 8.34314 408.191 8.37721C407.403 8.29334 406.613 8.20953 405.822 8.12579C405.325 8.11719 404.827 8.10862 404.328 8.10007C404.486 8.15707 404.643 8.21406 404.8 8.27106C404.16 8.24824 403.519 8.22546 402.877 8.20272C403.623 8.2993 403.156 8.40396 401.152 8.3888C399.495 8.37649 401.367 8.19588 397.795 8.25437C397.548 8.25867 397.13 8.39265 393.842 8.39522C389.89 8.39866 391.809 8.31031 391.104 8.30299C390.966 8.30167 389.755 8.36394 388.617 8.36785C387.972 8.37007 387.349 8.3113 387.264 8.311C386.865 8.31148 386.748 8.38949 386.195 8.38951C384.789 8.3891 382.896 8.34125 381.51 8.33856C380.88 8.33724 380.286 8.38102 380.004 8.38026C379.568 8.37875 379.013 8.30505 378.57 8.3033C376.919 8.29715 374.49 8.5225 373.751 8.19153C372.214 8.48627 368.978 8.10864 369.214 8.3118C365.103 8.21787 353.942 8.42804 354.26 8.08998C351.926 8.37305 352.137 8.16345 351.159 8.16483C350.066 8.16633 350.632 8.22436 349.763 8.21925C347.732 8.20734 345.786 8.1777 343.753 8.1712C344.072 8.1255 344.391 8.0798 344.71 8.03411C342.577 8.0135 343.312 8.12374 341.132 8.13906C337.116 8.1672 338.807 8.08501 338.215 7.96154C338.376 8.0796 333.625 8.05052 333.138 8.03413C332.85 8.0241 334.111 7.87484 331.203 7.91781C331.361 7.96484 331.516 8.01187 331.677 8.05891C330.365 7.99224 326.809 8.06657 326.202 8.04984C325.925 8.04201 324.439 7.66265 323.075 7.9585C322.911 7.91152 322.746 7.86454 322.582 7.81756C321.068 7.87124 319.551 7.92506 318.033 7.97904C317.79 7.89455 317.548 7.81006 317.306 7.72558C316.824 7.7249 316.341 7.72425 315.859 7.7236C316.179 7.79873 316.499 7.87387 316.819 7.94902C313.842 7.91104 310.19 8.02478 309.574 7.77221C308.932 7.81823 308.293 7.86429 307.661 7.91038C307.25 7.82615 306.837 7.74194 306.425 7.65773C303.491 7.67621 303.441 7.73228 301.431 7.82008C301.509 7.75471 301.588 7.68934 301.667 7.62397C300.184 7.71472 297.474 7.79851 295.327 7.80906C294.306 7.81387 292.552 7.72302 292.311 7.73112C292.068 7.73962 289.67 8.0931 289.41 7.78637C285.875 7.92136 284.323 7.78269 282.901 7.78603C281.976 7.7883 281.553 7.86193 280.507 7.86961C279.01 7.88072 277.501 7.84542 276.636 7.85069C276.141 7.8539 276.049 7.92572 275.708 7.92806C274.094 7.93947 275.039 7.86582 273.337 7.87117C273.18 7.87205 271.936 7.96005 270.533 7.94943C269.748 7.94354 267.717 7.84609 267.538 7.84644C266.743 7.8486 267.379 8.04507 264.661 7.81938C264.74 7.85676 264.819 7.89414 264.897 7.93153C261.532 8.02874 261.004 7.8624 260.327 7.85136C260.24 7.85047 259.424 7.91566 258.935 7.9072C258.11 7.89271 257.777 7.80468 257.594 7.80096C256.95 7.78799 254.781 7.8289 253.362 7.74501C253.661 7.996 248.69 8.09089 247.587 7.80775C246.707 7.86498 245.827 7.92226 244.946 7.97958C244.548 7.93323 244.15 7.88689 243.752 7.84056C243.509 7.8876 243.267 7.93464 243.025 7.98169C241.742 7.8806 240.458 7.7796 239.175 7.67868C239.094 7.78182 239.012 7.88497 238.93 7.98812C238.571 7.97694 238.212 7.96578 237.852 7.95462C237.572 7.87319 237.291 7.79176 237.01 7.71034C236.561 7.72667 236.112 7.74301 235.663 7.75937C235.552 7.81879 235.441 7.87821 235.33 7.93764C232.915 8.00996 234.155 7.44264 229.556 7.94758C228.841 7.90217 228.125 7.85678 227.41 7.81141C226.602 8.04026 225.088 7.90551 223.867 7.9335C223.006 7.95325 223.053 8.04346 221.881 8.04786C220.708 8.05224 220.75 7.9658 220.658 7.96543C219.702 7.96211 218.982 8.0398 218.281 8.02613C218.175 8.02411 217.91 7.92211 217.017 7.91756C216.123 7.91305 215.586 8.02332 214.254 8.00577C213.569 7.99691 213.371 7.91095 212.764 7.90471C209.871 7.87423 206.962 8.31901 204.795 7.80552C204.306 7.87249 200.768 8.11192 199.255 8.10284C196.903 8.08814 197.809 7.98386 196.874 7.9678C196.74 7.96537 196.023 8.00171 194.052 8.00117C193.7 8.00106 193.782 8.05831 193.731 8.05922C191.448 8.06459 186.941 8.03273 184.408 8.03257C184.182 8.03244 182.996 8.19637 180.988 7.98732C178.012 8.15606 172.421 7.83288 168.526 8.08687C167.987 8.09386 167.325 8.03893 167.082 8.04176C164.996 8.06713 165.757 8.23818 161.053 8.00105C161.434 8.08836 160.334 8.17259 158.783 8.17179C156.451 8.17063 158.106 7.99874 156.234 8.01954C156.234 8.06626 156.235 8.11297 156.235 8.15968C151.933 8.05093 151.08 8.25408 146.787 8.27293C145.255 8.27955 142.937 8.18586 142.564 8.18718C142.419 8.18809 140.708 8.30805 140.545 8.3096C139.626 8.31696 139.107 8.26729 138.315 8.27047C135.696 8.28079 132.587 8.44134 133.149 8.17281C132.432 8.23219 131.717 8.29158 131.002 8.351C128.298 8.07927 126.29 8.48023 125.725 8.20698C125.245 8.2662 124.765 8.32544 124.285 8.38467C112.556 8.41146 101.144 8.4418 89.3839 8.47921C88.9178 8.57052 83.8746 8.56782 83.6216 8.55556C82.4397 8.49984 83.6844 8.299 81.2778 8.35727C81.0122 8.44362 80.7467 8.52997 80.4814 8.61632C77.4693 8.66166 78.9116 8.5688 77.6956 8.51851C77.1832 8.53201 77.3489 8.59683 76.6561 8.60574C72.8873 8.65425 65.2771 8.70423 61.2911 8.73516C60.485 8.74143 60.6065 8.67914 60.3564 8.68058C59.6553 8.68563 58.3611 8.77145 56.9042 8.78095C48.0468 8.83754 36.0347 8.87661 27.1864 8.8767C26.5968 8.87651 26.5236 8.80368 26.1267 8.80294C25.5762 8.80222 24.3522 8.87058 23.7781 8.86865C23.2369 8.86704 22.8904 8.81389 22.3135 8.8117C19.7377 8.80048 16.0022 8.92304 13.1058 8.78127C12.8579 8.76929 9.833 8.49758 9.7683 8.47875C9.37082 8.36692 12.0313 8.16523 7.6556 8.03158C11.5707 7.85386 10.3169 7.60392 5.27879 7.51735C7.79652 7.46444 10.3473 7.41159 12.9297 7.35881C12.9332 7.32802 12.9366 7.29723 12.9401 7.26644C10.59 7.13227 8.27151 7.0997 4.78899 7.11357C4.89727 7.08421 5.00561 7.05486 5.11402 7.02551C8.18574 6.8585 11.9678 6.80252 14.3854 6.58972C10.8414 6.47337 7.35598 6.35717 3.93247 6.24107C4.10322 6.21723 4.27413 6.19339 4.4452 6.16955C6.08225 6.09798 9.71683 6.03492 11.1179 5.96962C16.4539 5.72051 6.45752 5.85096 8.10659 5.7116C13.6579 5.67213 19.5133 5.63193 24.944 5.59634C25.2813 5.49898 3.46097 5.41011 3.82828 5.12765C5.5543 5.09484 7.2961 5.06206 9.05325 5.0293C8.26946 4.96404 7.48872 4.89878 6.71105 4.83353C6.92499 4.8092 7.13917 4.78487 7.35357 4.76054C10.3012 4.68161 13.2929 4.60275 16.3266 4.52401C7.12308 4.65054 3.10774 4.64349 0.987397 4.09797C1.22496 4.08171 1.46284 4.06545 1.70103 4.04919C3.57613 4.38561 12.7247 4.19881 17.8006 4.09039C16.7653 3.99508 12.3757 4.10861 11.4645 4.05382C11.2039 4.03808 12.1116 3.95942 11.5079 3.9275C9.90872 3.84454 3.3093 3.77474 4.2732 3.65043C4.84064 3.57044 15.5921 3.38297 17.7951 3.37461C12.7526 3.27829 7.67716 3.27921 2.86207 3.1545C5.90727 2.90164 8.60469 2.60049 14.3586 2.54354C16.0729 2.41011 4.02467 2.3388 3.8096 2.27574C5.84836 2.18914 7.90915 2.10257 9.99127 2.01605C8.22984 2.04862 6.48366 2.08122 4.75315 2.11385C4.7479 2.09045 4.74265 2.06706 4.73739 2.04366C9.22346 1.89886 13.407 1.66637 18.7705 1.63917C18.5936 1.51649 15.3935 1.55321 13.863 1.56398ZM513.427 9.25097C513.533 9.35613 511.587 9.29552 510.47 9.26949C510.637 9.29183 510.804 9.31418 510.97 9.33654C508.468 9.26177 504.48 9.14147 504.273 9.33718C502.66 9.32988 503.375 9.17062 502.854 9.14058C502.651 9.12863 500.528 9.18817 498.799 9.03318C498.388 9.026 497.976 9.01887 497.563 9.01177C497.482 9.07572 497.401 9.13967 497.32 9.20362C496.745 9.11365 496.167 9.02374 495.587 8.93391C501.775 9.03136 507.11 9.12285 513.418 9.25077C513.421 9.25084 513.424 9.2509 513.427 9.25097ZM454.283 8.38903C452.164 8.32824 448.868 8.23503 449.531 8.42129C450.891 8.42626 452.243 8.43148 453.587 8.43695C453.819 8.42096 454.051 8.40499 454.283 8.38903ZM239.427 7.51082C237.622 7.33713 235.96 7.4923 233.169 7.46518C233.172 7.50244 233.176 7.53971 233.18 7.57697C234.321 7.48551 237.339 7.54012 239.427 7.51082ZM566.808 10.6357C567.24 10.6818 567.661 10.7281 568.071 10.7746C566.383 10.8435 565.918 10.6695 564.314 10.5801C564.211 10.5745 564.244 10.6226 564.208 10.6205C563.792 10.596 563.404 10.5155 563.015 10.4917C562.26 10.4459 561.643 10.463 560.219 10.3789C559.109 10.314 559.092 10.2258 558.693 10.2061C558.18 10.1791 555.343 10.2725 553.3 10.0742C551.381 9.88779 554.501 9.96124 558.071 10.1184C562.296 10.3075 565.87 10.5541 566.808 10.6357ZM577.833 12.1122C577.555 12.0412 577.183 11.961 576.733 11.8796C577.408 11.9408 577.022 11.8302 576.385 11.709C575.92 11.6171 575.073 11.4963 574.217 11.3917C574.248 11.3306 575.187 11.4265 576.054 11.5585C576.363 11.602 577.238 11.7547 577.687 11.8632C578.169 11.9743 578.404 12.0634 578.428 12.0651C578.371 12.1192 578.152 12.1167 577.833 12.1122ZM530.05 8.88941C531.541 8.91968 531.283 9.0743 531.221 9.1206C530.75 9.10666 530.277 9.0928 529.8 9.07903C529.883 9.01582 529.967 8.95262 530.05 8.88941ZM541.322 9.19489C540.87 9.28797 537.49 9.21976 535.882 9.17826C535.818 9.17625 536.223 9.12873 535.188 9.10139C534.888 9.09296 531.758 9.21673 532.451 8.98886C535.221 9.0443 538.335 9.11672 541.317 9.19473C541.318 9.19478 541.32 9.19483 541.322 9.19489ZM544.567 9.37916C543.971 9.39106 543.369 9.40313 542.761 9.41538C542.449 9.35233 542.135 9.28933 541.82 9.22637C542.519 9.23846 543.21 9.25077 543.892 9.2633C544.118 9.30189 544.343 9.34051 544.567 9.37916ZM82.765 7.22802C82.9067 7.28237 83.0485 7.33672 83.1903 7.39108C83.7372 7.4217 86.4091 7.16612 85.5625 7.12448C84.6281 7.15897 83.6955 7.19348 82.765 7.22802ZM71.376 7.1801C70.8134 7.1557 70.2516 7.13131 69.6907 7.10693C69.0464 7.20447 68.4032 7.30203 67.7611 7.3996C70.5517 7.44539 73.5535 7.49997 73.0682 7.22694C73.7131 7.22303 74.359 7.21914 75.006 7.21525C74.4624 7.33263 74.5341 7.36976 76.2304 7.43203C76.5889 7.27111 78.3965 7.34121 80.3212 7.29502C78.917 7.29398 77.44 7.29345 75.9812 7.2929C75.981 7.2649 75.9808 7.23691 75.9807 7.20892C79.24 7.19961 75.183 7.04613 73.0767 7.17025C72.9103 7.13398 72.7439 7.09772 72.5775 7.06146C72.1766 7.101 71.7761 7.14055 71.376 7.1801ZM303.596 6.5591C303.199 6.53061 302.802 6.50214 302.405 6.47368C300.866 6.83926 304.001 6.49365 306.226 6.78599C305.494 6.56481 308.875 6.57727 309.084 6.56274C308.688 6.48811 308.296 6.41349 307.907 6.33889C306.472 6.41216 305.035 6.48557 303.596 6.5591ZM292.316 6.29952C293.702 6.48282 286.897 6.49184 284.618 6.45166C284.066 6.4417 283.083 6.34126 282.685 6.35394C282.444 6.39105 282.202 6.42816 281.961 6.46528C281.676 6.33696 277.241 6.48161 275.491 6.55121C275.326 6.50454 275.162 6.45788 274.997 6.41121C274.359 6.42995 273.721 6.44871 273.083 6.46749C273.163 6.42092 273.243 6.37434 273.323 6.32776C272.841 6.38392 272.358 6.44009 271.875 6.49627C269.979 6.55934 271.148 6.30507 269.723 6.38491C268.139 6.4736 270.735 6.62346 270.687 6.72186C271.972 6.69589 274.893 6.6381 276.195 6.63501C276.942 6.63335 276.096 6.80962 279.317 6.6066C280.023 6.6537 280.729 6.70084 281.435 6.748C282.73 6.67291 284.023 6.59791 285.318 6.523C285.562 6.58829 285.805 6.65358 286.048 6.71888C286.188 6.72907 289.201 6.58144 289.04 6.53241C290.26 6.65746 292.764 6.68042 295.396 6.68803C295.649 6.65267 295.902 6.61732 296.156 6.58197C293.61 6.65734 295.346 6.54403 294.587 6.47574C294.149 6.43636 292.808 6.35887 292.316 6.29952ZM100.53 6.98591C96.2255 7.16829 98.8814 7.02249 94.228 7.04794C94.5531 7.13046 94.8783 7.21298 95.2038 7.29551C97.4901 7.12888 101.279 7.21105 100.534 6.98589C100.533 6.98589 100.531 6.9859 100.53 6.98591ZM55.3194 7.53444C57.785 7.46738 56.6185 7.3438 59.6494 7.28229C59.6508 7.28228 59.6523 7.28228 59.6537 7.28227C58.1029 7.28277 56.4454 7.28407 54.8246 7.28524C54.9895 7.3683 55.1544 7.45137 55.3194 7.53444ZM198.147 6.76655C200.487 6.7968 200.026 6.73244 202.151 6.85782C205.316 6.69062 202.637 6.72007 202.636 6.57579C201.913 6.62 201.19 6.66424 200.467 6.70849C198.714 6.57829 200.376 6.50588 200.376 6.49292C200.375 6.49293 200.373 6.49293 200.372 6.49294C200.372 6.44963 200.428 6.44035 199.756 6.41598C199.219 6.53283 198.683 6.64969 198.147 6.76655ZM208.173 6.56222C207.369 6.66002 207.007 6.7839 209.122 6.84016C209.124 6.84016 209.125 6.84015 209.127 6.84015C209.296 6.62559 211.325 6.79355 212.25 6.77704C212.493 6.7532 212.735 6.72936 212.978 6.70552C211.376 6.65764 209.774 6.60987 208.173 6.56222ZM243.509 6.29748C243.518 6.53403 241.745 6.55895 244.24 6.77352C244.725 6.76864 245.209 6.76377 245.693 6.75891C246.011 6.70658 246.329 6.65425 246.647 6.60193C252.791 7.02268 254.622 6.29115 244.24 6.57675C244.239 6.57692 244.237 6.57708 244.236 6.57725C243.993 6.48399 243.751 6.39073 243.509 6.29748ZM232.685 6.3342C232.607 6.45852 232.53 6.58283 232.452 6.70715C231.094 6.40993 229.341 6.69882 226.681 6.49252C226.44 6.53073 226.2 6.56895 225.959 6.60718C224.963 6.52561 215.206 6.52233 217.321 6.70892C218.243 6.7903 220.253 6.67275 220.426 6.67493C221.013 6.68307 221.777 6.78817 222.768 6.77997C223.34 6.77508 224.546 6.64727 225.714 6.64524C228.326 6.6407 233.095 6.9688 236.532 6.64472C236.779 6.68176 237.027 6.7188 237.274 6.75585C239.824 6.72906 238.972 6.61174 241.345 6.74972C242.983 6.15715 231.808 6.79361 234.134 6.31173C234.133 6.31173 234.131 6.31173 234.13 6.31174C233.648 6.31921 233.167 6.3267 232.685 6.3342ZM162.501 6.70413C162.346 6.59876 159.381 6.77341 160.077 6.51698C159.11 6.60904 158.144 6.70112 157.179 6.79324C157.187 6.81681 157.194 6.84038 157.202 6.86395C158.161 6.84168 159.121 6.81944 160.083 6.79723C160.087 6.83465 160.09 6.87207 160.094 6.90949C161.523 6.7685 167.52 6.80548 167.34 6.93881C167.662 6.88166 167.978 6.82453 168.295 6.76741C171.132 6.90973 173.576 6.73913 176.68 6.87751C176.92 6.83032 177.16 6.78313 177.401 6.73594C177.557 6.77285 177.714 6.80976 177.871 6.84668C179.002 6.84764 180.134 6.84866 181.267 6.84973C184.959 6.68712 177.784 6.51508 176.919 6.54029C176.804 6.54377 176.822 6.64062 176.102 6.65826C174.809 6.68916 167.707 6.61745 165.446 6.68983C165.426 6.62561 165.407 6.5614 165.387 6.49718C164.425 6.56613 163.463 6.63512 162.501 6.70413ZM257.213 6.53474C257.375 6.60002 257.537 6.6653 257.699 6.73058C260.491 6.66274 262.247 6.71865 261.531 6.50279C261.53 6.5028 261.528 6.5028 261.527 6.5028C260.09 6.51334 258.652 6.52398 257.213 6.53474ZM464.926 7.47509C464.853 7.34412 463.512 7.27856 461.758 7.35053C461.842 7.38931 461.926 7.42809 462.01 7.46687C462.922 7.36729 464.064 7.57401 466.842 7.5839C466.843 7.51848 466.843 7.45305 466.844 7.38763C466.207 7.41672 465.567 7.44587 464.926 7.47509ZM254.804 6.50872C253.953 6.43239 251.564 6.66899 253.136 6.67888C254.338 6.68634 255.261 6.54969 254.804 6.50872ZM45.6551 7.47238C46.2835 7.48178 46.9133 7.49119 47.5444 7.5006C47.8727 7.44273 48.2014 7.38485 48.5305 7.32698C48.529 7.32698 48.5275 7.32699 48.526 7.327C47.566 7.37545 46.609 7.4239 45.6551 7.47238ZM190.154 6.80019C192.302 6.78566 194.427 6.77139 196.567 6.75726C196.588 6.72091 196.609 6.68456 196.63 6.6482C194.489 6.78665 193.629 6.64641 193.131 6.63911C193.133 6.63911 193.135 6.6391 193.137 6.63909C191.539 6.61498 190.004 6.59838 188.477 6.55962C189.036 6.6398 189.595 6.71999 190.154 6.80019ZM182.789 6.59388C183.152 6.8492 183.622 6.87744 186.922 6.68692C186.791 6.65574 186.66 6.62457 186.529 6.5934C184.819 6.61754 183.823 6.67992 184.123 6.54523C183.678 6.56144 183.233 6.57765 182.789 6.59388ZM216.346 6.5851C215.953 6.50429 212.818 6.59342 212.987 6.63421C213.058 6.65033 217.116 6.74342 216.346 6.5851ZM488.684 7.7609C487.975 7.7305 487.263 7.70019 486.548 7.66997C487.5 7.65745 488.446 7.64508 489.387 7.63289C489.153 7.67555 488.919 7.71822 488.684 7.7609ZM496.615 7.53331C497.136 7.5756 495.437 7.77481 498.557 7.89179C496.32 7.85504 493.905 7.81699 491.734 7.78478C492.719 7.76434 493.849 7.74672 494.921 7.72852C494.734 7.65894 494.547 7.58936 494.359 7.5198C495.115 7.52419 495.867 7.52869 496.615 7.53331ZM499.05 7.74716C497.853 7.54875 504.202 7.65694 504.754 7.69079C504.883 7.69847 505.493 7.84367 505.717 7.87681C504.783 7.85794 503.841 7.83928 502.893 7.82082C503.21 7.86887 503.525 7.91694 503.84 7.96504C502.736 7.95741 501.621 7.95005 500.498 7.94296C500.979 7.91013 501.458 7.87735 501.936 7.84462C500.981 7.81193 500.019 7.77944 499.05 7.74716ZM473.499 7.37816C474.286 7.39344 475.061 7.40869 475.849 7.42428C475.685 7.35651 475.537 7.28898 475.38 7.22134C474.914 7.21474 474.446 7.20818 473.977 7.20166C473.818 7.26049 473.659 7.31932 473.499 7.37816ZM489.875 7.54287C488.73 7.83868 485.601 7.09883 489.259 7.41394C489.626 7.44597 489.984 7.51424 489.875 7.54287ZM507.069 7.77567C509.478 7.59639 508.931 8.09185 506.656 7.89606C506.542 7.88579 506.888 7.78887 507.069 7.77567ZM525.829 8.21271C526.035 8.22014 526.407 8.39381 528.367 8.29269C528.688 8.32049 529.008 8.34832 529.327 8.37619C528.628 8.42987 521.987 8.29751 522.918 8.16048C523.92 8.18394 524.791 8.17952 525.829 8.21271ZM519.681 7.44608C518.748 7.42759 517.805 7.40934 516.853 7.39134C517.166 7.45019 517.477 7.50907 517.788 7.56798C517.322 7.5708 516.855 7.57368 516.385 7.57662C515.585 7.46904 514.778 7.36164 513.965 7.25441C516.072 7.28821 518.138 7.32316 520.161 7.3593C520.001 7.38822 519.841 7.41715 519.681 7.44608ZM494.169 6.78736C496.068 6.88539 498.38 6.8583 501.364 6.92669C501.366 6.92688 501.367 6.92707 501.369 6.92727C501.518 6.93088 501.78 7.0066 502.257 7.01869C502.708 7.02771 510.513 7.11128 510.016 7.22214C506.782 7.26017 505.8 7.07803 505.025 7.32851C504.877 7.26936 504.729 7.21022 504.581 7.15108C501.628 6.99493 500.755 7.17322 499.056 7.21252C499.063 7.17033 499.071 7.12815 499.078 7.08596C497.941 7.06046 496.795 7.03524 495.639 7.01028C495.802 7.04103 495.964 7.07179 496.126 7.10254C495.718 7.09519 495.309 7.08786 494.899 7.08057C493.902 6.93744 492.625 6.88599 494.169 6.78736ZM523.936 7.62439C524.983 7.32777 533.52 7.78596 537.403 7.85205C535.172 7.97154 532.299 7.74976 529.993 7.68122C525.605 7.55257 528.635 7.75722 527.889 7.78785C527.523 7.80294 524.99 7.52767 523.936 7.62439ZM487.52 6.731C489.663 6.79189 490.85 6.73801 492.666 6.88713C492.514 6.90793 492.361 6.92874 492.209 6.94955C491.601 6.91693 486.445 6.76415 487.52 6.731ZM543.279 8.14113C539.097 7.87438 541.151 8.2396 538.926 7.94452C540.414 7.98115 541.866 8.0187 543.282 8.05721C543.281 8.08518 543.28 8.11316 543.279 8.14113ZM249.998 5.3064C248.228 5.3011 246.251 5.24503 245.193 5.36751C246.396 5.38465 247.598 5.40186 248.801 5.41914C249.2 5.38155 249.599 5.34397 249.998 5.3064ZM300.479 4.11004C300.076 4.08072 298.48 4.16537 298.311 4.16528C297.999 4.16509 298.084 4.12295 298.08 4.11192C296.033 4.1184 297.921 4.25034 296.406 4.27797C296.148 4.28248 292.585 4.21613 291.133 4.22106C288.901 4.2285 286.667 4.21969 285.831 4.22186C284.421 4.22536 281.829 4.32344 279.522 4.32881C278.572 4.33085 278.24 4.25231 277.284 4.25447C271.152 4.26829 259.026 4.38421 253.59 4.34058C252.244 4.32958 250.96 4.22809 250.248 4.2373C249.687 4.27554 249.125 4.3138 248.563 4.35207C246.836 4.01573 246.258 4.31747 244.396 4.35151C243.213 4.37305 242.66 4.27356 242.501 4.27403C241.447 4.27749 240.927 4.32598 240.1 4.33511C239.171 4.34521 237.837 4.30204 237.504 4.31073C237.301 4.31656 237.952 4.44868 234.348 4.45205C230.674 4.45553 227.049 4.4481 223.317 4.44934C224.563 4.84923 225.634 4.57174 227.158 4.55417C227.567 4.54945 227.308 4.61383 227.664 4.61034C228.67 4.60083 230.595 4.53458 231.427 4.54835C232.326 4.56319 232.019 4.71179 233.159 4.65522C233.217 4.6523 233.035 4.59146 233.303 4.58076C235.998 4.47507 236.881 4.57997 240.288 4.57799C242.547 4.57605 256.252 4.49946 256.72 4.53965C259.173 4.75098 244.736 4.76785 243.045 4.75422C242.454 4.7491 243.073 4.68071 242.535 4.66851C242.306 4.66364 240.253 4.79528 238.223 4.80912C235.768 4.82576 230.835 4.74631 228.497 4.75381C208.431 4.81768 188.526 4.79505 168.514 4.86482C168.089 4.86634 167.527 4.94548 166.121 4.95059C140.108 5.04369 113.062 5.10939 86.6861 5.2963C81.0021 5.33662 75.2599 5.44315 69.4236 5.42158C68.7026 5.48233 67.983 5.54309 67.2648 5.60387C69.0996 5.54765 72.4934 5.65433 72.8049 5.65434C72.9165 5.65422 73.6192 5.58645 74.7573 5.58298C76.3582 5.57786 77.0647 5.62874 77.1963 5.62796C77.6051 5.6257 77.3368 5.56873 77.7274 5.56669C80.6116 5.55213 82.7605 5.52299 85.3864 5.50735C88.3432 5.48986 89.8529 5.59048 92.0239 5.45861C92.2701 5.50395 92.5165 5.54929 92.7631 5.59464C94.4001 5.38326 104.064 5.35341 107.916 5.34461C109.143 5.3417 108.929 5.42485 109.341 5.42273C109.606 5.4213 109.497 5.31433 112.721 5.31915C114.346 5.32169 114.774 5.39783 115.591 5.39124C116.035 5.38754 115.962 5.3103 116.6 5.30714C120.301 5.2889 123.318 5.29961 126.872 5.29737C127.876 5.29663 127.888 5.36136 128.113 5.35947C128.941 5.35273 130.382 5.23637 132.495 5.22709C135.963 5.21179 142.972 5.18179 145.814 5.22333C146.229 5.22949 146.574 5.30576 146.88 5.30337C147.342 5.29946 147.524 5.21764 147.605 5.21687C149.155 5.20908 148.223 5.2883 149.261 5.26573C149.821 5.25357 150.404 5.15872 151.708 5.14302C153.43 5.1223 153.092 5.23343 153.812 5.21957C153.888 5.21755 153.91 5.14114 154.619 5.13581C157.304 5.11616 161.213 5.0836 163.771 5.07445C164.505 5.07174 165.052 5.1211 166.078 5.11823C168.153 5.11186 179.768 5.03942 180.742 5.06631C180.843 5.06909 179.804 5.18503 181.46 5.17629C181.941 5.12787 182.422 5.07946 182.903 5.03105C183.709 5.10352 184.514 5.17602 185.32 5.24854C185.29 4.98933 190.035 4.93483 189.989 5.20014C190.509 5.20933 191.031 5.21853 191.544 5.22776C192.617 5.04146 193.332 5.10696 195.409 4.99348C195.733 5.04871 196.057 5.10395 196.381 5.15919C196.463 5.12153 196.544 5.08387 196.626 5.04621C197.735 5.24596 199.555 5.03731 199.776 5.0356C200.627 5.0288 201.266 5.07866 201.665 5.07595C203.156 5.06661 206.385 4.98729 208.129 5.01598C208.211 5.01747 208.131 5.10438 208.627 5.11388C209.522 5.13104 209.609 5.00386 210.804 5.15013C211.045 5.11212 211.286 5.07411 211.527 5.03611C211.783 5.05487 212.039 5.07364 212.295 5.09241C213.807 5.07895 215.314 5.0656 216.819 5.05236C215.45 5.20221 217.025 5.28068 218.515 5.16194C219.019 5.12168 218.571 5.03327 218.74 5.01937C218.969 5.0004 225.731 5.03213 226.179 5.08922C226.499 5.06045 226.819 5.03168 227.139 5.00292C227.301 5.05893 227.463 5.11494 227.625 5.17095C227.802 5.15092 227.979 5.1309 228.155 5.11088C229.916 5.2067 234.487 4.97134 235.316 4.98804C235.759 4.99691 235.361 5.23753 237.484 5.20967C237.557 5.14364 237.631 5.0776 237.704 5.01157C238.19 5.00138 238.676 4.99119 239.162 4.98102C240.074 4.98551 241.402 5.09783 241.444 5.1759C241.729 5.12861 242.014 5.08133 242.299 5.03406C243.064 5.18564 247.144 5.12609 248.785 5.02756C249.265 5.07305 249.745 5.11855 250.225 5.16406C250.869 5.10733 251.514 5.05062 252.158 4.99393C253.652 4.97547 252.074 5.07024 252.393 5.07766C253.066 5.09295 256.496 4.93232 256.27 5.12843C256.738 5.12848 257.206 5.12853 257.673 5.1286C257.914 5.0724 258.154 5.0162 258.394 4.96C259.2 5.15235 260.578 5.08294 263.44 5.15134C263.679 5.10674 263.919 5.06215 264.159 5.01755C265.042 5.08011 265.926 5.1427 266.809 5.20534C266.99 5.13167 267.171 5.058 267.353 4.98433C267.737 4.97354 268.121 4.96275 268.505 4.95197C269.285 5.11635 270.685 4.93762 271.397 5.0053C272.437 5.10408 271.633 5.22255 269.703 5.24628C269.848 5.3661 275.596 5.3088 276.918 5.29992C276.831 5.27651 276.743 5.25309 276.656 5.22967C275.302 5.24853 273.947 5.26749 272.592 5.28656C271.457 4.98515 275.137 5.06473 276.823 5.02554C276.977 5.02178 277.852 4.90721 279.551 4.91765C280.209 4.92177 282.773 5.08878 283.262 5.09812C287.211 5.17469 284.306 4.93555 288.194 5.14555C287.383 4.98505 289.619 5.11866 291.943 5.08849C292.339 5.08327 295.69 4.95474 295.916 4.95153C297.325 4.93142 295.791 5.0723 297.83 5.03655C298.075 4.99942 298.32 4.9623 298.565 4.92518C299.039 4.92547 299.513 4.92577 299.987 4.92609C302.863 5.26022 303.529 5.01628 304.55 4.98572C304.962 4.9734 304.432 5.05959 305.5 5.04222C305.902 5.03577 306.348 4.96406 307.429 4.96004C310.825 4.94769 312.005 5.2577 315.138 4.94051C315.62 4.98768 316.101 5.03487 316.581 5.08208C316.906 5.0267 317.231 4.97132 317.555 4.91595C320.035 5.0815 319.139 4.91433 320.034 4.91763C322.399 4.92614 327.215 4.96643 327.634 5.10088C329.664 4.79781 332.077 5.1489 332.901 5.13869C333.383 5.10244 333.864 5.0662 334.345 5.02998C334.911 5.06864 335.476 5.10733 336.04 5.14604C335.767 4.84407 338.689 5.14713 338.968 5.15238C339.293 5.15756 343.774 5.07962 345.432 5.08595C347.092 5.0921 349.973 5.18215 350.226 5.1831C350.528 5.18398 353.293 5.11038 355.544 5.11861C357.521 5.1249 369.009 5.28395 368.274 5.14747C367.527 5.1073 366.461 5.0709 365.538 5.04991C362.656 4.98335 345.822 4.86078 341.534 4.83059C332.843 4.76602 323.931 4.75717 315.236 4.71652C314.725 4.71416 314.647 4.63597 314.208 4.63366C313.542 4.63054 311.85 4.70668 311.192 4.70425C308.72 4.69465 305.775 4.67915 304.469 4.67609C301.555 4.66968 299.552 4.62133 297.34 4.61245C296.648 4.60977 293.144 4.70482 290.737 4.6633C290.301 4.6412 289.865 4.6191 289.428 4.59702C290.669 4.57164 293.919 4.50645 295.425 4.49963C297.668 4.48977 298.835 4.5539 299.661 4.55333C300.353 4.55288 303.885 4.48335 305.49 4.48314C305.988 4.48303 306.09 4.56502 306.516 4.56514C308.809 4.56528 311.918 4.56653 313.934 4.48878C313.109 4.51386 318.261 4.57091 318.528 4.57117C318.99 4.57182 319.492 4.49591 320.435 4.49736C322.246 4.50023 322.017 4.66012 324.277 4.5036C324.836 4.55126 325.395 4.59895 325.953 4.64666C325.993 4.43295 333.025 4.73692 335.085 4.4823C335.113 4.4526 325.931 4.35102 325.178 4.34598C320.636 4.31219 313.874 4.35516 309.417 4.31316C308.071 4.30036 303.918 4.1668 303.598 4.16903C303.09 4.17228 303.549 4.24691 303.329 4.24938C298.835 4.30116 301.077 4.15368 300.479 4.11004ZM499.065 6.73556C497.684 6.70095 496.29 6.66675 494.882 6.63295C494.985 6.5879 495.088 6.54285 495.191 6.4978C495.835 6.52751 496.476 6.55731 497.114 6.58719C497.605 6.56816 498.095 6.54918 498.582 6.53025C498.743 6.59868 498.904 6.66712 499.065 6.73556ZM502.442 6.60379C503.619 6.6032 503.671 6.70325 503.941 6.71342C504.745 6.74408 505.437 6.71809 506.209 6.73528C505.318 6.95176 503.41 6.80593 502.442 6.60379ZM477.845 6.10471C478.12 6.11993 479.949 6.39927 482.003 6.19539C483.537 6.29347 485.056 6.39197 486.562 6.49089C484.01 6.33543 480.391 6.39934 479.095 6.37595C478.605 6.36701 478.512 6.28806 478.119 6.28107C475.8 6.24104 473.754 6.38865 473.525 6.12844C475.531 6.23081 477.499 6.08585 477.845 6.10471ZM491.183 6.40561C491.527 6.46515 491.869 6.52472 492.211 6.58431C490.973 6.56303 489.725 6.54205 488.467 6.52137C488.808 6.47261 489.149 6.42388 489.488 6.37516C490.055 6.38525 490.62 6.3954 491.183 6.40561ZM392.82 5.22064C393.603 5.22562 394.383 5.23066 395.163 5.23575C395.121 5.19636 394.228 5.19145 393.899 5.16317C393.9 5.16318 393.902 5.16319 393.903 5.1632C393.537 5.13127 393.694 5.08174 393.027 5.05577C392.958 5.11072 392.889 5.16568 392.82 5.22064ZM66.3102 5.44184C64.9975 5.44668 52.8519 5.52468 53.8426 5.66132C54.3631 5.72914 58.6478 5.63909 59.8105 5.63284C61.4396 5.62377 65.891 5.75013 66.3102 5.44184ZM44.6807 5.5552C44.4576 5.69881 52.0936 5.67004 52.8641 5.64042C52.7038 5.62119 52.4568 5.57767 52.2437 5.56884C51.1979 5.52664 46.3073 5.58289 44.6807 5.5552ZM348.632 4.62668C349.244 4.70039 349.855 4.77412 350.466 4.84789C350.305 4.75382 350.145 4.65976 349.984 4.5657C349.534 4.58601 349.083 4.60634 348.632 4.62668ZM288.932 4.64036C278.672 4.6334 268.438 4.63249 258.176 4.63696C259.076 4.59727 259.977 4.55762 260.877 4.51801C269.734 4.52476 279.131 4.56124 287.662 4.50289C288.086 4.5487 288.509 4.59452 288.932 4.64036ZM474.93 5.64164C472.373 5.60439 470.212 5.64391 467.363 5.49772C470.079 5.42697 471.407 5.60875 473.996 5.48844C473.997 5.48846 473.999 5.48848 474 5.4885C474.311 5.53953 474.621 5.59058 474.93 5.64164ZM416.325 5.00786C417.114 4.94821 417.894 4.88857 418.687 4.82911C417.735 4.82195 416.797 4.815 415.848 4.80808C416.007 4.87467 416.166 4.94126 416.325 5.00786ZM199.506 4.39377C196.757 4.54383 189.762 4.30563 187.504 4.48451C187.359 4.49623 188.691 4.56464 186.539 4.71158C188.165 4.67784 189.314 4.64508 189.435 4.53433C189.919 4.57031 190.402 4.60631 190.886 4.64231C191.684 4.61163 192.478 4.58099 193.274 4.55037C193.188 4.66053 193.251 4.65448 194.474 4.57573C195.032 4.60197 195.59 4.62822 196.149 4.65449C196.385 4.60728 196.621 4.56007 196.858 4.51286C197.341 4.57661 197.825 4.64038 198.309 4.70415C200.194 4.62838 199.045 4.50537 199.506 4.39377ZM209.125 4.39589C208.673 4.37225 195.939 4.48471 201.726 4.68859C203.23 4.67761 204.735 4.66673 206.241 4.65594C204.992 4.29609 209.097 4.61044 209.435 4.61729C211.049 4.64883 213.107 4.55771 214.279 4.55952C215.285 4.56118 215.88 4.62497 216.586 4.62173C218.991 4.61072 222.794 4.60055 223.317 4.44934C221.445 4.44997 219.545 4.45233 217.6 4.46033C215.545 4.46879 213.734 4.33099 209.858 4.53473C208.899 4.51615 209.241 4.4018 209.125 4.39589ZM421.134 4.86293C421.041 5.01283 425.955 5.0158 425.981 4.95665C425.991 4.92177 424.397 4.90967 424.168 4.89462C424.166 4.89461 424.165 4.8946 424.163 4.89459C424.068 4.88804 424.552 4.83415 423.801 4.8121C422.914 4.82896 422.025 4.8459 421.134 4.86293ZM85.3198 4.99065C84.7209 4.9087 69.6315 5.02894 69.1914 5.07291C69.0712 5.08491 69.2391 5.12101 69.1918 5.14273C72.6676 5.00181 77.8266 5.11225 81.0537 5.10276C81.9692 5.09993 81.6955 5.04156 81.7473 5.04012C81.7494 5.04011 81.7516 5.0401 81.7538 5.04008C82.2726 5.03689 84.6264 5.16979 85.3198 4.99065ZM182.685 4.56838C183.324 4.58995 183.964 4.61152 184.604 4.63312C184.766 4.5859 184.928 4.53868 185.09 4.49147C185.089 4.49147 185.087 4.49148 185.086 4.49148C184.285 4.51709 183.485 4.54272 182.685 4.56838ZM160.572 4.49172C160.728 4.524 160.884 4.55629 161.04 4.58858C162.652 4.58705 164.266 4.58562 165.882 4.58429C165.72 4.60343 165.557 4.62258 165.394 4.64173C167.845 4.68238 168.836 4.56335 170.125 4.57541C170.124 4.57542 170.122 4.57542 170.121 4.57543C170.26 4.57687 170.427 4.64478 170.943 4.64529C172.125 4.64644 175.52 4.66032 175.931 4.59004C176.798 4.43994 169.966 4.53318 168.699 4.53116C168.126 4.5301 167.433 4.47265 167.078 4.47253C166.69 4.47262 166.163 4.55547 165.22 4.55643C164.944 4.55657 161.889 4.47264 160.572 4.49172ZM132.2 4.70793C132.695 4.7798 133.729 4.70355 134.109 4.71397C134.2 4.71642 133.494 4.78163 134.35 4.79638C134.593 4.75298 134.835 4.70958 135.077 4.66619C134.117 4.68007 133.158 4.69398 132.2 4.70793ZM429.36 4.85834C429.223 4.84119 426.609 4.82518 426.481 4.83429C424.913 4.95652 430.33 4.98696 429.36 4.85834ZM495.172 5.52664C494.067 5.30574 508.206 5.76856 509.552 5.7939C509.409 5.91411 506.147 5.72159 507.856 5.92698C506.243 5.79909 501.628 5.75715 500.511 5.70949C499.842 5.6804 499.673 5.57052 499.572 5.56522C499.181 5.54546 495.613 5.60345 495.172 5.52664ZM521.348 6.1524C520.043 6.09595 518.721 6.04002 517.38 5.98457C518.963 6.00835 520.521 6.03283 522.054 6.05801C521.819 6.08946 521.584 6.12092 521.348 6.1524ZM522.981 6.13806C522.932 6.016 527.724 6.23528 528.911 6.24289C527.54 6.40756 525.205 6.151 522.981 6.13806ZM446.679 4.71125C444.552 4.61032 443.629 4.9662 446.223 4.83354C446.302 4.82908 446.768 4.71636 446.679 4.71125ZM198.851 3.88189C198.49 3.88055 194.01 3.77474 193.752 3.83417C192.933 4.02351 195.87 3.94009 196.856 4.00799C198.447 4.11802 196.108 4.21867 199.99 4.13905C199.831 4.17691 199.673 4.21477 199.514 4.25264C201.787 4.2589 201.043 4.00162 201.451 3.96717C201.575 3.9567 202.997 3.97476 203.254 3.95755C206.46 3.74028 199.184 3.88255 198.851 3.88189ZM394.223 4.27585C390.045 4.14278 391.848 4.31376 387.534 4.28122C387.396 4.3625 393.687 4.34462 394.223 4.27585ZM239.896 3.94284C235.536 3.98174 231.949 3.8802 227.884 4.03231C228.148 4.25382 241.028 3.99812 239.896 3.94284ZM35.1012 4.60967C51.9086 4.88648 71.726 4.62981 89.6399 4.52324C91.6093 4.51161 91.8011 4.59884 92.5157 4.58529C92.9842 4.57648 92.9018 4.50584 93.5251 4.50206C115.885 4.36703 137.478 4.17349 158.853 4.13402C160.202 4.13151 166.819 4.25964 168.223 4.02457C169.294 3.84606 164.545 3.99936 163.753 4.00081C163.159 4.00189 163.133 3.91991 162.737 3.92109C162.317 3.92238 162.664 3.97716 162.176 3.97983C160.109 3.9915 157.859 3.97822 155.998 3.99029C137.83 4.10729 119.903 4.1771 101.855 4.26503C99.6831 4.27574 100.128 4.20764 100.018 4.20794C100.016 4.20811 100.015 4.20828 100.013 4.20845C88.0707 4.26612 74.6931 4.49154 62.2287 4.5144C53.5146 4.52443 44.5784 4.53902 35.8789 4.55534C35.6194 4.57345 35.3602 4.59156 35.1012 4.60967ZM208.16 4.08966C207.062 3.84442 206.815 4.0949 202.879 4.00394C202.559 4.04709 202.239 4.09025 201.919 4.13341C204 4.11864 206.083 4.10405 208.167 4.08964C208.165 4.08965 208.162 4.08965 208.16 4.08966ZM182.16 4.073C181.489 3.74 172.694 4.00577 168.759 3.95625C168.036 4.12696 173.769 4.0312 175.127 4.04443C175.804 4.05085 179.432 4.21166 182.197 4.10706C182.185 4.09571 182.172 4.08436 182.16 4.073ZM480.315 4.79187C479.664 4.79191 479.011 4.79203 478.355 4.79222C479.995 4.85328 481.62 4.91481 483.229 4.9768C480.669 4.91329 478.027 4.85036 475.434 4.7898C475.881 4.72661 476.402 4.66453 476.887 4.60199C478.037 4.66506 479.18 4.72836 480.315 4.79187ZM472.003 4.70904C476.389 4.74319 471.816 4.86602 470.708 4.76871C470.048 4.71027 471.555 4.70572 472.003 4.70904ZM460.338 4.44075C462.478 4.34391 466.717 4.38905 465.206 4.61373C462.936 4.47114 461.466 4.54774 458.111 4.44281C458.602 4.40182 459.092 4.36086 459.581 4.31993C459.584 4.31996 459.586 4.31999 459.588 4.32001C459.838 4.36025 460.088 4.40049 460.338 4.44075ZM474.009 4.58914C476.879 4.76864 468.554 4.60671 471.175 4.55036C471.301 4.54771 473.899 4.58213 474.009 4.58914ZM53.8332 4.22976C53.4753 4.31173 55.7611 4.29525 56.5265 4.29565C59.8219 4.29788 63.8643 4.23753 67.2607 4.22744C67.0063 4.20282 66.7521 4.1782 66.498 4.15358C62.2574 4.17838 58.1972 4.20272 53.8332 4.22976ZM77.9189 4.16323C80.2549 4.14938 82.5154 4.13618 84.832 4.12286C85.0469 4.12162 86.0566 4.0475 85.3055 4.03518C82.8294 4.07771 80.411 4.12014 77.9189 4.16323ZM222.832 3.57925C221.051 3.53823 226.179 3.29941 225.949 3.54478C224.91 3.55622 223.871 3.56771 222.832 3.57925ZM239.414 3.45237C238.296 3.47732 237.178 3.50233 236.06 3.5274C236.059 3.49925 236.057 3.47109 236.056 3.44294C237.175 3.44602 238.295 3.44916 239.414 3.45237ZM44.6717 4.23496C45.8455 4.32328 48.6629 4.2894 50.4355 4.27959C49.2135 4.20492 46.3221 4.26508 44.6717 4.23496ZM196.137 3.54518C196.279 3.61028 189.215 3.61429 191.66 3.49162C193.151 3.50938 194.643 3.52723 196.137 3.54518ZM181.729 3.49139C183.251 3.47214 184.431 3.49101 184.118 3.59512C183.31 3.59327 182.503 3.59144 181.696 3.58964C181.707 3.55689 181.718 3.52414 181.729 3.49139ZM452.429 4.15404C449.895 4.1356 447.336 4.11803 444.751 4.10131C444.847 4.07412 444.943 4.04693 445.04 4.01974C447.529 4.03575 449.996 4.05255 452.438 4.07016C452.435 4.09812 452.432 4.12608 452.429 4.15404ZM43.2339 3.99188C41.493 4.02222 39.7624 4.05262 38.0425 4.08307C39.7641 4.08988 41.4964 4.09674 43.2391 4.10366C43.2388 4.06622 43.2386 4.02879 43.2383 3.99136C43.2368 3.99153 43.2354 3.9917 43.2339 3.99188ZM487.545 4.25947C479.765 4.00418 489.724 4.0228 491.681 4.25124C491.683 4.25111 491.686 4.25099 491.688 4.25086C491.863 4.27091 491.491 4.34704 491.782 4.3853C491.01 4.33483 490.234 4.28447 489.455 4.23423C488.742 4.26878 488.027 4.30342 487.308 4.33816C487.071 4.3161 486.835 4.29405 486.598 4.27201C486.914 4.26781 487.23 4.26364 487.545 4.25947ZM519.135 4.81621C525.999 5.00402 519.038 5.03172 515.487 4.78785C515.519 4.75058 518.503 4.79889 519.135 4.81621ZM500.56 4.45973C499.439 4.45711 498.31 4.45476 497.171 4.45268C497.026 4.42643 496.88 4.40019 496.735 4.37394C497.611 4.36642 498.482 4.35905 499.348 4.35185C499.753 4.38777 500.157 4.42374 500.56 4.45973ZM463.759 3.52822C461.936 3.47998 459.622 3.71341 465.452 3.71689C465.45 3.6887 465.447 3.66051 465.445 3.63232C465.213 3.63389 464.533 3.65177 464.495 3.64921C464.389 3.64083 464.516 3.54837 463.759 3.52822ZM532.312 4.43147C532.507 4.4268 532.639 4.13276 534.651 4.50277C535.27 4.50345 535.833 4.5026 536.493 4.50522C536.665 4.57627 536.838 4.64733 537.009 4.7184C534.51 4.58663 534.361 4.7159 534.165 4.71231C533.376 4.70029 533.962 4.65027 533.452 4.63364C532.144 4.59059 529.054 4.54676 530.458 4.39317C530.965 4.33821 532.115 4.43618 532.312 4.43147ZM527.51 4.12363C527.814 4.15685 526.83 4.21651 527.059 4.24743C527.27 4.27415 530.257 4.44768 529.443 4.57142C528.955 4.55123 528.463 4.53112 527.969 4.51109C527.803 4.46622 527.636 4.42135 527.469 4.37649C526.987 4.40023 526.502 4.42405 526.015 4.44794C525.2 4.32651 523.44 4.15121 525.53 4.12613C524.765 4.114 523.994 4.10206 523.216 4.0903C522.837 4.12797 522.48 4.16632 522.11 4.2044C522.304 4.13691 522.498 4.06943 522.691 4.00197C524.24 4.03944 525.934 4.08224 527.51 4.12363ZM550.376 4.93766C550.281 4.97101 550.185 5.00437 550.089 5.03774C552.971 5.08889 556.984 5.26273 554.666 5.3842C551.104 5.23168 547.068 5.08547 543.647 4.97835C543.408 4.94131 543.168 4.90429 542.927 4.8673C545.617 5.07581 544.81 4.58337 547.071 4.80487C547.26 4.82366 547.078 4.8624 547.147 4.89542C547.239 4.92958 547.448 4.95173 548.847 4.95794C548.753 4.91638 548.658 4.87484 548.564 4.83329C549.176 4.86788 549.78 4.90266 550.376 4.93766ZM573.749 6.52617C572.291 6.35073 572.009 6.31163 571.82 6.27294C571.676 6.2403 571.891 6.24202 572.249 6.26448C572.528 6.27866 573.303 6.35081 573.883 6.42009C574.481 6.49063 574.979 6.567 575.194 6.62374C575.193 6.62355 575.191 6.62335 575.19 6.62315C576.332 6.93518 575.695 6.88248 574.634 6.7514C574.098 6.68596 573.431 6.60157 572.852 6.53183C572.518 6.49233 572.416 6.47768 572.253 6.45791C572.109 6.44015 572.008 6.42808 571.974 6.42492C571.591 6.39178 570.78 6.52768 568.48 6.01686C569.407 6.093 570.283 6.17051 571.108 6.24946C571.953 6.33099 572.618 6.39715 573.749 6.52617ZM558.434 5.32476C558.86 5.34033 558.621 5.38409 558.804 5.39314C558.806 5.39323 558.807 5.39332 558.809 5.3934C561.697 5.5289 566.898 5.82701 567.944 6.10103C566.795 6.01839 564.539 5.87038 562.189 5.72483C559.866 5.57877 557.317 5.42663 557.24 5.36059C557.424 5.35365 557.607 5.34675 557.789 5.33986C557.99 5.33399 558.221 5.32976 558.434 5.32476ZM541.076 4.71184C539.534 4.53936 543.017 4.64633 543.88 4.73442C544.045 4.7525 542.674 4.8905 541.076 4.71184ZM424.068 2.39821C420.676 2.44231 425.131 2.54854 423.588 2.64732C424.235 2.64303 424.881 2.63878 425.526 2.63458C425.041 2.55577 424.555 2.47698 424.068 2.39821ZM271.146 1.69349C270.364 1.68071 270.735 1.74834 270.667 1.74937C270.153 1.7477 269.668 1.69272 269.471 1.69865C265.824 1.81201 268.249 1.86768 268.286 1.88089C268.363 1.94791 267.405 2.02688 268.733 2.10282C269.539 2.07864 270.345 2.0545 271.151 2.0304C271.551 2.0675 271.95 2.10461 272.35 2.14172C273.95 2.06117 271.857 2.04 271.619 1.93401C271.528 1.89234 273.033 1.8418 271.146 1.69349ZM417.989 2.12662C417.455 2.24041 416.141 2.37934 417.429 2.50721C417.43 2.50722 417.432 2.50723 417.433 2.50724C417.675 2.53068 418.626 2.5497 418.949 2.58256C421.157 2.44243 420.285 2.27345 417.989 2.12662ZM285.572 1.48021C286.876 1.50786 288.18 1.5356 289.482 1.56344C289.46 1.63407 289.438 1.7047 289.416 1.77533C288.719 1.75611 288.021 1.73692 287.324 1.71776C287.079 1.74994 286.834 1.78213 286.59 1.81432C287.456 1.89501 288.322 1.97574 289.187 2.05651C290.23 2.02861 291.272 2.00077 292.313 1.97299C291.835 1.93555 291.356 1.89812 290.877 1.8607C293.423 1.82041 292.869 1.99198 294.974 2.05858C295.694 1.99349 296.414 1.92843 297.134 1.8634C298.176 1.92973 299.218 1.99613 300.258 2.06259C302.006 2.03309 302.159 1.98316 300.983 1.90734C301.852 1.82229 302.803 1.95775 303.849 1.9237C303.935 1.92096 303.772 1.84014 303.849 1.83923C309.246 1.78954 308.965 2.00158 309.835 2.01143C310.451 2.01824 312.903 1.87812 312.941 1.82944C312.988 1.76387 307.895 1.49841 315.871 1.50164C311.753 1.31685 307.046 1.49468 310.087 1.76073C308.755 1.73263 303.075 1.79311 302.702 1.78509C302.17 1.77277 302.357 1.67317 301.691 1.67007C301.297 1.6684 300.256 1.89548 297.134 1.69446C296.735 1.73167 296.336 1.76889 295.937 1.80612C295.563 1.77517 295.189 1.74423 294.815 1.7133C295.585 1.60396 296.356 1.49465 297.125 1.38538C294.076 1.50288 291.54 1.27811 289.677 1.46632C288.066 1.44395 287.283 1.42213 287.975 1.3258C287.492 1.3257 287.007 1.32562 286.523 1.32555C286.206 1.3771 285.889 1.42865 285.572 1.48021ZM408.219 2.22608C406.623 2.10594 406.044 2.33854 406.294 2.35352C407.698 2.43619 409.049 2.28862 408.219 2.22608ZM274.044 1.81789C275.804 1.8782 277.563 1.93867 279.321 1.99932C279.321 1.92461 279.321 1.84991 279.321 1.7752C277.563 1.78926 275.804 1.80349 274.044 1.81789ZM424.564 2.23422C424.727 2.29152 424.889 2.34882 425.052 2.40613C426.998 2.21733 428.91 2.52687 429.861 2.4744C430.067 2.46293 429.652 2.36051 429.258 2.33598C429.018 2.3205 424.913 2.21795 424.564 2.23422ZM504.875 3.30721C504.17 3.33063 503.461 3.35416 502.748 3.37781C502.789 3.31561 502.83 3.2534 502.87 3.1912C503.222 3.18638 503.573 3.18158 503.922 3.17681C504.241 3.22025 504.558 3.26372 504.875 3.30721ZM496.692 3.25095C495.387 3.2222 494.055 3.19357 492.739 3.16578C497.777 3.19646 493.651 3.09537 496.696 3.06788C496.695 3.1289 496.694 3.18992 496.692 3.25095ZM483.754 2.90612C483.912 2.87099 484.071 2.83586 484.229 2.80073C485.512 2.82079 486.786 2.84114 488.049 2.86179C487.252 2.71822 486.451 2.57476 485.646 2.43143C485.179 2.42367 484.71 2.41596 484.24 2.40828C484.078 2.57422 483.916 2.74017 483.754 2.90612ZM236.519 1.44812C235.744 1.44706 233.047 1.56563 233.163 1.60745C234.283 1.65714 235.403 1.70689 236.524 1.75669C236.529 1.68182 236.534 1.60694 236.539 1.53207C236.697 1.56909 236.856 1.60611 237.014 1.64313C237.651 1.61413 238.288 1.58515 238.925 1.55619C239.246 1.62113 239.567 1.68607 239.889 1.75102C240.211 1.67584 240.533 1.60066 240.856 1.52549C237.78 1.39757 237.886 1.52991 237.246 1.52948C236.921 1.52936 236.716 1.48333 236.601 1.46019C236.573 1.45617 236.546 1.45214 236.519 1.44812ZM275.26 1.34098C271.591 1.32345 269.491 1.52161 266.831 1.35827C268.54 1.70789 279.54 1.34131 283.401 1.63485C283.802 1.57855 284.204 1.52226 284.605 1.46597C282.501 1.51598 281.041 1.40011 280.013 1.38353C279.197 1.37038 279.282 1.42939 279.22 1.42855C279.217 1.42855 279.214 1.42855 279.211 1.42855C277.299 1.40459 276.707 1.34793 275.26 1.34098ZM427.309 1.98125C426.321 1.88404 424.582 1.87888 424.561 2.00861C425.53 2.054 426.496 2.09949 427.458 2.14509C427.261 2.1102 427.478 1.99787 427.309 1.98125ZM482.26 2.52028C481.485 2.46609 479.635 2.47552 480.431 2.59958C480.575 2.62158 482.41 2.5705 481.332 2.75669C483.116 2.78065 482.7 2.55135 482.26 2.52028ZM338.001 1.66824C338.652 1.66603 339.302 1.66385 339.951 1.6617C340.102 1.60966 340.254 1.55763 340.405 1.50559C339.605 1.55976 338.803 1.61398 338.001 1.66824ZM435.586 1.96331C436.446 2.22762 437.837 1.99077 439.496 2.21741C440.107 2.22483 440.715 2.2323 441.323 2.23981C441.325 2.23982 441.326 2.23984 441.328 2.23985C441.345 2.17003 441.362 2.10021 441.379 2.03039C439.395 2.00693 437.478 1.98475 435.586 1.96331ZM297.607 1.4838C298.005 1.51658 298.404 1.54937 298.803 1.58217C299.512 1.54468 300.222 1.50723 300.931 1.46981C300.547 1.44236 300.164 1.41492 299.78 1.38749C299.056 1.41956 298.332 1.45166 297.607 1.4838ZM446.136 2.04304C444.033 1.98957 443.238 2.20459 445.93 2.23234C447.062 2.2439 448.332 2.09918 446.136 2.04304ZM196.625 1.61906C197.339 1.6361 198.053 1.65317 198.768 1.67026C199.011 1.62272 199.255 1.57519 199.498 1.52766C198.54 1.55808 197.582 1.58855 196.625 1.61906ZM492.055 2.70423C491.973 2.7497 491.891 2.79518 491.808 2.84065C491.189 2.82063 490.568 2.80068 489.944 2.7808C490.101 2.73688 490.259 2.69297 490.417 2.64907C490.965 2.6674 491.511 2.68578 492.055 2.70423ZM201.433 1.63476C202.005 1.6422 202.577 1.64964 203.149 1.65711C203.533 1.63332 203.917 1.60954 204.302 1.58576C203.766 1.56452 203.231 1.54328 202.696 1.52206C202.275 1.55962 201.854 1.59719 201.433 1.63476ZM465.945 2.29044C465.143 2.22376 461.899 2.35915 464.815 2.44026C466.667 2.49205 466.065 2.30058 465.945 2.29044ZM470.26 2.29042C467.222 2.14311 469.514 2.71734 473.101 2.41336C469.489 2.41252 470.435 2.29938 470.26 2.29042ZM497.183 2.42968C497.261 2.4314 497.325 2.5109 497.949 2.5253C500.2 2.57672 503.106 2.66408 504.655 2.70015C508.108 2.77456 520.345 2.91416 521.436 3.17476C521.709 3.2293 521.075 3.35562 521.186 3.36577C521.516 3.39435 523.384 3.37336 523.036 3.46922C521.211 3.4211 519.349 3.374 517.452 3.3279C517.92 3.26515 518.385 3.20246 518.848 3.13983C514.13 3.06611 515.673 3.09953 514.296 3.22832C513.481 3.14736 512.66 3.06658 511.832 2.98596C510.022 3.00867 508.184 3.03236 506.522 3.06088C506.91 3.02214 507.297 2.98342 507.682 2.94475C505.121 2.80518 505.829 2.87673 504.409 2.96138C504.407 2.91462 504.405 2.86786 504.403 2.8211C501.886 2.88487 501.378 2.73573 500.823 2.72328C499.669 2.69884 498.225 3.22275 493.724 2.59349C491.815 2.82477 491.95 2.28915 490.873 2.54444C487.85 2.19589 493.557 2.3986 496.54 2.46341C496.541 2.46343 496.543 2.46346 496.544 2.46349C496.76 2.46826 496.419 2.41187 497.183 2.42968ZM481.166 2.43776C483.096 2.22343 475.489 2.08838 478.004 2.47589C478.381 2.49276 478.757 2.50966 479.132 2.52657C479.814 2.49691 480.494 2.46733 481.171 2.43783C481.169 2.4378 481.168 2.43778 481.166 2.43776ZM411.099 1.54347C404.206 1.59666 408.128 1.76265 410.461 1.64211C410.926 1.61824 411.18 1.58291 411.099 1.54347ZM270.015 1.15642C269.914 1.1856 269.813 1.21478 269.712 1.24396C272.03 1.21548 276.505 1.3266 276.443 1.13024C274.302 1.13871 272.159 1.14744 270.015 1.15642ZM288.323 1.02559C287.825 1.01361 285.785 0.985344 286.031 1.05889C286.915 1.11108 287.799 1.16332 288.682 1.2156C289.094 1.18314 289.505 1.15069 289.916 1.11825C289.342 1.10702 288.459 1.02871 288.323 1.02559Z" fill="#FF6900"/>
</svg>
