<svg width="19" height="19" viewBox="0 0 19 19" fill="none" xmlns="http://www.w3.org/2000/svg">
<g clip-path="url(#clip0_29_361)">
<path d="M9.125 10.7502L6.875 8.50019M9.125 10.7502C10.1726 10.3517 11.1777 9.84923 12.125 9.25019M9.125 10.7502V14.5002C9.125 14.5002 11.3975 14.0877 12.125 13.0002C12.935 11.7852 12.125 9.25019 12.125 9.25019M6.875 8.50019C7.27411 7.46476 7.77665 6.47223 8.375 5.53769C9.24889 4.14043 10.4657 2.98997 11.9098 2.19575C13.3538 1.40154 14.977 0.989964 16.625 1.00019C16.625 3.04019 16.04 6.62519 12.125 9.25019M6.875 8.50019H3.125C3.125 8.50019 3.5375 6.22769 4.625 5.50019C5.84 4.69019 8.375 5.50019 8.375 5.50019M3.5 11.8752C2.375 12.8202 2 15.6252 2 15.6252C2 15.6252 4.805 15.2502 5.75 14.1252C6.2825 13.4952 6.275 12.5277 5.6825 11.9427C5.39098 11.6644 5.00697 11.5037 4.60417 11.4912C4.20137 11.4787 3.80816 11.6155 3.5 11.8752Z" stroke="url(#paint0_linear_29_361)" stroke-width="1.5" stroke-linecap="round" stroke-linejoin="round"/>
</g>
<defs>
<linearGradient id="paint0_linear_29_361" x1="9.39655" y1="15.6252" x2="9.39655" y2="1" gradientUnits="userSpaceOnUse">
<stop stop-color="#9A3412"/>
<stop offset="1" stop-color="#FF6900"/>
</linearGradient>
<clipPath id="clip0_29_361">
<rect width="18" height="18" fill="white" transform="translate(0.0209961 0.5)"/>
</clipPath>
</defs>
</svg>
