<svg width="18" height="18" viewBox="0 0 18 18" fill="none" xmlns="http://www.w3.org/2000/svg">
<path d="M7.875 14.2499C9.36 14.2499 10.7325 13.7324 11.8125 12.8774L15 16.0649L16.0575 15.0074L12.87 11.8199C13.7575 10.6993 14.2411 9.31199 14.2425 7.88245C14.2425 4.36495 11.385 1.50745 7.8675 1.50745C4.35 1.50745 1.5 4.35745 1.5 7.87495C1.5 11.3924 4.3575 14.2499 7.875 14.2499ZM7.875 2.99995C10.56 2.99995 12.75 5.18995 12.75 7.87495C12.75 10.5599 10.56 12.7499 7.875 12.7499C5.19 12.7499 3 10.5599 3 7.87495C3 5.18995 5.19 2.99995 7.875 2.99995Z" fill="#4A5565"/>
</svg>
