<svg width="29" height="28" viewBox="0 0 29 28" fill="none" xmlns="http://www.w3.org/2000/svg">
<path d="M26.0003 24.5V22.1667C26.0003 19.9922 24.5131 18.1651 22.5003 17.647M18.417 3.83922C20.1272 4.5315 21.3337 6.2082 21.3337 8.16667C21.3337 10.1251 20.1272 11.8018 18.417 12.4941M20.167 24.5C20.167 22.3256 20.167 21.2384 19.8118 20.3808C19.3381 19.2373 18.4296 18.3289 17.2862 17.8552C16.4286 17.5 15.3414 17.5 13.167 17.5H9.66699C7.4926 17.5 6.4054 17.5 5.5478 17.8552C4.40434 18.3289 3.49586 19.2373 3.02222 20.3808C2.66699 21.2384 2.66699 22.3256 2.66699 24.5M16.0837 8.16667C16.0837 10.744 13.9943 12.8333 11.417 12.8333C8.83966 12.8333 6.75032 10.744 6.75032 8.16667C6.75032 5.58934 8.83966 3.5 11.417 3.5C13.9943 3.5 16.0837 5.58934 16.0837 8.16667Z" stroke="#4A5565" stroke-width="2" stroke-linecap="round" stroke-linejoin="round"/>
</svg>
