<svg width="18" height="19" viewBox="0 0 18 19" fill="none" xmlns="http://www.w3.org/2000/svg">
<path d="M15 16.0545C15 15.0078 15 14.4845 14.8708 14.0586C14.58 13.0998 13.8297 12.3495 12.8709 12.0587C12.445 11.9295 11.9217 11.9295 10.875 11.9295H7.125C6.07833 11.9295 5.55499 11.9295 5.12914 12.0587C4.17034 12.3495 3.42003 13.0998 3.12918 14.0586C3 14.4845 3 15.0078 3 16.0545M12.375 5.92947C12.375 7.79343 10.864 9.30447 9 9.30447C7.13604 9.30447 5.625 7.79343 5.625 5.92947C5.625 4.06551 7.13604 2.55447 9 2.55447C10.864 2.55447 12.375 4.06551 12.375 5.92947Z" stroke="white" stroke-width="1.5" stroke-linecap="round" stroke-linejoin="round"/>
</svg>
