<svg width="19" height="19" viewBox="0 0 19 19" fill="none" xmlns="http://www.w3.org/2000/svg">
<g clip-path="url(#clip0_1_4998)">
<path d="M8 9.5C8 9.89782 8.15804 10.2794 8.43934 10.5607C8.72064 10.842 9.10218 11 9.5 11C9.89782 11 10.2794 10.842 10.5607 10.5607C10.842 10.2794 11 9.89782 11 9.5C11 9.10218 10.842 8.72064 10.5607 8.43934C10.2794 8.15804 9.89782 8 9.5 8C9.10218 8 8.72064 8.15804 8.43934 8.43934C8.15804 8.72064 8 9.10218 8 9.5Z" stroke="#6A7282" stroke-width="1.25" stroke-linecap="round" stroke-linejoin="round"/>
<path d="M9.94775 13.9858C9.79869 13.9952 9.64936 14 9.5 14C6.8 14 4.55 12.5 2.75 9.5C4.55 6.5 6.8 5 9.5 5C12.2 5 14.45 6.5 16.25 9.5C16.0963 9.7565 15.9388 10.0025 15.7775 10.2372" stroke="#6A7282" stroke-width="1.25" stroke-linecap="round" stroke-linejoin="round"/>
<path d="M12.5 17L16.25 13.25" stroke="#6A7282" stroke-width="1.25" stroke-linecap="round" stroke-linejoin="round"/>
<path d="M16.25 16.625V13.25H12.875" stroke="#6A7282" stroke-width="1.25" stroke-linecap="round" stroke-linejoin="round"/>
</g>
<defs>
<clipPath id="clip0_1_4998">
<rect width="18" height="18" fill="white" transform="translate(0.5 0.5)"/>
</clipPath>
</defs>
</svg>
